<?xml version="1.0" standalone="no"?>
<!DOCTYPE svg PUBLIC "-//W3C//DTD SVG 1.1//EN" "http://www.w3.org/Graphics/SVG/1.1/DTD/svg11.dtd" >
<svg xmlns="http://www.w3.org/2000/svg" xmlns:xlink="http://www.w3.org/1999/xlink" version="1.1">
<metadata></metadata>
<defs>
<font id="mj_zhafira_demoregular" horiz-adv-x="1024" >
<font-face units-per-em="2048" ascent="1536" descent="-512" />
<missing-glyph horiz-adv-x="403" />
<glyph horiz-adv-x="0" />
<glyph unicode="&#xd;" horiz-adv-x="403" />
<glyph horiz-adv-x="0" />
<glyph horiz-adv-x="0" />
<glyph unicode=" "  horiz-adv-x="403" />
<glyph unicode="&#x09;" horiz-adv-x="403" />
<glyph unicode="&#xa0;" horiz-adv-x="403" />
<glyph unicode="!" horiz-adv-x="837" d="M139 102q20 59 54 97.5t65 42.5q29 4 50.5 -12.5t27.5 -57.5q4 -18 3 -45.5t-9 -60.5q-6 -31 -25.5 -46.5t-42.5 -19.5q-25 -4 -49.5 3t-42.5 22.5t-27.5 35t-3.5 41.5zM266 432q53 184 101.5 354t88.5 304.5t67.5 223t37.5 111.5q18 39 57 51.5t79 0t70 -45t32 -81.5 q4 -53 -29 -123q-18 -43 -48 -116t-65.5 -161t-74.5 -182t-76 -178t-67.5 -149.5t-49.5 -94.5q-10 -16 -32.5 -16t-45 12t-37 35.5t-8.5 54.5z" />
<glyph unicode="&#x22;" horiz-adv-x="839" d="M287 1362q4 29 8 51.5t14 65.5l13 59q4 20 22 30.5t41 12.5t47.5 -4t40.5 -21q41 -30 25 -77q-25 -80 -61 -127t-44 -56q-16 -16 -39.5 -17t-42.5 15q-12 12 -20 28.5t-4 39.5zM508 1362q4 29 8 51.5t14 65.5l13 59q4 20 22.5 30.5t41 12.5t47 -4t40.5 -21q41 -30 25 -77 q-25 -80 -60.5 -127t-44.5 -56q-16 -16 -39.5 -17t-42.5 15q-12 12 -20 28.5t-4 39.5z" />
<glyph unicode="#" horiz-adv-x="1236" d="M59.5 437q-6.5 40 0 74t24.5 34q10 0 42 1t77 5l125 2l28 84q-31 -2 -56.5 -2h-45.5q-18 0 -32.5 1t-20.5 1q-31 4 -48.5 38t-22.5 73.5t1 72.5t23 35l278 12q18 57 36.5 109.5t33.5 93.5q27 76 30 100q6 20 34 16.5t57.5 -24t50 -52.5t14.5 -67v-2q-4 -18 -16.5 -61 t-30.5 -102h33.5t36.5 2l73 219q0 10 5.5 22.5t7.5 22.5q8 18 35.5 14t56.5 -24.5t48 -51t13 -65.5l-13 -52t-24 -83h84q25 0 46.5 -14.5t38 -36t26.5 -47t10 -46.5q0 -37 -18.5 -59.5t-65.5 -20.5q-10 2 -62 0t-128 -6l-29 -80l-2 -6h55.5t49.5 -2t44 -16t38.5 -35.5 t27.5 -47.5t10 -48q0 -35 -18.5 -57.5t-63.5 -20.5q-2 0 -52 -1t-109 -3q-18 0 -26.5 -1t-29.5 -1q-35 -100 -57.5 -175t-26.5 -87q-18 -72 -63 -72q-18 0 -37.5 18.5t-34 48t-20.5 63.5t0 65l7 31.5t7 28.5t9 32.5t14 44.5h-37t-39 -2q-35 -98 -54.5 -162t-23.5 -76 q-8 -39 -25.5 -57.5t-35.5 -18.5t-39 18.5t-36.5 48.5t-21.5 64.5t0 65.5q10 31 14.5 49.5t18.5 61.5q-16 0 -27.5 -1t-25.5 -1q-53 0 -74 4q-31 4 -48 37.5t-23.5 73.5zM537 561h33.5t35.5 2l29 80h-25h-47q-10 -25 -13 -37t-13 -45z" />
<glyph unicode="$" horiz-adv-x="858" d="M-41 245.5q-6 55.5 21 102.5q8 14 31.5 22.5t51 9.5t51 -3t33.5 -12q8 -10 7.5 -16.5t-8 -16.5t-16.5 -29.5t-15 -52.5q0 -6 3 -26.5t12 -43t24.5 -45t38.5 -33.5l81 367q-35 27 -68.5 56.5t-60 65.5t-45 82t-22.5 107q-4 57 7 112.5t41 102.5t78 84t120 58q25 6 49 10 t47 6q12 72 22 96q8 18 24.5 25.5t39.5 11.5q37 0 69.5 -19.5t24.5 -45.5l-20 -86q39 -12 76.5 -32t67.5 -50.5t48.5 -72.5t18.5 -99q0 -51 -37 -86t-105 -23q-31 6 -42 15.5t-12 21.5t3 24.5t8 24.5q2 6 4 29.5t-2 51.5t-17 52.5t-40 30.5l-105 -424q31 -29 62 -57.5 t54.5 -61.5t38.5 -69.5t17 -79.5q2 -31 -4 -65t-22 -68v2q-20 -49 -53 -85t-73 -61.5t-85 -40t-88 -16.5l-25 -82q-12 -35 -55 -35q-31 -4 -51.5 11.5t-9.5 56.5q4 10 7 24.5t9 36.5q-53 10 -99 47t-75 86t-35 104.5zM272 846q2 -35 17.5 -68t38.5 -61q18 94 30.5 149.5 t19.5 89t10 52t7 36.5q-41 -16 -71.5 -55t-44.5 -80q-4 -16 -5.5 -31.5t-1.5 -31.5zM317 94q47 16 84 52.5t33 91.5q-4 35 -16 67.5t-29 54.5q-16 -57 -30.5 -111t-26.5 -104v2q-2 -10 -4 -15t-3 -10t-3.5 -10.5t-4.5 -17.5z" />
<glyph unicode="%" horiz-adv-x="1126" d="M170 680q-4 66 15.5 141.5t55 141t84 109.5t103.5 48q12 0 24.5 -1t28.5 -7q39 -16 64.5 -57t29.5 -107q4 -18 3 -39.5t-5 -48.5q-8 -53 -29.5 -113.5t-53 -111.5t-72.5 -86t-90 -37q-18 -2 -36 0t-36 12q-41 18 -62.5 59.5t-23.5 96.5zM280.5 -38q-22.5 17 2.5 54 q14 27 50 107t81 188.5t95 232.5t95 234q27 68 52.5 129.5t45 108.5t33 77.5t17.5 39.5q20 31 65 30q39 2 68.5 -17.5t19.5 -45.5q-4 -12 -36.5 -85t-82 -181.5t-107.5 -236.5t-113.5 -249t-101.5 -220t-71 -148q-16 -31 -57 -31q-33 -4 -55.5 13zM293 616q0 -20 8 -28 q10 -10 26.5 9t35 56t36 86t31.5 100.5t22.5 96.5t6.5 76q0 25 -6 24q-23 4 -50.5 -44t-53 -115.5t-42 -141t-14.5 -119.5zM588 168q-4 63 15.5 139t54 141.5t84 110.5t102.5 47q29 4 57 -8q39 -16 65.5 -56t30.5 -106q0 -18 -1 -40.5t-5 -47.5h2q-8 -55 -29.5 -115.5 t-53 -111.5t-73.5 -86t-92 -37q-18 -2 -35.5 2t-35.5 8q-41 18 -61.5 61.5t-24.5 98.5zM711 104q4 -28 10 -30q10 -10 26.5 9t34 56t36 86t31.5 100.5t21.5 96.5t6.5 76q-4 25 -7 24q-20 4 -48.5 -43t-54.5 -114.5t-42 -140t-14 -120.5z" />
<glyph unicode="&#x26;" horiz-adv-x="1249" d="M103.5 457q13.5 92 78.5 188q45 70 100.5 112t120.5 77q-68 59 -91 127.5t-13 136t51 130t102.5 113t136.5 82t156 37.5q18 63 32 104.5t18 53.5q10 25 29.5 37t39.5 16q45 12 79 -7t26 -52l-56 -176q55 -20 97.5 -57.5t64 -84.5t22.5 -101t-26 -110q-33 -66 -84 -69.5 t-104 14.5q-41 18 -60.5 42t11.5 50q35 31 45 60.5t0.5 54.5t-32 43t-50.5 25q-72 14 -126.5 -12.5t-89 -76t-49 -110t-6.5 -109.5q4 -18 17.5 -41.5t33 -42t45 -30t54.5 -7.5q33 2 54.5 -8t30.5 -26.5t7 -36t-14 -37.5q-14 -23 -45 -36t-72 -9q-29 0 -60.5 -12.5t-61.5 -33 t-53.5 -42t-35.5 -39.5q-41 -59 -58.5 -134t-13.5 -144.5t32 -121t79 -63.5q31 -6 65.5 10.5t69.5 44t64.5 64.5t48 72.5t23.5 64.5t-11 43q-35 12 -71 13t-74 -17q-20 -10 -38 0t-24 33.5t3 54t40 59.5q39 37 82 41t88 -7t89 -29.5t85 -29.5t76 -6t59 44q27 39 52.5 30.5 t38 -43t2 -86t-55.5 -96.5q-33 -35 -64.5 -46t-64.5 -9q-6 -39 -24.5 -78t-36.5 -68q-35 -53 -84 -90t-106.5 -58.5t-119 -29.5t-122.5 -4l-41 -121q-4 -20 -22.5 -32.5t-39.5 -16.5q-18 -4 -38.5 -1t-35 12.5t-19.5 27t7 39.5q6 18 17.5 51t27.5 80q-70 35 -123 97.5 t-75.5 141.5t-9 171z" />
<glyph unicode="'" horiz-adv-x="387" d="M287 1362q4 29 8 51.5t14 65.5l13 59q4 20 22 30.5t41 12.5t47.5 -4t40.5 -21q41 -30 25 -77q-25 -80 -61 -127t-44 -56q-16 -16 -39.5 -17t-42.5 15q-12 12 -20 28.5t-4 39.5z" />
<glyph unicode="(" horiz-adv-x="475" d="M-150 322q0 145 27 309t79 322.5t127 303t170 255t210 176t248 65.5q37 0 65 -12q27 -14 31 -43t-8.5 -56.5t-37 -47t-52.5 -15.5q-8 2 -17.5 3t-21.5 1q-84 0 -165 -62.5t-152.5 -167t-131 -239.5t-103.5 -280.5t-68.5 -291t-24.5 -270.5q0 -141 35.5 -236t113.5 -114 q31 -6 38 -34.5t-3 -59.5t-33.5 -52.5t-56.5 -13.5q-70 12 -120 60.5t-83 122t-49.5 170t-16.5 207.5z" />
<glyph unicode=")" horiz-adv-x="622" d="M-158 -202q-4 28 8.5 55.5t37 46t53.5 16.5q10 0 19 -2t20 -2q84 0 164.5 62.5t152.5 167t131 240.5t103 281.5t69 291t25 270.5q0 139 -36 235t-112 113q-31 8 -39 36.5t2.5 58.5t35 51.5t56.5 15.5h-2q70 -12 121 -60.5t84 -123t49.5 -171t16.5 -206.5 q0 -145 -28 -309.5t-79 -323t-125.5 -303t-171 -255t-211 -176t-245.5 -65.5q-39 0 -66 14q-29 14 -33 42z" />
<glyph unicode="*" horiz-adv-x="602" d="M20 1300q0 23 13.5 48.5t36.5 42.5q29 18 47 28.5t49 28.5l-66 65q-20 25 -20 56q0 35 21.5 64.5t54.5 29.5q10 0 24.5 -8t24.5 -19l37 -32l8 -9l4 23l12 84v-2q6 47 47 47q18 0 42 -15.5t43.5 -37t31.5 -46t8 -42.5v2q0 -2 -1 -4t-1 -5l21 11l49 26q12 8 25.5 4 t24.5 -16t18.5 -29.5t7.5 -35.5q0 -16 -8.5 -32t-20.5 -26t-44 -29.5t-75 -44.5q31 -27 53.5 -48t30.5 -31q14 -18 4 -44t-30.5 -46.5t-42 -32t-31.5 -0.5h2l-29 24q-12 10 -13 10.5t-20 16.5q-10 -43 -20 -72.5t-14 -40.5q-6 -10 -25.5 -8t-41 14.5t-40 31t-18.5 38.5 q2 14 4 31.5t4 32.5q-33 -18 -54.5 -30.5t-27.5 -17.5v-2q-29 -16 -49 -16q-29 0 -42.5 18.5t-13.5 44.5z" />
<glyph unicode="+" horiz-adv-x="794" d="M111 504q0 31 29.5 64.5t70.5 35.5q20 2 44 2h46h47l23 53l45 117q18 39 55 39q20 0 42 -15.5t39 -37t25.5 -46t0.5 -42.5l-39 -74l123 -8q14 -2 19 -24.5t0 -49t-19.5 -50.5t-38.5 -28h-48h-116q-35 -66 -60.5 -112.5t-38.5 -63.5q-8 -10 -30.5 -6t-44 16.5t-34.5 32 t-5 41.5l28 68v2l13 31q-10 2 -19.5 2h-19.5q-27 0 -44.5 1t-25.5 1q-35 -4 -51 12t-16 39z" />
<glyph unicode="," horiz-adv-x="374" d="M59 -41q16 25 36 71t36 93q14 39 53 39q20 0 43 -14.5t40.5 -36t24.5 -46t-1 -45.5q-18 -41 -65.5 -70.5t-92.5 -39.5t-70.5 0t-3.5 49z" />
<glyph unicode="-" horiz-adv-x="870" d="M160 514q0 31 29.5 64.5t70.5 35.5q20 2 45 2h47q94 0 182.5 -5t139.5 -7q12 0 21.5 -1t15.5 -1q14 0 19 -21.5t1 -49t-19.5 -51t-39.5 -27.5q-10 -2 -49 -2q-45 0 -114 2t-132 4q-55 4 -96 5t-52 1h-2q-35 -4 -51 12.5t-16 38.5z" />
<glyph unicode="." horiz-adv-x="468" d="M70 63q6 63 43 93t74.5 32t64.5 -20.5t14 -65.5q-10 -33 -35.5 -63.5t-62.5 -36.5q-41 -10 -71.5 7t-26.5 54z" />
<glyph unicode="/" horiz-adv-x="659" d="M-161 -88q1 18 20 43q20 27 60 93.5t94.5 160.5t120 210t134 240.5t139 252.5t136.5 247q61 113 116.5 212t97.5 176t70.5 127.5t38.5 62.5q18 25 43 33t52 8q51 0 84.5 -32t15.5 -67q-18 -31 -65.5 -111.5t-114 -194t-147.5 -252t-167 -284l-172 -291t-160.5 -271 t-136 -226t-96.5 -158.5q-14 -23 -37.5 -32t-46.5 -9t-41 7.5t-28.5 22t-9.5 32.5z" />
<glyph unicode="0" horiz-adv-x="790" d="M24 456q5 93 26.5 186t56 180t79.5 156t100.5 114t119.5 53q47 6 96 -10q68 -23 120 -92.5t70 -190.5q6 -39 8 -82t0 -90q-6 -102 -32.5 -218t-73.5 -216.5t-113.5 -172t-152.5 -83.5q-59 -6 -121 14q-76 29 -118 103.5t-58 173.5q-12 82 -7 175zM224 332q-1 -88 12 -150 q9 -76 40 -88q31 -16 64 22t62.5 109.5t54 167.5t40 195.5t18.5 191.5t-9 158q-10 41 -23.5 64.5t-38.5 25.5q-33 2 -64.5 -42t-58 -117.5t-49 -167t-35 -187.5t-13.5 -182z" />
<glyph unicode="1" horiz-adv-x="438" d="M14 82q39 166 70 292t54.5 219t41 159.5t31.5 115.5q-16 -4 -30.5 -4t-24.5 23q-4 12 -9.5 29.5t-6.5 36t2 36t14 27.5q70 59 109.5 92t56.5 43v-2q25 12 59.5 5t63 -26.5t43 -46t-4.5 -53.5q-10 -14 -28.5 -62t-42 -117t-52 -154t-56.5 -173t-56.5 -173t-52 -156.5 t-42 -122t-28.5 -68.5q-6 -12 -26.5 -10t-41 14t-35 31.5t-8.5 44.5z" />
<glyph unicode="2" horiz-adv-x="919" d="M14 100q10 84 48 149.5t92.5 119t120 99.5t131 91t128 91t109.5 102q53 61 53 125q0 55 -29.5 92t-70.5 41q-27 2 -50.5 -8.5t-40 -29t-22.5 -44t2 -56.5t-10 -37t-47 -4q-49 2 -87 31t-32 82q6 51 31 90t60.5 63.5t77.5 37t83 12.5q86 0 149.5 -36t99.5 -94.5t43 -131 t-22 -146.5q-35 -92 -112.5 -162.5t-170.5 -134t-187.5 -122t-161.5 -125.5q16 4 33.5 5t33.5 1q35 0 97.5 -3t127 -1t121 13t78.5 40q25 33 42.5 33t27.5 -16.5t14 -40t4 -40.5q-2 -31 -11 -62.5t-27.5 -58t-48 -46t-73.5 -23.5q-43 -6 -97 -1t-112.5 12t-113.5 14.5 t-100 7.5q-20 0 -45 -2.5t-48 -12.5q-47 -14 -71.5 11.5t-16.5 74.5z" />
<glyph unicode="3" horiz-adv-x="796" d="M4 267.5q0 35.5 9.5 67.5t31 56.5t57.5 28.5q25 4 52.5 -2t48 -19.5t27 -33t-14.5 -41.5q-16 -18 -20.5 -57.5t5 -78t33 -69.5t60.5 -31q41 -2 70.5 32t47 81t24.5 99t1 87q-6 41 -30.5 70.5t-65.5 38.5q-33 4 -50.5 21.5t-21.5 37.5q-4 33 21.5 57.5t72.5 10.5 q18 -8 41 -5t43.5 14t38 26.5t25.5 29.5q23 37 36 95.5t9 115.5t-29.5 98t-81.5 43q-25 0 -47 -9t-37.5 -26.5t-18.5 -42t13 -53.5q14 -27 -8 -41t-57 -20q-45 -6 -80 7t-35 69q0 55 22.5 100t62.5 75.5t92 46t112 11.5q115 -10 186.5 -76.5t85.5 -156.5q8 -57 -1 -116.5 t-34.5 -113t-65.5 -95.5t-91 -60q39 -37 64.5 -86.5t33.5 -98.5q12 -74 -15.5 -140.5t-79.5 -116.5t-122 -79.5t-143 -29.5q-49 0 -95.5 15t-83 43t-61.5 68t-33 91q-4 27 -4 62.5z" />
<glyph unicode="4" horiz-adv-x="788" d="M-1 400.5q-7 19.5 3 35.5q104 141 176 246.5t119 183.5t71.5 129t32.5 82q8 27 33 32t55.5 -5t58 -30.5t42.5 -47.5q6 27 9 46.5t7 35.5q8 29 24.5 38t35.5 13q25 4 54.5 -3t53 -22.5t34.5 -38t-1 -48.5q-6 -16 -21.5 -63.5t-36 -115t-43 -149.5t-44.5 -168 q35 -12 40 -47q4 -23 0 -42.5t-16 -29.5l2 4q-4 -4 -20.5 -10t-42.5 -10q-18 -76 -37 -145.5t-34 -126t-27.5 -95.5t-20.5 -53q-6 -12 -29.5 -13t-49.5 8t-45.5 26.5t-19.5 39.5q8 53 22.5 107.5t25.5 101.5q10 39 16 61.5t12 57.5l-350 -55q-14 -2 -32.5 8t-34 26.5 t-22.5 36zM211 489q49 4 116.5 15.5t131.5 21.5q20 82 45.5 176.5t66.5 233.5q-27 -51 -71.5 -112.5t-97 -123t-103.5 -118t-88 -93.5z" />
<glyph unicode="5" horiz-adv-x="856" d="M20 205q-14 68 19 127t119 76q37 6 74.5 -5.5t43.5 -46.5q2 -10 -2 -16t-12 -11t-18.5 -12.5t-18.5 -19.5q-14 -18 -21 -46t-3 -55.5t20.5 -49t50.5 -27.5q31 -6 62 16.5t58.5 64.5t50 96t36 110.5t17.5 111.5t-4 96q-6 31 -19.5 48.5t-38.5 13.5q-29 -6 -75 -37 t-109 -96q-10 -12 -24.5 -18.5t-24.5 -8.5q-25 -4 -43.5 7.5t-31.5 26.5t-20.5 30.5t-5.5 21.5v-2q6 16 12.5 36.5t14.5 45.5q20 61 46 135t50.5 139.5t46 111.5t35.5 52q25 12 65 0t81 -16q25 -4 56.5 -4t64 3t63.5 11t53 25q25 18 40 9t21.5 -32.5t3.5 -53.5t-16 -54 q-14 -27 -37.5 -41.5t-54.5 -20.5q-47 -8 -92 -1t-82 16l-31 8q-6 -10 -21.5 -36t-32.5 -56.5t-31.5 -62.5t-18.5 -52q23 12 47.5 20.5t46.5 12.5q223 51 266 -203q12 -80 -5 -177.5t-64 -184.5t-123 -150.5t-180 -75.5q-57 -6 -108.5 7.5t-92.5 41t-67.5 66.5t-35.5 86z " />
<glyph unicode="6" horiz-adv-x="765" d="M14.5 426q3.5 96 24 192.5t56.5 187.5t84 164.5t107.5 122t127.5 60.5q61 10 113.5 -3t90 -46t58 -82t18.5 -109q-2 -33 -17 -49t-40 -26q-20 -8 -55 -7.5t-58 17.5q-23 16 -19.5 27.5t11.5 31.5q6 18 8 41t-2 43.5t-16 32.5t-33 12q-72 -2 -130 -91t-103 -226 q45 35 106 47q49 8 97.5 -2t89 -41t69.5 -80t39 -117q6 -88 -17.5 -184t-75.5 -174t-130 -127t-176 -41q-100 10 -148.5 75.5t-68.5 172.5q-14 82 -10.5 178zM207 190q8 -35 22 -57.5t37 -26.5q39 -2 77 50.5t66.5 128t43 158.5t2.5 145q-6 33 -23.5 53.5t-46.5 20.5 q-43 -2 -81 -52.5t-62.5 -123t-34.5 -153.5t0 -143z" />
<glyph unicode="7" horiz-adv-x="616" d="M18 102q98 221 164 368.5t109 242t67.5 148.5t42.5 89q-23 -6 -58.5 -14t-73.5 -14.5t-70.5 -9.5t-46.5 1q-37 2 -61.5 44t-33 86t2 76t42.5 16q43 -18 99.5 -25.5t103.5 -7.5q59 0 111.5 7t89.5 15q20 4 36.5 6.5t26.5 2.5q27 0 51.5 -13.5t40 -34t18.5 -44t-15 -44.5 q-12 -18 -43 -69t-71 -123t-86 -158t-93 -172q-43 -80 -84 -155.5t-75 -138t-60.5 -106.5t-38.5 -61q-8 -12 -27.5 -8t-38 18.5t-29 35t-0.5 42.5z" />
<glyph unicode="8" horiz-adv-x="804" d="M10.5 312.5q3.5 62.5 24 121t57.5 106.5t88 70q-45 53 -59 123q-12 57 -4 122t37.5 122t80 100t123.5 62q23 4 47.5 6t53.5 2q111 -10 174 -72.5t82 -148.5q10 -53 5 -110.5t-24.5 -110t-52.5 -94.5t-76 -66q47 -43 74 -101.5t18 -140.5q-10 -92 -45.5 -151.5t-85 -93 t-105.5 -46t-108 -12.5q-23 0 -64.5 8t-86.5 29.5t-84 61t-57 100.5q-16 51 -12.5 113.5zM202 326q-7 -47 3 -90t35.5 -79t60.5 -40q47 -4 82 23.5t55.5 69.5t27.5 91t-1 88q-10 41 -33.5 69.5t-66.5 33.5h2q-47 4 -81 -18.5t-55.5 -61.5t-28.5 -86zM316.5 823 q-7.5 -47 0.5 -90q10 -55 40 -77.5t61 -14.5q39 6 71 64l-2 -3q25 53 34 118t-1 118q-8 37 -28.5 58.5t-55.5 17.5q-29 -4 -53.5 -32t-41.5 -70t-24.5 -89z" />
<glyph unicode="9" horiz-adv-x="757" d="M8 197.5q-2 21.5 2 42t16.5 36t36.5 21.5q16 2 40 4t44.5 -3t31.5 -16.5t1 -33.5q-12 -39 -8 -66.5t16.5 -44t26.5 -24t25 -7.5q37 4 69.5 34t60 76t51 106.5t42.5 128.5q-45 -39 -107 -52q-49 -12 -99 -6t-94 33t-77 73t-45 113q-12 76 4 160t57 160t104.5 133t149.5 80 q16 4 34 6t34 2h2q92 4 150.5 -57.5t85.5 -165.5q18 -80 19 -175.5t-15.5 -192.5t-48 -191.5t-76.5 -172t-103.5 -132t-128.5 -70.5q-23 -4 -46 -6t-52 2q-31 4 -61.5 16t-57 32.5t-47 50.5t-31.5 67q-4 18 -6 39.5zM227 654.5q-2 -52.5 9 -91.5q10 -33 27.5 -51t47.5 -14 q45 6 81 58t57.5 125t27.5 152.5t-8 139.5q-10 33 -24.5 54.5t-41.5 23.5q-25 4 -49 -19.5t-46.5 -65.5t-40 -94.5t-28 -108.5t-12.5 -108.5z" />
<glyph unicode=":" horiz-adv-x="542" d="M70 63q6 63 43 93t74.5 32t64.5 -20.5t14 -65.5q-10 -33 -35.5 -63.5t-62.5 -36.5q-41 -10 -71.5 7t-26.5 54zM217 719q6 63 43 93t75 32t64.5 -20.5t14.5 -65.5q-10 -33 -36 -63.5t-63 -39.5q-41 -10 -71.5 8.5t-26.5 55.5z" />
<glyph unicode=";" horiz-adv-x="557" d="M70 -23q6 23 12 65t10 83q6 33 37 43q16 4 36.5 -4t39 -21.5t30 -32t9.5 -36.5q-6 -37 -39 -71t-67 -51.5t-56.5 -14t-11.5 39.5zM217 719q6 63 43 93t75 32t64.5 -20.5t14.5 -65.5q-10 -33 -36 -63.5t-63 -39.5q-41 -10 -71.5 8.5t-26.5 55.5z" />
<glyph unicode="&#x3c;" horiz-adv-x="784" d="M97.5 409.5q0.5 26.5 11.5 34.5q8 6 34.5 22.5t63.5 38t80 45t86 48.5q63 37 120.5 69.5t79.5 47.5q25 14 48 14q31 0 49 -21.5t18 -52.5q0 -20 -11 -44t-40 -42q-10 -6 -60.5 -34.5t-107.5 -61.5q-68 -37 -147 -84l247 -158q23 -10 33 -27.5t10 -35.5t-10 -35.5 t-26.5 -28t-37 -12.5t-40.5 8q-41 23 -87 54.5t-92.5 64.5t-88.5 64.5t-72 56.5q-18 14 -29.5 23.5t-22.5 13.5h3q-12 6 -11.5 32.5z" />
<glyph unicode="=" horiz-adv-x="837" d="M111 408q0 31 30.5 64.5t69.5 35.5h92q94 0 182 -4t140 -6q12 -2 21 -2h16q14 0 20 -22.5t1 -49.5t-20.5 -51.5t-39.5 -26.5q-8 -2 -48 -2q-47 0 -115.5 2t-131.5 4q-55 4 -96.5 5t-51.5 -1q-37 -2 -53 14.5t-16 39.5zM150 623q0 14 8 31.5t22.5 31.5t32.5 24.5t39 10.5 q18 2 44 2h46q96 0 184 -4t138 -8q12 0 21 -1t17 -1q14 0 19.5 -22.5t0.5 -49.5t-20.5 -51.5t-39.5 -26.5q-8 -2 -48 -2q-45 0 -114.5 2t-132.5 4q-55 4 -96.5 5t-51.5 1q-37 -4 -53 13.5t-16 40.5z" />
<glyph unicode="&#x3e;" horiz-adv-x="763" d="M86 164q0 51 51 86q10 6 59.5 35.5t106.5 62.5q68 37 150 84q-25 16 -65 41t-79 49.5t-69.5 43t-36.5 22.5q-23 12 -33 29.5t-10 35.5t11 35t27.5 28t37 13t38.5 -8q43 -25 90.5 -56.5t93.5 -64.5t87 -63.5t71 -53.5q33 -29 52 -39h-2q10 -8 10 -32.5t-10 -34.5 q-8 -6 -33 -21.5t-59.5 -35t-76.5 -43t-85 -48.5q-70 -39 -129.5 -72.5t-81.5 -47.5q-12 -10 -23.5 -12.5t-23.5 -2.5q-29 0 -48.5 20.5t-19.5 49.5z" />
<glyph unicode="?" horiz-adv-x="1064" d="M139 102q20 59 54 97.5t65 42.5q29 4 50.5 -12.5t27.5 -57.5q4 -18 3 -45.5t-9 -60.5q-6 -31 -25.5 -46.5t-42.5 -19.5q-25 -4 -49.5 3t-42.5 22.5t-27.5 35t-3.5 41.5zM168 1210q14 61 52 111.5t93.5 86.5t127 54.5t153.5 16.5q72 -2 138.5 -29t118.5 -73t86 -107 t42 -133q8 -106 -25.5 -182t-92 -132.5t-131.5 -101.5t-143.5 -92t-130 -102.5t-89.5 -133.5q-10 -29 -26.5 -35t-33.5 -6q-10 0 -23.5 2t-23.5 10.5t-16 26t-2 49.5q8 78 50 138.5t101.5 111.5t127 96t123.5 95.5t94 108t38 130.5q0 74 -43 120t-96 54q-31 4 -65.5 -4 t-65.5 -27.5t-55.5 -50t-34.5 -71.5q-6 -20 -6 -35.5t-3.5 -26t-11.5 -15.5t-26 -5q-35 0 -73 11t-69.5 31.5t-49 48.5t-9.5 60z" />
<glyph unicode="@" horiz-adv-x="1724" d="M74 416q0 152 58 307.5t160.5 282.5t244 206.5t307.5 79.5q150 0 269.5 -52t203.5 -145.5t128 -224.5t44 -286q0 -127 -33 -240t-91 -198t-141 -132t-182 -43q-29 2 -63.5 12.5t-67 32t-58.5 57.5t-36 91q-12 -23 -30.5 -45.5t-41 -43t-50 -33.5t-60.5 -15 q-88 0 -147.5 60t-59.5 181q0 74 18.5 160t48 166t66.5 144.5t76 95.5q33 25 67.5 36t67.5 11q49 0 88 -21.5t58 -68.5q6 14 9 20t13 23q14 27 54 25.5t78 -18t64.5 -42t14.5 -49.5q-57 -129 -95 -230.5t-50 -171.5q-8 -37 -12.5 -85t1.5 -89t23.5 -66.5t52.5 -19.5 q33 10 71 59.5t69.5 126t52 173t20.5 200.5q0 86 -24.5 177t-74.5 166t-127 124t-181 49q-131 0 -240 -69.5t-185.5 -179t-118.5 -244.5t-42 -267q0 -106 23.5 -205.5t75.5 -176t138 -125t209 -52.5q51 2 77 -16t28 -42t-22.5 -43t-76.5 -19q-145 -2 -268 46t-212 138 t-139 219t-50 289zM609 216q-1 -32 5.5 -55.5t26.5 -23.5q27 0 53.5 30t50 77t44 105.5t36 114.5t23.5 105t8 78q0 4 -1 16.5t-4 25.5t-8 23.5t-14 10.5q-25 0 -54.5 -38t-57 -95.5t-52 -126t-38.5 -129.5q-4 -18 -10.5 -52t-7.5 -66z" />
<glyph unicode="A" horiz-adv-x="1435" d="M0 414v20q0 93 33 172q55 129 174 159q35 9 77 9q102 0 246 -51q25 63 62 151.5t81 180.5t94 182t101 158q-78 -23 -143.5 -57.5t-117.5 -71.5t-87 -70t-49 -51q-33 -39 -55.5 -76t-34.5 -68q-10 -25 -45 -11t-68 50q-32 36 -46 90q-5 17 -5 35q0 37 21 74 q35 53 107.5 102.5t167.5 89t203 67.5q106 28 208 38q51 5 98.5 5t91.5 -5q88 -10 143 -45q15 15 49 15q8 0 16 -1q46 -4 91 -22.5t72.5 -45t11.5 -51.5q-12 -6 -34.5 -48t-52.5 -104.5t-62.5 -140t-66.5 -158.5t-63.5 -158t-52.5 -136l60 2q14 -6 19 -35.5t-2 -62.5 t-26.5 -61.5t-52.5 -32.5q-25 -4 -36 -3t-27 3q-6 -20 -17.5 -60.5t-21.5 -85.5q-11 -45 -17 -89q-5 -34 -5 -60q0 -8 1 -15q0 -8 6.5 -14t16.5 -4q35 6 91 67.5t120.5 151.5t129 195.5t114.5 201.5q4 8 16 7t24.5 -6t20.5 -13t4 -16q-8 -18 -39 -77t-77 -137.5t-102 -164.5 t-114.5 -160t-115 -122t-99.5 -48h-13q-69 0 -114 39q-49 43 -59 113q-3 19 -3 43q0 11 1 25q2 40 8 86t15.5 92t17.5 87q-20 2 -37.5 6.5t-38 10.5t-46.5 13t-58 18q-25 -49 -48.5 -109.5t-50 -121t-58.5 -118t-71 -100.5q-39 -44 -89 -68q-43 -21 -94 -21q-8 0 -17 1 q-80 6 -143.5 68.5t-98.5 153t-39 194.5zM152 384q8 -62 36 -130q20 -47 64 -51q3 0 5 -1q41 0 75 60q25 39 46 85t39.5 90t35 86t28.5 75q-18 6 -48 15.5t-61.5 16.5t-62.5 10t-51 -5q-39 -16 -64 -51q-26 -34 -38 -86q-7 -31 -6 -67q-1 -23 2 -47zM760 664 q10 -4 30.5 -9.5t44 -9.5t48 -8t43.5 -6q25 92 60.5 198.5t73.5 208t73.5 186.5t58.5 134h-8q-23 0 -56.5 -35t-72.5 -91t-81 -130t-82 -151t-73.5 -151.5t-58.5 -135.5z" />
<glyph unicode="B" horiz-adv-x="1419" d="M10 97.5q-2 21.5 7.5 40t23.5 27.5t28.5 6t22.5 -24q6 -16 24.5 -24t42 -6t49 15t48.5 44q39 51 74 147.5t64.5 210t56 234.5t46 224.5t34 175t22.5 89.5q14 35 34.5 60.5t61.5 30.5q11 1 22 1q26 -1 54 -7q39 -10 66.5 -30t38.5 -47.5t-7 -58.5q-10 -18 -29.5 -72.5 t-45 -132t-56 -176t-63.5 -204.5q8 0 24.5 -1.5t35 -1.5t34.5 1.5t27 3.5q90 14 158.5 68t113.5 128q44 74 64 156q14 58 14 111q0 22 -2 42q-10 80 -51 142.5t-105 101.5q-63 40 -143 52q-28 4 -57 4q-54 0 -111 -15q-84 -23 -148.5 -82t-99.5 -145q-17 -42 -25 -96 q-2 -16 -3 -32q0 -34 12 -59q10 -23 4 -44t-49 -42q-27 -12 -69 -15h-13q-35 0 -66 12q-38 16 -62 56q-20 32 -19 84q0 13 1 27q12 115 72.5 200t144.5 142.5t176.5 88t165.5 38.5q59 7 116 7q75 0 146 -12q125 -21 221.5 -76.5t159 -140.5t76.5 -196q4 -36 4 -77t-4 -88 q-8 -93 -50 -180t-125 -156.5t-224 -94.5q23 -12 46 -32.5t43 -47.5q20 -28 30 -64q9 -30 8 -65v-14q-6 -92 -47 -155.5t-103.5 -100.5t-139.5 -49q-42 -7 -84 -7q-35 0 -71 5q-70 6 -135 35t-106 72q-20 -31 -49 -50.5t-59 -32t-56.5 -18.5t-44.5 -6q-14 -1 -27 -1 q-45 0 -90 15q-39 16 -57.5 38t-20.5 43.5zM481 211q51 -37 111 -51q31 -7 61 -7q27 1 53 7q54 12 92 50t44 101v8q0 29 -14 58q-16 33 -47 59t-81 42q-37 12 -82 12q-15 0 -30 -1q-29 -92 -56.5 -164.5t-50.5 -113.5z" />
<glyph unicode="C" horiz-adv-x="1064" d="M33 489v18q1 110 23 224q24 123 71 236.5t113.5 212t147.5 168t174 104.5q69 26 144 26q26 0 52 -3q51 -6 101 -33t90 -70t64.5 -99t24.5 -120q0 -86 -34 -134q-34 -49 -82 -69q-46 -20 -93 -19h-5q-50 1 -83 13q-39 12 -41 32.5t19 43.5q29 35 46 85t17 93q0 25 -8 49.5 t-25.5 41t-42 20.5t-57.5 -11q-74 -41 -136 -135t-106.5 -209.5t-68.5 -240.5q-21 -107 -21 -199v-29q4 -72 24.5 -139t58.5 -118.5t94 -77.5q36 -16 81 -16q24 0 50 5q92 18 173 80t152.5 147t132 183t113.5 190q4 8 17.5 7t25.5 -8t20.5 -17.5t4.5 -18.5 q-41 -72 -85 -152.5t-96.5 -160.5t-113 -154.5t-132 -131t-155.5 -91.5t-182 -37h-10q-109 0 -192 43q-87 45 -145.5 119t-88 167t-31.5 185z" />
<glyph unicode="D" horiz-adv-x="1525" d="M33 225q14 39 37.5 53.5t45 3t15.5 -48.5q0 -6 -2 -19t-1 -28.5t8 -29t24 -19.5q21 -9 48 -9q14 0 30 2q47 7 84 48q18 20 38.5 66.5t39 100.5t34 108.5t25.5 93.5q41 164 70.5 275.5t51 183t36 112.5t24.5 63.5t17.5 35t15.5 28.5v-4l10 16q10 23 29.5 33t44.5 13h10 q30 1 60 -9q36 -12 63 -33.5t37 -50t-8 -57.5q-14 -23 -39 -84t-56.5 -147t-69.5 -189.5t-80 -208t-86 -203t-89 -174.5q56 -14 110.5 -14.5t108.5 14.5q108 29 199.5 99.5t158 178t92.5 237.5q18 86 18 172q-1 43 -5 85q-14 128 -68 229q-54 100 -152 162q-90 56 -216 57 q-12 0 -25 -1q-78 -10 -149.5 -55t-114.5 -111q-41 -60 -51 -124q-2 -14 -2 -27q0 -50 28 -97q14 -23 3 -43t-40 -35q-29 -12 -77 -14h-9q-43 0 -84 16q-45 18 -75 59q-24 32 -25 83q0 14 2 29q12 98 69.5 183t142.5 146.5t188.5 97t207.5 35.5q205 0 350.5 -71.5 t229.5 -189.5q83 -118 107 -272q9 -62 10 -125q0 -94 -21 -192q-35 -158 -105.5 -273.5t-161.5 -194t-196 -122.5q-104 -45 -204 -59q-52 -8 -100 -7q-45 1 -88 7q-89 14 -148 47q-88 -57 -189 -57q-37 0 -67.5 12.5t-54 30.5t-39 39.5t-21.5 42.5q-10 34 -10 62q0 21 6 38z " />
<glyph unicode="E" horiz-adv-x="1214" d="M45 420q8 63 34.5 123.5t68.5 111t98.5 86t124.5 47.5q-41 41 -70 116t-29 151q0 100 34 187t93.5 151.5t141.5 102.5t178 42q12 1 25 1q75 1 146 -21q83 -24 146.5 -73.5t101.5 -121.5t38 -164q-2 -106 -35 -161.5t-79 -73.5q-28 -11 -58 -10q-20 0 -40 4 q-52 12 -90 36.5t-55.5 53t2.5 45.5q41 35 70 87t31 109v5q0 48 -34 82q-36 36 -88 48q-18 4 -37 4q-35 0 -73 -14q-58 -22 -102 -86q-29 -43 -47.5 -103.5t-18.5 -123t23.5 -119.5t79.5 -92q27 -16 36 -47t9 -62q0 -33 -10.5 -65.5t-30 -58t-46 -39t-59.5 -3.5q-18 3 -35 3 q-43 0 -75 -22q-44 -32 -74 -91q-23 -61 -23 -116q-1 -19 3 -39q12 -72 56 -124t112 -78q56 -22 121 -21q15 0 30 1q109 8 206 66.5t181 149.5t153.5 205t125.5 230q4 10 16 10.5t24.5 -6t20.5 -16.5t4 -18q-39 -76 -91 -169.5t-116.5 -186.5t-139.5 -177t-161 -141 q-90 -57 -190 -82q-82 -20 -162 -20q-17 1 -35 1q-96 6 -182 39t-146.5 95.5t-88.5 150.5q-18 56 -19 123q0 37 6 78z" />
<glyph unicode="F" horiz-adv-x="1169" d="M14 1133q4 74 28 145.5t75 126.5t133 86q64 24 149 24q25 0 52 -2q82 -6 172 -24.5t185 -38.5t193.5 -35.5t194.5 -15.5q92 0 173 14t126 66q18 20 52 -5q33 -24 57 -70q22 -42 22 -94v-8q-2 -56 -53 -100q-59 -43 -136 -49q-26 -2 -52 -2q-52 0 -107 8q-82 12 -163 36 t-146 42h-2q0 -18 -13 -39q-16 -29 -57 -153.5t-104 -335.5l22 -2q35 -1 78 -3h7q42 0 104 29q23 11 35 -29q7 -23 7 -51q0 -19 -4 -41q-8 -52 -40 -94q-31 -41 -93 -41h-6q-23 2 -70 8.5t-100 20.5v-4q-29 -94 -63.5 -178t-80.5 -151t-103.5 -111t-127.5 -60q-27 -6 -53 -6 q-30 0 -58 8q-52 14 -81 41q-49 45 -49 88t18.5 66.5t41 21.5t18.5 -45q-4 -31 14 -49t46 -21.5t58.5 8t55.5 36.5q31 33 79 133t84 262q-33 8 -60.5 14t-49.5 -4q-33 -9 -41 17q-3 9 -3 19q0 20 10 44q15 37 55 69q38 30 98 29h8l33 -2q23 90 47 197.5t53 238.5 q8 39 18.5 76t49.5 57l-7 3q-100 37 -193 65q-82 25 -156 25h-21q-59 -4 -97 -27t-58.5 -52.5t-28 -63t-7.5 -62.5q0 -37 18.5 -66.5t45 -52t59.5 -36t64 -15.5q25 -2 41 1t26 1t15.5 -13.5t9.5 -43.5q2 -27 -5 -61t-28 -64q-20 -28 -55 -48q-32 -18 -77 -18h-9 q-66 8 -118 42t-87 83q-36 49 -54 111q-15 51 -15 102q0 12 1 23z" />
<glyph unicode="G" horiz-adv-x="1404" d="M6 1208q-3 16 -3 33q0 22 6 44q11 38 34 72t52.5 61.5t58.5 45.5q31 18 59 18h7q30 -3 32 -38v-56.5t10 -68.5q6 -25 18.5 -52.5t32 -55t45 -53t54.5 -44.5q47 92 114.5 170t147.5 133.5t166 87t172 31.5q55 0 109.5 -15.5t95 -46t65.5 -78.5q22 -41 22 -96q0 -9 -1 -18 q-4 -84 -40 -150.5t-91.5 -117.5t-126 -89t-144.5 -60.5t-147 -34.5q-63 -9 -117 -9h-19q-25 -55 -39 -126.5t-20 -146.5q-5 -56 -5 -111q0 -18 1 -35q2 -72 14.5 -128.5t32 -90t47.5 -33.5q37 8 86 56t102.5 128t106.5 190.5t96 245.5q4 12 13.5 29.5t29 31t49.5 16.5 q5 1 10 1q27 0 66 -12q51 -18 73 -41t25 -41.5t-2 -30.5l-6 -12q-45 -98 -96 -235.5t-110 -278.5q-16 -45 -42 -106.5t-61 -128t-77 -131t-91 -116t-107 -81.5q-50 -25 -105 -25h-15q-51 2 -90 30.5t-60 68.5q-21 42 -21 90q0 45 26 85q23 37 49 41t46.5 -6t31 -29.5 t-0.5 -29.5q-12 -14 -20 -33t-9 -35t5 -28.5t22 -14.5q7 -2 15 -2q25 0 50 22q32 27 61.5 73t55 102.5t46 108.5t33 90t16.5 48q-43 -66 -90 -104.5t-89 -58t-78 -23.5t-56 0q-76 10 -134.5 87t-88.5 199q-29 114 -29 259v19q2 157 47 327q-78 35 -136.5 77t-98.5 85 t-62.5 83t-28.5 68zM715 1020q16 -2 34 -2q23 0 48 3q45 5 92 22.5t91 46t79 75.5q20 27 21 49.5t-11 36t-37.5 16.5t-58.5 -7q-14 -4 -41 -17.5t-61.5 -41t-74.5 -72t-81 -109.5z" />
<glyph unicode="H" horiz-adv-x="1525" d="M-16 987q-3 14 -3 29q0 30 11 65q31 98 117 178t197.5 134.5t231.5 80.5q91 19 170 19q25 0 48 -2q12 -2 39.5 -6t59.5 -16.5t64.5 -34t54.5 -57.5q20 -36 28 -87q2 -14 3 -30q0 -40 -14 -91q-16 -68 -32.5 -123t-33 -107t-34 -105.5t-35.5 -118.5q53 -14 96 -23.5 t95 -19.5q39 111 89 236.5t98 237t88 194.5t58 110v-2q20 27 54 27q29 0 65.5 -13.5t65 -35t41 -48t-6.5 -53.5q-8 -10 -29.5 -52t-51 -102.5t-64.5 -132t-67.5 -143.5t-61.5 -135.5t-45 -108.5h47q17 -3 19 -33q0 -4 1 -7q1 -27 -9 -60q-10 -37 -32 -67.5t-49 -32.5 q-31 0 -61 6q-10 -23 -22.5 -57.5t-25.5 -76.5t-23.5 -84t-16.5 -75q-4 -23 3 -36t42 3q20 8 74.5 62.5t124 138.5t144.5 189.5t140 217.5q6 8 17.5 8.5t24 -7t19.5 -17.5t3 -18q-10 -18 -45 -77t-85 -134.5t-110.5 -160.5t-123 -157t-120 -121t-100.5 -53h-16 q-79 0 -128 37q-54 41 -54 131q0 63 23.5 156.5t51.5 187.5q-55 16 -102 30.5t-88 24.5q-31 -88 -67 -187t-85 -184t-113.5 -140.5t-154.5 -55.5q-63 0 -115.5 23.5t-90.5 64.5t-59.5 97t-21.5 122q0 100 38 191.5t108 155.5q68 66 168 94q54 15 115 15q51 0 108 -11 q25 94 50.5 185t47.5 208q8 42 8 76q0 17 -2 31q-6 44 -23.5 69t-44 34t-55.5 7q-59 -6 -132.5 -55t-137 -117t-106.5 -144q-41 -73 -41 -135v-6q0 -41 -17.5 -58.5t-58.5 -6.5q-27 8 -56.5 26.5t-51 48t-29.5 70.5zM249 282v-16q-1 -49 15 -85q18 -42 60 -46h6q26 0 56 32 q34 36 68.5 101.5t69.5 155.5t68 194q-30 6 -57 6q-47 0 -87 -17q-64 -27 -106.5 -79.5t-66 -119t-26.5 -126.5z" />
<glyph unicode="I" horiz-adv-x="1013" d="M18 967q-3 14 -2 29q0 30 11 65q31 98 114.5 180t192 138.5t225.5 86.5q103 26 188 25h23q20 0 65.5 -9t88.5 -42q42 -32 70 -96q17 -40 18 -100q0 -34 -6 -75q-6 -49 -28 -146t-58.5 -217t-88 -249t-117 -241.5t-146.5 -196.5t-175 -111q-38 -11 -88 -11h-8 q-55 1 -90 36q-45 43 -47 84v9q0 34 13 56q15 24 35.5 26.5t20.5 -32.5q0 -29 23.5 -46t56.5 -13q43 6 91.5 74.5t96.5 172t93 227.5t80 240.5t58.5 213t29.5 143.5q3 31 3 56q-1 66 -23 92q-26 30 -69 29q-10 0 -20 -1q-59 -8 -132 -60.5t-137.5 -124t-108.5 -150.5 q-42 -76 -42 -136v-6q2 -41 -15 -58.5t-58 -7.5q-27 8 -56.5 26.5t-51.5 48.5t-30 71z" />
<glyph unicode="J" horiz-adv-x="1214" d="M-6 -82q4 104 57 189.5t141 129.5q78 38 174 38q15 0 30 -1q114 -6 241 -81q33 78 70.5 174t73.5 196.5t70 198.5t60.5 183t43 148.5t20.5 94.5q3 31 3 56q0 66 -22 94q-25 29 -63 29q-12 0 -25 -3q-45 -10 -99 -44t-107.5 -82t-103.5 -105.5t-88 -116t-62 -112.5 q-21 -50 -21 -88v-7v-8q0 -62 -49 -62q-12 0 -27 4q-27 8 -56.5 26.5t-51 47.5t-29.5 70q-3 14 -3 29q0 30 11 65q31 100 118 193.5t201.5 164t242.5 112.5q122 40 233 40h10q20 0 65.5 -9t89.5 -41t72 -97q17 -40 17 -100q0 -34 -6 -75q-6 -33 -24.5 -103.5t-48.5 -162.5 t-70 -200.5t-86 -219t-97 -216t-104 -191.5v-2q47 -47 93 -112.5t60 -143.5v-9q0 -31 -13 -55q-15 -28 -39 -47.5t-51.5 -30t-47.5 -12.5q-31 -4 -35 7.5t-6 33.5q-4 68 -20.5 120t-33.5 85q-33 -53 -78.5 -113.5t-103 -109.5t-124.5 -79q-52 -24 -110 -24q-16 0 -32 2 q-72 8 -122 38t-82 75t-45 101q-11 49 -11 102v16zM217 -74q-4 -20 -4 -39q0 -28 9 -55q14 -45 46 -64q17 -9 37 -9t44 9q48 19 110 97q47 61 78.5 122.5t50.5 96.5q-51 49 -110 58q-16 2 -31 2q-43 0 -83 -18q-53 -24 -94 -75t-53 -125z" />
<glyph unicode="K" horiz-adv-x="1630" d="M2 967q-3 14 -3 29q0 30 11 65q31 98 116 180t193.5 138.5t225.5 86.5q103 26 188 25h23q20 0 65 -9t88 -42q43 -32 71 -96q17 -40 17 -98q0 -35 -6 -77q-8 -59 -36.5 -179t-75.5 -263q57 51 131.5 137t146.5 186.5t129 205t82 190.5q6 23 43 19.5t78 -25.5 q41 -20 71 -56q25 -30 26 -65q0 -7 -1 -14q-25 -68 -77 -153t-124.5 -172t-161.5 -170t-186 -146q55 -12 86 -51.5t47.5 -89.5t25.5 -105.5t21 -100.5t32 -73q16 -23 46 -22q6 0 13 1q45 6 104 68.5t116.5 145.5t108 168t78.5 134q8 8 21.5 7t25 -8t17.5 -17t0 -19 q-18 -35 -54 -100t-84.5 -144t-104.5 -160t-114.5 -147.5t-117 -108.5t-109.5 -42q-76 0 -117 34t-61.5 88t-29.5 119.5t-21.5 129t-36 117t-74.5 81.5q-10 -4 -19.5 -6t-19.5 -6q-37 -94 -84 -184t-101.5 -164t-117.5 -126t-133 -73q-20 -6 -46 -9t-50.5 -2t-48 9t-41.5 27 q-45 43 -47 84q0 6 -1 11q-1 32 13 54q16 24 35.5 26.5t19.5 -32.5q0 -29 24.5 -46t57.5 -13q43 6 93 73.5t99.5 169t95.5 223.5t80.5 238.5t56 215t21.5 149.5q-1 112 -25 148q-20 29 -61 29q-9 0 -20 -1q-59 -8 -132 -60.5t-137.5 -124t-108.5 -150.5q-42 -76 -42 -136v-6 v-8q0 -61 -50 -61q-12 0 -26 3q-27 8 -56.5 26.5t-51 48.5t-29.5 71z" />
<glyph unicode="L" horiz-adv-x="1409" d="M14 45q6 66 48 112q42 45 109 67q56 18 128 19q13 0 27 -1q88 -4 186 -39q43 53 80 115.5t73.5 138t74.5 166t81 200.5q-55 18 -125.5 62.5t-135 105t-108.5 131t-46 144.5v11q0 44 15 76q17 36 45 60.5t60.5 37.5t61.5 22q19 5 33 5q27 0 39 -18q11 -18 12 -39 q0 -12 -4 -26q-4 -13 -4 -30q0 -27 10 -59q16 -54 47 -110.5t74 -107t90 -74.5q16 37 33.5 88t39 106.5t48 109.5t57.5 98t67.5 70.5t81.5 26.5q61 0 105.5 -26.5t72.5 -72.5q30 -46 42 -106q9 -46 9 -95q0 -15 -1 -31q-8 -100 -43 -177t-91 -129t-130 -76q-59 -19 -126 -19 q-17 0 -34 1q-25 -72 -64 -168t-82 -192t-87 -179t-78 -128q207 -87 365 -135q142 -43 239 -44q10 0 20 1q23 2 39 6t27.5 3t15.5 -11.5t2 -38.5q-2 -33 -10 -71t-24.5 -71t-43 -57.5t-65.5 -30.5q-14 -3 -30 -3q-34 1 -76 13q-60 18 -124.5 50t-130 74t-123 82t-102.5 73 t-70 49q-111 -117 -214 -160q-74 -31 -148 -31q-29 0 -59 5q-85 14 -137 72q-43 48 -44 124q0 15 2 31zM166 33q0 -19 11 -32t32.5 -17t46.5 4q41 14 85 45.5t77 68.5q-31 12 -67 16q-15 1 -29 1q-20 0 -38 -3q-32 -5 -58.5 -16.5t-41.5 -27.5q-18 -20 -18 -39zM1079 958 q15 -3 29 -3q33 1 62 17q42 24 73 66.5t49.5 99t18.5 115.5q0 25 -4 49.5t-11.5 40t-18.5 21.5t-24 -6q-23 -20 -45 -63.5t-43.5 -98.5t-43.5 -117t-42 -121z" />
<glyph unicode="M" horiz-adv-x="2007" d="M33 952q-3 14 -3 29q0 30 11 66q31 98 107.5 184t176 147.5t209.5 93.5q80 23 153 22q28 0 54 -3q20 -2 65.5 -11.5t89.5 -41.5q44 -30 72 -94q17 -40 17 -100q0 -34 -6 -75q-4 -10 -4 -20t-4 -23q25 45 61.5 105.5t80.5 113t91 89t94 36.5q31 0 64 -16t59.5 -45t43 -71 t16.5 -93q0 -25 -5.5 -51.5t-15.5 -54.5q-2 -4 -2 -6q23 39 55.5 92t71.5 101t83 81t89 33q33 0 72 -23.5t67 -67.5q27 -45 35 -109q2 -14 2 -27q0 -53 -24 -117q-37 -96 -83 -209t-90 -230.5t-81 -233.5t-56 -218q-9 -45 15 -46h2q24 0 70 27q37 20 92 78t114.5 134.5 t119 164.5t106.5 174q8 8 20 7t22.5 -7t15.5 -15t1 -20q-18 -39 -57 -104.5t-91.5 -142t-113 -155.5t-123.5 -144.5t-126.5 -107.5t-119.5 -46q-12 -1 -23 -1q-74 0 -118 46t-44 130q0 13 1 28q2 70 19.5 150.5t42 167.5t55 178.5t61.5 181.5q39 98 42 149t-21.5 42 t-70.5 -81.5t-106 -220.5q-33 -80 -72.5 -179t-74.5 -196.5t-57 -181.5q-18 -71 -17 -115v-16q2 -29 -17.5 -41t-47 -13t-54 4t-38.5 11q-23 8 -45.5 28.5t-37 52.5t-17.5 78v16q0 40 12 91q41 176 116.5 366.5t153.5 395.5q4 16 8 45t-6 35q-4 3 -10 3q-20 0 -52 -38 q-42 -49 -92.5 -138t-108 -207t-112.5 -241q-49 -102 -97 -193t-101.5 -162t-115 -116t-136.5 -55q-25 -4 -50 -4q-17 0 -34 2q-43 4 -70 19q-53 31 -73.5 64.5t-20.5 64t15 54t32.5 33t30 1t10.5 -38.5q-1 -6 -1 -12q0 -33 18 -53q20 -22 53 -22q3 0 6 1q43 2 92 68.5 t97 170t92 229.5t79 244.5t58.5 216t29.5 144.5q3 31 3 56q0 66 -22 92q-25 30 -65 30q-11 0 -22 -2q-66 -12 -132.5 -66.5t-122 -128t-90 -153.5t-34.5 -144q2 -41 -15.5 -58t-58.5 -7q-27 8 -56.5 26.5t-51 48t-29.5 70.5z" />
<glyph unicode="N" horiz-adv-x="1591" d="M-20 987q-3 14 -3 29q0 30 11 65q31 100 104.5 179t168.5 132.5t201 79.5q85 21 161 20q18 0 36 -1q18 0 64.5 -9t89.5 -42q43 -32 71 -96q17 -40 17 -100q0 -34 -6 -75q-4 -29 -12.5 -71.5t-20.5 -100.5q37 72 80 153t94 149.5t108.5 113.5t125.5 45q35 0 70.5 -15.5 t64.5 -45t47 -70.5t18 -92q0 -47 -22 -109q-121 -297 -196.5 -521t-92.5 -345q-4 -25 -2 -44t11.5 -27.5t27.5 -4.5t49 25q78 51 150.5 128t132 155.5t102.5 146.5t62 100q6 10 20 9.5t27.5 -8t20.5 -19.5t1 -25q-16 -25 -53 -83t-89 -131.5t-115.5 -154.5t-132 -149.5 t-139.5 -118t-136 -57.5q-15 -2 -28 -2q-37 0 -65 12q-38 16 -61.5 46t-35 69t-11.5 78q2 106 19.5 208.5t48 206t70.5 210t87 223.5q16 43 18.5 67.5t-7 30.5t-28 -7.5t-40.5 -45.5q-23 -27 -69 -95.5t-107.5 -168t-132 -225.5t-142.5 -269q-70 -129 -152.5 -221 t-187.5 -111q-38 -6 -71 -6h-16q-40 2 -72 18q-55 29 -78 62t-25 61.5t11.5 51t32 30.5t33.5 -2t19 -43q2 -31 27.5 -48t54.5 -15q43 2 89.5 55t91.5 140t88 199t79.5 229.5t64.5 234.5t44 213q6 38 6 67q-1 55 -23 81q-27 30 -67 30q-11 0 -22 -2q-66 -12 -128.5 -61.5 t-111.5 -116t-79 -140.5q-27 -68 -27 -127v-12q0 -41 -17.5 -57t-58.5 -6q-27 6 -56.5 24.5t-51 48t-29.5 70.5z" />
<glyph unicode="O" horiz-adv-x="1388" d="M29 1145q0 53 38.5 103t86.5 83q50 36 87 36q5 0 11 -1q39 -6 39 -54l-1 -32q0 -54 13 -115q10 -53 41 -95t78 -77q61 131 145 234q37 43 81 86t96.5 76.5t114 54t128.5 22.5h10q91 0 145 -34q56 -36 83.5 -88t31.5 -106q2 -22 1 -40q0 -27 -3 -47q-18 -90 -75 -164 q13 -78 13 -162q0 -21 -1 -41q-4 -106 -37 -221q24 -10 50 -10q15 0 31 3q44 9 85 35.5t73.5 65.5t47.5 82q2 10 18.5 15.5t33.5 2.5t29.5 -16.5t6.5 -38.5q-14 -49 -56 -104t-101.5 -101t-131.5 -73q-51 -19 -103 -19q-21 0 -42 3q-33 -70 -79 -144t-104.5 -136t-130 -104 t-153.5 -49h-21q-94 0 -158 33q-70 37 -110.5 100.5t-56 144.5t-15.5 163q2 133 26.5 228t43.5 151q-33 14 -85 49t-101.5 82t-86 104t-36.5 115zM518 449q0 -25 2 -61t12.5 -72.5t29.5 -67.5t54 -43q12 -2 23 -2q30 1 60 15q42 20 81 59.5t74 96t61 122.5 q-45 43 -79.5 105.5t-47.5 143.5q-60 -14 -116 -18q-16 -1 -31 -1q-38 0 -72 7q-10 -37 -18 -67.5t-14.5 -62.5t-11.5 -68.5t-7 -85.5zM618 911q8 -4 16.5 -4h18.5q57 0 123 13q8 82 40 141t78 89q40 26 85 26h13q52 -4 102 -50q18 27 30 62q9 29 9 55q0 18 -4 35 q-11 42 -45 60q-21 12 -50 11q-16 1 -36 -3q-54 -10 -124 -62q-43 -35 -82.5 -83t-73.5 -100t-59.5 -102.5t-40.5 -87.5zM946 807q4 -37 11.5 -64.5t17.5 -50.5q12 35 15 67q2 19 2 44q0 16 -1 35q-20 -20 -45 -31z" />
<glyph unicode="P" horiz-adv-x="1255" d="M-60 192q18 22 40 21.5t18 -41.5q-4 -31 14.5 -48.5t45 -20.5t57 7.5t53.5 34.5q25 25 53.5 82.5t67.5 176t87 313t111 493.5q16 41 46 55.5t53 16.5q13 2 27 2q21 0 41 -4q34 -6 58.5 -21.5t34 -38t-7.5 -51.5q-10 -16 -28.5 -67t-42 -125t-52 -167t-57.5 -194 q8 0 23.5 -1t33 -1h33t23.5 2q76 8 140.5 56.5t108.5 117.5q43 68 65 151q15 59 16 115q0 23 -3 46q-6 61 -40.5 115.5t-88.5 93.5t-124 54q-36 8 -75 8q-36 0 -75 -7q-106 -27 -173 -108.5t-89 -192.5q-6 -35 -7 -75v-4q0 -37 17 -68q14 -23 1 -44.5t-42 -27.5 q-25 -5 -49 -5q-18 0 -36 3q-42 6 -74.5 26.5t-53 57.5t-20.5 90q2 127 58 217t138 148.5t178.5 87t178.5 32.5q26 1 51 2q84 1 169 -15q111 -20 205.5 -70t157 -134t72.5 -207q1 -20 2 -39q0 -94 -32 -188q-38 -114 -130 -203.5t-240 -136.5q-98 -31 -224 -31q-64 0 -134 8 q-27 -92 -60.5 -174t-78.5 -146.5t-100.5 -108.5t-124.5 -58q-25 -6 -50 -6q-30 0 -58 8q-52 14 -79 39q-48 44 -48 84q-1 41 19 65z" />
<glyph unicode="Q" horiz-adv-x="1101" d="M10 483q0 59 6.5 121t20.5 123q23 104 68 217t109.5 216.5t144 186.5t171.5 126q38 19 76 19q9 0 18 -2q46 -5 82.5 -27.5t59 -56.5t22.5 -69q0 -20 -23.5 -32.5t-49.5 -16.5q-27 -4 -85.5 -39t-127 -104.5t-138 -174t-118.5 -249.5q-18 -70 -34.5 -162t-16.5 -178 q0 -55 9 -102.5t28.5 -83t51 -55t76.5 -19.5q27 4 51.5 18.5t51.5 36.5q-37 82 -53.5 174t-16.5 189q0 111 20.5 222t53.5 210.5t76 182.5t88 138q74 86 155 86q53 0 100.5 -44t74.5 -142q14 -49 19 -104.5t5 -112.5q0 -113 -20.5 -230.5t-58.5 -228t-94 -206t-126 -158.5 q25 -31 63.5 -65t83 -63.5t91.5 -48t88 -18.5q25 0 51.5 8t40.5 17q20 10 34.5 4t22.5 -21.5t12.5 -37t4.5 -40.5q0 -29 -12.5 -64.5t-41 -64t-73.5 -44.5q-24 -8 -54 -8q-27 0 -59 7q-131 33 -226.5 120t-181.5 212q-55 -27 -104 -37t-92 -10q-86 0 -146.5 39t-100.5 105.5 t-58.5 154.5t-18.5 186zM547 578q0 -66 8 -128.5t29 -121.5q55 86 97 191.5t69.5 213t40 208.5t12.5 179q-2 55 -7 97.5t-18 42.5q-20 0 -57 -64h2q-27 -43 -57.5 -108.5t-57 -147.5t-44 -174t-17.5 -188z" />
<glyph unicode="R" horiz-adv-x="1404" d="M-60 192q18 22 40 21.5t18 -41.5q-4 -31 14.5 -48.5t45 -20.5t57 7.5t53.5 34.5q25 25 53.5 82.5t67.5 176t87 313t111 493.5q16 41 46 55.5t53 16.5q13 2 27 2q21 0 41 -4q34 -6 58.5 -21.5t34 -38t-7.5 -51.5q-10 -16 -28.5 -67t-42 -125t-52 -167t-57.5 -194h23.5h33 t33 1t23.5 1q76 8 140.5 55.5t108.5 116.5q43 70 65 152q15 58 16 114q0 23 -3 46q-6 61 -40.5 115.5t-88.5 93.5q-56 39 -126 54q-36 8 -74 8q-36 0 -74 -7q-106 -27 -173 -108.5t-89 -192.5q-6 -35 -7 -75v-4q0 -37 17 -68q14 -23 1 -44.5t-42 -27.5q-25 -5 -49 -5 q-18 0 -36 3q-42 6 -74.5 26.5t-53 57.5t-20.5 90q2 127 63.5 217t147.5 148.5t180 87t162 32.5l56 2q89 1 175 -15q112 -20 203.5 -71t152 -136t72.5 -208q2 -22 3 -45q1 -52 -13 -110q-18 -84 -71.5 -162t-144.5 -141.5t-229 -92.5q39 -18 58.5 -52t30 -70.5t16.5 -75.5 t15 -68t27.5 -46t55.5 -11q31 4 70 35.5t82 81t85 108.5t80.5 117.5t69.5 111t49 84.5q8 8 21.5 7t25 -8t17.5 -17t0 -19q-18 -35 -54 -100t-84.5 -144t-104.5 -160t-114.5 -147.5t-117 -108.5t-109.5 -42q-80 0 -123 36t-65.5 89t-30.5 116.5t-20.5 117t-36 89t-72.5 35.5 q-18 0 -37.5 2t-40.5 4q-27 -92 -60.5 -174t-78.5 -146.5t-100.5 -108.5t-124.5 -58q-25 -6 -50 -6q-30 0 -58 8q-52 14 -79 39q-48 44 -48 84q-1 41 19 65z" />
<glyph unicode="S" horiz-adv-x="1048" d="M29 242q-1 13 -1 27q0 37 8 87q11 68 60 121q35 33 71 37q9 1 18 1q27 0 51 -9q34 -12 63 -37t46 -50.5t20 -48t-11 -30.5q-14 -10 -27.5 -19.5t-23.5 -21.5q-31 -29 -41 -69q-5 -20 -5 -38t5 -36q10 -34 41 -56q23 -16 58 -16q13 0 28 2q109 16 155 91q28 46 28 103 q0 36 -11 76q-23 72 -69 133.5t-99 112.5q-41 39 -84 79t-78.5 88t-60.5 107.5t-25 137.5q0 100 38 184t103.5 145.5t153.5 95.5t189 34q100 0 186 -37t141.5 -101.5t71.5 -151.5q5 -25 5 -51q0 -65 -29 -139q-24 -59 -80 -77q-42 -14 -85 -14q-14 0 -28 1q-57 6 -102 30.5 t-47 53.5q-2 18 7 29.5t23 27.5q31 35 41 81q5 22 5 43q0 23 -6 44q-11 41 -45 68q-30 24 -75 24q-7 0 -14 -1q-33 -4 -64.5 -20.5t-57 -44.5t-41 -66.5t-15.5 -84.5q0 -43 15.5 -83.5t42 -79.5t58 -76t66.5 -72q37 -39 73 -85t65.5 -97t48 -105.5t18.5 -109.5 q0 -39 -9.5 -82t-31.5 -90q-29 -59 -72 -103.5t-95 -73t-109.5 -44t-112.5 -15.5q-66 0 -126.5 18.5t-107.5 53.5t-77.5 85t-36.5 114z" />
<glyph unicode="T" horiz-adv-x="1087" d="M2 1126q4 74 27.5 145.5t74 126t132.5 84.5q65 24 152 25q23 0 48 -2q82 -6 172 -24.5t184.5 -38t191.5 -34.5t194 -15q92 0 172 14t127 63q18 20 51 -3q32 -23 56 -69q22 -42 22 -93v-9q-2 -56 -54 -98q-59 -43 -135 -50q-28 -3 -57 -3q-48 0 -100 8q-82 12 -162 35.5 t-146 42.5h-2q0 -10 -4 -18.5t-8 -18.5q-20 -35 -76.5 -212t-144.5 -482q-29 -94 -64 -177t-81 -150t-102 -111t-126 -60q-27 -6 -53 -6q-31 0 -59 8q-52 14 -78 41q-33 31 -43.5 59.5t-6 52t18.5 40t28.5 21.5t23.5 -5t7 -37q-4 -31 14.5 -49t45 -21.5t57.5 8t55 36.5 q25 25 53.5 80t65.5 167.5t84.5 296.5t108.5 467q8 39 18 76t49 57l-6 2q-97 37 -191 66q-80 25 -153 25q-13 0 -25 -1q-59 -4 -96 -26.5t-57.5 -52t-27.5 -63.5t-7 -62q0 -35 17.5 -66t44 -53.5t59.5 -35.5t63 -15q25 -2 41.5 2t26.5 2t15 -14.5t9 -45.5q2 -27 -5 -59.5 t-27 -62.5q-22 -30 -56 -48q-31 -17 -76 -16h-10q-66 8 -117 41t-85 82q-36 49 -54 109q-15 50 -15 102q0 11 1 22z" />
<glyph unicode="U" horiz-adv-x="1667" d="M18 936q-3 14 -2 29q0 30 11 65q31 100 108.5 185t179 147.5t213.5 96.5q106 32 200 32h11q18 0 64.5 -9t89.5 -41q43 -33 71 -97q17 -41 17 -100q0 -35 -6 -75q-18 -96 -60.5 -213.5t-88.5 -235.5t-89 -224.5t-63 -178.5q-6 -18 -14 -56q-5 -24 -5 -45q1 -14 3 -26 q4 -32 24 -48q8 -6 20 -5q19 0 50 15q43 20 95 99t107.5 191.5t112.5 248.5t111.5 273.5t103.5 264.5t88 223q8 18 24.5 23.5t37.5 5.5q33 0 73.5 -14.5t72.5 -36t47 -49t-5 -54.5t-60 -112t-89.5 -201.5t-99.5 -248.5t-89 -252q-40 -120 -62 -215q-17 -70 -16 -110 q0 -14 2 -24q2 -4 8.5 -14.5t20.5 -6.5q27 8 66.5 44t86 88.5t94.5 117t92 127t80 119.5t58 98q4 10 15.5 9t22.5 -9t18.5 -19t3.5 -20q-16 -35 -54.5 -100.5t-90.5 -143t-113.5 -157.5t-123 -146.5t-119 -108.5t-100.5 -42h-7q-34 0 -62 18q-32 20 -53 57.5t-31 88.5 q-6 32 -6 67q0 21 2 43q-31 -51 -71 -100t-84 -87t-93 -62.5t-100 -26.5q-45 2 -87 16.5t-75 47.5q-34 34 -50 90q-11 37 -11 87q0 24 3 52q8 96 42 216t74 241.5t78 236.5t56 202q9 46 9 82q1 31 -7 54q-13 42 -63 42q-8 0 -17 -1q-39 -4 -84 -32.5t-88 -70.5t-82.5 -95.5 t-69.5 -107.5t-48 -106q-16 -47 -15 -85v-9q0 -41 -17 -58.5t-58 -6.5q-27 8 -56.5 26.5t-51.5 47t-30 69.5z" />
<glyph unicode="V" horiz-adv-x="1480" d="M-29 981q23 100 95.5 192.5t172 163t216 113.5t225.5 45q20 0 66.5 -5t92.5 -34q45 -29 77 -90q26 -51 27 -139q0 -17 -1 -35q-10 -96 -42 -217t-68.5 -243t-69.5 -231.5t-47 -181.5q-3 -20 -9 -58q-3 -17 -3 -34q-1 -19 3 -37q6 -32 28 -46q7 -4 17 -4q21 0 54 20 q41 25 90 107.5t99 199.5t97.5 256t83 280.5t58 271.5t22.5 226q0 31 26 45q22 11 51 11q6 -1 12 -1q36 -2 77 -18t75 -44t52 -66q13 -26 13 -55q0 -12 -2 -25q-37 -131 -78 -249t-87 -228.5t-96.5 -217t-107.5 -215.5q-109 -211 -234 -318.5t-225 -119.5h-9q-40 0 -77 16 q-41 18 -71 62t-44 112q-10 48 -10 113q0 27 2 57q4 90 27.5 202t51.5 226.5t50.5 222t25.5 188.5v19q1 68 -19 106q-18 36 -65 36q-10 0 -22 -2q-39 -6 -84 -37t-89 -76t-84 -101.5t-70 -112.5q-28 -57 -44 -111q-12 -43 -13 -78q0 -9 1 -17q1 -10 1 -18q0 -55 -49 -55 q-9 0 -19 2q-29 4 -59.5 20.5t-54 44t-35.5 67.5q-6 20 -7 45q0 23 6 50z" />
<glyph unicode="W" horiz-adv-x="1927" d="M-29 971q23 100 101 195.5t183 169t224 116.5t223 43q20 0 66.5 -6t92.5 -35t78 -89q27 -51 27 -139q0 -17 -1 -34q-10 -96 -42 -217t-69 -243t-70.5 -231.5t-48.5 -181.5q-2 -12 -5 -36.5t-2 -49t5 -49t15.5 -37t30 -12.5t48.5 25q63 51 108.5 156.5t79.5 235.5 t60.5 270.5t57 262t68.5 208.5t91 112q14 6 34 6q18 0 42 -5q49 -11 92 -34q42 -22 68 -54q14 -18 15 -35q0 -13 -9 -26q-12 -18 -39 -78.5t-59.5 -146.5t-69.5 -188.5t-70.5 -204.5t-61.5 -196.5t-42 -163.5q-6 -32 -6 -54q0 -23 7 -37q13 -26 40 -24t57.5 25.5t50.5 56.5 q43 68 98.5 180.5t110 263t100.5 334.5t72 397q4 25 30 32t59.5 1t69.5 -22.5t64.5 -42t44.5 -55.5q9 -19 9 -39q0 -13 -4 -25q-18 -98 -59.5 -229.5t-100.5 -272.5t-132 -278.5t-154 -247t-166 -176t-169 -66.5q-72 0 -130 52t-72 136q-76 -102 -139.5 -142t-118.5 -46h-9 q-40 0 -77 16q-41 18 -71 62t-44 112q-10 48 -10 112q0 28 2 58q4 90 27.5 202t50 226.5t49 221t26.5 187.5q1 12 1 24q1 64 -19 102q-18 37 -64 37q-10 0 -22 -2q-39 -6 -85 -38t-93 -78t-89 -103.5t-75 -115.5q-32 -59 -50 -113q-14 -44 -15 -79q0 -8 1 -16q1 -10 1 -18 q0 -55 -50 -55q-8 0 -18 1q-29 6 -59.5 21.5t-54 43.5t-35.5 68q-6 20 -7 44q0 24 6 51z" />
<glyph unicode="X" horiz-adv-x="1519" d="M6 905q-2 16 -2 32q0 53 20 103q26 66 72.5 124.5t108 108.5t125 89t124 65.5t103.5 36.5q19 4 63 14q19 4 39 4q27 0 57 -8q52 -12 102 -58t81 -150q23 -68 42.5 -147t33.5 -150q160 231 237.5 343.5t87.5 123.5q23 24 57 26q4 0 8 1q31 0 63 -11q36 -12 72 -34.5 t62.5 -45t38 -42t1.5 -27.5q-66 -47 -143 -120t-153.5 -157t-149.5 -171t-128 -163q6 -29 19.5 -86t30 -122.5t33.5 -130t34 -107.5q23 -58 47 -74q8 -5 18 -6q20 0 47 22q41 33 93.5 101.5t103.5 149.5t95 162t71 138q10 12 23.5 12.5t23.5 -8t14.5 -21.5t-4.5 -26 q-16 -31 -48 -95t-75 -142t-93 -160t-105.5 -148.5t-112.5 -109.5t-110 -43q-66 0 -120.5 35t-92.5 127q-27 59 -45.5 123.5t-34.5 124.5q-57 -74 -136 -165t-153 -174t-132.5 -142.5t-74.5 -67.5q-27 -12 -55.5 -2t-54 34.5t-46 57.5t-32.5 67q-11 40 -11 66q0 45 33 45 q7 0 15 -2q5 -1 10 -1q29 0 69 26q48 32 104 85.5t114.5 120t112.5 131t96 118.5t67 83q-20 92 -40.5 208t-59.5 282h-2q-16 53 -35 82.5t-39.5 42t-44 10.5t-49.5 -15q-53 -25 -106.5 -80t-90.5 -122.5t-50 -139.5q-4 -24 -4 -46q0 -45 17 -83q11 -24 11 -42q0 -40 -54 -48 q-29 -4 -62.5 1t-65.5 23.5t-55.5 53.5t-29.5 90z" />
<glyph unicode="Y" horiz-adv-x="1527" d="M-8 969q-3 14 -3 29q0 30 11 65q31 98 116 186t192.5 152.5t223.5 100.5q98 31 180 31q14 0 27 -1q18 0 64.5 -9.5t89.5 -42t71 -96.5q17 -40 17 -99q0 -34 -6 -75q-18 -96 -58 -207.5t-84.5 -221t-85 -210t-61.5 -170.5q-6 -20 -13 -58q-4 -24 -4 -46q0 -13 1 -25 q4 -32 24 -48q9 -6 21 -6q19 0 49 15q43 20 93 91t103.5 172.5t107.5 223.5t104.5 248t95.5 246.5t80 217.5q16 45 49 57t53 12q33 0 71 -10t66.5 -28.5t40.5 -43t-8 -51.5q-16 -18 -42 -81.5t-59.5 -156t-74.5 -209t-85 -243.5t-91 -256t-94 -248q-27 -68 -65 -158 t-92 -171t-127 -136q-66 -50 -149 -50q-9 0 -18 1q-51 2 -90 30.5t-59 68.5q-22 42 -22 91q0 45 26 84q23 37 49 41.5t46.5 -6t31 -30t0.5 -29.5q-12 -14 -20.5 -32.5t-9.5 -35t5 -29t22 -14.5q4 -1 7 -1q29 0 65 41q41 46 84 122t83 168t67 176q-63 -98 -147.5 -158.5 t-182.5 -64.5q-45 2 -87 16.5t-75 48t-49 89.5q-11 36 -11 85q0 25 3 52q8 96 39.5 215t70.5 238.5t75 230t52 193.5q8 43 8 75q0 30 -8 51q-10 32 -50 32q-12 0 -28 -3q-63 -16 -135.5 -74.5t-135 -135.5t-103.5 -160q-39 -79 -39 -140v-6q0 -41 -17.5 -58.5t-58.5 -7.5 q-27 8 -56.5 26.5t-51 48.5t-29.5 71z" />
<glyph unicode="Z" horiz-adv-x="1251" d="M-104 -228q-8 35 -8 72q0 54 16 111q29 100 87 165.5t133 101.5t160 48q58 8 115 7q27 1 54 -1q84 -6 161.5 -24.5t137.5 -42.5q23 88 23 156q-1 71 -25 123q-43 89 -158 88q-15 0 -31 -1h-9q-32 0 -54 25q-24 30 -32 66q-3 14 -3 27q0 21 7 41q11 32 46 32 q111 4 189.5 55t131 126t83 161t47.5 162q-57 -31 -153 -54q-96 -24 -194 -29q-23 -1 -46 -1q-73 0 -138 12q-86 16 -125 66q-24 28 -24 68q0 36 12 73q12 39 31.5 75t42.5 58q23 20 36 23.5t23 -5t21.5 -24.5t27.5 -31q35 -33 109 -51t154 -24q40 -3 77 -3.5t71 3.5 q69 6 95 22q16 10 32.5 16t35.5 6q25 0 60.5 -16t67 -42t51.5 -58q17 -26 18 -52q0 -5 -1 -10q-10 -59 -39.5 -151t-81 -185.5t-124 -176.5t-166.5 -124q122 -103 150 -241q9 -46 10 -96q0 -102 -37 -222q47 -33 90 -71.5t76.5 -78.5t57 -78t34.5 -67q5 -20 5 -38 q0 -25 -10 -45q-16 -36 -45.5 -65.5t-65.5 -47t-63 -23.5q-39 -8 -45 6.5t-6 55.5q0 72 -27.5 145.5t-68.5 116.5q-53 -104 -124 -185t-152.5 -137.5t-171 -85t-179.5 -28.5q-94 0 -173 39.5t-130 107.5t-69 155zM122 -176q-4 -27 -4 -52q0 -30 6 -57q11 -49 44 -81.5 t90 -34.5h6q46 1 102 31q60 32 119.5 94.5t115.5 151.5t101 200q-98 47 -187 53q-19 1 -37 1q-66 0 -118 -17q-68 -25 -117.5 -71t-80.5 -102t-40 -116z" />
<glyph unicode="[" horiz-adv-x="520" d="M-172 -162q0 18 4 38t8 36q10 33 35 112.5t56.5 190.5t70.5 244t80 274q49 166 98 334t89 306t69 231.5t35 109.5v2q16 35 41.5 45.5t54.5 5.5q20 0 54 -1t72 -2t75 -3t65 -2q14 -2 25.5 -2h15.5q18 0 25.5 -25.5t2.5 -57.5t-22.5 -59.5t-48.5 -31.5q-29 -4 -78 -1t-96 7 l-33 4l-63 -219q-31 -104 -67 -228t-74.5 -256t-78.5 -267.5t-78 -261t-72 -236.5t-60 -193h51q41 0 73.5 1t47.5 -1q14 -2 18 -27.5t-2 -58t-20.5 -62.5t-38.5 -38q-31 -4 -80 0t-94 8q-29 2 -52.5 4t-33.5 0q-43 -2 -58.5 21.5t-15.5 58.5z" />
<glyph unicode="\" horiz-adv-x="823" d="M-29 1663q-6 16 3.5 32.5t27.5 30t43 21.5t49 8q27 0 52.5 -10t39.5 -39v4q4 -10 18.5 -56t38 -120t52.5 -171t63 -206q35 -117 73 -245t76 -252.5t73.5 -240.5t66.5 -211t55.5 -163t38.5 -96q12 -23 10.5 -41.5t-14 -30.5t-32 -19.5t-39.5 -7.5q-27 0 -50.5 10.5 t-29.5 37.5q-23 57 -61 161.5t-83 234.5t-97 278.5t-102 297t-97.5 285.5t-84 245.5t-61.5 178.5t-29 84z" />
<glyph unicode="]" horiz-adv-x="593" d="M-150.5 -161q5.5 32 22.5 59.5t48 31.5h-2q29 4 79 0t97 -8l33 -2l63 217q31 102 67 227t75 258.5t79 268.5t76.5 261t70.5 236.5t60 192.5h-51q-41 0 -72.5 -1t-45.5 1q-16 0 -20.5 26.5t1.5 58.5t21.5 61.5t40.5 37.5q29 4 79 1t95 -7q29 -4 52 -5t34 -1q41 4 57 -20.5 t16 -57.5q0 -20 -4 -38.5t-8 -34.5q-12 -33 -35.5 -113t-56.5 -190.5t-72 -243.5t-80 -275q-49 -168 -97 -336t-89 -305t-68.5 -230t-35.5 -110v-4q-16 -33 -42 -43t-53 -6h-56.5t-71.5 2t-74.5 3t-65.5 3q-14 2 -24.5 2h-16.5q-18 0 -24.5 25.5t-1 57.5z" />
<glyph unicode="^" horiz-adv-x="641" d="M4 784q0 33 19 54h-3q35 43 74 87t78 87t74 79.5t61 63.5l39 41q8 10 34 9t32 -11l32 -49q35 -53 87.5 -139t97.5 -175q8 -20 4 -40.5t-16.5 -38t-31 -27.5t-36.5 -10q-41 0 -62 43l-36 67q-23 43 -47.5 90.5t-41.5 83.5q-33 -37 -67.5 -78.5t-65 -79.5t-52 -66 t-27.5 -36q-29 -37 -68 -37q-33 0 -55.5 25t-22.5 57z" />
<glyph unicode="_" horiz-adv-x="1120" d="M125 -96q0 29 23.5 51t64.5 22q193 0 354.5 -3t266.5 -5q33 -2 57 -2h41q31 -2 49 -21.5t18 -41.5q0 -25 -18 -43.5t-61 -22.5h-80h-164t-193 4q-47 0 -91 1t-81 1h-62.5h-35.5q-47 0 -67.5 18.5t-20.5 41.5z" />
<glyph unicode="`" horiz-adv-x="737" d="M295 1479q-16 47 24 77q16 14 41 20.5t47.5 4.5t41 -12t22.5 -31l12 -59q10 -43 14.5 -65.5t8.5 -51.5q4 -23 -4 -39t-21 -29q-18 -16 -41.5 -15t-40.5 17q-8 8 -43.5 55.5t-60.5 127.5z" />
<glyph unicode="a" horiz-adv-x="749" d="M-113 242q0 74 18.5 159.5t48.5 165.5t66.5 144.5t75.5 95.5q33 25 68 36t67 11q49 0 88 -21.5t58 -68.5q6 14 9 20.5t13 22.5q14 27 54.5 25.5t78 -17.5t64.5 -41.5t14 -50.5q-39 -86 -72.5 -171t-59.5 -159t-38 -131q-9 -43 -9 -71q0 -9 1 -17q4 -16 13.5 -17t20.5 6 t21.5 18.5t16.5 17.5q41 45 88 119.5t91 154.5t80 152.5t56 113.5q4 10 17.5 10.5t25.5 -5t21.5 -14.5t5.5 -19q-12 -18 -38 -79t-61.5 -139.5t-78.5 -164.5t-91.5 -159t-98.5 -120t-99 -47q-53 0 -93 37t-53 98q-12 -23 -30.5 -46t-41 -42.5t-50 -33t-60.5 -15.5 q-88 0 -147.5 60.5t-59.5 181.5zM69 189.5q-1 -31.5 5 -55t26 -23.5q27 0 53.5 29.5t50 76.5t44 104.5t36 114t23.5 105t8 77.5q0 6 -1 19.5t-4 26t-8 22.5t-13 10q-25 0 -54.5 -37.5t-57 -95t-52.5 -127t-39 -131.5q-4 -18 -10 -51t-7 -64.5z" />
<glyph unicode="b" horiz-adv-x="733" d="M-152 102q8 70 34 185.5t63 253t81 282t86 271.5t78.5 221t61.5 131q16 27 57 27q33 0 69 -12.5t62.5 -32t36.5 -46t-8 -55.5q-8 -12 -43 -93t-82 -196.5t-98 -252t-93 -259.5t-69 -218q-24 -83 -23 -120v-10q4 -25 27 -35t45 0q45 14 94 99.5t82 214.5q-37 37 -55 89 t-18 99q0 25 7 53.5t21.5 53t34.5 42t47 19.5h7q41 1 76 -21q38 -24 61.5 -68t31.5 -102q3 -23 3 -48q0 -37 -7 -76q5 0 10 -1q29 0 63 10q40 11 79 39.5t70.5 76t50.5 116.5q8 14 23 17.5t28.5 -1.5t21.5 -17.5t2 -28.5q-20 -80 -65 -141.5t-100.5 -102.5t-110.5 -61 q-46 -17 -84 -18q-7 0 -14 1q-23 -66 -58 -134.5t-80 -124.5t-97 -92t-110 -36q-35 0 -69.5 14.5t-50.5 42.5q-14 -35 -33 -46t-39 -11q-41 0 -76 24q-31 22 -31 67v11z" />
<glyph unicode="c" horiz-adv-x="622" d="M-123 305q0 100 32 206.5t88 190.5t134 132q56 34 119 33q25 0 51 -5q45 -10 80 -36.5t55 -66.5q21 -41 25 -93q1 -10 1 -21q0 -43 -13 -90q-15 -53 -57 -65q-31 -9 -59 -8q-9 0 -18 1q-65 9 -65 40q0 5 2 12q8 27 17.5 58.5t10.5 55t-8.5 31.5t-40.5 -12 q-33 -23 -63.5 -74t-54 -114.5t-38 -130t-14.5 -118.5q0 -63 19 -93q18 -30 48 -34q6 -1 13 0q25 0 56 12q39 16 79 48q57 43 112.5 109.5t108 143.5t101.5 161t94 161q6 8 18.5 8.5t25 -6t20.5 -15.5t4 -17q-29 -51 -70 -123t-90 -151t-105.5 -156.5t-117 -139t-125 -100.5 t-127.5 -39q-66 0 -112 25.5t-76.5 68.5t-45 97.5t-14.5 113.5z" />
<glyph unicode="d" horiz-adv-x="778" d="M-109 242q0 74 18.5 159.5t48.5 165.5t67.5 144.5t76.5 95.5q33 25 67 36t67 11q49 0 87.5 -21.5t59.5 -68.5q33 117 71 230.5t71.5 205.5t61 156.5t42.5 85.5q10 14 25.5 20t29.5 6q31 0 69 -10t66.5 -28.5t40.5 -44t-6 -54.5q-20 -33 -60 -120t-87.5 -200.5 t-96.5 -242.5t-88 -247q-40 -118 -64 -211q-21 -80 -21 -123q0 -7 1 -13q4 -27 19 -18q27 12 61.5 51t73.5 93t78 117.5t73.5 124t62.5 113t42 84.5q4 10 17.5 10.5t26.5 -5t21.5 -14.5t6.5 -19q-12 -18 -40 -79t-67 -139.5t-86 -164.5t-97 -159t-102.5 -120t-101.5 -47 q-51 0 -91 37t-54 98q-12 -23 -31 -46t-41.5 -42.5t-50 -33t-60.5 -15.5q-88 0 -147.5 60.5t-59.5 181.5zM69 189.5q-1 -31.5 5 -55t26 -23.5q27 0 53.5 29.5t50 76.5t44 104.5t36 114t23.5 105t8 77.5q0 6 -1 19.5t-4 26t-8 22.5t-13 10q-25 0 -54.5 -37.5t-57 -95 t-52.5 -127t-39 -131.5q-4 -18 -10 -51t-7 -64.5z" />
<glyph unicode="e" horiz-adv-x="616" d="M-129 309q0 86 25.5 183.5t74.5 178.5t120 135t163 54q37 0 75 -13t66.5 -40t48 -69t19.5 -99q-4 -109 -46 -180.5t-103.5 -114.5t-130 -60.5t-126.5 -17.5q-4 -27 3.5 -54.5t22.5 -49t38.5 -34.5t54.5 -13q53 0 121 49t138.5 134t140 198.5t126.5 242.5q4 10 16.5 11.5 t25 -4t19.5 -14.5t3 -17q-23 -47 -60.5 -118t-86 -149.5t-105.5 -157.5t-121.5 -143.5t-133.5 -105.5t-138 -43q-55 0 -100.5 23.5t-79 65.5t-52 98.5t-18.5 123.5zM70 352q35 4 70.5 29t65.5 60.5t50 81.5t25 93q2 25 -3.5 36.5t-12.5 16.5t-14 4t-13 -3q-18 -10 -43 -41 t-49.5 -75t-45 -96t-30.5 -106z" />
<glyph unicode="f" horiz-adv-x="479" d="M-143 -193q-2 29 -2 61q0 48 4 103q6 92 20.5 197.5t36 219.5t47.5 228l-49 37q-8 6 -5 24.5t12 37t22.5 31t27.5 8.5l23 -9q29 115 60.5 223.5t64.5 201t63.5 164t59.5 112.5q16 27 57 27q33 0 68.5 -12.5t62.5 -32t37 -46t-8 -55.5q-12 -18 -43 -85.5t-69 -162 t-79 -206t-78 -222.5q29 -12 76 -16q14 -1 30 -1q34 0 72 6q54 9 108 34.5t97 77.5q6 6 19.5 2t27 -13.5t23.5 -21.5t10 -21q-59 -78 -128.5 -115.5t-134.5 -50.5q-48 -9 -90 -9q-14 0 -26 1q-53 4 -77 11q23 -76 34 -177q10 -94 10 -192v-18q-1 -109 -15.5 -215.5 t-43 -192.5t-72.5 -142.5t-104 -64.5h-6q-53 0 -95 67q-44 72 -48 207zM22 -290q3 -42 13 -42q14 0 27.5 38t24.5 98.5t18.5 136t10.5 148.5q2 44 2 85q0 27 -1 52q-2 65 -13 104q-10 -23 -21 -81.5t-22.5 -132t-21.5 -152.5t-15 -146q-2 -42 -2 -75v-33z" />
<glyph unicode="g" horiz-adv-x="710" d="M-143 -262q2 47 24 88q37 70 115 108.5t160 59.5l24 84q-18 -35 -55 -55.5t-68 -20.5q-86 4 -137 69.5t-51 172.5q0 66 22.5 153.5t56.5 171.5t75.5 151.5t78.5 96.5q33 23 67 33t64 10q47 0 92.5 -22.5t63.5 -71.5q4 12 12.5 24.5t12.5 22.5q12 18 49 15t72.5 -21.5 t58.5 -46.5q15 -18 15 -38q0 -12 -5 -24q-31 -61 -66.5 -147t-71.5 -179t-67.5 -182.5t-52.5 -156.5q68 41 131.5 117.5t121.5 173t107.5 204t90.5 211.5q4 8 17 9.5t25.5 -3t20.5 -12.5t4 -16q-23 -61 -53.5 -138t-70.5 -158t-87 -161t-100 -148.5t-112.5 -119.5 t-123.5 -74q-14 -43 -38.5 -106.5t-63.5 -122t-91 -98.5q-46 -36 -107 -36q-7 0 -15 1q-49 2 -83 28.5t-49 66.5q-13 35 -13 76v11zM-11 -278.5q1 -18.5 13 -18.5q25 0 42 14.5t30.5 37t24 49t16.5 53.5q-47 -16 -75 -42t-40 -50.5t-11 -43zM47 195.5q-4 -37.5 1 -63.5 t28 -19q35 8 66.5 45t58 88t48 111.5t37 116.5t23.5 103t8 72q0 6 -1 17.5t-4 22.5t-8 20.5t-13 9.5q-23 0 -51.5 -35t-57 -90t-56.5 -121.5t-48 -130.5q-8 -25 -17.5 -67t-13.5 -79.5z" />
<glyph unicode="h" horiz-adv-x="731" d="M-131 115q0 66 21.5 179.5t55.5 248.5t77 278.5t86 269.5t80.5 221t64.5 134q16 27 57 27q33 0 69 -12.5t62.5 -32t36.5 -46t-8 -55.5q-12 -18 -44 -85.5t-73 -163t-85 -208t-81 -221.5q18 27 47 63t66 68t79 52q32 16 66 15q10 0 19 -1q57 -6 91 -60q18 -29 19 -71 q0 -35 -14 -78q-12 -39 -27.5 -89t-27.5 -89q-29 -84 -51.5 -160t-22.5 -123q0 -6 4 -15t15 -9q16 0 59 39.5t99.5 115.5t120 183.5t122.5 240.5q6 10 18.5 10t24.5 -5t19.5 -14t3.5 -17q-10 -18 -36 -77t-63 -133.5t-85 -158.5t-100 -155.5t-108.5 -121t-111.5 -57.5 q-13 -1 -25 -1q-37 -1 -63 9q-35 12 -56.5 39t-31 64t-9.5 80q0 66 19.5 144.5t38.5 156.5q8 35 8 56q0 12 -3 20q-7 22 -25.5 17t-42 -32t-42.5 -68q-18 -41 -38.5 -92t-40 -105t-35 -105.5t-23.5 -90.5q-9 -40 -35 -70q-21 -24 -54 -24q-9 0 -19 2q-16 2 -29.5 14.5 t-22 28.5t-12.5 35t-4 35z" />
<glyph unicode="i" horiz-adv-x="460" d="M-98 219q0 68 14 151t36.5 163.5t48.5 152.5t50 115q17 35 65 40q10 1 21 1q37 0 70 -14q43 -18 67 -55q12 -18 13 -38q0 -20 -13 -43q-18 -37 -45.5 -91t-54.5 -116.5t-46.5 -128t-25.5 -120.5v-23.5t3.5 -27t9.5 -23.5t18 -12q25 0 59.5 29.5t72.5 79.5t78 114.5 t74 130t61.5 127t41.5 108.5q4 12 16.5 13.5t25.5 -4t22.5 -14.5t7.5 -19q-12 -25 -37 -88.5t-60.5 -142t-80.5 -165t-97.5 -157t-112 -116.5t-120.5 -46q-51 0 -86 16.5t-56.5 46t-30.5 69.5t-9 87zM168 1051q6 20 13 47.5t16.5 55.5t19.5 52.5t21 38.5q12 12 24 18.5 t31 8.5h9q26 0 56 -10q34 -12 62.5 -34t41.5 -49.5t1 -52.5l-139 -188q-18 -16 -48 -15t-58 16t-44 44q-10 18 -10 39q0 14 4 29z" />
<glyph unicode="j" horiz-adv-x="452" d="M-379 -305q0 72 24.5 122t64.5 83.5t92.5 54t109.5 35.5q8 37 20.5 100.5t26.5 138t30.5 155.5t31 152.5t26.5 129t21 88.5q14 45 38 76q22 28 59 28h9q31 -2 66.5 -11t62.5 -26.5t37 -44.5q3 -10 3 -20q0 -21 -13 -47q-25 -49 -55.5 -133t-61.5 -180.5t-58.5 -191.5 t-45.5 -163q68 45 133 134t123.5 196.5t107.5 222.5t84 211q4 10 18.5 11t27.5 -3t23.5 -12t8.5 -17q-20 -63 -52 -144t-72 -168t-88 -174t-102.5 -161t-115 -130t-123.5 -83q-14 -43 -36.5 -108.5t-57.5 -128t-86.5 -107.5t-122.5 -49h-10q-63 0 -104 47q-44 51 -44 117z M-258 -289.5q2 -19.5 16 -19.5q49 4 76 55t39 104q-49 -14 -79 -40.5t-42 -53t-10 -46zM193 1051q6 20 13 47.5t16 55.5t19.5 52.5t20.5 38.5q12 12 24.5 18.5t30.5 8.5h9q27 0 57 -10q35 -13 62.5 -34.5t41 -49t0.5 -52.5l-139 -188q-18 -16 -48 -15t-57.5 16t-44.5 44 q-9 17 -9 38q0 14 4 30z" />
<glyph unicode="k" horiz-adv-x="731" d="M-90 63q-4 31 -4 69q0 53 8 120q14 115 45 248t73 274t90 270.5t96 235.5t89 168q10 12 26.5 19.5t33.5 7.5q33 0 69.5 -11.5t63 -32t36.5 -46t-8 -54.5q-18 -27 -47.5 -79t-63.5 -119.5t-69 -144.5t-65.5 -151.5t-54 -143t-33.5 -118.5q20 23 47.5 55t58.5 70.5 t60.5 84.5t54.5 102q12 27 37.5 22.5t52 -26t47 -53t22.5 -58.5v-6q0 -28 -17 -60q-19 -36 -51 -74t-74 -78t-85 -77q51 -10 70.5 -39.5t21.5 -65.5v-14q0 -29 -6 -60q-8 -38 -10 -65.5t7 -40t48 2.5q45 16 95.5 82.5t99.5 150.5t91 170t73 141q8 8 21 7t22.5 -7t13.5 -16 t-2 -18q-18 -37 -50 -103.5t-74 -144.5t-92 -159t-102.5 -147.5t-107.5 -108.5t-107 -42q-57 0 -79.5 25.5t-25.5 64.5q-1 12 -1 24q0 28 5 59q7 44 8 82v5q0 36 -13 58q-13 23 -54 22h-7q-23 -23 -39.5 -40t-20.5 -32q-10 -23 -13 -53.5t-6 -62t-8.5 -60.5t-17.5 -47 q-16 -23 -42 -34t-52.5 -9t-50 17.5t-33.5 43.5z" />
<glyph unicode="l" horiz-adv-x="391" d="M-96 207v16q0 75 16 179q18 114 49 242t70 258t78 240.5t72 191.5t53 112q16 27 57 27q33 0 68.5 -12.5t62.5 -32t37 -46t-8 -55.5q-16 -23 -52 -105.5t-81 -198.5t-92.5 -248t-83.5 -254t-54 -218q-11 -58 -11 -96q0 -25 5 -41q4 -12 15.5 -14t21.5 4q33 20 78 75.5 t93 133t95 174t86 200.5q4 10 17.5 10.5t27 -5t22.5 -14.5t7 -19q-12 -16 -35.5 -76t-57.5 -138.5t-75 -166.5t-88 -161t-98.5 -121t-104.5 -48q-37 0 -70.5 10t-59 34t-42 63.5t-18.5 99.5z" />
<glyph unicode="m" horiz-adv-x="1077" d="M-100 115q0 57 14 140t37.5 178t54.5 195.5t62 190.5q8 29 49 37q20 4 41 4l41 -4q41 -8 68.5 -29.5t13.5 -52.5q-16 -43 -36 -86t-34 -84q14 25 36.5 55.5t49.5 61.5t55.5 60.5t59.5 49.5q33 19 65 19h5q34 -2 60 -20q24 -19 40 -53q14 -30 14 -66v-9q29 35 63.5 69 t69.5 56t73 22h9q43 -3 73 -34t38 -90q2 -13 1 -27q0 -51 -24 -120q-6 -20 -11 -34t-10.5 -26t-9.5 -25.5t-10 -31.5q-29 -86 -49.5 -162t-20.5 -123q0 -6 3.5 -15t15.5 -9q16 0 55 36.5t92.5 109.5t116 182.5t123.5 252.5q4 10 16.5 11t23.5 -4t19.5 -14t3.5 -19 q-10 -18 -34.5 -77t-61.5 -134.5t-83 -159.5t-96 -155.5t-104.5 -121t-107.5 -57.5q-12 -1 -24 -1q-36 -1 -61 9q-34 12 -54.5 39t-29.5 64t-9 80q0 66 19.5 145.5t35.5 157.5q8 39 8 60q0 10 -1 16q-5 20 -20.5 16t-37 -32t-41.5 -69q-18 -41 -36.5 -99t-32.5 -120 q-13 -60 -21 -116q-6 -44 -6 -73v-17q0 -32 -34 -48q-27 -13 -58 -14q-11 0 -22 2q-44 6 -78 39q-27 26 -27 71q0 12 2 25q10 61 29.5 137t41.5 154q16 55 27.5 102.5t-4.5 57.5q-10 10 -41 -12.5t-64 -88.5q-18 -41 -40.5 -92t-42 -105t-36 -105.5t-24.5 -90.5 q-10 -40 -38 -70q-22 -24 -58 -24q-10 0 -21 2q-18 2 -31.5 14.5t-22.5 28.5t-13 34.5t-4 35.5z" />
<glyph unicode="n" horiz-adv-x="745" d="M-131 113q0 57 15.5 142t40 181t55 197.5t61.5 191.5q8 23 47 29q17 3 34 3q23 0 45 -5q40 -8 67.5 -28.5t13.5 -51.5q-16 -43 -37 -86t-35 -82q14 23 38 52.5t51.5 60.5t57 59.5t60.5 48.5q34 22 67 22l11 -1q39 -4 67 -30t40 -72q6 -21 5 -45q0 -29 -8 -62 q-8 -37 -28.5 -99.5t-41 -130t-37 -131t-16.5 -100.5q0 -6 3.5 -15t13.5 -9q16 0 56 36.5t93.5 110.5t114.5 182.5t123 249.5q4 10 16 11t24.5 -4t19.5 -15t5 -18q-10 -20 -34.5 -78t-61.5 -133.5t-83 -158.5t-97 -154.5t-104.5 -121t-106.5 -57.5q-12 -1 -23 -1 q-34 -1 -60 9q-34 12 -54.5 39t-29.5 64t-9 80q0 66 19.5 144.5t35.5 156.5q8 35 8 56q0 12 -3 20q-7 22 -25.5 17t-42 -32t-41.5 -68t-41 -93t-42.5 -106.5t-37 -105.5t-25.5 -90q-9 -38 -35 -68q-21 -24 -57 -24q-10 0 -20 2q-37 4 -54.5 42t-17.5 69z" />
<glyph unicode="o" horiz-adv-x="647" d="M-119 289q0 94 28 195.5t77 186.5t113.5 139t138.5 54q12 0 31.5 -2t40 -13t41 -32.5t32.5 -58.5q47 -20 74 -92q15 -39 15 -96q0 -49 -11 -111q16 -2 48 8t69.5 40t76.5 84t72 140q8 14 22.5 18.5t26.5 -1t20.5 -16.5t6.5 -30q-18 -63 -58 -130.5t-91 -121.5 q-50 -52 -108 -86q-52 -30 -102 -30h-12q-41 -154 -124 -252t-199 -98q-45 0 -97 22q-68 35 -99.5 111t-31.5 172zM38 206q-1 -10 -1 -19q0 -40 11 -68q13 -35 50 -35q29 0 55.5 30.5t49 77t37 98.5t18.5 95q-18 12 -31.5 36.5t-20.5 54.5t-8 60.5t9 53.5q-29 -10 -57.5 -51 t-52 -97.5t-40 -120t-19.5 -115.5z" />
<glyph unicode="p" horiz-adv-x="782" d="M-272 -295q4 10 8 10t10 3t16.5 18.5t25.5 56.5t37.5 112.5t55.5 190.5t77 291t101 410q2 12 6.5 27.5t10.5 28.5t14.5 23.5t22.5 12.5q12 2 42.5 -1t58.5 -16.5t42 -41.5q6 -13 6 -29q0 -21 -10 -49q4 10 20.5 28.5t42 37t56 31.5t63.5 13q92 0 144 -72q34 -46 34 -122 q0 -44 -12 -99q-12 -53 -34.5 -116.5t-54.5 -123t-70 -111.5t-76 -83q35 0 98 37t138 112.5t152.5 189.5t141.5 265q4 8 15.5 9.5t23.5 -3t21.5 -12.5t7.5 -16q-20 -47 -52 -116t-77.5 -143.5t-102.5 -150.5t-130 -140.5t-161 -109.5t-192 -59q-6 0 -28.5 -1t-49.5 5 t-51.5 22.5t-30.5 51.5q-4 20 0 42.5t16.5 41t34 30t51.5 5.5q20 0 48 37.5t54.5 94t49.5 122t35 123.5q10 51 10 87v12q-2 40 -27 46q-7 2 -14 2q-34 0 -64 -38q-36 -46 -68 -115.5t-55.5 -146.5t-37.5 -128q-23 -88 -45.5 -182.5t-45 -183.5t-46 -163.5t-47.5 -123.5 q-10 -20 -49 -22q-8 -1 -16 -1l-64 8q-39 10 -66 31.5t-14 50.5z" />
<glyph unicode="q" horiz-adv-x="735" d="M-150 252q0 66 22 151.5t56.5 168.5t75.5 149.5t82 95.5q33 23 67.5 33t69.5 10q49 0 89 -18.5t59 -63.5q6 16 11 36t21 26q20 8 59.5 -2.5t72 -35t47.5 -62.5q6 -15 6 -31q0 -26 -15 -56q-68 -133 -103.5 -233.5t-49.5 -161.5q45 14 89 49t91 92.5t102.5 141.5 t124.5 200q4 8 17.5 8.5t26 -6t20.5 -16.5t4 -18q-8 -14 -29.5 -55.5t-53.5 -95.5t-71 -116.5t-79.5 -122t-82.5 -109.5t-79 -79q8 -51 10 -97t2 -87q0 -190 -48 -304t-147 -116h-6q-57 0 -94 38q-39 40 -58.5 109.5t-19.5 163.5t17 203q-18 -14 -43 -25.5t-56 -13.5 q-100 0 -153.5 70.5t-53.5 179.5zM33 156q8 -47 30 -47q25 0 58 36.5t65 92.5q12 23 34 77t41.5 116.5t33.5 122.5t14 95q0 23 -6 41q-8 29 -22 29q-23 0 -51.5 -35t-57.5 -88t-56.5 -118.5t-48 -129t-30.5 -114.5q-6 -33 -6 -55q0 -13 2 -23zM326 -225q-1 -16 -1 -32 q0 -23 2 -44q3 -35 9 -35q23 0 39 46t22 114q4 44 4 93q0 24 -1 49q-3 75 -21 130q-25 -90 -37 -179t-16 -142z" />
<glyph unicode="r" horiz-adv-x="677" d="M-12 844v13q0 62 36 109q38 50 102 50h5q37 0 58.5 -18.5t30.5 -47t5 -62.5t-18 -67q4 -29 35.5 -39t60.5 11q29 16 57 16q31 0 63 -14.5t51.5 -37t24.5 -51t-16 -59.5q-23 -31 -53.5 -83t-59 -113.5t-49 -125t-22.5 -114.5q0 -35 8 -51.5t49 12.5q47 35 107.5 109.5 t120 159.5t109.5 164t77 122q6 10 18.5 9t23.5 -8t18.5 -18.5t0.5 -19.5q-14 -16 -46.5 -72.5t-77.5 -133t-99.5 -161.5t-111 -157t-112.5 -119t-105 -47q-41 0 -74 22.5t-54.5 58.5t-33 82t-11.5 97q0 49 9.5 103.5t25 107.5t36 102.5t40.5 90.5q-41 2 -82 12t-72.5 31.5 t-52 55.5t-22.5 81z" />
<glyph unicode="s" horiz-adv-x="610" d="M-117 74q-2 33 16.5 56.5t42 31.5t45 -2t27.5 -47q4 -23 27 -23q33 0 45 26q10 22 10 54v11q-2 40 -13 87t-25.5 92.5t-27 82.5t-16.5 53q-20 67 -20 122q0 42 12 78q27 80 84 124t131 52q18 2 35 3q54 0 98 -21q43 -18 69 -54t35 -78q5 -24 5 -48q0 -19 -3 -37 q-7 -43 -28 -76q-12 -20 -34.5 -26.5t-48 -5.5t-49.5 9.5t-36 16.5q-14 10 -14 25.5t8 29.5q23 37 2 58q-16 16 -43 5t-31 -52q0 -49 18.5 -104.5t43 -112t47 -108.5t29.5 -95v-29q88 72 188 208t184 359q2 8 14.5 9.5t25 -3t20.5 -12.5t6 -16q-29 -66 -75 -170.5 t-116.5 -212t-168 -200.5t-228.5 -136q-43 -18 -98 -25q-19 -2 -37 -2q-28 1 -50 5q-36 6 -59.5 20t-35 34.5t-11.5 43.5z" />
<glyph unicode="t" horiz-adv-x="438" d="M-82 721q0 23 13.5 47.5t41.5 19.5q16 -2 31.5 -3t32.5 -1q31 113 66.5 221.5t69.5 198.5t62.5 154.5t45.5 89.5q16 27 55 27q33 0 68.5 -12.5t62.5 -32t37 -46t-8 -55.5q-12 -16 -36 -68.5t-54.5 -126t-65.5 -164.5t-68 -188h58q12 0 16 -15t1 -33.5t-14 -35t-30 -18.5 q-16 -2 -32.5 -3t-34.5 -3q-29 -84 -51.5 -163t-38 -146.5t-21.5 -118.5q-3 -22 -2 -39q0 -23 4 -39q4 -12 16.5 -14t22.5 4q23 14 53.5 52t65 89t70.5 112.5t68 121t57.5 113.5t39.5 93q4 10 16.5 11.5t25.5 -4t22.5 -14.5t7.5 -19q-12 -18 -38 -76.5t-61.5 -137.5 t-78.5 -165t-90.5 -160t-94.5 -122t-92 -50h-13q-77 0 -122 45q-49 49 -59 141q-3 28 -3 61q0 69 14 157q21 130 56 278l-30 2q-35 2 -48.5 11.5t-13.5 23.5z" />
<glyph unicode="u" horiz-adv-x="727" d="M-129 221v16q1 68 15 148q16 90 41.5 177t54 159t51.5 106q29 35 73 35q31 0 62 -9t52.5 -25.5t27.5 -42t-12 -58.5q-18 -35 -46 -97.5t-54.5 -136t-49.5 -147.5t-29 -131q-2 -13 -2 -24q-1 -31 17 -39q3 -2 8 -2q22 0 51 53q27 45 56.5 116.5t59 148.5t57.5 150.5 t46 124.5q10 31 18.5 53.5t14.5 30.5q23 35 70 35q31 0 62.5 -7t54 -21.5t30.5 -37t-8 -55.5q-18 -33 -44 -89t-52.5 -122.5t-47 -135t-28.5 -128.5q0 -6 -2 -23.5t-2 -36t5 -32.5t17 -16q20 0 57 30.5t86.5 100t106.5 180.5t119 270q4 10 16.5 12.5t24.5 -2t20.5 -13.5 t5.5 -19q-10 -20 -33.5 -79.5t-57 -137.5t-76.5 -164t-90.5 -159t-96.5 -123t-96 -54q-11 -1 -21 -1q-67 0 -106 46q-45 53 -47 141q-18 -35 -41 -67.5t-49.5 -58t-56 -42t-58.5 -16.5q-25 0 -53.5 8t-55 30.5t-45 66t-20.5 114.5z" />
<glyph unicode="v" horiz-adv-x="647" d="M-127 276q0 70 12.5 154t33 164t45 146.5t46.5 99.5q12 18 32.5 26t43.5 8q31 0 61.5 -9t52 -25.5t25.5 -42t-16 -56.5q-25 -37 -53.5 -105.5t-52 -147t-37.5 -157.5q-11 -62 -12 -110q0 -13 1 -26q0 -20 7.5 -27.5t15.5 -7.5t16 5t15 11q41 43 80.5 122t74.5 179 q-12 37 -18 76q-3 22 -3 49q0 22 2 48q5 56 22.5 104.5t48 83.5t77.5 39h11q43 0 72 -28q32 -32 41 -88q4 -22 4 -47q0 -38 -9 -83q-14 -74 -55 -156l16 -2q25 -1 53 15q36 20 71.5 58t66 88t49.5 105q0 14 14 22.5t28.5 6.5t25 -12.5t3.5 -32.5q-12 -47 -52 -119t-95 -136 q-55 -66 -121 -104q-43 -25 -85 -25q-22 0 -44 7q-35 -63 -75 -124.5t-84 -111t-90 -80t-91 -30.5q-47 0 -89 36t-64 101q-20 61 -21 139z" />
<glyph unicode="w" horiz-adv-x="1013" d="M-127 258q4 68 19.5 149.5t39 161.5t51 149.5t58.5 115.5q24 34 69 34h3q31 0 59.5 -9t48 -25.5t24.5 -42t-14 -56.5q-18 -35 -47.5 -99.5t-58.5 -139t-49.5 -150.5t-20.5 -133v-14q0 -55 15 -55q17 0 51 63q29 55 62.5 143t66.5 180.5t62.5 174t52.5 124.5q25 33 73 33 q31 0 59.5 -9t48 -27.5t26 -43t-10.5 -55.5q-18 -35 -45 -97.5t-50.5 -135t-40.5 -146.5t-19 -131q0 -39 5 -55.5t15 -16.5t25.5 15.5t33.5 40.5q35 47 69 114.5t64 143.5q-10 23 -16 46t-10 48q-3 22 -3 49q0 22 2 48q5 56 22.5 104.5t48 83.5t77.5 39h11q43 0 72 -28 q32 -32 41 -88q4 -22 4 -47q0 -38 -9 -83q-14 -74 -55 -156l16 -2q25 -1 53 15q36 20 71.5 58t66 88t49.5 105q0 14 14 22.5t28.5 6.5t25 -12.5t3.5 -32.5q-12 -47 -51 -117.5t-94 -134t-119 -103.5q-46 -29 -91 -29q-18 0 -36 5q-31 -59 -66.5 -116.5t-75.5 -104.5t-83 -80 t-88 -41q-12 -2 -24 -2q-22 0 -42 7q-30 11 -54.5 37t-43 61.5t-26.5 76.5q-18 -33 -37 -64.5t-40.5 -57t-47 -42t-56.5 -18.5q-9 -1 -18 -1q-42 1 -72 17q-37 20 -58.5 55t-29.5 83q-5 32 -5 68q0 18 1 36z" />
<glyph unicode="x" horiz-adv-x="729" d="M-123 86q-4 16 1 26.5t24 16.5q14 4 38.5 17.5t63.5 52.5q23 23 48.5 50t51.5 58q-23 61 -36 131t-21 136t-9 120v33q0 30 1 49q2 43 42 64.5t87 21.5q50 0 74 -18q16 -12 17 -40q0 -12 -3 -26q-4 -33 -4 -77q0 -23 1 -47q3 -74 7 -140q20 33 47 86t56.5 104.5t59.5 92.5 t58 51q18 6 54 1t67 -20.5t44 -39t-15 -52.5q-27 -20 -70 -72.5t-90 -115t-93 -125t-81 -105.5q10 -35 21.5 -68.5t21.5 -55.5q23 -47 43 -49h2q20 0 66 38q25 23 59.5 61t81.5 102.5t111.5 159.5t148.5 230q6 10 18.5 10.5t24.5 -5t19.5 -14.5t3.5 -19q-18 -31 -53.5 -93.5 t-82.5 -140.5t-101 -160t-110.5 -150.5t-110.5 -114.5t-100 -50h-8q-30 0 -56 12q-28 14 -50.5 38t-42 54.5t-35.5 59.5q-59 -66 -110.5 -116t-92.5 -50q-18 0 -33.5 9t-26.5 23.5t-18.5 29t-9.5 26.5z" />
<glyph unicode="y" horiz-adv-x="739" d="M-180 -313q0 61 28.5 111t74.5 89t102.5 68t111.5 45q2 12 7.5 29.5t10.5 32t7 22.5t0 4q-14 -31 -31.5 -48t-33 -26.5t-28 -11.5t-18.5 -2q-78 0 -120 53t-44 146v15q0 36 7 84q10 58 24 121.5t32.5 128t38 122t39 100.5t33.5 64q12 16 34 22t42 2q31 -2 61.5 -12 t52 -27.5t28 -40t-12.5 -51.5q-18 -31 -49 -95.5t-61.5 -141t-56 -154.5t-36.5 -135q-8 -41 0.5 -57.5t18.5 -16.5q31 0 59.5 43t57 111.5t55.5 151.5t54.5 162t53 143.5t52.5 95.5q14 16 36.5 21t45.5 1q27 -4 56.5 -14.5t52 -28.5t29.5 -43t-11 -53q-37 -57 -70 -131 t-61.5 -152t-55 -155t-49.5 -138q-4 -12 -11 -34.5t-11 -32.5q59 35 124.5 104.5t130 160.5t123 194.5t103.5 207.5q6 8 19.5 9.5t26.5 -4t21.5 -14.5t6.5 -17q-35 -86 -96.5 -201t-141.5 -226.5t-173 -206.5t-192 -144q-8 -23 -17 -49.5t-15 -49.5q-20 -57 -50 -109.5 t-69 -92t-87 -64.5t-106 -25q-72 0 -112.5 41t-40.5 99zM-52 -266.5q-3 -16.5 9 -22.5q6 -4 19.5 -3t31 14.5t37 44.5t39.5 86q-43 -14 -71.5 -37t-45 -44.5t-19.5 -38z" />
<glyph unicode="z" horiz-adv-x="733" d="M-182 -274q2 63 30.5 108t74.5 77t106.5 51.5t126.5 35.5q6 39 -8.5 57.5t-37 24.5t-46 3t-35.5 -7q-10 -4 -24.5 4t-18.5 29v30.5t4 31.5t13 27.5t26 18.5q63 31 111 98.5t82 143.5t53.5 144.5t29.5 101.5q-37 -31 -91 -35q-8 -1 -16 -1q-45 -1 -85 19q-47 22 -78 70 q-22 34 -22 79q0 18 3 37q6 41 34 66t54 33q27 6 52.5 3t43 -18.5t22.5 -43.5q1 -7 2 -15q0 -23 -11 -55q-6 -18 27.5 -15.5t82 12t97.5 15.5q18 2 33 2q25 0 41 -6q65 -31 65 -88q0 -65 -28.5 -147t-74.5 -162t-103.5 -147.5t-114.5 -100.5q6 -2 25.5 -9.5t42 -25.5t40 -49 t21.5 -80q43 25 91 70t102 124.5t118.5 201.5t142.5 300q4 8 16.5 9.5t23.5 -4t19.5 -13.5t4.5 -16q-37 -88 -88.5 -206t-116 -232.5t-143 -210t-166.5 -138.5q-23 -127 -75 -202.5t-112 -114.5t-120 -48q-36 -5 -65 -5q-19 0 -34 2q-67 10 -109 55q-39 41 -38 100v11z M-39 -299q4 -10 21.5 -15t43 8t54.5 52t55 121q-102 -29 -147 -76q-32 -34 -32 -65q0 -13 5 -25z" />
<glyph unicode="{" horiz-adv-x="557" d="M-143 -104q0 72 25.5 159.5t56.5 180.5q29 88 55 176t26 153q0 47 -18 84q-33 41 -33 80q0 35 31 65.5t96 73.5q68 45 110 142.5t79 212.5q31 94 66.5 189t90 172t133 124t197.5 47q18 0 40 -1t40 -5q55 -12 67.5 -46t-3 -69t-54.5 -56.5t-84 -8.5q-10 2 -36.5 5t-34.5 3 q-49 0 -85 -29.5t-65 -79t-51.5 -115t-42.5 -134.5q-25 -76 -52.5 -152t-63.5 -141.5t-83 -116.5t-112 -78q4 -6 7 -9t5 -11q16 -33 23.5 -67t7.5 -69q0 -98 -38 -204.5t-75 -204.5q-29 -70 -42 -116t-13 -79q0 -51 79 -51q10 0 25.5 1t32.5 3q37 4 47 -25.5t1 -68.5 t-39 -72.5t-73 -40.5q-12 -2 -23 -2h-24q-111 0 -153.5 49.5t-42.5 131.5z" />
<glyph unicode="|" horiz-adv-x="0" />
<glyph unicode="}" horiz-adv-x="968" d="M-139.5 -234q-12.5 35 4 70t54.5 56.5t85 9.5q10 -4 36 -7.5t36 -3.5q49 0 85 30t63.5 80t50 114.5t44.5 136.5q25 76 52.5 150.5t62.5 141t82 118t113 77.5q-4 4 -6 7.5t-7 13.5q-29 57 -28 135q0 98 37 204.5t75 205.5q29 70 42.5 115.5t13.5 76.5q0 53 -80 53 q-10 0 -25.5 -1t-32.5 -3q-37 -4 -48 26t-0.5 67.5t39 72.5t73.5 41q10 0 22.5 1t24.5 1q111 0 154 -50t43 -130q0 -72 -27 -160t-55 -180q-31 -90 -57.5 -177t-26.5 -153q0 -51 20 -84q16 -23 24.5 -42t8.5 -38q0 -35 -30.5 -65.5t-96.5 -75.5q-35 -23 -61.5 -58.5 t-49 -81.5t-42 -100.5t-37.5 -111.5q-31 -96 -66 -190.5t-89 -171t-134 -124t-197 -47.5h-40t-42 4q-55 12 -67.5 47z" />
<glyph unicode="~" d="M157.5 491.5q1.5 28.5 30.5 59.5q35 39 79 47t89 1t91.5 -23.5t88.5 -23.5t75.5 0t56.5 46q23 41 53.5 30.5t46.5 -46t9 -84.5t-60 -88q-25 -18 -60.5 -16.5t-77.5 14t-88.5 29t-90.5 24.5t-85 4t-73 -33q-18 -16 -39 -11t-34 23.5t-11.5 47z" />
<glyph unicode="&#xa2;" horiz-adv-x="622" d="M-123 305q0 98 30 196.5t85 176.5t131 128t168 54q37 117 63.5 197t30.5 92q10 18 24.5 25.5t30.5 7.5q31 0 54.5 -21.5t13.5 -46.5l-49 -145l-45 -127q43 -18 74.5 -49t50 -71t21.5 -86t-11 -91q-14 -53 -56 -64.5t-77 -7.5t-53.5 18.5t-10.5 32.5q25 57 23 93t-21 55 l-198 -559q41 -4 91 14t97 49t84 70t53 76q6 8 18.5 8t25 -6.5t20.5 -15.5t4 -17q-27 -49 -69 -101.5t-96 -94.5t-119.5 -68.5t-139.5 -26.5h-10q-29 -82 -53.5 -146.5t-38.5 -103.5q-6 -16 -20.5 -23.5t-29.5 -7.5q-25 0 -41 17.5t0 50.5q10 25 34 87.5t52 150.5 q-72 35 -106.5 112.5t-34.5 167.5zM61 231q5 -35 9 -51q39 117 78.5 242t76.5 244q-31 -25 -61.5 -77t-54 -114.5t-38 -127t-10.5 -116.5z" />
<glyph unicode="&#xa3;" horiz-adv-x="1409" d="M14 45q6 66 46 109t105.5 62.5t151.5 13t185 -41.5q86 106 164 248q-37 2 -62 2h-35q-41 -4 -59 12.5t-18 38.5q0 29 34.5 61t79.5 34q23 2 52.5 2h52.5h26q20 43 41 92t43 104q-55 18 -114.5 57.5t-111.5 91.5t-89 112.5t-45 121.5q-6 51 9 89t43 63.5t60.5 42 t63.5 24.5q55 14 72.5 -13.5t7.5 -63.5q-10 -35 -1 -77t31.5 -84t58.5 -80t83 -62q18 55 46 135t66.5 153.5t91 127t119.5 53.5q61 0 105.5 -27t73 -73t41 -106.5t8.5 -125.5q-8 -100 -43 -177t-91.5 -129.5t-130 -76t-159.5 -17.5q-12 -35 -27.5 -76.5t-36.5 -84.5 q39 -2 72 -3.5t59 -3.5q14 0 23.5 -1t17.5 -1q16 0 22.5 -20.5t1.5 -47t-22.5 -49t-46.5 -26.5h-55h-64.5t-76.5 2q-47 -98 -94.5 -182t-83.5 -133l92 -33q76 -27 149.5 -53.5t141 -48t129 -34t112.5 -9.5q23 2 39 6t27.5 3t15.5 -11.5t2 -38.5q-2 -33 -10 -71t-24.5 -71 t-43 -57.5t-65.5 -30.5q-70 -12 -155 27t-173 97t-174 118.5t-158 91.5q-55 -57 -115.5 -96t-116.5 -60.5t-104.5 -27.5t-80.5 2q-37 8 -72 26.5t-60.5 47t-39 66.5t-7.5 87zM190.5 28.5q-10.5 -26.5 6.5 -44.5q10 -12 34.5 -7t55 20t61 38.5t53.5 50.5q-51 25 -95 17.5 t-74.5 -28t-41 -47zM1087 944q49 -10 90.5 9.5t71 57.5t46 90t16.5 111q0 25 -4 49.5t-11.5 40t-18.5 21.5t-24 -6q-23 -20 -44 -59t-41.5 -89.5t-40.5 -108t-40 -116.5z" />
<glyph unicode="&#xa5;" horiz-adv-x="1896" d="M-4 1214q2 74 65.5 140.5t163 118t224 82t251.5 32.5q23 0 77 -3t112.5 -24.5t110 -65.5t67.5 -126q8 -70 -1 -133.5t-24.5 -121.5t-31 -112.5t-17.5 -107.5q0 -14 4 -42t17.5 -51.5t42 -33.5t78.5 12q63 27 118.5 118t89 211t42 250t-22.5 236q-6 23 20.5 32t69.5 7 t95 -14t96.5 -31.5t74 -47.5t29.5 -58q-25 -104 -77 -231.5t-128 -243t-172 -205.5t-207 -123q-8 -23 -13 -44.5t-11 -43.5q29 -2 54.5 -3t43.5 -1q12 -2 21.5 -3t15.5 -1q14 0 19 -22.5t0 -49.5t-19 -51.5t-39 -26.5h-47h-80q-4 -14 -5 -27.5t-5 -27.5q61 -6 98 -6 q12 0 22.5 -1t14.5 -1q14 0 20.5 -21.5t1 -49.5t-19.5 -51.5t-39 -27.5q-6 -2 -19.5 -2h-29.5h-70q-8 -68 -12 -115t0 -59q2 -20 -19.5 -31.5t-54.5 -14.5t-69.5 0t-63.5 13q-35 10 -37 31q-2 16 3 66.5t16 117.5q-35 4 -57.5 4h-28.5h-2q-37 -4 -52.5 12.5t-15.5 39.5 q0 31 30.5 64.5t69.5 35.5q16 2 40 2h44q4 14 7.5 27.5t7.5 29.5q-35 2 -59.5 2h-30.5h-2q-37 -4 -52.5 13.5t-15.5 40.5q0 31 30.5 63.5t71.5 34.5q18 2 44 2h44h11q12 45 30 86q-68 25 -120 82t-70 160q-14 66 -9 131t14 125.5t16.5 111.5t-2 87t-43 53.5t-105.5 9.5 q-68 -6 -134.5 -51t-115.5 -104.5t-72.5 -123t-3.5 -108.5q14 -29 0 -42.5t-65 -8.5q-33 2 -76 21t-82 48t-65.5 66t-24.5 75z" />
<glyph unicode="&#xa7;" horiz-adv-x="1378" d="M102 -336q-4 47 7.5 114.5t60.5 121.5q35 33 70.5 37t69.5 -8.5t62.5 -37t46 -50t20.5 -48.5t-11 -31q-41 -27 -68.5 -59.5t-29.5 -85.5q-2 -41 27.5 -73.5t76.5 -32.5q37 0 75 12t69.5 35.5t52 58.5t18.5 82q0 49 -16.5 91t-42 78t-58 68.5t-65.5 63.5q-41 39 -84 79 t-79 88t-60.5 107.5t-24.5 137.5q0 119 57.5 226t174.5 169q-27 43 -43.5 93t-16.5 114q0 74 22.5 144.5t67.5 130t111.5 103.5t155.5 64q70 16 126 17q76 0 149 -21.5t129 -61.5t90 -98.5t34 -132.5q0 -14 -1 -35.5t-4 -45t-8.5 -46t-13.5 -39.5q-29 -57 -84 -75.5 t-111.5 -12.5t-100.5 29.5t-46 52.5q-2 20 10.5 33.5t30 33t31.5 54.5t14 96q0 53 -46 81t-103 18q-31 -6 -62.5 -22.5t-57.5 -44.5t-42 -65.5t-16 -83.5q0 -43 15 -83.5t42 -79.5t58.5 -76t66.5 -72q37 -39 72.5 -82t65.5 -89t48.5 -96t18.5 -106q0 -39 -9.5 -81.5 t-31.5 -90.5q-35 -72 -93.5 -121t-123.5 -77q37 -53 61.5 -110.5t24.5 -121.5q0 -39 -9.5 -82t-31.5 -90q-29 -59 -72 -103t-95 -72.5t-109.5 -44t-112.5 -15.5q-66 0 -126.5 18.5t-107.5 53t-77.5 85t-37.5 113.5zM494 485q0 -43 15 -84t42 -79.5t58.5 -75.5t66.5 -72 l35 -37q47 20 79.5 61.5t30.5 102.5q0 49 -16.5 91t-42 78t-58 68.5t-65.5 63.5q-16 14 -30.5 27.5t-28.5 29.5q-37 -29 -61.5 -72.5t-24.5 -101.5z" />
<glyph unicode="&#xa8;" d="M285 1718q0 47 49 97q49 49 100 49q43 0 69.5 -29t26.5 -70q0 -57 -49 -102q-23 -18 -48 -26.5t-48 -8.5q-41 0 -70.5 24.5t-29.5 65.5zM555 1718q0 47 49 97q25 27 51.5 38t49.5 11q45 0 71.5 -29t26.5 -70q0 -55 -53 -102q-23 -18 -47.5 -26.5t-47.5 -8.5 q-41 0 -70.5 24.5t-29.5 65.5z" />
<glyph unicode="&#xa9;" d="M66 406q0 88 33.5 179t94 164.5t143.5 121t179 47.5q88 0 165 -32t134 -91.5t88 -142.5t27 -185q-4 -96 -42 -178t-97.5 -143.5t-133 -95.5t-149.5 -34q-6 -6 -18.5 -11t-30.5 -5q-86 0 -158 27.5t-124 81t-81.5 128t-29.5 169.5zM193 397q0 -61 13 -119.5t44 -103.5 t81 -72.5t122 -29.5q0 16 11 28.5t34 10.5q55 -4 111.5 17.5t103.5 66.5t79.5 111.5t41.5 152.5q6 63 -12.5 130.5t-56.5 122t-96.5 90.5t-131.5 40q-80 4 -143.5 -36t-108.5 -104.5t-68.5 -145.5t-23.5 -159zM285 383q0 59 23.5 122.5t64.5 113t97 77t122 19.5 q51 -8 79.5 -60.5t8.5 -124.5q-10 -31 -35 -38t-45 -3q-45 6 -37 31q14 35 12 56.5t-13 30.5t-29.5 7t-36.5 -14q-18 -14 -39 -44t-37.5 -66.5t-24.5 -76.5t0 -75q12 -55 47 -65.5t76 5t77 48t50 65.5q2 6 10.5 6t15.5 -3t12 -9t3 -10q-16 -29 -40.5 -60.5t-57.5 -57.5 t-72 -41t-84 -15q-78 2 -112.5 56t-34.5 126z" />
<glyph unicode="&#xad;" horiz-adv-x="870" d="M160 514q0 31 29.5 64.5t70.5 35.5q20 2 45 2h47q94 0 182.5 -5t139.5 -7q12 0 21.5 -1t15.5 -1q14 0 19 -21.5t1 -49t-19.5 -51t-39.5 -27.5q-10 -2 -49 -2q-45 0 -114 2t-132 4q-55 4 -96 5t-52 1h-2q-35 -4 -51 12.5t-16 38.5z" />
<glyph unicode="&#xae;" d="M66 406q0 88 33.5 179t94 164.5t143.5 121t179 47.5q88 0 165 -32t134 -91.5t88 -142.5t27 -185q-4 -96 -42 -178t-97.5 -143.5t-133 -95.5t-149.5 -34q-6 -6 -18.5 -11t-30.5 -5q-86 0 -158 27.5t-124 81t-81.5 128t-29.5 169.5zM193 397q0 -61 13 -119.5t44 -103.5 t81 -72.5t122 -29.5q0 16 11 28.5t34 10.5q55 -4 111.5 17.5t103.5 66.5t79.5 111.5t41.5 152.5q6 63 -12.5 130.5t-56.5 122t-96.5 90.5t-131.5 40q-80 4 -143.5 -36t-108.5 -104.5t-68.5 -145.5t-23.5 -159zM250 257.5q0 14.5 6 23t14.5 7.5t8.5 -16q-4 -23 19.5 -24.5 t39.5 16.5q8 8 18.5 28.5t24.5 62.5t31.5 112t40.5 176q4 16 15 20.5t19 6.5q23 2 45.5 -8.5t10.5 -32.5q-8 -12 -25.5 -68.5t-40.5 -128.5h41q27 2 50.5 19.5t39 42t22.5 53t5 57.5q-2 23 -15.5 42.5t-34 32.5t-45 18t-48.5 1q-39 -10 -62.5 -38.5t-32.5 -67.5 q-2 -12 -3 -26.5t7 -26.5q4 -8 0 -15.5t-14 -9.5q-31 -6 -57.5 8.5t-26.5 52.5q0 45 21.5 78t52.5 53.5t64.5 31t58.5 10.5q84 4 146.5 -34t66.5 -118q4 -53 -33 -111.5t-107 -87.5q20 -10 27.5 -32.5t11.5 -44t10.5 -35t22.5 -2.5q10 6 14.5 -4.5t2 -24.5t-13.5 -27.5 t-32 -15.5q-41 -4 -53 17.5t-16 51t-10.5 60.5t-34.5 45h-37q-20 -66 -51 -114t-80 -58q-20 -4 -39 0t-29 14q-16 16 -16 30.5z" />
<glyph unicode="&#xb1;" d="M123 268q0 31 29.5 65t70.5 36q20 2 45 2h47q94 0 182.5 -5.5t139.5 -7.5q12 0 21.5 -1t15.5 -1q14 0 19 -21.5t1 -49t-19.5 -51t-39.5 -27.5q-10 -2 -49 -2q-45 0 -114 2t-132 4q-55 4 -96 5t-51 1h-3q-35 -4 -51 12.5t-16 38.5zM246 750q0 31 29.5 64.5t70.5 35.5 q20 2 44 2h46h47l23 53l45 117q18 39 55 39q20 0 42 -15.5t39.5 -37t25.5 -46t0 -42.5l-39 -74l123 -8q14 -2 19 -24.5t0 -49.5t-19.5 -50.5t-38.5 -27.5h-47h-117q-35 -66 -60.5 -113t-37.5 -63q-8 -10 -31 -6t-44.5 16t-34.5 31.5t-5 42.5l29 68v2l12 30q-10 2 -19.5 2 h-19.5q-27 0 -44 1t-26 1q-35 -4 -51 12.5t-16 39.5z" />
<glyph unicode="&#xb4;" d="M371 1661q2 31 10 61q10 39 32.5 84t54.5 77t68.5 43t77.5 -13q39 -27 55.5 -49.5t16.5 -41t-12 -32.5t-27 -25q-33 -23 -56.5 -41t-49.5 -38l-64 -50h4q-43 -35 -67.5 -38t-34.5 14.5t-8 48.5z" />
<glyph unicode="&#xb7;" d="M393 676q0 49 47 96q27 27 53.5 38t49.5 11q43 0 70.5 -28.5t27.5 -69.5q0 -57 -53 -100q-43 -37 -94 -37q-41 0 -71 24.5t-30 65.5z" />
<glyph unicode="&#xb8;" d="M215 -340q-2 53 20.5 59.5t75.5 -10.5q27 -8 55.5 -13t52 -6t40 6t22.5 23q8 29 -26.5 50.5t-75.5 37.5q-16 6 -41 18.5t-27 41.5q0 12 3 32.5t8.5 43t11.5 43t12 32.5q8 14 26.5 20.5t37 4.5t33 -11t14.5 -24l-17 -57q-2 -10 -5 -23.5t-7 -25.5q27 -10 55.5 -25.5 t50 -40t31.5 -56.5t0 -75q-16 -68 -76.5 -99.5t-128.5 -37.5q-47 -4 -75.5 1t-44 17.5t-20.5 32t-5 41.5z" />
<glyph unicode="&#xc1;" horiz-adv-x="1181" d="M17 413.5q-1 104.5 36 192.5q55 129 174 159t324 -42q27 70 64.5 160t82.5 182t97.5 179t111.5 155q-53 -18 -116.5 -48t-143.5 -69q-53 -25 -116.5 -53.5t-131 -46t-134 -16.5t-126.5 36q-53 35 -64.5 88t-1 99.5t35 74t45.5 9.5q47 -41 120.5 -47.5t153.5 1.5 q86 8 166 27t156.5 39t150.5 37.5t148 23.5q78 8 135 -9t98 -52q29 2 69 -11.5t72.5 -37t50 -51t1.5 -52.5q-10 -16 -47 -94t-84.5 -182t-96.5 -219t-82 -205l60 2q14 -6 19 -35.5t-2 -62.5t-26.5 -61.5t-52.5 -32.5q-25 -4 -36 -3t-27 3q-6 -20 -17.5 -60.5t-21.5 -85.5 t-16.5 -89t-4.5 -75q0 -8 6.5 -14t16.5 -4q35 6 91 67.5t120.5 151.5t129 195.5t114.5 201.5q4 8 16 7t24.5 -6t20.5 -13t4 -16q-8 -18 -39 -77t-77 -137.5t-102 -164.5t-114.5 -160t-115 -122t-99.5 -48q-78 -4 -127 39t-59 113q-4 29 -2 68.5t8 85.5t15.5 92t17.5 87 q-20 2 -37.5 6.5t-38 10.5t-46.5 13t-58 18q-25 -49 -48.5 -109.5t-50 -121t-58.5 -118t-71 -100.5t-89 -67.5t-111 -20.5q-80 6 -139.5 68.5t-91.5 152.5t-33 194.5zM174 387.5q6 -65.5 35 -133.5q20 -47 63 -51t80 59q25 39 46.5 85t40 90t34.5 86t29 75q-35 14 -85 28.5 t-87 10.5q-59 -8 -95 -43t-51.5 -88t-9.5 -118.5zM760 664q10 -4 30.5 -9.5t44 -9.5t48 -8t43.5 -6q25 92 57.5 192.5t66 192.5t65.5 170t54 127h-8q-23 0 -55.5 -31t-68.5 -83t-74.5 -119.5t-75.5 -139.5t-69.5 -143.5t-57.5 -132.5zM1212 1661q2 31 11 61q10 39 32.5 84 t54 77t68.5 43t78 -13q39 -27 55.5 -49.5t16.5 -41t-12.5 -32.5t-26.5 -25q-33 -23 -56.5 -41t-50.5 -38l-63 -50h4q-43 -35 -67.5 -38t-35 14.5t-8.5 48.5z" />
<glyph unicode="&#xc2;" horiz-adv-x="1181" d="M17 413.5q-1 104.5 36 192.5q55 129 174 159t324 -42q27 70 64.5 160t82.5 182t97.5 179t111.5 155q-53 -18 -116.5 -48t-143.5 -69q-53 -25 -116.5 -53.5t-131 -46t-134 -16.5t-126.5 36q-53 35 -64.5 88t-1 99.5t35 74t45.5 9.5q47 -41 120.5 -47.5t153.5 1.5 q86 8 166 27t156.5 39t150.5 37.5t148 23.5q78 8 135 -9t98 -52q29 2 69 -11.5t72.5 -37t50 -51t1.5 -52.5q-10 -16 -47 -94t-84.5 -182t-96.5 -219t-82 -205l60 2q14 -6 19 -35.5t-2 -62.5t-26.5 -61.5t-52.5 -32.5q-25 -4 -36 -3t-27 3q-6 -20 -17.5 -60.5t-21.5 -85.5 t-16.5 -89t-4.5 -75q0 -8 6.5 -14t16.5 -4q35 6 91 67.5t120.5 151.5t129 195.5t114.5 201.5q4 8 16 7t24.5 -6t20.5 -13t4 -16q-8 -18 -39 -77t-77 -137.5t-102 -164.5t-114.5 -160t-115 -122t-99.5 -48q-78 -4 -127 39t-59 113q-4 29 -2 68.5t8 85.5t15.5 92t17.5 87 q-20 2 -37.5 6.5t-38 10.5t-46.5 13t-58 18q-25 -49 -48.5 -109.5t-50 -121t-58.5 -118t-71 -100.5t-89 -67.5t-111 -20.5q-80 6 -139.5 68.5t-91.5 152.5t-33 194.5zM174 387.5q6 -65.5 35 -133.5q20 -47 63 -51t80 59q25 39 46.5 85t40 90t34.5 86t29 75q-35 14 -85 28.5 t-87 10.5q-59 -8 -95 -43t-51.5 -88t-9.5 -118.5zM760 664q10 -4 30.5 -9.5t44 -9.5t48 -8t43.5 -6q25 92 57.5 192.5t66 192.5t65.5 170t54 127h-8q-23 0 -55.5 -31t-68.5 -83t-74.5 -119.5t-75.5 -139.5t-69.5 -143.5t-57.5 -132.5zM1138 1746.5q1 20.5 25 41.5 q16 14 44 31.5t56.5 34t55.5 28.5t43 19q31 10 57.5 -2.5t40.5 -34.5q10 -14 23.5 -39t25 -53.5t19.5 -57t12 -49.5v2q4 -23 -9 -37t-32.5 -19t-40 -1t-31.5 20q-6 8 -18 43q-4 18 -16.5 45t-22.5 49q-23 -10 -47.5 -26.5t-40.5 -28.5v4q-16 -12 -28.5 -18t-20.5 -10 q-23 -6 -46.5 1t-36.5 22t-12 35.5z" />
<glyph unicode="&#xc4;" horiz-adv-x="1181" d="M17 413.5q-1 104.5 36 192.5q55 129 174 159t324 -42q27 70 64.5 160t82.5 182t97.5 179t111.5 155q-53 -18 -116.5 -48t-143.5 -69q-53 -25 -116.5 -53.5t-131 -46t-134 -16.5t-126.5 36q-53 35 -64.5 88t-1 99.5t35 74t45.5 9.5q47 -41 120.5 -47.5t153.5 1.5 q86 8 166 27t156.5 39t150.5 37.5t148 23.5q78 8 135 -9t98 -52q29 2 69 -11.5t72.5 -37t50 -51t1.5 -52.5q-10 -16 -47 -94t-84.5 -182t-96.5 -219t-82 -205l60 2q14 -6 19 -35.5t-2 -62.5t-26.5 -61.5t-52.5 -32.5q-25 -4 -36 -3t-27 3q-6 -20 -17.5 -60.5t-21.5 -85.5 t-16.5 -89t-4.5 -75q0 -8 6.5 -14t16.5 -4q35 6 91 67.5t120.5 151.5t129 195.5t114.5 201.5q4 8 16 7t24.5 -6t20.5 -13t4 -16q-8 -18 -39 -77t-77 -137.5t-102 -164.5t-114.5 -160t-115 -122t-99.5 -48q-78 -4 -127 39t-59 113q-4 29 -2 68.5t8 85.5t15.5 92t17.5 87 q-20 2 -37.5 6.5t-38 10.5t-46.5 13t-58 18q-25 -49 -48.5 -109.5t-50 -121t-58.5 -118t-71 -100.5t-89 -67.5t-111 -20.5q-80 6 -139.5 68.5t-91.5 152.5t-33 194.5zM174 387.5q6 -65.5 35 -133.5q20 -47 63 -51t80 59q25 39 46.5 85t40 90t34.5 86t29 75q-35 14 -85 28.5 t-87 10.5q-59 -8 -95 -43t-51.5 -88t-9.5 -118.5zM760 664q10 -4 30.5 -9.5t44 -9.5t48 -8t43.5 -6q25 92 57.5 192.5t66 192.5t65.5 170t54 127h-8q-23 0 -55.5 -31t-68.5 -83t-74.5 -119.5t-75.5 -139.5t-69.5 -143.5t-57.5 -132.5zM1022 1718q0 47 49 97q49 49 100 49 q43 0 70 -29t27 -70q0 -57 -49 -102q-23 -18 -48.5 -26.5t-48.5 -8.5q-41 0 -70.5 24.5t-29.5 65.5zM1292 1718q0 47 49 97q25 27 51.5 38t49.5 11q45 0 71.5 -29t26.5 -70q0 -55 -53 -102q-23 -18 -47.5 -26.5t-46.5 -8.5q-41 0 -71 24.5t-30 65.5z" />
<glyph unicode="&#xc6;" horiz-adv-x="2103" d="M17 413.5q-1 104.5 36 192.5q55 129 174 159t324 -42q27 70 64.5 160t82.5 182t97.5 179t111.5 155q-53 -18 -116.5 -48t-143.5 -69q-53 -25 -116.5 -53.5t-131 -46t-134 -16.5t-126.5 36q-53 35 -64.5 88t-1 99.5t35 74t45.5 9.5q47 -41 120.5 -47.5t153.5 1.5 q86 8 166 27t156.5 39t150.5 37.5t148 23.5q78 8 135 -9t98 -52q23 2 52.5 -6t58.5 -25q100 63 206 76q82 8 165 -10.5t147.5 -66.5t101.5 -123.5t27 -182.5q-10 -106 -44 -159.5t-79 -70t-92 -5t-81 35t-49.5 52t5.5 45.5q20 18 38.5 45.5t32 59.5t21.5 63.5t10 60.5 q2 51 -34.5 82t-89 36t-110 -21.5t-100.5 -90.5q-29 -43 -47 -103.5t-18 -123t23.5 -119.5t78.5 -92q25 -16 35 -47t10 -62q0 -33 -10 -65.5t-29.5 -58t-47 -39t-60.5 -3.5h2q-16 4 -24.5 4.5t-18.5 0.5q-47 0 -83 -33t-60 -82q-31 -84 -19 -155.5t55 -123t112 -78 t153 -20.5q109 8 206 66.5t180 149.5t152.5 205t124.5 230q4 10 17.5 10.5t25.5 -6t20.5 -16.5t4.5 -18q-39 -76 -91.5 -169.5t-117 -186.5t-139 -177t-160.5 -141q-94 -55 -195.5 -80t-199 -19.5t-181.5 39t-144 95t-88 149.5t-11 201q2 27 12 55q-10 4 -22.5 6t-24.5 6 q-20 2 -37.5 6.5t-38 10.5t-46.5 13t-58 18q-25 -49 -48.5 -109.5t-50 -121t-58.5 -118t-71 -100.5t-89 -67.5t-111 -20.5q-80 6 -139.5 68.5t-91.5 152.5t-33 194.5zM174 387.5q6 -65.5 35 -133.5q20 -47 63 -51t80 59q25 39 46.5 85t40 90t34.5 86t29 75q-35 14 -85 28.5 t-87 10.5q-59 -8 -95 -43t-51.5 -88t-9.5 -118.5zM760 664q10 -4 40.5 -12.5t67.5 -16.5t72 -14.5t53 -8.5q25 82 50.5 161t53 163t55.5 176t54 201q-37 12 -75.5 -14.5t-78.5 -77t-80 -119t-77 -145t-71.5 -152t-63.5 -141.5z" />
<glyph unicode="&#xc7;" horiz-adv-x="1064" d="M33 489q-2 119 22.5 242t71.5 236.5t113.5 212t147.5 168t174 104.5t196 23q51 -6 101 -33t90 -70t64.5 -99t24.5 -120q0 -86 -33.5 -134t-82 -68.5t-98.5 -19.5t-83 13q-39 12 -41 32.5t19 43.5q29 35 46 85t17 93q0 25 -8 49.5t-25.5 41t-42 20.5t-57.5 -11 q-74 -41 -136 -135t-106.5 -209.5t-69 -240.5t-20.5 -228q4 -72 24.5 -139t58.5 -118.5t94.5 -77t130.5 -11.5q92 18 173 80t152.5 147t132 183t113.5 190q4 8 17.5 7t25.5 -8t20.5 -17t4.5 -19q-55 -100 -121 -216.5t-149 -221t-185 -182.5t-231 -98l-9 -33 q-2 -10 -5 -23.5t-7 -25.5q27 -10 55.5 -25.5t50 -40t32 -56.5t-0.5 -75q-16 -68 -76.5 -99.5t-128.5 -37.5q-47 -4 -75.5 1t-44 17.5t-20.5 32t-5 41.5q-2 53 20.5 59.5t75.5 -10.5q27 -8 55.5 -13t52 -6t40 6t22.5 23q8 29 -26.5 50.5t-75.5 37.5q-16 6 -41 18.5t-27 41.5 q-2 16 4.5 48t14.5 62q-104 6 -184 54.5t-133.5 121t-80 160.5t-28.5 176z" />
<glyph unicode="&#xc9;" horiz-adv-x="1214" d="M45 420q8 63 40 125.5t78 114t100 86t108 42.5q-47 61 -73 126t-26 141q0 100 41 185t105.5 148.5t144.5 101.5t156 48q82 8 165 -10.5t147.5 -66.5t101 -123.5t26.5 -182.5q-10 -106 -44 -159.5t-79 -70t-91 -5t-81 35t-49 52t6 45.5q20 18 39 45.5t32 59.5t21.5 63.5 t8.5 60.5q2 51 -34 82t-88 36t-110.5 -21.5t-101.5 -90.5q-29 -43 -47.5 -103.5t-18.5 -123t23.5 -119.5t79.5 -92q27 -16 36 -47t9 -62q0 -33 -10.5 -65.5t-30 -58t-46 -39t-59.5 -3.5q-14 4 -23 4.5t-20 0.5q-47 0 -83 -33t-58 -82q-31 -84 -19.5 -155.5t55.5 -123 t112.5 -78t150.5 -20.5q109 8 206 66.5t181 149.5t153.5 205t125.5 230q4 10 16 10.5t24.5 -6t20.5 -16.5t4 -18q-39 -76 -91 -169.5t-116.5 -186.5t-139.5 -177t-161 -141q-94 -55 -195.5 -80t-197.5 -19.5t-181 39t-144.5 95t-87 149.5t-11.5 201zM776 1718.5 q2 30.5 10 61.5q10 39 33 84t54.5 76.5t68.5 43t78 -13.5q39 -27 55.5 -49.5t16.5 -40.5t-12.5 -32.5t-26.5 -24.5q-33 -23 -56.5 -41.5t-50.5 -38.5l-63 -49h4q-43 -35 -67.5 -38t-35 14.5t-8.5 48z" />
<glyph unicode="&#xcb;" horiz-adv-x="1214" d="M45 420q8 63 40 125.5t78 114t100 86t108 42.5q-47 61 -73 126t-26 141q0 100 41 185t105.5 148.5t144.5 101.5t156 48q82 8 165 -10.5t147.5 -66.5t101 -123.5t26.5 -182.5q-10 -106 -44 -159.5t-79 -70t-91 -5t-81 35t-49 52t6 45.5q20 18 39 45.5t32 59.5t21.5 63.5 t8.5 60.5q2 51 -34 82t-88 36t-110.5 -21.5t-101.5 -90.5q-29 -43 -47.5 -103.5t-18.5 -123t23.5 -119.5t79.5 -92q27 -16 36 -47t9 -62q0 -33 -10.5 -65.5t-30 -58t-46 -39t-59.5 -3.5q-14 4 -23 4.5t-20 0.5q-47 0 -83 -33t-58 -82q-31 -84 -19.5 -155.5t55.5 -123 t112.5 -78t150.5 -20.5q109 8 206 66.5t181 149.5t153.5 205t125.5 230q4 10 16 10.5t24.5 -6t20.5 -16.5t4 -18q-39 -76 -91 -169.5t-116.5 -186.5t-139.5 -177t-161 -141q-94 -55 -195.5 -80t-197.5 -19.5t-181 39t-144.5 95t-87 149.5t-11.5 201zM633 1745q0 49 49 96 q49 49 100 49q43 0 70 -28.5t27 -69.5q-1 -57 -52 -100q-23 -20 -47 -28.5t-47 -8.5q-41 0 -70.5 24.5t-29.5 65.5zM903 1745q0 49 47 96q27 27 53.5 38t49.5 11q43 0 70.5 -28.5t27.5 -69.5q0 -57 -53 -100q-43 -37 -94 -37q-41 0 -71 24.5t-30 65.5z" />
<glyph unicode="&#xcd;" horiz-adv-x="960" d="M18.5 967q-8.5 41 8.5 94q31 98 114.5 180t192 138.5t225.5 86t211 25.5q20 0 65.5 -9t88.5 -42t70.5 -96.5t11.5 -174.5q-6 -49 -28 -146t-58.5 -217t-88 -249t-117 -241.5t-146.5 -196.5t-175 -111q-41 -12 -96 -11t-90 36q-45 43 -47 84t13 65.5t35.5 26.5t20.5 -33 q0 -29 23.5 -46t56.5 -13q43 6 91.5 74.5t96.5 172t93 227.5t80 240.5t58.5 213t29.5 143.5q12 111 -19.5 147.5t-89.5 28.5q-59 -8 -132 -60.5t-137.5 -124t-108.5 -150.5t-42 -142q2 -41 -15 -58.5t-58 -7.5q-27 8 -56.5 26.5t-51 48.5t-30 71zM661.5 1709q2.5 32 10.5 63 q10 39 32.5 82.5t54.5 75.5t68.5 44.5t77.5 -12.5q39 -27 55.5 -50.5t16.5 -42t-12.5 -32.5t-26.5 -25q-33 -23 -55.5 -41t-51.5 -38l-61 -50h2q-43 -35 -67.5 -38t-35 14.5t-8 49.5z" />
<glyph unicode="&#xce;" horiz-adv-x="960" d="M18.5 967q-8.5 41 8.5 94q31 98 114.5 180t192 138.5t225.5 86t211 25.5q20 0 65.5 -9t88.5 -42t70.5 -96.5t11.5 -174.5q-6 -49 -28 -146t-58.5 -217t-88 -249t-117 -241.5t-146.5 -196.5t-175 -111q-41 -12 -96 -11t-90 36q-45 43 -47 84t13 65.5t35.5 26.5t20.5 -33 q0 -29 23.5 -46t56.5 -13q43 6 91.5 74.5t96.5 172t93 227.5t80 240.5t58.5 213t29.5 143.5q12 111 -19.5 147.5t-89.5 28.5q-59 -8 -132 -60.5t-137.5 -124t-108.5 -150.5t-42 -142q2 -41 -15 -58.5t-58 -7.5q-27 8 -56.5 26.5t-51 48.5t-30 71zM646 1746.5q1 20.5 26 41.5 q16 14 43.5 31.5t56.5 34t55.5 28.5t42.5 19q31 10 57.5 -2.5t41.5 -34.5q10 -14 23.5 -39t24.5 -53.5t19 -57t13 -49.5v2q4 -23 -9.5 -37t-33 -19t-40 -1t-30.5 20q-6 8 -18 43q-4 18 -16.5 45t-22.5 49q-23 -10 -47.5 -26.5t-40.5 -28.5v4q-16 -12 -29 -18t-21 -10 q-23 -6 -46 1t-36.5 22t-12.5 35.5z" />
<glyph unicode="&#xd3;" horiz-adv-x="1388" d="M29 1145q0 53 38.5 103t86.5 83q57 41 98 35t39 -59q-4 -66 12 -142q10 -53 41 -95t78 -77q61 131 145 234q37 43 81 86t96.5 76.5t114 54t128.5 22.5q98 2 154.5 -34.5t84 -88t31.5 -105.5t-2 -87q-18 -90 -75 -164q16 -98 12 -203.5t-37 -220.5q37 -16 81 -7t85 35.5 t73.5 65.5t47.5 82q2 10 18.5 15.5t33.5 2.5t29.5 -16.5t6.5 -38.5q-14 -49 -56 -104t-101.5 -101t-131.5 -73t-145 -16q-33 -70 -79 -144t-104.5 -136t-130 -104t-153.5 -49q-109 -4 -179.5 33t-110.5 100.5t-55.5 144.5t-15.5 163q2 133 26.5 228t43.5 151q-33 14 -85 49 t-101.5 82t-86 104t-36.5 115zM518 449q0 -25 2 -61t12.5 -72.5t29.5 -67.5t54 -43q41 -8 83 12.5t81 60t74 96t61 122.5q-45 43 -79.5 105.5t-47.5 143.5q-59 -14 -115.5 -18t-103.5 6q-10 -37 -18 -67.5t-14.5 -62.5t-11.5 -68.5t-7 -85.5zM618 911q8 -4 16.5 -4h18.5 q57 0 123 13q8 82 40 141t78 89t98.5 25.5t101.5 -49.5q18 27 30 62q16 49 5 90t-44.5 59.5t-87 8t-123.5 -61.5q-43 -35 -82.5 -83t-73.5 -100t-59.5 -102.5t-40.5 -87.5zM946 807q4 -37 11.5 -64.5t17.5 -50.5q12 35 15 67t1 79q-20 -20 -45 -31zM947 1663q1 31 9 61 q10 39 33 84t54.5 77t68.5 43t78 -13q41 -27 56.5 -49.5t15.5 -41t-12.5 -32.5t-26.5 -25q-33 -23 -55.5 -41t-51.5 -38l-61 -50h2q-43 -35 -67.5 -38t-34 14.5t-8.5 48.5z" />
<glyph unicode="&#xd4;" horiz-adv-x="1388" d="M29 1145q0 53 38.5 103t86.5 83q57 41 98 35t39 -59q-4 -66 12 -142q10 -53 41 -95t78 -77q61 131 145 234q37 43 81 86t96.5 76.5t114 54t128.5 22.5q98 2 154.5 -34.5t84 -88t31.5 -105.5t-2 -87q-18 -90 -75 -164q16 -98 12 -203.5t-37 -220.5q37 -16 81 -7t85 35.5 t73.5 65.5t47.5 82q2 10 18.5 15.5t33.5 2.5t29.5 -16.5t6.5 -38.5q-14 -49 -56 -104t-101.5 -101t-131.5 -73t-145 -16q-33 -70 -79 -144t-104.5 -136t-130 -104t-153.5 -49q-109 -4 -179.5 33t-110.5 100.5t-55.5 144.5t-15.5 163q2 133 26.5 228t43.5 151q-33 14 -85 49 t-101.5 82t-86 104t-36.5 115zM518 449q0 -25 2 -61t12.5 -72.5t29.5 -67.5t54 -43q41 -8 83 12.5t81 60t74 96t61 122.5q-45 43 -79.5 105.5t-47.5 143.5q-59 -14 -115.5 -18t-103.5 6q-10 -37 -18 -67.5t-14.5 -62.5t-11.5 -68.5t-7 -85.5zM618 911q8 -4 16.5 -4h18.5 q57 0 123 13q8 82 40 141t78 89t98.5 25.5t101.5 -49.5q18 27 30 62q16 49 5 90t-44.5 59.5t-87 8t-123.5 -61.5q-43 -35 -82.5 -83t-73.5 -100t-59.5 -102.5t-40.5 -87.5zM904 1746.5q1 20.5 26 41.5q16 14 43.5 31.5t56.5 34t55.5 28.5t42.5 19q31 10 57.5 -2.5 t41.5 -34.5q10 -14 23.5 -39t24.5 -53.5t19.5 -57t12.5 -49.5v2q4 -23 -9.5 -37t-33 -19t-40 -1t-30.5 20q-6 8 -18 43q-4 18 -16.5 45t-22.5 49q-23 -10 -47.5 -26.5t-40.5 -28.5v4q-16 -12 -29 -18t-21 -10q-23 -6 -46 1t-36.5 22t-12.5 35.5zM946 807q4 -37 11.5 -64.5 t17.5 -50.5q12 35 15 67t1 79q-20 -20 -45 -31z" />
<glyph unicode="&#xd6;" horiz-adv-x="1388" d="M29 1145q0 53 38.5 103t86.5 83q57 41 98 35t39 -59q-4 -66 12 -142q10 -53 41 -95t78 -77q61 131 145 234q37 43 81 86t96.5 76.5t114 54t128.5 22.5q98 2 154.5 -34.5t84 -88t31.5 -105.5t-2 -87q-18 -90 -75 -164q16 -98 12 -203.5t-37 -220.5q37 -16 81 -7t85 35.5 t73.5 65.5t47.5 82q2 10 18.5 15.5t33.5 2.5t29.5 -16.5t6.5 -38.5q-14 -49 -56 -104t-101.5 -101t-131.5 -73t-145 -16q-33 -70 -79 -144t-104.5 -136t-130 -104t-153.5 -49q-109 -4 -179.5 33t-110.5 100.5t-55.5 144.5t-15.5 163q2 133 26.5 228t43.5 151q-33 14 -85 49 t-101.5 82t-86 104t-36.5 115zM518 449q0 -25 2 -61t12.5 -72.5t29.5 -67.5t54 -43q41 -8 83 12.5t81 60t74 96t61 122.5q-45 43 -79.5 105.5t-47.5 143.5q-59 -14 -115.5 -18t-103.5 6q-10 -37 -18 -67.5t-14.5 -62.5t-11.5 -68.5t-7 -85.5zM618 911q8 -4 16.5 -4h18.5 q57 0 123 13q8 82 40 141t78 89t98.5 25.5t101.5 -49.5q18 27 30 62q16 49 5 90t-44.5 59.5t-87 8t-123.5 -61.5q-43 -35 -82.5 -83t-73.5 -100t-59.5 -102.5t-40.5 -87.5zM825 1630q0 49 49 99q49 49 101 49q41 0 68.5 -30t27.5 -71q0 -57 -51 -100q-23 -20 -47.5 -28.5 t-48.5 -8.5q-41 0 -70 24.5t-29 65.5zM946 807q4 -37 11.5 -64.5t17.5 -50.5q12 35 15 67t1 79q-20 -20 -45 -31zM1096 1630q0 49 47 99q51 49 102 49q43 0 69.5 -30t26.5 -71q0 -27 -12 -52t-41 -48q-23 -20 -46 -28.5t-46 -8.5q-43 0 -71.5 24.5t-28.5 65.5z" />
<glyph unicode="&#xd7;" d="M152 422q-2 35 12 72.5t47 60.5q33 29 59.5 47.5t63.5 44.5q-23 23 -48.5 49.5t-47.5 51.5q-16 16 -22.5 36.5t-8.5 42.5q-4 51 22.5 95.5t67.5 44.5q33 0 68 -37h-3q10 -12 53.5 -54t108.5 -104q55 35 100.5 63.5t80.5 51.5l63 39q14 10 31.5 4t33 -23.5t25.5 -42 t12 -51.5t-6 -49.5t-26 -36.5q-14 -14 -55.5 -43t-96.5 -66q41 -41 74 -74.5t45 -49.5q18 -27 7 -64t-33.5 -67.5t-50.5 -47t-42 -4.5q-10 10 -26.5 25.5t-38.5 38.5l-125 119q-78 -51 -136.5 -89t-66.5 -47l-2 -2q-37 -27 -62 -26q-35 0 -54 27.5t-23 64.5z" />
<glyph unicode="&#xd8;" horiz-adv-x="1388" d="M29 1145q0 53 38.5 103t86.5 83q57 41 98 35t39 -59q-4 -66 12 -142q10 -53 41 -95t78 -77q57 125 137 224q33 43 75 83.5t92 74.5t107.5 58.5t122.5 30.5q33 90 54.5 147.5t29.5 71.5q14 27 37 38.5t45 15.5q25 4 47.5 -1t39 -16.5t22.5 -28t0 -34.5l-90 -223 q43 -25 68.5 -64t36.5 -80t12.5 -77.5t-3.5 -61.5q-18 -90 -75 -164q16 -98 12 -203.5t-37 -220.5q-35 -127 -90 -231.5t-124 -182t-149.5 -122.5t-162.5 -52q-20 -2 -38 -1t-34 3l-59 -141q-10 -23 -29.5 -34t-42.5 -15q-20 -4 -38.5 0t-30 15.5t-13.5 29.5t12 43 q10 18 25.5 57t38.5 93q-45 29 -75 71.5t-47 95t-23.5 109.5t-6.5 115q2 133 26.5 228t43.5 151q-33 14 -85 49t-101.5 82t-86 104t-36.5 115zM518 449q0 -25 2 -63t12 -75q35 96 74 200.5t80 213.5q-29 -2 -58.5 0t-58.5 8q-10 -37 -18 -67.5t-14.5 -62.5t-11.5 -68.5 t-7 -85.5zM618 911q66 -10 138 7l65 180q18 53 38 103t36 97l-21 -14q-43 -35 -82.5 -83t-73.5 -100t-60 -102.5t-40 -87.5zM649 203q47 4 89 38.5t79 87t67.5 119t53.5 136t36 135.5t17 119q-49 -43 -114 -70q-59 -147 -117 -292.5t-111 -272.5zM973 1006q51 35 89.5 81 t61.5 101q16 43 9 80t-33 57z" />
<glyph unicode="&#xda;" horiz-adv-x="1667" d="M18.5 936q-8.5 41 8.5 94q31 100 108.5 185t179 147.5t214 96.5t210.5 32q18 0 64.5 -9t89.5 -41t70.5 -96.5t11.5 -175.5q-18 -96 -60.5 -213.5t-88.5 -235.5t-89 -224.5t-63 -178.5q-6 -18 -13.5 -56t-3 -70.5t24.5 -48t70 9.5q43 20 95 99t107.5 191.5t112.5 248.5 t111.5 273.5t103.5 264.5t88 223q8 18 24.5 23.5t37.5 5.5q33 0 73.5 -14.5t72.5 -36t47 -49t-5 -54.5t-60 -112t-89.5 -201.5t-99.5 -248.5t-89 -252t-61.5 -215t-14.5 -134q2 -4 8.5 -14.5t20.5 -6.5q27 8 66.5 44t86 88.5t94.5 117t92 127t80 119.5t58 98q4 10 15.5 9 t22.5 -9t18.5 -19t3.5 -20q-16 -35 -54.5 -100.5t-90.5 -143t-113.5 -157.5t-123 -146.5t-119 -108.5t-100.5 -42q-37 -2 -68.5 18.5t-53 57.5t-31.5 88t-4 110q-31 -51 -71 -100t-84 -87t-93 -62.5t-100 -26.5q-45 2 -87 16.5t-75 48t-49.5 89t-8.5 139.5q8 96 42 216 t74 241.5t78 236.5t55.5 202t2 136t-79.5 41q-39 -4 -84 -32.5t-88 -70.5t-82.5 -95.5t-69.5 -107.5t-47.5 -106.5t-15.5 -93.5q0 -41 -17 -58.5t-58 -6.5q-27 8 -56.5 26.5t-51 47t-30 69.5zM1079 1659q2 31 11 61q8 39 30.5 83t54 77t69.5 44t79 -13q39 -27 55.5 -49.5 t16.5 -41t-12.5 -33.5t-28.5 -26q-33 -23 -55.5 -40t-49.5 -40l-63 -49h2q-43 -35 -67.5 -37t-34 15.5t-7.5 48.5z" />
<glyph unicode="&#xdc;" horiz-adv-x="1667" d="M18.5 936q-8.5 41 8.5 94q31 100 108.5 185t179 147.5t214 96.5t210.5 32q18 0 64.5 -9t89.5 -41t70.5 -96.5t11.5 -175.5q-18 -96 -60.5 -213.5t-88.5 -235.5t-89 -224.5t-63 -178.5q-6 -18 -13.5 -56t-3 -70.5t24.5 -48t70 9.5q43 20 95 99t107.5 191.5t112.5 248.5 t111.5 273.5t103.5 264.5t88 223q8 18 24.5 23.5t37.5 5.5q33 0 73.5 -14.5t72.5 -36t47 -49t-5 -54.5t-60 -112t-89.5 -201.5t-99.5 -248.5t-89 -252t-61.5 -215t-14.5 -134q2 -4 8.5 -14.5t20.5 -6.5q27 8 66.5 44t86 88.5t94.5 117t92 127t80 119.5t58 98q4 10 15.5 9 t22.5 -9t18.5 -19t3.5 -20q-16 -35 -54.5 -100.5t-90.5 -143t-113.5 -157.5t-123 -146.5t-119 -108.5t-100.5 -42q-37 -2 -68.5 18.5t-53 57.5t-31.5 88t-4 110q-31 -51 -71 -100t-84 -87t-93 -62.5t-100 -26.5q-45 2 -87 16.5t-75 48t-49.5 89t-8.5 139.5q8 96 42 216 t74 241.5t78 236.5t55.5 202t2 136t-79.5 41q-39 -4 -84 -32.5t-88 -70.5t-82.5 -95.5t-69.5 -107.5t-47.5 -106.5t-15.5 -93.5q0 -41 -17 -58.5t-58 -6.5q-27 8 -56.5 26.5t-51 47t-30 69.5zM956 1655q0 45 50 98q51 49 102 49q41 0 67.5 -29.5t26.5 -70.5q0 -27 -11 -52 t-38 -48q-43 -37 -96 -37q-41 0 -71 24.5t-30 65.5zM1227 1655q0 45 49 98q51 49 102 49q43 0 70 -29.5t27 -70.5q0 -27 -12.5 -52t-41.5 -48q-23 -20 -46 -28.5t-46 -8.5q-43 0 -72.5 24.5t-29.5 65.5z" />
<glyph unicode="&#xdd;" horiz-adv-x="1527" d="M-8 969q-8 41 8 94q31 98 116 186t192.5 152.5t223 100.5t207.5 30q18 0 64.5 -9.5t89.5 -42t70.5 -96t11.5 -174.5q-18 -96 -58 -207.5t-84.5 -221t-85 -210t-61.5 -170.5q-6 -20 -13 -58t-3 -70.5t24.5 -48t69.5 8.5q43 20 93 91t103.5 172.5t107.5 223.5t104.5 248 t95.5 246.5t80 217.5q16 45 49 57t53 12q33 0 71 -10t66.5 -28.5t40.5 -43t-8 -51.5q-16 -18 -42 -81.5t-59.5 -156t-74.5 -209t-85 -243.5t-91 -256t-94 -248q-27 -68 -65 -158t-92 -171t-127 -136t-167 -49q-51 2 -90 30.5t-59.5 68.5t-21.5 87.5t26 87.5q23 37 49 41.5 t46.5 -6t31 -30t0.5 -29.5q-12 -14 -20.5 -32.5t-9.5 -35t5 -29t22 -14.5q31 -6 72 40t84 122t83 168t67 176q-63 -98 -147.5 -158.5t-182.5 -64.5q-45 2 -87 16.5t-75 48t-49 89t-8 137.5q8 96 39.5 215t70.5 238.5t75 230t51.5 193.5t1 126t-78.5 29q-63 -16 -135.5 -74.5 t-135 -135.5t-103.5 -160t-39 -146q0 -41 -17.5 -58.5t-58.5 -7.5q-27 8 -56.5 26.5t-51 48.5t-29.5 71zM1098 1671q2 31 10 62q8 39 30.5 83t54.5 76.5t69.5 44t78.5 -13.5q39 -27 55.5 -49.5t16.5 -40.5t-12 -33.5t-29 -25.5q-33 -23 -55.5 -40.5t-48.5 -39.5l-64 -49h2 q-43 -35 -67.5 -37t-33.5 15t-7 48z" />
<glyph unicode="&#xe1;" horiz-adv-x="749" d="M-113 242q0 74 18.5 159.5t48.5 165.5t66.5 144.5t75.5 95.5q33 25 68 36t67 11q49 0 88 -21.5t58 -68.5q6 14 9 20.5t13 22.5q14 27 54.5 25.5t78 -17.5t64.5 -41.5t14 -50.5q-39 -86 -72.5 -171t-59 -159t-38 -131t-8.5 -88q6 -25 21 -18q27 12 59.5 51t68 93 t71.5 117.5t68 124t57.5 113t41.5 84.5q4 10 17.5 10.5t25.5 -5t21.5 -14.5t5.5 -19q-12 -18 -38 -79t-61.5 -139.5t-78.5 -164.5t-91.5 -159t-98.5 -120t-99 -47q-53 0 -93 37t-53 98q-12 -23 -30.5 -46t-41 -42.5t-50 -33t-60.5 -15.5q-88 0 -147.5 60.5t-59.5 181.5z M69 189.5q-1 -31.5 5 -55t26 -23.5q23 0 56.5 44t64.5 115q12 27 27.5 69t31 91t25.5 98.5t10 89.5q0 26 -6 44q-8 35 -20 34q-25 0 -54.5 -37.5t-57 -95t-52.5 -127t-39 -131.5q-4 -18 -10 -51t-7 -64.5zM346 1005.5q2 30.5 10 61.5q10 39 33 84t54.5 77t68.5 43t78 -14 q39 -27 55.5 -49t16.5 -40.5t-12.5 -33t-26.5 -24.5q-33 -23 -56.5 -41t-50.5 -39l-63 -49h4q-43 -35 -67.5 -38t-35 14.5t-8.5 48z" />
<glyph unicode="&#xe2;" horiz-adv-x="749" d="M-113 242q0 74 18.5 159.5t48.5 165.5t66.5 144.5t75.5 95.5q33 25 68 36t67 11q49 0 88 -21.5t58 -68.5q6 14 9 20.5t13 22.5q14 27 54.5 25.5t78 -17.5t64.5 -41.5t14 -50.5q-39 -86 -72.5 -171t-59 -159t-38 -131t-8.5 -88q6 -25 21 -18q27 12 59.5 51t68 93 t71.5 117.5t68 124t57.5 113t41.5 84.5q4 10 17.5 10.5t25.5 -5t21.5 -14.5t5.5 -19q-12 -18 -38 -79t-61.5 -139.5t-78.5 -164.5t-91.5 -159t-98.5 -120t-99 -47q-53 0 -93 37t-53 98q-12 -23 -30.5 -46t-41 -42.5t-50 -33t-60.5 -15.5q-88 0 -147.5 60.5t-59.5 181.5z M69 189.5q-1 -31.5 5 -55t26 -23.5q23 0 56.5 44t64.5 115q12 27 27.5 69t31 91t25.5 98.5t10 89.5q0 26 -6 44q-8 35 -20 34q-25 0 -54.5 -37.5t-57 -95t-52.5 -127t-39 -131.5q-4 -18 -10 -51t-7 -64.5zM200 1034.5q1 20.5 25 38.5q16 14 44 31.5t56.5 34t55.5 30t41 19.5 q31 10 58.5 -3.5t41.5 -33.5q10 -14 23.5 -40t25 -54.5t19.5 -57t10 -49.5v4q4 -23 -8 -38t-31.5 -20t-40 0t-31.5 22q-6 6 -18 40q-6 20 -17.5 47t-21.5 50q-23 -10 -47.5 -26.5t-42.5 -29.5v2q-33 -22 -49 -28q-23 -6 -45.5 2t-35.5 23.5t-12 36z" />
<glyph unicode="&#xe4;" horiz-adv-x="749" d="M-113 242q0 74 18.5 159.5t48.5 165.5t66.5 144.5t75.5 95.5q33 25 68 36t67 11q49 0 88 -21.5t58 -68.5q6 14 9 20.5t13 22.5q14 27 54.5 25.5t78 -17.5t64.5 -41.5t14 -50.5q-39 -86 -72.5 -171t-59 -159t-38 -131t-8.5 -88q6 -25 21 -18q27 12 59.5 51t68 93 t71.5 117.5t68 124t57.5 113t41.5 84.5q4 10 17.5 10.5t25.5 -5t21.5 -14.5t5.5 -19q-12 -18 -38 -79t-61.5 -139.5t-78.5 -164.5t-91.5 -159t-98.5 -120t-99 -47q-53 0 -93 37t-53 98q-12 -23 -30.5 -46t-41 -42.5t-50 -33t-60.5 -15.5q-88 0 -147.5 60.5t-59.5 181.5z M69 189.5q-1 -31.5 5 -55t26 -23.5q23 0 56.5 44t64.5 115q12 27 27.5 69t31 91t25.5 98.5t10 89.5q0 26 -6 44q-8 35 -20 34q-25 0 -54.5 -37.5t-57 -95t-52.5 -127t-39 -131.5q-4 -18 -10 -51t-7 -64.5zM180 1024q0 49 49 98t101 49q43 0 69.5 -29.5t26.5 -70.5 q0 -57 -49 -100q-23 -20 -48.5 -27.5t-47.5 -7.5q-41 0 -71 23.5t-30 64.5zM451 1024q0 49 49 98q25 27 51.5 38t48.5 11q45 0 71.5 -29.5t26.5 -70.5q0 -57 -53 -100q-23 -20 -47.5 -27.5t-46.5 -7.5q-41 0 -70.5 23.5t-29.5 64.5z" />
<glyph unicode="&#xe6;" horiz-adv-x="1099" d="M-113 242q0 74 18.5 159.5t48.5 165.5t66.5 144.5t75.5 95.5q33 25 68 36t67 11q49 0 88 -21.5t58 -68.5q6 14 9 20.5t13 22.5q8 16 27.5 21.5t42.5 3t47.5 -10.5t44.5 -20q37 29 80 44t92 15q37 0 72 -15.5t61.5 -44t40 -69.5t8.5 -92q-10 -109 -49 -180.5t-93 -114.5 t-116.5 -60.5t-119.5 -17.5q-4 -27 2 -55.5t19 -52t33.5 -35.5t49.5 -8q68 12 138.5 63t141 132t137 190.5t124.5 238.5q4 10 16 11.5t24.5 -4t19.5 -14.5t3 -17q-23 -47 -60.5 -118t-85.5 -149.5t-105.5 -157.5t-122 -143.5t-133 -105.5t-138.5 -43q-63 0 -115 31 q-37 -25 -74.5 -29t-67.5 11.5t-48.5 47t-18.5 78.5q-12 -23 -30.5 -46t-41 -42.5t-50 -33t-60.5 -15.5q-88 0 -147.5 60.5t-59.5 181.5zM69 189.5q-1 -31.5 5 -55t26 -23.5q23 0 56.5 44t64.5 115q12 27 27.5 69t31 91t25.5 98.5t10 89.5q0 26 -6 44q-8 35 -20 34 q-25 0 -54.5 -37.5t-57 -95t-52.5 -127t-39 -131.5q-4 -18 -10 -51t-7 -64.5zM549 352q35 4 70.5 29t65.5 60.5t50.5 81.5t24.5 93q2 25 -3 36.5t-12.5 16.5t-14.5 4t-13 -3q-18 -10 -43 -41t-49.5 -75t-45 -96t-30.5 -106z" />
<glyph unicode="&#xe7;" horiz-adv-x="622" d="M-123 305q0 100 32 206.5t88 190.5t134 131.5t170 28.5q45 -10 80 -36.5t55.5 -66.5t24.5 -92.5t-12 -111.5q-16 -53 -57.5 -64.5t-76.5 -7.5q-76 10 -63 52q8 27 17.5 58.5t10.5 55t-8.5 31.5t-40.5 -12q-33 -23 -63.5 -74t-54 -114.5t-38 -130t-14.5 -118.5 q0 -63 18.5 -92.5t48.5 -34t69 12t79 47.5q57 43 112.5 109.5t108 143.5t101.5 161t94 161q6 8 18.5 8.5t25 -6t20.5 -15.5t4 -17q-29 -49 -67 -118t-85 -144.5t-100 -151.5t-111.5 -138.5t-120 -104.5t-122.5 -50l-15 -51q-2 -10 -5 -23.5t-7 -25.5q27 -10 55.5 -25.5 t50 -40t31.5 -56.5t0 -75q-16 -68 -76.5 -99.5t-128.5 -37.5q-47 -4 -75.5 1t-44 17.5t-20.5 32t-5 41.5q-2 53 20.5 59.5t75.5 -10.5q27 -8 55.5 -13t52 -6t40 6t22.5 23q8 29 -26.5 50.5t-75.5 37.5q-16 6 -41 18.5t-27 41.5q0 10 2 29.5t7.5 41t10.5 42t11 32.5 q-84 29 -124 113t-40 180z" />
<glyph unicode="&#xe9;" horiz-adv-x="616" d="M-129 309q0 86 25.5 183.5t74.5 178.5t120 135t163 54q37 0 71.5 -15.5t61.5 -44t40 -69.5t9 -92q-10 -109 -49 -180.5t-93 -114.5t-116.5 -60.5t-120.5 -17.5q-4 -27 2.5 -55.5t19.5 -52t33.5 -35.5t49.5 -8q68 12 138.5 63t141 132t137 190.5t123.5 238.5 q4 10 16.5 11.5t25 -4t19.5 -14.5t3 -17q-23 -47 -60.5 -118t-86 -149.5t-105.5 -157.5t-121.5 -143.5t-133.5 -105.5t-138 -43q-55 0 -100.5 23.5t-79 65.5t-52 98.5t-18.5 123.5zM70 352q35 4 70.5 29t65.5 60.5t50 81.5t25 93q2 25 -3.5 36.5t-12.5 16.5t-14 4t-13 -3 q-18 -10 -43 -41t-49.5 -75t-45 -96t-30.5 -106zM238 1016q2 31 10 61q10 39 32.5 84t54.5 77t68.5 43t77.5 -13q39 -27 55.5 -49.5t16.5 -41t-12.5 -33t-26.5 -24.5q-33 -23 -55.5 -41t-50.5 -39l-62 -49h2q-43 -35 -67.5 -38t-34.5 14.5t-8 48.5z" />
<glyph unicode="&#xeb;" horiz-adv-x="616" d="M-129 309q0 86 25.5 183.5t74.5 178.5t120 135t163 54q37 0 71.5 -15.5t61.5 -44t40 -69.5t9 -92q-10 -109 -49 -180.5t-93 -114.5t-116.5 -60.5t-120.5 -17.5q-4 -27 2.5 -55.5t19.5 -52t33.5 -35.5t49.5 -8q68 12 138.5 63t141 132t137 190.5t123.5 238.5 q4 10 16.5 11.5t25 -4t19.5 -14.5t3 -17q-23 -47 -60.5 -118t-86 -149.5t-105.5 -157.5t-121.5 -143.5t-133.5 -105.5t-138 -43q-55 0 -100.5 23.5t-79 65.5t-52 98.5t-18.5 123.5zM61 1051q0 49 50 96q49 49 100 49q43 0 69.5 -28.5t26.5 -69.5q0 -58 -51 -101 q-23 -20 -47.5 -28t-46.5 -8q-41 0 -71 24.5t-30 65.5zM70 352q35 4 70.5 29t65.5 60.5t50 81.5t25 93q2 25 -3.5 36.5t-12.5 16.5t-14 4t-13 -3q-18 -10 -43 -41t-49.5 -75t-45 -96t-30.5 -106zM332 1051q0 49 47 96q27 27 53.5 38t48.5 11q43 0 71 -28.5t28 -69.5 q-1 -58 -54 -101q-43 -37 -94 -36q-41 0 -70.5 24.5t-29.5 65.5z" />
<glyph unicode="&#xed;" horiz-adv-x="460" d="M-98 219q0 72 16 162t41 177t53.5 158.5t50.5 106.5q25 35 74 35q31 0 62.5 -14.5t54 -37t31 -52t-10.5 -62.5q-20 -41 -53 -104.5t-62.5 -136t-48 -144.5t-8.5 -127q2 -12 10.5 -22.5t20.5 -7.5q27 4 62.5 35.5t73.5 81.5t77 112.5t73 127t60.5 125t40.5 107.5 q4 12 16.5 13.5t25.5 -4t22.5 -14.5t7.5 -19q-12 -25 -37 -88.5t-60.5 -142t-80.5 -165t-97.5 -157t-112 -116.5t-120.5 -46q-51 0 -86 16.5t-56.5 46t-30.5 69.5t-9 87zM168 1051q6 20 13 47.5t16.5 55.5t19.5 52.5t21 38.5q12 12 24 18.5t31 8.5q31 2 65.5 -10.5t62.5 -34 t41 -49t1 -52.5l-139 -188q-18 -16 -48 -15t-58 16t-44 44t-6 68zM416 1481.5q2 31.5 10 62.5q8 39 30.5 83t54.5 76t69.5 44t78.5 -12q39 -27 55.5 -50.5t16.5 -42t-12 -33t-29 -24.5q-33 -23 -55.5 -41t-48.5 -39l-64 -49h2q-43 -35 -67.5 -38t-33.5 14.5t-7 49z" />
<glyph unicode="&#xf3;" horiz-adv-x="647" d="M-119 289q0 94 28 195.5t77 186.5t113.5 139t138.5 54q12 0 31.5 -2t40 -13t41 -32.5t32.5 -58.5q47 -20 74 -92t4 -207q16 -2 48 8t69.5 40t76.5 84t72 140q8 14 22.5 18.5t26.5 -1t20.5 -16.5t6.5 -30q-18 -63 -58 -130.5t-90.5 -121t-109 -87t-113.5 -29.5 q-41 -154 -124 -252t-199 -98q-45 0 -97 22q-68 35 -99.5 111t-31.5 172zM38 206q-3 -52 10 -87t50 -35q29 0 55.5 30.5t49 77t37 98.5t18.5 95q-18 12 -31.5 36.5t-20.5 54.5t-8 60.5t9 53.5q-29 -10 -57.5 -51t-52 -97.5t-40 -120t-19.5 -115.5zM235.5 1020 q2.5 31 10.5 61q10 39 32.5 83t54.5 77t68.5 44t77.5 -13q39 -27 55.5 -49.5t16.5 -41t-12.5 -33.5t-26.5 -26q-33 -23 -56.5 -40t-49.5 -40l-64 -49h4q-43 -35 -67.5 -37t-35 15.5t-8 48.5z" />
<glyph unicode="&#xf4;" horiz-adv-x="647" d="M-119 289q0 94 28 195.5t77 186.5t113.5 139t138.5 54q12 0 31.5 -2t40 -13t41 -32.5t32.5 -58.5q47 -20 74 -92t4 -207q16 -2 48 8t69.5 40t76.5 84t72 140q8 14 22.5 18.5t26.5 -1t20.5 -16.5t6.5 -30q-18 -63 -58 -130.5t-90.5 -121t-109 -87t-113.5 -29.5 q-41 -154 -124 -252t-199 -98q-45 0 -97 22q-68 35 -99.5 111t-31.5 172zM38 206q-3 -52 10 -87t50 -35q29 0 55.5 30.5t49 77t37 98.5t18.5 95q-18 12 -31.5 36.5t-20.5 54.5t-8 60.5t9 53.5q-29 -10 -57.5 -51t-52 -97.5t-40 -120t-19.5 -115.5zM133 1034.5 q0 20.5 25 38.5q18 14 44.5 31.5t56.5 34t55.5 30t41.5 19.5q31 10 58.5 -3.5t42.5 -33.5q10 -14 22.5 -40t23.5 -54.5t19 -57t13 -49.5v4q4 -23 -9.5 -38t-33 -20t-40 0t-30.5 22q-2 4 -6 14t-13 26q-4 20 -16 47t-22 50q-23 -10 -47.5 -26.5t-41.5 -29.5v2 q-31 -20 -49 -28q-23 -6 -45 2t-35.5 23.5t-13.5 36z" />
<glyph unicode="&#xf6;" horiz-adv-x="647" d="M-119 289q0 94 28 195.5t77 186.5t113.5 139t138.5 54q12 0 31.5 -2t40 -13t41 -32.5t32.5 -58.5q47 -20 74 -92t4 -207q16 -2 48 8t69.5 40t76.5 84t72 140q8 14 22.5 18.5t26.5 -1t20.5 -16.5t6.5 -30q-18 -63 -58 -130.5t-90.5 -121t-109 -87t-113.5 -29.5 q-41 -154 -124 -252t-199 -98q-45 0 -97 22q-68 35 -99.5 111t-31.5 172zM33 1036q0 49 49 99q49 49 100 49q43 0 70 -30t27 -71q-1 -57 -50 -100q-23 -20 -48 -27.5t-48 -7.5q-41 0 -70.5 23.5t-29.5 64.5zM38 206q-3 -52 10 -87t50 -35q29 0 55.5 30.5t49 77t37 98.5 t18.5 95q-18 12 -31.5 36.5t-20.5 54.5t-8 60.5t9 53.5q-29 -10 -57.5 -51t-52 -97.5t-40 -120t-19.5 -115.5zM303 1036q0 49 49 99q25 27 51.5 38t49.5 11q45 0 71.5 -30t26.5 -71q0 -57 -53 -100q-23 -20 -47.5 -27.5t-47.5 -7.5q-41 0 -70.5 23.5t-29.5 64.5z" />
<glyph unicode="&#xf7;" horiz-adv-x="800" d="M115 420q0 14 8 31.5t22.5 32t33 24.5t38.5 10q18 2 44 2h46q94 0 182.5 -4t139.5 -8q12 0 21 -1t16 -1q14 0 19 -21.5t1 -49t-18.5 -51.5t-38.5 -28q-8 -2 -20.5 -2h-28.5q-47 0 -116 2t-132 4q-55 4 -96 5.5t-52 1.5h-2q-35 -4 -51 13t-16 40zM193 63q6 63 42.5 93 t74.5 32t64.5 -20.5t14.5 -65.5q-10 -33 -35.5 -63.5t-62.5 -36.5q-41 -10 -71.5 7t-26.5 54zM340 719q6 63 43 93t75 32t64.5 -20.5t14.5 -65.5q-10 -33 -36 -63.5t-63 -39.5q-41 -10 -71.5 8.5t-26.5 55.5z" />
<glyph unicode="&#xf8;" horiz-adv-x="647" d="M-163 -138.5q-15 17.5 7 46.5q14 16 39 58t60 100q-33 43 -47.5 100t-14.5 123q0 94 28 195.5t77 186.5t113.5 139t138.5 54q18 0 53 -8t63 -45q45 80 75 133.5t38 63.5q10 16 25.5 21t31.5 5q33 0 53.5 -20.5t8.5 -40.5l-150 -258q29 -41 37 -130t-33 -247 q-20 -78 -53 -142.5t-75 -111.5t-94 -73.5t-109 -26.5q-41 0 -93 20l-84 -135q-8 -14 -22 -19.5t-29 -5.5q-29 0 -44 17.5zM41 242q49 90 102.5 184t102.5 186l-2 6q-37 -12 -71 -51t-61.5 -93t-46 -115.5t-24.5 -116.5zM70 94q14 -10 28 -10q33 0 61.5 30.5t49 79t34 107.5 t19.5 119q-51 -86 -100 -170t-92 -156z" />
<glyph unicode="&#xfa;" horiz-adv-x="727" d="M-129 221q-2 74 14.5 164t42 177t54 159t51.5 106q29 35 73 35q31 0 62 -9t52.5 -25.5t27.5 -42t-12 -58.5q-18 -35 -46 -97.5t-54.5 -136t-49.5 -147.5t-29 -131q-8 -53 15.5 -63.5t58.5 51.5q27 45 56.5 116.5t59 148.5t57.5 150.5t46 124.5q10 31 18.5 53.5t14.5 30.5 q23 35 70 35q31 0 62.5 -7t54 -21.5t30.5 -37t-8 -55.5q-18 -33 -44 -89t-52.5 -122.5t-47 -135t-28.5 -128.5q0 -6 -2 -23.5t-2 -36t5 -32.5t17 -16q20 0 57 30.5t86.5 100t106.5 180.5t119 270q4 10 16.5 12.5t24.5 -2t20.5 -13.5t5.5 -19q-10 -20 -33.5 -79.5t-57 -137.5 t-76.5 -164t-90.5 -159t-96.5 -123t-96 -54q-82 -8 -127 45t-47 141q-18 -35 -41 -67.5t-49.5 -58t-56 -42t-58.5 -16.5q-25 0 -53.5 8t-55 30.5t-45 66t-20.5 114.5zM283 1001.5q2 30.5 10 61.5q8 39 31.5 83t54.5 76.5t68.5 44t78.5 -13.5q39 -27 55.5 -49t16.5 -40.5 t-12.5 -34t-28.5 -25.5q-33 -23 -55.5 -40t-48.5 -40l-64 -49h2q-43 -35 -67.5 -37t-33.5 15.5t-7 48z" />
<glyph unicode="&#xfc;" horiz-adv-x="727" d="M-129 221q-2 74 14.5 164t42 177t54 159t51.5 106q29 35 73 35q31 0 62 -9t52.5 -25.5t27.5 -42t-12 -58.5q-18 -35 -46 -97.5t-54.5 -136t-49.5 -147.5t-29 -131q-8 -53 15.5 -63.5t58.5 51.5q27 45 56.5 116.5t59 148.5t57.5 150.5t46 124.5q10 31 18.5 53.5t14.5 30.5 q23 35 70 35q31 0 62.5 -7t54 -21.5t30.5 -37t-8 -55.5q-18 -33 -44 -89t-52.5 -122.5t-47 -135t-28.5 -128.5q0 -6 -2 -23.5t-2 -36t5 -32.5t17 -16q20 0 57 30.5t86.5 100t106.5 180.5t119 270q4 10 16.5 12.5t24.5 -2t20.5 -13.5t5.5 -19q-10 -20 -33.5 -79.5t-57 -137.5 t-76.5 -164t-90.5 -159t-96.5 -123t-96 -54q-82 -8 -127 45t-47 141q-18 -35 -41 -67.5t-49.5 -58t-56 -42t-58.5 -16.5q-25 0 -53.5 8t-55 30.5t-45 66t-20.5 114.5zM137 1030q0 49 49 98t101 50q43 0 69.5 -30t26.5 -71q0 -57 -49 -100q-23 -20 -48.5 -27.5t-47.5 -7.5 q-41 0 -71 23.5t-30 64.5zM408 1030q0 49 49 98q25 27 51.5 38.5t48.5 11.5q45 0 71.5 -30t26.5 -71q0 -57 -53 -100q-23 -20 -47.5 -27.5t-46.5 -7.5q-41 0 -70.5 23.5t-29.5 64.5z" />
<glyph unicode="&#xfd;" horiz-adv-x="739" d="M-180 -313q0 61 28.5 111t74.5 89t102.5 68t111.5 45q2 12 7.5 29.5t10.5 32t7 22.5t0 4q-14 -31 -31.5 -48t-33 -26.5t-28 -11.5t-18.5 -2q-78 0 -120 53t-44 146q-2 41 7.5 99t23.5 121.5t32.5 128t38 122t39 100.5t33.5 64q12 16 32 24t42 8q31 0 62.5 -12t54 -32.5 t30 -48.5t-9.5 -56q-18 -31 -50 -93.5t-63.5 -138t-58 -151.5t-37.5 -133q-8 -41 0.5 -57.5t18.5 -16.5q31 0 59.5 43t57 111.5t55.5 151.5t54.5 162t53 143.5t52.5 95.5q12 16 39.5 25t48.5 9q31 0 60.5 -12t49 -33.5t24.5 -49.5t-13 -56q-37 -57 -70 -131t-61.5 -152 t-55 -155t-49.5 -138q-4 -12 -11 -34.5t-11 -32.5q59 35 124.5 104.5t130 160.5t123 194.5t103.5 207.5q6 8 19.5 9.5t26.5 -4t21.5 -14.5t6.5 -17q-35 -86 -96.5 -201t-141.5 -226.5t-173 -206.5t-192 -144q-8 -23 -17 -49.5t-15 -49.5q-20 -57 -50 -109.5t-69 -92 t-87 -64.5t-106 -25q-72 0 -112.5 41t-40.5 99zM-52 -266.5q-3 -16.5 9 -22.5q6 -4 19.5 -3t31 14.5t37 44.5t39.5 86q-43 -14 -71.5 -37t-45 -44.5t-19.5 -38zM302 1013.5q1 30.5 9 61.5q10 39 33 83t54.5 77t68.5 44t78 -13q41 -27 56 -49.5t15 -41t-12 -34t-26 -25.5 q-33 -23 -55.5 -40t-51.5 -40l-61 -49h2q-43 -35 -68 -37t-34 15.5t-8 48z" />
<glyph unicode="&#x152;" horiz-adv-x="2054" d="M29 1145q0 53 38.5 103t86.5 83q57 41 98 35t39 -59q-4 -66 12 -142q10 -53 41 -95t78 -77q61 131 145 234q37 43 81 86t96.5 76.5t114 54t128.5 22.5q98 4 154.5 -33.5t83.5 -89.5q68 84 160 134.5t182 60.5q82 8 165 -10.5t147.5 -66.5t101 -123.5t26.5 -182.5 q-10 -106 -44 -159.5t-79 -70t-91 -5t-81 35t-49 52t6 45.5q20 18 38.5 45.5t32 59.5t21.5 63.5t8 60.5q2 51 -33.5 82t-88 36t-110.5 -21.5t-101 -90.5q-29 -43 -47.5 -103.5t-18.5 -123t23.5 -119.5t79.5 -92q39 -25 45 -77t-10.5 -100t-52.5 -80t-83 -18q-14 4 -23.5 4.5 t-19.5 0.5q-47 0 -83 -33t-58 -82q-31 -84 -19.5 -155.5t55.5 -123t112.5 -78t150.5 -20.5q109 8 206 66.5t181 149.5t153.5 205t124.5 230q4 10 16.5 10.5t25 -6t20.5 -16.5t4 -18q-39 -76 -91 -169.5t-116.5 -186.5t-139.5 -177t-161 -141q-109 -66 -225.5 -88.5t-224 -6 t-194.5 69.5t-134 142q-61 -72 -137 -120t-166 -57q-109 -4 -179.5 33t-110.5 100.5t-55.5 144.5t-15.5 163q2 133 26.5 228t43.5 151q-33 14 -85 49t-101.5 82t-86 104t-36.5 115zM518 449q0 -25 2 -61t12.5 -72.5t30 -67.5t53.5 -43q39 -6 78 10t76 52t69.5 86t61.5 110 q4 18 11.5 36.5t15.5 37.5q25 76 37 125t18 80.5t7 52t1 43.5q-20 -23 -54 -46.5t-85 -40t-120.5 -23.5t-162.5 5q-10 -37 -18 -67.5t-14.5 -62.5t-11.5 -68.5t-7 -85.5zM618 911q8 -4 16.5 -4h18.5q66 0 137.5 19.5t138 56.5t119 88t76.5 117q16 49 5 90t-44.5 59.5t-87 8 t-123.5 -61.5q-43 -35 -82.5 -83t-73.5 -100t-59.5 -102.5t-40.5 -87.5z" />
<glyph unicode="&#x153;" horiz-adv-x="1015" d="M-119 289q0 94 28 195.5t77 186.5t113.5 139t138.5 54q12 0 31.5 -2t40 -13t41 -32.5t32.5 -58.5l20 -10q45 51 101.5 81.5t126.5 30.5q37 0 74.5 -13t66.5 -40t48.5 -69t19.5 -99q-4 -109 -46 -180.5t-103.5 -114.5t-130 -60.5t-126.5 -17.5q-4 -27 3 -54.5t22.5 -49 t39 -34.5t54.5 -13q53 0 120.5 49t138.5 134t140.5 198.5t126.5 242.5q4 10 16.5 11.5t25 -4t19.5 -14.5t3 -17q-23 -47 -59.5 -118t-85 -149.5t-106.5 -157.5t-121.5 -143.5t-132.5 -105.5t-138 -43q-55 0 -102.5 24.5t-80.5 65.5q-43 -49 -96 -76.5t-112 -27.5 q-45 0 -97 22q-68 35 -99.5 111t-31.5 172zM38 212q-3 -56 10 -92t50 -36q27 0 50.5 19.5t42 53t33 75.5t24.5 90q4 68 18 137q2 53 -3 95t-19 64q-39 -12 -75 -56t-63.5 -103.5t-46 -125t-21.5 -121.5zM446 352q35 4 71 29t65.5 60.5t50 81.5t24.5 93q2 25 -3 36.5 t-12 16.5t-14.5 4t-13.5 -3q-18 -10 -42.5 -41t-49 -75t-45 -96t-31.5 -106z" />
<glyph unicode="&#x2000;" horiz-adv-x="993" />
<glyph unicode="&#x2001;" horiz-adv-x="1987" />
<glyph unicode="&#x2002;" horiz-adv-x="993" />
<glyph unicode="&#x2003;" horiz-adv-x="1987" />
<glyph unicode="&#x2004;" horiz-adv-x="662" />
<glyph unicode="&#x2005;" horiz-adv-x="496" />
<glyph unicode="&#x2006;" horiz-adv-x="331" />
<glyph unicode="&#x2007;" horiz-adv-x="331" />
<glyph unicode="&#x2008;" horiz-adv-x="248" />
<glyph unicode="&#x2009;" horiz-adv-x="397" />
<glyph unicode="&#x200a;" horiz-adv-x="110" />
<glyph unicode="&#x2010;" horiz-adv-x="870" d="M160 514q0 31 29.5 64.5t70.5 35.5q20 2 45 2h47q94 0 182.5 -5t139.5 -7q12 0 21.5 -1t15.5 -1q14 0 19 -21.5t1 -49t-19.5 -51t-39.5 -27.5q-10 -2 -49 -2q-45 0 -114 2t-132 4q-55 4 -96 5t-52 1h-2q-35 -4 -51 12.5t-16 38.5z" />
<glyph unicode="&#x2011;" horiz-adv-x="870" d="M160 514q0 31 29.5 64.5t70.5 35.5q20 2 45 2h47q94 0 182.5 -5t139.5 -7q12 0 21.5 -1t15.5 -1q14 0 19 -21.5t1 -49t-19.5 -51t-39.5 -27.5q-10 -2 -49 -2q-45 0 -114 2t-132 4q-55 4 -96 5t-52 1h-2q-35 -4 -51 12.5t-16 38.5z" />
<glyph unicode="&#x2012;" horiz-adv-x="870" d="M160 514q0 31 29.5 64.5t70.5 35.5q20 2 45 2h47q94 0 182.5 -5t139.5 -7q12 0 21.5 -1t15.5 -1q14 0 19 -21.5t1 -49t-19.5 -51t-39.5 -27.5q-10 -2 -49 -2q-45 0 -114 2t-132 4q-55 4 -96 5t-52 1h-2q-35 -4 -51 12.5t-16 38.5z" />
<glyph unicode="&#x2013;" horiz-adv-x="1321" d="M160 514q0 31 52.5 64.5t126.5 35.5q36 2 80.5 2h83.5q168 0 326.5 -5t249.5 -7q21 0 38 -1t28 -1q25 0 34 -21.5t2 -49t-35 -51t-71 -27.5q-18 -2 -87 -2q-81 0 -204 2t-236 4q-98 4 -171.5 5t-93.5 1h-3q-63 -4 -91.5 12.5t-28.5 38.5z" />
<glyph unicode="&#x2014;" horiz-adv-x="2345" d="M160 514q0 31 105.5 64.5t252.5 35.5q71 2 160.5 2h168.5q336 0 652 -5t499 -7q43 0 77 -1t55 -1q50 0 68 -21.5t3.5 -49t-70 -51t-140.5 -27.5q-36 -2 -176 -2q-160 0 -407 2t-472 4q-197 4 -343.5 5t-185.5 1h-7q-126 -4 -183 12.5t-57 38.5z" />
<glyph unicode="&#x2018;" horiz-adv-x="311" d="M50 753.5q-7 20.5 3 39.5l19 34q27 53 39 78t24 43q23 37 64 37q25 0 42 -14.5t19 -34.5q0 -4 1 -22.5t-1 -47t-9 -65.5t-24 -78v2q-18 -47 -69 -47q-23 0 -44.5 11t-39 27.5t-24.5 37z" />
<glyph unicode="&#x2019;" horiz-adv-x="309" d="M47 731v22.5t2 46t9.5 63.5t23.5 75q10 27 27.5 37t40.5 10t46 -10t39.5 -27.5t22.5 -38t-2 -39.5v2l-27 -53q-20 -41 -30.5 -61.5t-26.5 -42.5q-23 -37 -61 -37q-25 0 -42.5 15.5t-21.5 37.5z" />
<glyph unicode="&#x201c;" horiz-adv-x="575" d="M54 753.5q-7 20.5 3 39.5l19 34q29 53 41 78t22 43q25 37 64 37q27 0 43 -15.5t20 -35.5q0 -6 1 -24.5t-2 -46t-10.5 -63.5t-23.5 -75q-10 -25 -27.5 -36t-39.5 -11q-23 0 -45.5 11t-40 27.5t-24.5 37zM300 753.5q-7 20.5 3 39.5l29 57q20 41 31.5 62.5t25.5 39.5l-2 -2 q12 20 27.5 27.5t31.5 7.5q27 0 44.5 -14.5t19.5 -34.5q0 -4 1 -22.5t-1 -47t-9 -65.5t-24 -78v2q-18 -47 -69 -47q-23 0 -45.5 11t-39 27.5t-23.5 37z" />
<glyph unicode="&#x201d;" horiz-adv-x="561" d="M53 731v22.5t2 46t9.5 63.5t23.5 75q10 27 27.5 37t40.5 10t46 -10t39.5 -27.5t22.5 -38t-2 -39.5l-29 -57q-20 -41 -31.5 -62.5t-23.5 -37.5v2q-12 -20 -28.5 -27.5t-32.5 -7.5q-25 0 -42.5 14.5t-21.5 36.5zM286 753.5q-1 18.5 2 46t10 63.5t24 75v2q20 45 67 45 q23 0 46.5 -11t40 -27.5t22.5 -37t-4 -39.5q-4 -4 -7 -14q-29 -59 -44 -88t-31 -53q-29 -37 -64 -37q-25 0 -41 15.5t-20 37.5q0 4 -1 22.5z" />
<glyph unicode="&#x202f;" horiz-adv-x="397" />
<glyph unicode="&#x205f;" horiz-adv-x="496" />
<glyph unicode="&#x20ac;" horiz-adv-x="1243" d="M53 584q-2 20 5.5 43.5t20.5 43t33.5 33t43.5 13.5q23 2 37 3t36 1q4 18 5.5 32.5t7.5 43.5h-86q-41 -4 -60.5 18.5t-23.5 52.5q-4 41 25.5 84t76.5 47q33 2 64.5 2h64.5q37 92 88 182.5t117.5 162t150.5 114.5t187 41q100 -2 179 -46t122 -114.5t44 -157.5t-52 -173 q-20 -25 -56 -32t-76 -1t-77 23.5t-56 41.5q-12 14 -12 23.5t6 19t16.5 19.5t18.5 22q18 31 26.5 65t5.5 64.5t-19.5 52t-47.5 25.5q-57 8 -104 -23.5t-84 -83.5t-65.5 -115.5t-47.5 -119.5q47 -4 81 -6t50 -2t25.5 -29.5t7.5 -65.5t-16.5 -68t-40.5 -36q-41 -6 -83 -4 t-85 4l-19 -71q100 -6 140.5 -8.5t52.5 -2.5q18 0 26.5 -29.5t6.5 -66.5t-16.5 -67.5t-41.5 -34.5q-47 -8 -97 -4t-103 6q-6 -49 -8.5 -110.5t12 -115t52.5 -89t110 -35.5q35 0 73.5 17t72.5 49t55.5 77t21.5 102q0 43 18.5 52.5t50.5 1.5q27 -6 61 -22.5t62.5 -40t44 -50.5 t4.5 -51q-31 -70 -79 -125t-106 -94t-123.5 -59.5t-129.5 -20.5q-98 0 -179 40t-138.5 110.5t-88 165.5t-30.5 206q-29 2 -48.5 2h-25.5q-41 -2 -61.5 18.5t-22.5 49.5z" />
<glyph unicode="&#x25fc;" horiz-adv-x="860" d="M0 0v860h860v-860h-860z" />
</font>
</defs>
</svg>
