<?xml version="1.0" standalone="no"?>
<!DOCTYPE svg PUBLIC "-//W3C//DTD SVG 1.1//EN" "http://www.w3.org/Graphics/SVG/1.1/DTD/svg11.dtd" >
<svg xmlns="http://www.w3.org/2000/svg" xmlns:xlink="http://www.w3.org/1999/xlink" version="1.1">
<metadata></metadata>
<defs>
<font id="smartphone_iconsregular" horiz-adv-x="1593" >
<font-face units-per-em="2048" ascent="1638" descent="-410" />
<missing-glyph horiz-adv-x="508" />
<glyph horiz-adv-x="0" />
<glyph unicode="&#xd;" horiz-adv-x="508" />
<glyph unicode=" "  horiz-adv-x="508" />
<glyph unicode="&#x09;" horiz-adv-x="508" />
<glyph unicode="&#xa0;" horiz-adv-x="508" />
<glyph unicode="!" horiz-adv-x="1923" d="M662 316v-110h13q13 0 13 15v80q0 15 -13 15h-13zM382 316v-52h12q12 0 12 15v23q0 14 -12 14h-12zM175 303v-83q0 -15 12 -15q13 0 13 15v83q0 15 -13 15q-12 0 -12 -15zM784 233h23l-11 78zM968 316v-110h14q12 0 12 15v80q0 15 -12 15h-14zM1802 316v-110h13 q13 0 13 15v80q0 15 -13 15h-13zM1852 222q0 -37 -36 -37h-38v153h38q36 0 36 -38v-78zM1763 316h-42v-43h33v-22h-33v-45h42v-21h-66v153h66v-22zM1683 317l-46 -111h46v-21h-71v21l46 110h-44v22h69v-21zM1598 185h-24v153h24v-153zM1536 185q-2 6 -2 18v25q0 19 -16 19 h-8v-62h-24v153h36q36 0 36 -35v-12q0 -24 -16 -31q16 -7 16 -33v-24q0 -12 3 -18h-25zM1470 221q0 -38 -36 -38q-37 0 -37 38v80q0 39 37 39q36 0 36 -39v-80zM1389 316h-26v-131h-24v131h-25v22h75v-22zM1306 286h-22v17q0 15 -13 15q-12 0 -12 -15v-83q0 -15 12 -15 q13 0 13 15v22h22v-21q0 -38 -36 -38t-36 38v80q0 39 36 39t36 -39v-15zM1222 316h-42v-43h33v-22h-33v-45h42v-21h-66v153h66v-22zM1121 185h-36l-24 153h25l18 -125l18 125h23zM1018 222q0 -37 -36 -37h-38v153h38q36 0 36 -38v-78zM927 185h-25l-30 111v-111h-22v153h30 l25 -92v92h22v-153zM815 185l-4 27h-30l-4 -27h-22l24 153h36l24 -153h-24zM712 222q0 -37 -36 -37h-38v153h38q36 0 36 -38v-78zM623 316h-42v-43h33v-22h-33v-45h42v-21h-66v153h66v-22zM546 185h-63v153h24v-132h39v-21zM465 185h-24v153h24v-153zM430 280q0 -38 -36 -38 h-12v-57h-24v153h36q36 0 36 -38v-20zM341 185h-23v110l-17 -110h-23l-18 108v-108h-21v153h34l18 -109l16 109h34v-153zM224 221q0 -38 -37 -38q-36 0 -36 38v80q0 39 36 39q37 0 37 -39v-80zM138 286h-23v17q0 15 -12 15q-13 0 -13 -15v-83q0 -15 13 -15q12 0 12 15v22h23 v-21q0 -38 -36 -38t-36 38v80q0 39 36 39t36 -39v-15zM40 159h1833v212h-1833v-212zM1510 316v-47h10q14 0 14 16v15q0 16 -12 16h-12zM1421 303v-83q0 -15 13 -15q12 0 12 15v83q0 15 -12 15q-13 0 -13 -15zM711 63v-134q0 -64 60 -64t60 64v34h-38v-36q0 -25 -21 -25 q-20 0 -20 25v138q0 26 20 26q21 0 21 -26v-27h38v25q0 64 -60 64t-60 -64zM936 -74q0 -24 -21 -24q-20 0 -20 24v198h-41v-195q0 -65 60 -65t60 65v195h-38v-198zM990 88h42v-220h41v220h42v36h-125v-36zM198 -79l-20 203h-39l-19 -202l-22 202h-39l28 -256h56l14 137 l15 -137h54l28 256h-35zM353 -73q0 -25 -21 -25t-21 25v138q0 26 21 26t21 -26v-138zM271 63v-134q0 -64 61 -64q62 0 62 64v134q0 64 -62 64q-61 0 -61 -64zM499 -73q0 -25 -21 -25t-21 25v138q0 26 21 26t21 -26v-138zM416 63v-134q0 -64 62 -64q61 0 61 64v134 q0 64 -61 64q-62 0 -62 -64zM648 -71q0 -25 -20 -25h-23v184h23q20 0 20 -25v-134zM565 124v-256h64q60 0 60 63v130q0 63 -60 63h-64zM1121 88h42v-220h40v220h42v36h-124v-36zM1804 91q20 0 20 -26v-10h38v8q0 64 -59 64q-60 0 -60 -64q0 -39 40 -76q39 -36 39 -60 q0 -25 -21 -25t-21 25v18h-38v-16q0 -64 60 -64q61 0 61 64q0 40 -40 76q-39 37 -39 60q0 26 20 26zM1614 -132h110v36h-70v76h55v36h-55v72h70v36h-110v-256zM1263 -132h110v36h-70v76h56v36h-56v72h70v36h-110v-256zM1478 36q0 -27 -24 -27h-16v79h20q20 0 20 -27v-25z M1519 -61q0 43 -27 54q27 13 27 52v20q0 59 -60 59h-61v-256h40v104h14q27 0 27 -32v-41q0 -20 3 -31h41q-4 10 -4 31v40zM1545 -132h39v39h-39v-39zM158 458q0 32 -32 62q-32 29 -32 49t16 20q17 0 17 -20v-9h31v7q0 52 -48 52q-49 0 -49 -52q0 -32 32 -62t32 -49 q0 -21 -17 -21t-17 21v15h-31v-13q0 -53 49 -53t49 53zM206 556l24 -148h31l23 150v-150h31v209h-46l-22 -149l-24 149h-46v-209h29v148zM494 587h16q16 0 16 -21v-21q0 -22 -19 -22h-13v64zM494 493h11q22 0 22 -27v-33q0 -16 3 -25h33q-3 8 -3 25v32q0 36 -22 45 q21 10 21 42v17q0 48 -48 48h-50v-209h33v85zM1088 617h-42v-209h30v151l41 -151h34v209h-29v-125zM993 456q0 -21 -17 -21q-18 0 -18 21v113q0 20 18 20q17 0 17 -20v-113zM926 567v-109q0 -53 50 -53t50 53v109q0 52 -50 52t-50 -52zM904 408v209h-33v-90h-38v90h-32v-209 h32v89h38v-89h33zM1264 587v30h-89v-209h89v29h-57v62h46v30h-46v58h57zM386 580l16 -106h-31zM366 446h41l5 -38h34l-34 209h-48l-34 -209h31zM1364 617h-33v-209h33v209zM1843 458q0 32 -32 62q-33 29 -33 49t17 20q16 0 16 -20v-9h31v7q0 52 -48 52q-49 0 -49 -52 q0 -32 33 -62q32 -30 32 -49q0 -21 -17 -21t-17 21v15h-31v-13q0 -53 49 -53t49 53zM752 536q0 -20 -16 -20h-15v71h15q16 0 16 -20v-31zM688 617v-209h33v78h15q49 0 49 52v27q0 52 -49 52h-48zM1483 458v28h-31v-30q0 -21 -17 -21t-17 21v113q0 20 17 20t17 -20v-23h31v21 q0 52 -49 52t-49 -52v-109q0 -53 49 -53t49 53zM1534 569q0 20 17 20t17 -20v-113q0 -21 -17 -21t-17 21v113zM1601 458v109q0 52 -50 52t-50 -52v-109q0 -53 50 -53t50 53zM1651 559l41 -151h34v209h-29v-125l-34 125h-41v-209h29v151zM639 408v179h34v30h-101v-30h34v-179 h33zM676 663q136 -5 141 -4q23 5 52 29q27 22 45 24q28 2 50 -17q29 -25 51 -32q16 -5 153 0q-3 -5 4 69q-94 8 -150 58q-59 51 -68 139q-17 165 0 311q2 18 24 55q18 30 12 58q-4 23 -25 37q-20 12 -46 12q-63 -2 -66 -61q-1 -17 13 -42q16 -30 20 -43q31 -128 4 -335 q-23 -170 -218 -189q7 -74 4 -69zM1150 1258q-25 -34 -30 -50q30 -34 68 17q36 50 36 112q1 61 -34 111q-36 52 -70 22q6 -12 20 -35q15 -23 21 -35q22 -43 15 -87q-4 -25 -26 -55zM1112 1269q18 16 23 50q4 31 -6 60q-10 30 -30 38q-33 14 -40 -12q-4 -13 14 -31 q18 -19 18 -37t-15 -35q-16 -17 -17 -38q33 -13 53 5zM1199 1182q-18 -18 -15 -39q23 -19 48 3q14 13 37 50q50 81 40 173q-7 62 -46 123q-43 68 -79 38q1 -18 17 -37q27 -30 27 -31q34 -53 34 -127q-1 -73 -34 -123q1 0 -29 -30zM643 1183q-28 34 -28 33q-55 88 -28 185 q7 27 36 66q29 40 37 63q-10 16 -37 12q-67 -58 -83 -158q-16 -103 35 -188q22 -36 34 -48q26 -24 51 -5q0 20 -17 40zM769 1303q-16 20 -16 34q-1 15 14 35q16 20 18 37q-35 20 -56 -6q-18 -23 -18 -66t19 -66q21 -27 55 -7q0 19 -16 39zM692 1261q-21 30 -24 60 q-4 40 17 81q5 11 20 34q13 21 19 34q-15 16 -40 12q-55 -74 -61 -113q-9 -65 23 -127q34 -66 78 -34q-5 14 -32 53z" />
<glyph unicode="&#x22;" horiz-adv-x="1629" d="M1425 681q-1 53 35 60q21 4 34 -15q12 -16 12 -41q1 -26 -10 -43q-13 -19 -34 -17q-35 3 -37 56zM1377 438h-488h-55q-27 4 -33 22q-2 6 -2 70v497q1 14 6 36q7 28 8 34q19 102 -4 191q-1 5 -6 16q-4 10 -4 15q-10 65 28 71h492h56q27 -3 34 -20q9 -25 2 -45 q0 -1 -16 -12q-27 -19 -33 -54q-7 -37 17 -66q10 -12 30 -24q4 0 -1 -2q-2 -3 -4 -3q-31 -24 -33 -73q-2 -48 26 -78q13 -14 14 -17q2 -8 0 -19q-1 -7 -10 -16q-10 -12 -12 -15q-13 -24 -10 -55q3 -29 20 -50q11 -14 12 -16v-99q-1 -5 -5 -14q-5 -9 -6 -13q-7 -30 3 -60 q0 -2 4 -9q3 -6 4 -10v-81q0 -74 -1 -78q-6 -20 -33 -23zM1399 1218q-10 14 -11 34q-2 50 36 55q21 2 33 -13q11 -14 11 -36t-10 -38q-11 -17 -29 -17q-19 0 -30 15zM1394 1046q-11 16 -12 39q-2 57 36 63q21 4 34 -14q12 -16 13 -42q0 -25 -10 -43q-12 -21 -32 -21 q-18 1 -29 18zM1492 870q-18 -26 -47 -18q-36 10 -35 62q2 52 43 57q20 3 34 -12t17 -37q3 -29 -12 -52zM1456 806q51 -8 85 25t28 82q-6 63 -77 81q3 3 12 9q7 5 11 9q32 34 24 91t-50 73q42 35 37 81q-7 56 -70 72q-1 7 0 36q1 26 -1 38q-5 22 -27 29q-7 2 -85 2h-554 q-40 -6 -35 -60q-24 10 -53 -4q-9 -155 -30 -232q-33 -123 -105 -156q-63 -30 -83 -47q-98 -82 -91 -236q3 -69 1 -73q-13 -31 -70 -73q-44 -33 -134 -84q-94 -54 -131 -80q129 72 198 100q164 66 238 12q-41 41 -57 119q-15 77 2 155q33 158 163 183q136 99 125 280 q12 12 22 12q34 -3 36 -88q2 -91 -37 -153q-36 -59 -103 -83q17 -52 -3 -104q-17 -45 -53 -73q-1 -2 1 -1q93 38 164 41v-461q3 -35 46 -39q13 -1 41 0q30 1 43 0q-31 -21 -43 -23q-119 -17 -192 17q-71 33 -102 115q-3 -44 -40 -112q-33 -59 -90 -145q-77 -115 -93 -141 q82 95 133 137q44 35 84 51q31 12 118 5q153 -13 239 21q25 10 74 28q49 17 74 27q51 21 48 20h249q78 0 82 1q24 6 29 35q2 8 2 62v197q41 -12 73 13q28 22 34 60q7 48 -25 83q-34 35 -82 22v44zM1309 594h-21q-12 1 -19 0q-20 -1 -25 -11v-53q0 -45 4 -49t51 -4q51 0 54 2 q8 4 8 58q0 48 -4 52q-5 5 -48 5zM1121 594q-51 0 -54 -2q-11 -3 -12 -22q0 7 0 -39t6 -51q4 -3 52 -3q49 0 53 2q7 4 7 58q0 48 -4 52q-4 5 -48 5zM927 594q-48 0 -51 -2q-11 -3 -12 -23q-1 -7 0 -20v-21q0 -45 8 -49q3 -2 51 -2t52 2q7 4 7 52q0 52 -3 56q-5 7 -52 7z M1069 814q-17 -5 -36 -31q-20 -27 -23 -49q-1 -16 22 -30q1 68 54 97q-8 15 -17 13zM1147 911q9 12 7 28q-1 17 -13 27q-12 11 -32 7q-34 -6 -30 -41q4 -36 39 -35q19 0 29 14zM1250 1086q-60 -41 -48 -97q32 -11 36 -16q16 -22 -8 -79q-23 -57 -57 -93q-28 -30 -47 -28 q-6 0 -17 10t-16 10q-18 0 -37 -37q-17 -35 -13 -57q22 -14 55 -14q32 -1 55 13q94 55 144 203q20 57 16 100t-63 85zM1096 991q17 15 18 38q1 28 -19 45q-19 17 -46 13q-43 -7 -47 -48q-3 -26 14 -45t44 -18q21 1 36 15zM1241 1092l-26 7q-20 -3 -36 -44t-6 -60q4 -2 18 -4 q-6 64 50 101zM1059 1152q5 42 -24 69q-28 26 -69 20q-38 -5 -57 -36q-14 -23 -11 -51q5 -56 62 -70q59 -14 88 34q10 16 11 34z" />
<glyph unicode="#" horiz-adv-x="1079" d="M562 638q12 18 38 21q37 4 45 -25q16 -52 -30 -63q-17 -5 -34 2q-17 8 -23 24q-7 23 4 41zM597 1367q70 1 81 -20q-36 -18 -149 -4q-3 23 68 24zM848 1190q0 8 2 55q1 38 0 61q-3 72 -27 87q-26 16 -96 14q-17 -1 -57 -4q-34 -2 -50 -2h-215q-56 -12 -53 -141 q4 -204 3 -207q45 12 40 110q-6 119 6 143q35 -2 210 1q130 1 200 -10q-1 -53 1 -301q1 -185 -5 -295q-36 2 -205 -1q-135 -2 -209 9q-1 25 0 83q1 45 0 74q-35 -8 -39 -56q-2 -16 0 -45q1 -39 1 -48q0 -7 -1 -45q-1 -31 0 -49q3 -57 26 -71q26 -16 102 -14q19 0 63 3 q38 2 55 2q20 0 59 -3q46 -3 62 -4q73 -3 102 16q25 15 28 85q0 22 -1 60q-2 42 -2 53v440zM591 527q-14 0 -54 -2q-42 -3 -65 -3q-79 -1 -104 17q-39 28 -30 144q10 130 -8 163q22 13 53 38q41 34 55 45q8 6 29 18q21 13 31 20q37 26 40 53q3 30 -17 56q-21 26 -50 27 q-21 0 -55 -26q-10 -7 -29 -23q-19 -15 -28 -22q-93 -69 -99 -70q0 19 33 40q38 25 46 38q-1 -3 -4 224q-2 140 66 153h219q16 0 64 2q42 1 65 1q74 -2 95 -23q19 -19 22 -91q1 -24 0 -64q-1 -53 -1 -61v-447q1 -106 -1 -118q-6 -71 -41 -85q-10 -4 -232 -4zM1022 1140 q-16 22 -66 37q-59 19 -75 29q0 16 1 68q1 43 -2 67q-7 72 -57 89q-11 4 -219 4h-207q-70 -14 -76 -99q-1 -21 2 -80q2 -53 -1 -82q0 -1 -109 -101q-68 -63 -73 -135q-5 -58 1 -198q5 -134 -1 -196q1 14 -62 -306l-21 -104q8 -62 140 -99q90 -25 212 -33q81 -6 108 46 l33 119q7 24 21 73q14 47 20 72q67 16 115 77q13 16 72 118q33 0 61 19q29 20 38 51q21 -21 59 -12q37 9 49 33q-3 14 -10 83q-6 52 -19 75q-15 8 -42 2q-29 -8 -33 -7v38q36 -5 64 22q26 26 23 56q-1 18 -61 86q-50 56 -21 113q72 -26 95 -33q44 36 41 108z" />
<glyph unicode="$" horiz-adv-x="1315" d="M964 110h39v39h-39v-1v-38zM494 227v0v-39h39q-1 47 0 39h-39zM962 734q-4 -6 -30 -51q-88 -147 -111 -185q-9 -14 -10 -18q-5 -14 3 -26q8 -11 21 -13q19 -2 37 29l51 84q33 55 50 84q31 53 37 62q11 19 12 22q7 15 -4 29q-10 13 -26 11q-13 -2 -20 -11q-2 -3 -10 -17z M862 620q1 1 7 13q25 42 45 77q7 12 7 13q6 16 -5 28q-10 12 -25 11q-12 -1 -20 -10q-1 -2 -8 -12q-17 -29 -44 -77q-7 -12 -8 -13q-9 -24 13 -37t38 7zM1179 236v-1h-196h-195v548q-1 1 0 1h196q120 0 195 -1v-547zM1029 71q-3 -1 -22 -1h-44q-20 0 -22 1q-12 2 -15 13 q-1 3 -1 23v47q0 18 1 22q4 10 15 12v0h65q19 0 21 -1q11 -2 14 -12q1 -4 1 -22v-45v-22q-2 -11 -13 -15zM986 882h21q20 0 24 -2q7 -4 10 -11q3 -9 -2 -17q-4 -8 -12 -9q-1 -1 -22 -1h-44q-20 0 -22 1q-14 4 -14 19q0 18 18 19q3 1 43 1zM1258 813q0 27 -5 42 q-15 53 -65 75q-18 8 -37 10h-45h-233h-46q-15 -1 -21 -2q-11 -2 -19 -4q-51 -18 -70 -70q-8 -20 -8 -39v-698q0 -26 5 -42q15 -52 64 -75q17 -8 37 -10h46h280q38 0 69 23q28 21 40 53q7 19 8 39v698zM190 676q15 1 30 26q7 11 31 52q19 32 31 52q27 46 82 138 q55 93 83 140q7 12 25 43q17 28 26 43q7 11 5 22t-10 18q-9 7 -21 6t-19 -8q-3 -3 -11 -17q-4 -7 -11 -18q-7 -13 -10 -17q-42 -72 -128 -217q-87 -144 -129 -217q-7 -11 -5 -22q4 -26 31 -24zM221 939q51 86 130 222q8 15 9 17q5 15 -5 28q-9 12 -25 10q-16 -1 -30 -25 q-22 -39 -64 -111q-44 -75 -65 -111q-10 -16 -10 -17q-5 -11 0 -22q9 -25 35 -18q11 3 25 27zM556 149h-22h-45q-19 0 -22 1q-11 4 -12 15q-1 2 -1 22v44q0 18 1 21q3 13 17 14h44h21q18 0 21 -1q9 -2 13 -11q1 -4 1 -21v-45q0 -25 -3 -30q-4 -7 -13 -9zM509 1361 q18 2 28 -12q5 -7 6 -14q1 -14 -9 -24q-11 -11 -25 -8q-10 1 -18 10q-8 8 -8 19q0 6 3 12q7 15 23 17zM660 313h-538q-1 0 -1 1v939q0 1 1 1h783v-265h78v291q0 23 -1 34q-3 15 -9 28q-25 52 -79 65q-9 2 -70 3q-11 20 -30 23q-3 1 -25 1h-24q-22 -3 -33 -24h-532 q-30 0 -40 -1q-31 -6 -55 -27q-39 -32 -42 -81v-41v-1065q0 -34 19 -63q26 -40 72 -51q13 -3 39 -3q395 0 492 1q-5 17 -5 54v180z" />
<glyph unicode="%" horiz-adv-x="938" d="M444 167h60v60h-59q-1 0 -1 -1v-59zM441 1119q-5 -9 -46 -77q-132 -221 -169 -283q-13 -21 -15 -26q-8 -22 5 -41q11 -17 31 -20q23 -2 38 13q4 5 20 31q25 43 76 128q51 84 77 128q45 76 57 96q17 28 19 32q9 24 -7 45q-15 19 -40 17q-19 -3 -31 -17q-3 -5 -15 -26z M263 930q16 4 25 16q2 2 12 19q35 60 68 117q11 19 11 20q9 24 -7 43q-16 18 -38 17q-19 -2 -31 -15q-3 -3 -12 -19q-26 -45 -68 -118q-11 -18 -11 -20q-7 -16 0 -33q6 -15 18 -22q15 -9 33 -5zM773 359v-1h-299q-183 0 -299 1v835q0 1 1 1h299q183 0 298 -1v-835zM543 109 q-5 -2 -33 -2h-67q-31 0 -33 1q-19 3 -24 20q-2 5 -2 35v72q0 28 3 33q6 16 23 18v1h99q29 0 32 -1q16 -4 21 -19q2 -6 2 -33v-70q0 -30 -1 -33q-3 -17 -20 -22zM478 1344h33q30 0 35 -2q12 -6 16 -18q5 -13 -3 -25q-6 -12 -19 -14h-33h-68h-32q-23 6 -23 29q0 27 29 30h65z M892 1240q0 40 -7 64q-23 80 -99 114q-27 12 -56 15q-13 1 -70 1h-354h-71q-23 -2 -32 -3q-16 -3 -28 -8q-78 -27 -107 -105q-12 -31 -12 -59v-1065q0 -40 7 -64q23 -80 98 -114q26 -12 56 -15q8 -1 71 -1h426q58 0 106 35q42 32 61 81q11 28 11 60v1064z" />
<glyph unicode="&#x26;" d="M1021 769q11 -41 38 -148q23 -95 39 -148q-14 3 -54 17q-41 14 -62 18q-9 1 -24 2q-17 0 -24 1t-18 4q-13 4 -18 5q-21 4 -36 -4q-27 -14 -27 -45l10 -22q-3 -38 23 -64q15 -16 56 -38q47 -26 62 -33q-348 -76 -416 -88q-1 2 -28 116q-21 83 -53 235q-36 166 -52 236 q-10 42 -26 118q-18 83 -26 118q-22 96 -24 118q9 4 63 14q14 2 325 54q127 21 130 22q12 2 18 -12q1 -4 7 -30q13 -54 46 -173q31 -112 44 -174q4 -18 27 -99zM1001 469q-33 -61 -95 -43q-19 5 -42 19q-16 9 -19 15q-8 14 2 32q8 17 21 22q20 8 48 0q7 -2 45 -21 q37 -18 40 -24zM888 211q8 3 11 7q0 1 -3 8q3 1 -11 -2q-7 -2 -6 -5q2 2 -13 0q-2 -3 8 10q-3 7 23 1q12 -10 0 -19t-21 -6q2 3 12 6zM755 177q-5 -2 -29 -7q-1 2 -1 6q-1 4 -1 5q-2 0 -5 -1q-2 -1 -5 0q4 3 10 9q8 7 10 9q5 -1 13 -4t12 -4q-1 -3 -8 -2zM354 671 q-16 17 -24 27q-21 23 -20 30q0 3 28 25q19 16 25 27q-5 -1 -28 -22t-31 -21q-5 0 -22 23q-15 21 -54 93q-20 38 -23 45q-23 57 3 76q14 11 36 13q22 1 38 -9q11 -7 32 -34q14 -18 27 -77q15 -64 9 -76q-3 -6 -12 -13q-12 -8 -16 -13q7 1 20 12q12 10 23 11q0 1 8 -46 q9 -47 8 -45q3 -15 12 -40q8 -25 10 -37q-5 1 -25 25q-8 10 -24 26zM123 1174q-18 35 -11 71q1 7 7 15q6 11 8 15q20 17 48 16q27 -1 45 -16q55 -46 61 -135q2 -18 -5 -43q-8 -30 -9 -39q9 1 17 9q9 9 15 11q4 -9 -14 -24q-20 -17 -23 -19q-1 -2 -5 -6t-5 -7q13 5 27 18 q19 18 24 22q6 -34 30 -132q-5 5 -16 20q-10 14 -16 21q-21 22 -51 23q-18 19 -92 129q-35 52 -35 51zM52 1367q6 29 36 43q31 14 63 0q-7 3 70 -44q35 -21 69 -45q-18 -13 -24 -44t4 -60q-12 33 -53 73q-23 14 -55 10q-33 -5 -45 -25q-40 30 -47 37q-24 25 -18 55z M301 1425q16 -2 79 -29q17 -7 40 -19q30 -14 33 -16q-160 -37 -157 -34q6 -2 -31 22q-33 21 -33 25q-2 19 15 35q21 19 54 16zM660 1328q8 1 9 -1q-4 -5 -34 -9q-93 -15 -110 -14q5 5 32 9q53 9 103 15zM1024 260q4 -13 4 -12q0 -1 9 -5q-1 -3 -11 1q-7 -10 -16 -1 q-8 10 2 17q6 1 12 0zM1399 898q-7 8 -64 58q-104 92 -173 190q-4 8 -31 45q-22 30 -32 53q-3 6 -23 58q-18 45 -31 49q-45 14 -76 -49q-10 -21 -14 -60q-46 149 -51 154q-35 35 -165 11q-37 -6 -114 -17q-73 -11 -112 -18q-41 -8 -46 -7q-4 0 -39 17q-96 46 -125 51v1h-22 q-57 -14 -57 -61q-59 38 -73 43q-50 21 -83 -5q-16 -14 -24 -47v-19q6 -25 28 -45q6 -6 20 -17q14 -10 20 -16q-8 -35 -8 -32q-4 -43 40 -105q13 -18 47 -70q30 -45 45 -66q-36 -8 -48 -35q-8 -17 10 -62q39 -94 78 -144q61 -80 100 -121q32 -34 34 -39q4 -8 14 -57 q32 -155 66 -294q30 -125 27 -118q13 -36 48 -54q38 -19 159 7q17 4 59 12q37 7 59 12q40 10 39 10q2 -1 25 -17q43 -30 195 -94h3q-3 12 -36 27q-84 36 -82 35q-50 26 -44 22q-22 13 -23 18q-2 15 34 24q8 2 26 5q17 3 26 5q37 10 49 13q9 2 43 9q26 5 40 10q43 13 59 40 q9 -5 27 -10q19 -5 26 -8q4 -2 21 -20q34 -37 46 -48q44 -44 71 -54q-3 5 -32 29q-21 17 -50 46l-48 48q-3 11 -5 13q-1 0 -3 -3q-1 -2 -4 -2q-60 18 -144 67q-45 26 -51 42q-3 0 -2 -4t-2 -5q-13 3 -60 27q-85 42 -86 43q-45 30 -49 77q10 -3 37 -16q23 -12 39 -13 q43 -4 81 53q-6 10 -27 18q-24 9 -31 15q69 -10 226 -66q130 -47 206 -88q-6 -13 -22 -26q-22 -19 -26 -24q-8 -2 55 44q72 -47 129 -78q-7 16 -55 41q-18 10 -38 23q-100 67 -250 114q-39 123 -98 346q1 -5 -23 126q-1 3 -6 22q-4 14 -4 24q-1 0 26 -41q2 -1 10 -11 q7 -8 12 -14q22 -23 22 -27q1 -7 -5 -12q-7 -7 -9 -12q6 2 11 9q4 7 10 7q10 1 22 -17q23 -35 24 -57q1 -13 -4 -48q-4 -29 1 -43q2 9 3 40q0 27 7 38q8 -2 20 -12q12 -9 23 -10q-5 5 -15 11q-13 8 -16 11q-18 15 -12 36q35 1 32 1q-6 4 -19 4q-14 0 -19 3q-3 1 -16 20 q-13 20 -13 25q2 12 44 24q5 1 60 9q-4 5 -25 1q-51 -9 -57 -11q-27 -11 -24 -11q-13 0 -37 28q-22 26 -50 78q-20 37 -20 45q0 10 11 25q6 8 57 41q-54 -17 -73 -57q-7 6 -32 77q-27 79 -28 82q-10 63 15 113q23 44 58 39q15 -2 25 -27q2 -7 7 -22q4 -13 6 -19 q29 -66 58 -108q35 -52 111 -137q28 -31 85 -83q58 -54 82 -81q57 -92 122 -305q9 -9 7 -8v4q-22 102 -57 183q-54 123 -85 156zM739 176q7 2 11 3q1 17 -15 14t-8 -19q5 0 12 2zM1017 258q-12 0 -7 -13q4 -3 9 -2t6 5q4 10 -8 10zM1408 291q8 8 10 17q-51 -39 -56 -41 q-5 2 33 11q2 3 13 13zM1037 377q16 32 32 43q0 3 -2 3q-28 -20 -30 -46zM1101 427q-1 1 -2 0q-3 -4 -32 -54q21 20 33 53q1 0 1 1z" />
<glyph unicode="'" horiz-adv-x="819" d="M228 928q0 -3 3 -14q3 -12 4 -19q3 -22 -14 -22q1 -3 7 55zM464 674q-128 9 -177 2q-37 13 -43 78q0 4 1 119v339q0 158 7 173q16 34 88 37q23 2 64 0q50 -2 62 -2q172 0 180 -4q38 -14 42 -99q1 -27 -1 -76q-3 -58 -3 -74q0 -181 4 -207q10 36 10 211q0 201 -7 218 q-16 39 -83 45q6 0 -131 0h-180q-55 -10 -63 -83q1 5 1 -149v-177q-18 18 -52 22q-38 4 -56 -18q-3 -5 -31 -132q-25 -116 -27 -142v-394q1 -12 13 -30q10 -17 11 -29q-1 4 -21 -93q-19 -91 -17 -101q10 -60 162 -86q117 -21 109 -20q80 -9 102 16q8 9 35 104q4 16 14 57 q7 34 14 54q98 48 139 203q13 47 28 140q16 96 26 138q-47 -38 -48 -38q-49 -11 -172 -2zM674 621q-5 -35 -7 -42q24 -22 66 -7q1 13 6 39q4 24 4 41q-4 4 -59 6q-6 -11 -10 -37zM695 690q40 -15 62 -4q5 13 8 37q4 31 6 39q-10 12 -59 11q-7 -12 -17 -83zM688 738q0 6 5 21 q3 13 2 24q-2 0 -5 2q-2 2 -6 1q-7 -38 4 -48zM695 797q27 -18 62 -7q8 35 14 80q-20 14 -62 6q-9 -26 -14 -79zM688 842q7 51 7 45q-2 0 -5 2q-2 2 -6 1q2 -46 4 -48zM765 931q4 36 6 42q-10 11 -62 11q-10 -40 -14 -83q19 -13 59 -7q7 11 11 37zM461 821q-108 -1 -171 4 q1 80 0 237v250q0 9 7 11h339q9 -250 0 -502q-31 1 -175 0zM460 786q27 5 38 -13q14 -27 1 -44q-12 -15 -35 -15t-34 14q-13 17 2 45q5 10 28 13zM466 1373q43 0 63 -9q-10 -15 -57 -15q-40 0 -71 8q-1 6 3 7q19 9 62 9zM491 1406q-183 0 -194 -4q-34 -10 -39 -63 q-2 -19 -1 -52q2 -48 2 -58v-353q0 -155 10 -169q18 -24 85 -25q21 0 58 2q39 2 51 2t54 -1q38 -2 59 -1q68 1 84 23q11 14 11 166v346q0 157 -11 170q-14 17 -169 17z" />
<glyph unicode="(" horiz-adv-x="941" d="M439 173h59v59h-59v-59zM261 829q-39 -65 -48 -92q-22 -67 41 -61q21 2 44 39q8 11 19 32q13 24 17 30q23 38 68 113t68 113q48 79 55 102q18 63 -62 54q-17 -25 -202 -330zM293 961q7 10 16 28q12 23 15 28q5 8 17 26q13 18 19 27q20 34 16 58q-4 23 -25 31q-17 6 -34 0 q-17 -5 -69 -93q-82 -139 3 -136q22 1 42 31zM765 364h-594v823q0 8 7 11h587v-834zM390 121q-29 55 -4 163q44 14 160 3q28 -33 4 -166q-83 -23 -160 0zM487 1343q64 0 70 -13q1 -23 -4 -35q-42 -13 -97 -14q-72 -1 -76 28q-6 29 29 34h78zM729 1428q-36 6 -238 6 q-261 0 -285 -4q-49 -7 -89 -38q-38 -30 -54 -69q-10 -27 -10 -139v-765q0 -265 10 -295q29 -80 105 -107q50 -19 148 -17q24 1 81 4q51 2 76 2q273 0 306 14q64 27 88 90q18 49 20 146v771q0 264 -18 303q-36 81 -140 98z" />
<glyph unicode=")" horiz-adv-x="1254" d="M702 133h-163q-77 0 -84 -2q-41 -9 -42 -64q0 -54 38 -65q5 -2 83 -2h170q73 0 81 3q33 13 35 64q3 52 -38 64q-5 2 -80 2zM925 581q-8 21 -14 34q-20 38 -46 45q-40 10 -62 -26q-21 -32 -13 -74q5 -22 28 -68q25 -50 30 -66q-22 -25 -82 -85q-75 -75 -86 -82 q-55 -31 -109 5q-11 7 -77 74q-11 11 -33 32q-21 20 -31 30q-17 17 -21 16q4 -27 -2 -126q-4 -79 13 -107q13 -21 45 -25q9 -1 67 -1h180q75 0 86 5q11 4 50 46q100 109 93 101q44 47 46 51q14 30 2 68q-1 4 -24 57q-6 12 -14 32q-11 25 -14 32q-1 5 -12 32zM542 584 q14 -15 8 -40q-7 -24 -29 -28q-20 -4 -33 7q-13 10 -16 26q-3 17 6 30q9 14 29 17q22 2 35 -12zM618 661q11 -12 9 -31q-1 -19 -13 -30q-15 -12 -37 -8q-29 7 -29 41q1 36 36 40q21 2 34 -12zM696 745q14 -11 14 -31q1 -19 -12 -31q-12 -10 -29 -10t-29 10q-13 11 -13 30 q-1 34 35 40q20 3 34 -8zM640 535q-3 16 4 29q8 14 28 17q23 4 36 -9q15 -15 10 -41q-7 -27 -32 -30q-37 -5 -46 34zM563 465q-1 33 32 39q24 5 37 -9q11 -13 10 -33q-2 -19 -16 -30q-15 -13 -38 -6q-24 8 -25 39zM404 611q-30 13 -24 46q5 23 31 28q30 7 45 -18t-4 -47 q-18 -22 -48 -9zM680 331q8 5 44 40q60 60 68 69l-31 66q-19 40 -19 78q-29 12 -21 48q8 37 45 31q26 35 64 43q-18 21 -130 131q-73 -85 -161 -108q3 -19 -9 -31q-10 -11 -27 -13q-16 -2 -30 5q-14 9 -18 26q-80 -4 -148 35q-36 -37 -36 -80q1 -35 25 -65q-1 2 47 -47 q27 -27 79 -80l77 -77q4 -4 25 -27q15 -16 26 -26q33 -29 64 -32q39 -4 66 14zM453 835q62 1 95 26q-3 20 2 60q4 33 -5 49q-7 13 -34 15q6 0 -51 0h-78q-27 -5 -27 -49q0 -5 2 -39q1 -24 -1 -37q35 -25 97 -25zM1144 1076q-22 8 -43 -13q-3 -4 -16 -20q-11 -12 -18 -18 l40 -42q40 -40 42 -40l24 24q22 23 24 26q8 17 -3 34q-3 5 -21 23q-24 24 -29 26zM496 1011q14 18 12 43q-1 26 -18 41q-19 17 -49 11q-40 -7 -46 -43q-6 -29 12 -51q18 -21 45 -21q28 0 44 20zM508 1101q6 3 10 4q30 -11 55 2q27 14 20 43q-7 33 -56 30q-49 -4 -48 -41 q0 -6 8 -19q5 -11 0 -23q4 1 11 4zM918 1147q-39 38 -45 43q-33 24 -79 18t-65 -37q23 -41 29 -85q41 24 48 24q23 0 48 -24q7 -7 19 -20q12 -14 16 -19l117 -117q53 -53 56 -62q8 -23 -5 -44q-6 -9 -28 -31l-111 -111q15 -12 45 -69q7 4 47 44l92 92q60 60 63 92 q4 42 -21 77q-6 9 -51 54q-60 59 -175 175zM300 1177q57 56 143 61q89 4 152 -55q62 -58 69 -137q8 -100 -61 -170q-42 -42 -105 -57q-66 -15 -126 9q-62 24 -99 79q-40 61 -34 142q6 73 61 128zM625 839q78 72 80 178q3 118 -77 192q-85 80 -203 69q-90 -8 -155 -75 q-66 -68 -72 -157q-8 -107 65 -191q65 -74 175 -82q108 -7 187 66zM432 1326q13 4 12 19q0 16 -18 19q-6 1 -31 -1q-130 -11 -215 -109q-60 -69 -72 -168q-4 -29 -2 -40q2 -19 18 -20q15 0 19 13q2 5 5 34q9 89 62 152q77 90 189 98q29 2 33 3zM396 1391q17 1 24 2 q25 4 24 23q0 15 -16 18q-8 1 -33 -1q-87 -6 -156 -43q-171 -92 -200 -288q-5 -35 -5 -47q1 -28 20 -29q14 0 17 4q3 5 5 28q2 27 5 44q19 116 97 193q79 78 194 95q8 1 24 1z" />
<glyph unicode="*" horiz-adv-x="827" d="M259 1058q-3 -3 -18 -16q-15 -12 -24 -21q-28 -28 -25 -45q3 -19 25 -20q15 -1 43 28q9 8 22 23t17 19q27 27 76 77t77 78q3 3 18 16q16 13 25 21q30 29 27 48q-2 12 -14 18q-14 6 -26 -3zM264 1125q11 11 25 28t15 18q4 4 20 17q18 15 28 25q34 32 32 51q-1 11 -10 17 q-10 6 -25 3q-10 -3 -87 -80q-73 -73 -70 -88q2 -16 15 -20q21 -7 57 29zM549 430h-275q-97 0 -117 20t-20 203v558q0 83 4 100q11 42 58 50q20 4 135 3q16 0 58 -2q37 -1 57 -1q14 0 68 3q47 2 74 2q88 -3 109 -35q10 -16 10 -213v-550q0 -63 -3 -80q-6 -33 -30 -48 q-17 -10 -128 -10zM601 216q-1 43 -12 72q39 5 62 -19q21 -22 21 -55t-22 -54q-23 -23 -63 -17q16 24 14 73zM409 320q57 8 93 -30q30 -31 30 -75q0 -56 -39 -85q-36 -26 -84 -19q-49 6 -76 40q-30 37 -14 92q20 68 90 77zM245 218q-2 -49 14 -73q-38 -8 -62 14 q-21 20 -22 54t19 55q23 25 63 20q-11 -29 -12 -70zM782 1186q0 128 -7 150q-25 72 -93 93q-17 5 -120 5h-125q-236 0 -253 -3q-81 -12 -110 -85q-10 -25 -10 -147v-959q0 -124 10 -150q25 -65 90 -85q16 -5 128 -5h135q238 0 260 8q65 22 88 87q7 22 7 148v943z" />
<glyph unicode="+" horiz-adv-x="1218" d="M990 501q-83 -53 -199 -133q-35 -25 -37 -29q-5 -12 -5 -33q0 -23 -2 -31q-9 -33 -29 -42q-19 -9 -116 -21q-56 -8 -64 -8q-50 -2 -48 19q1 12 17 14q6 1 16 1q13 -1 17 0q84 3 170 27q11 30 10 70q-280 85 -412 23q-38 -17 -137 -107q-80 -72 -127 -119q21 -18 73 -67 q46 -42 75 -65q55 29 143 73q211 -21 288 -21q90 0 101 3q20 6 66 48q99 92 371 420q-56 33 -83 26q-26 -7 -88 -48zM562 1169q17 17 49 50q32 32 50 51q2 2 12 10t16 14q19 19 17 31q-1 8 -9 12t-17 -2l-144 -145q-46 -45 -44 -54q2 -12 16 -13q8 0 54 46zM539 1233 q7 7 16 18t10 12q53 53 52 60q-2 18 -23 13q-6 -1 -57 -52q-47 -47 -45 -57q1 -10 9 -13q15 -4 38 19zM584 1388q11 0 38 -1h37q9 0 44 2q31 1 49 1q57 -2 70 -23q7 -10 7 -138v-358q0 -70 -22 -83q-10 -7 -83 -7h-179q-63 0 -76 13t-13 132v363q0 54 3 66q7 26 38 32 q13 2 87 1zM750 689q26 3 41 -13q13 -14 13 -35q0 -22 -14 -35q-15 -16 -41 -12q23 37 1 95zM633 710q37 5 60 -20q20 -20 20 -49q0 -36 -26 -55q-22 -17 -54 -13t-49 26q-20 25 -9 60q13 45 58 51zM536 596q-25 -6 -41 9q-14 13 -14 35q-1 22 12 36q15 16 41 13 q-21 -59 2 -93zM409 658q0 -81 6 -98q16 -42 59 -55q10 -4 83 -4h88q155 0 169 5q42 15 57 57q5 14 5 96v614q0 83 -5 98q-16 47 -60 60q-11 3 -78 3h-82q-154 0 -164 -2q-53 -8 -72 -55q-6 -16 -6 -96v-623z" />
<glyph unicode="," horiz-adv-x="813" d="M587 512q20 -29 23 -33q15 -16 37 -13q6 1 56 46t50 54q1 13 -23 35t-36 14q-39 -24 -107 -103zM627 582q14 9 63 63q57 63 57 70q0 18 -20 34q-20 17 -43 13q-8 -2 -64 -63q-53 -59 -53 -67q-1 -30 60 -50zM644 748q15 5 22 34q6 28 -6 36q-6 -15 -16 -70zM657 916 q-21 -42 -30 -54q26 -37 73 -40q31 37 63 109q-25 35 -73 37q-15 -17 -33 -52zM426 724q-28 4 -32 24q-3 19 9 33q11 13 27 15q17 2 27 -11q11 -14 7 -43q-10 -23 -38 -18zM285 865q-2 20 13 77q14 53 10 73q-31 -33 -57 -150q-20 -92 -16 -103q5 -19 34 -29l52 -11t163 -37 q80 -18 86 -16q35 7 56 65q16 45 18 94q-5 2 -12 7t-12 7q-2 -6 -6 -27q-3 -18 -10 -23q-317 72 -319 73zM597 546q20 14 23 26q-32 7 -51 29q-20 24 -9 54q-3 1 -152 34l-153 33q-43 21 -29 92q22 115 22 114q-9 -4 -19 -39q-8 -29 -38 -21q17 26 64 90q3 5 16 21 q12 14 19 24q21 31 18 55t-31 41q-30 18 -59 5q-5 -2 -83 -113q-79 -112 -80 -116q-4 -24 7 -76q13 -63 13 -84q1 -32 -5 -165q-4 -108 2 -164q0 -7 5 -22q5 -14 5 -21q0 2 -24 -117q-23 -118 -23 -119q6 -42 64 -63q25 -9 112 -24q134 -23 150 -20q32 6 49 53q6 15 12 40 q7 32 9 37q2 8 15 57q9 35 18 63q120 47 150 209q-5 6 -14 14q-9 9 -12 13q-13 15 -11 33q2 15 20 27zM496 1347q2 3 1 7q12 -4 33 -6q28 -4 34 -5q38 -6 50 -26q-37 -4 -120 23q0 3 2 7zM747 1310q-6 23 -62 39q-5 1 -98 21q-166 36 -186 37q-26 2 -39 -31q-5 -11 -14 -56 q-8 -34 -23 -112q-14 -65 -24 -110q4 -4 11 -20q6 -13 12 -17q66 275 64 269q203 -38 319 -69q-10 -66 -34 -175q-35 -156 -39 -178q34 38 53 105q-1 -6 30 135q33 149 30 162zM351 1387q20 40 90 30q22 -3 62 -14q46 -13 61 -16q161 -34 166 -37q31 -17 30 -55 q0 -11 -13 -74q-50 -237 -50 -243q12 12 26 76q3 14 9 43q5 29 8 44q35 163 33 173q-8 43 -74 62q-21 6 -61 13q-50 8 -64 11q-147 33 -160 33q-57 4 -81 -61q0 1 -25 -118q-11 -50 -17 -77q-13 -57 -3 -69q16 55 33 136q32 146 30 143z" />
<glyph unicode="-" horiz-adv-x="910" d="M660 154q15 11 15 45q0 35 -15 46q-69 14 -83 -10q6 -77 6 -78q22 -15 77 -3zM496 161q13 57 -3 80q-55 31 -83 -11q-12 -17 -10 -38q1 -22 16 -38q57 -14 80 7zM280 249q-29 0 -42 -8q-8 -12 -8 -42q1 -28 8 -42q47 -25 78 6t6 78q-13 8 -42 8zM587 380q-24 -25 -10 -72 q14 -24 83 -10q15 11 15 45q0 35 -15 46q-48 17 -73 -9zM412 376q-13 -17 -13 -38q1 -23 17 -40q55 -12 77 4q16 22 3 80q-52 35 -84 -6zM330 340q1 37 -15 49q-51 18 -75 -11q-23 -28 -2 -76q2 -2 74 -7q17 9 18 45zM737 422q-6 -46 3 -123q7 -66 -6 -108q-18 -60 -102 -73 q-28 -4 -183 -4q-192 0 -204 3q-70 20 -80 115q-3 30 -1 91q2 70 0 99q-63 28 -110 74q0 3 -2 2t-2 -5q2 -42 0 -134q-2 -79 1 -118q7 -122 70 -181q47 -44 138 -55q41 -5 194 -5h204q69 8 118 54q46 42 66 107q-5 -19 14 335q-123 -76 -118 -74zM335 925q23 29 70 92 q45 58 71 92q2 3 18 22q13 15 21 26q24 35 18 59q-4 17 -20 24q-15 8 -34 3t-80 -87q-15 -20 -65 -88q-40 -56 -66 -90q-5 -7 -19 -23t-21 -25q-22 -29 -20 -49q2 -16 16 -27t31 -10q20 2 80 81zM295 1073q6 9 16 25t14 21q3 4 15 16q13 13 20 23q25 31 19 58q-5 20 -24 26 q-14 5 -30 1q-19 -5 -70 -74q-49 -66 -47 -87q2 -16 16 -27q13 -10 28 -10q22 1 43 28zM476 1290q136 0 148 -1q74 -10 93 -59q7 -17 7 -114v-121q0 -17 2 -86q2 -51 0 -80q-5 -86 -46 -112q-28 -18 -101 -19q-23 0 -63 1q-43 1 -57 1q-167 0 -166 0q-83 8 -105 57 q-18 40 -16 112q0 16 3 62q3 39 3 61v121q0 86 10 115q17 48 77 59q18 3 211 3zM659 575q-1 0 -52 -5q-86 -9 -83 -9q-41 1 -45 35q-4 46 79 47q26 1 69 -4q54 -6 57 -6q9 -16 6 -40q-5 -13 -31 -18zM295 570q-46 4 -61 9q-24 8 -23 31q2 35 81 33q19 0 64 -4q37 -3 50 -2 q16 -16 17 -37q2 -22 -17 -34q-9 -5 -111 4zM114 557q40 -41 84 -58q36 -13 245 -13q217 0 251 10q118 35 147 162q14 61 14 294v164q-2 123 -7 144q-29 118 -151 161q-38 13 -208 13q-192 0 -224 -3q-166 -17 -208 -164q-7 -24 -7 -305q0 -284 7 -309q15 -51 57 -96z" />
<glyph unicode="." horiz-adv-x="1848" d="M162 1233q3 -11 -8 -48q-6 9 8 48zM156 1261q-12 -29 -30 -109q-9 -39 2 -49q27 23 40 69q13 49 1 89h-13zM1436 763q-2 10 2 17q7 -1 7 -11q1 -3 0 -9v-10q-7 1 -9 13zM1359 1073q-9 4 -10 15q6 -1 23 -4q16 -3 24 -5q25 -7 32 -24q-44 16 -59 25q-11 -2 -10 -7z M1400 821q6 -3 8 -19q1 -17 -6 -22q-9 4 -2 41zM922 1225q66 -4 84 -17q29 11 50 -3q13 -131 -2 -173q-17 -11 -26 -41q-2 -6 -7 -27q-4 -17 -8 -26q2 -6 8 -4q7 3 7 2q-2 -19 -13 -55q-11 -33 -12 -57q-60 -41 -74 -44q-43 -6 -116 17q-78 26 -107 24q-36 17 -69 26 q37 2 104 -18q78 -23 109 -26q5 7 -1 13q-8 8 -6 15q17 67 40 181q29 142 39 183q-89 29 -305 79q-28 6 -78 19q-54 13 -78 19q-129 30 -155 30q5 -13 31 -18q29 -6 36 -12q320 -82 526 -148q-14 -49 -36 -168q-21 -112 -38 -167q-81 16 -301 74q-186 49 -307 68 q26 90 79 366q-13 -9 -33 -76q-41 -142 -63 -300q49 -20 381 -99q-99 0 -236 37q-176 47 -224 54q-58 35 -48 112q0 7 8 10q10 4 12 8q7 32 22 106q15 70 24 108q15 66 33 91q17 10 56 3q40 -8 50 -3q-5 1 572 -145q71 -18 72 -18zM871 1286q4 8 16 11q13 4 22 0 q-7 -17 -38 -11zM970 1274q18 -17 33 -23q-19 -19 -43 1q-23 19 -21 47q8 -5 31 -25zM1074 722q-8 -2 -27 -5q-17 -2 -24 -5q15 8 43 17q35 12 44 16q6 -11 -36 -23zM922 750q-105 11 -166 43q21 -1 94 -22q61 -17 105 -11q9 -9 -31 -28q4 4 -2 18zM597 860q7 -4 9 -3 q-2 -5 -9 -2q-1 1 -5 2q-2 2 -3 2q2 5 8 1zM93 1164q0 -9 35 163q-3 -45 -35 -163zM169 1401q10 19 30 22t36 -12q-49 -1 -66 -10zM1088 1213q2 -3 4 -3q1 -6 -2 -9q-5 -4 -6 -6q-3 3 -4 9q-2 8 2 11q4 1 6 -2zM1110 1053q-10 0 -12 12q-2 10 4 18q5 -6 8 -30zM1115 966 q6 -2 9 -9q3 -8 -2 -14q-7 7 -7 23zM578 732q-62 23 -99 48q15 35 47 18q6 -3 28 -18q17 -12 27 -15q-4 -34 -3 -33zM1672 374q-124 105 -143 129q-32 43 -51 239q-1 15 -7 42q-6 28 -8 42q-1 14 4 117q4 75 -14 110q-12 23 -49 37q-10 4 -34 10q-23 7 -34 11q1 -1 -69 122 q-55 130 -111 145q-148 38 -181 43q-49 8 -117 0q-11 -1 -32 -10t-31 -10q-6 -1 -21 0t-23 0q-34 -6 -53 -28q-22 -24 -8 -48q-64 12 -165 38q-195 50 -267 66q-104 23 -130 -38q1 -4 -12 -36q1 4 -18 -74q-9 -35 -18 -73q-36 -156 -35 -150q-8 -75 38 -107q11 4 22 -6 q17 -14 18 -15q-6 3 84 -22q224 -64 249 -74q-32 -45 3 -87q29 -34 81 -50q13 -21 94 -82q26 -19 81 -54q52 -34 80 -55q9 -7 41 -28q26 -16 37 -28q11 -11 25 -32q15 -24 21 -32q18 -21 69 -61q50 -39 79 -53q4 -2 17 -5q12 -3 18 -8q14 -9 33 -32q28 -31 33 -36 q12 -12 36 -33q25 -21 35 -31q113 -113 143 -127q-1 12 -23 47q-19 31 -13 52l-81 43q-34 27 -83 82q-58 65 -77 84q-2 1 -79 38q-27 12 -71 71q-1 5 3 12q3 7 2 13q-34 53 -76 89q-56 48 -77 49q-6 0 -17 -5q-11 -6 -16 -6q-29 0 -49 27q-5 6 -17 25q-10 16 -18 25 q5 5 6 19q1 16 -6 19q-8 2 -25 -14q-17 -15 -31 -9q2 6 13 23q10 14 8 23q-11 5 -23 -5q-13 -13 -21 -13q1 14 -5 31q-6 22 -7 27q1 5 9 5q6 0 6 8q-7 27 -46 48q-63 36 -112 -20q5 64 125 53q92 -8 145 -45q10 -8 32 -31q19 -22 34 -30q16 -9 122 -31q2 -2 -1 -10 q-4 -8 1 -13q93 -14 122 -10q17 3 43 17q28 14 41 16l53 10q2 11 -5 19q-8 9 -7 17q3 3 15 12q14 9 20 14q21 18 0 30q-7 0 -6 -7q1 -9 -4 -11q-8 -4 -24 -16q-14 -11 -24 -14q-1 15 0 12q-1 6 -8 5q-13 1 -28 -7q-15 -9 -28 -8q7 9 53 50q33 30 44 59q26 22 28 28 q-8 8 -28 -2q-13 -6 -46 -46q-33 -39 -91 -71q10 13 63 56q42 33 53 66q5 14 7 44q2 33 6 50q-2 4 -10 9q-7 5 -8 11q2 23 -7 54q-10 34 -10 46q0 1 3 6q4 4 4 6q1 6 -4 15q-4 7 -3 13q-19 -4 -23 31q1 2 7 3q5 1 5 4q-12 57 -7 79q-10 14 -36 14q-49 -1 -46 -1 q-16 2 -45 14q-28 12 -41 14v7v7q-1 7 -8 6q-11 1 -34 -9q-25 -10 -39 -11q-4 0 -13 1q-9 2 -13 1q-5 0 -24 -5q-13 -4 -24 -2q-8 1 -24 11q-14 9 -24 9q-5 -3 -1 -9q4 -7 1 -9q-4 2 -22 6q-13 3 -19 7q2 4 3 22q2 15 7 19q34 -10 78 12q55 29 70 31q58 9 124 0 q24 -3 90 -29q54 -21 91 -17q5 -2 15 -9q9 -6 15 -9q27 -39 102 -203q37 -81 66 -97q6 1 4 8q-3 8 1 10q57 -41 53 -96q-29 23 -28 22q-3 -27 3 -73q7 -58 8 -74q-13 8 -18 5q-13 -54 13 -89q3 -1 10 2q5 2 7 -2q9 -133 75 -232q49 -74 152 -154q53 -42 96 -79l29 -31 q16 -19 35 -23q-3 15 -23 39q-32 37 -104 99zM1115 314q81 -63 170 -72q-24 20 -91 51q-61 28 -87 55q-14 15 -30 49q-18 35 -31 50q-21 -2 -33 11l-9 12q-5 9 -9 13q39 -8 67 20q11 11 9 23q-1 13 -20 21q-51 -38 -99 -33q-7 0 -26 10q-14 7 -25 2q6 -20 37 -28 q43 -10 50 -15q-3 -41 0 -48q124 -119 127 -121zM727 668q-12 -23 -16 -38q20 7 33 30q14 25 0 44q-5 -11 -17 -36zM838 674q-4 -2 -12 -4t-11 -4q-8 4 -23 23q-12 16 -28 18q31 -60 25 -56q3 -3 36 -8q11 -2 40 -11q26 -8 39 -9q42 -3 48 -5q0 29 -48 30q-21 14 -66 26z M908 886q-2 -6 -5 -22q-2 -15 -4 -23q9 -12 23 -19q17 -9 28 4q-4 5 -17 8t-16 7q22 61 17 56q4 -1 10 -2q7 -1 10 -1q10 -3 11 -12q-11 -40 -10 -53q30 18 22 53q-8 36 -45 31q-18 -3 -24 -27zM995 1019q4 -12 -12 -58q-5 0 -41 8q-4 35 13 63q29 -4 40 -13zM1013 1017 q-11 16 -30 25q-23 11 -41 3q-20 -54 -20 -74q20 -35 73 -25q12 13 18 71zM1023 1141q1 -26 -17 -53q-22 4 -31 10q-2 23 13 54q7 0 35 -11zM1036 1139q-3 15 -23 24q-19 7 -35 1q-16 -33 -18 -73q28 -23 51 -18q28 49 25 66zM1208 1274q8 -7 16 -3q3 7 -4 14q-8 7 -19 6 q0 -10 7 -17z" />
<glyph unicode="/" horiz-adv-x="1027" d="M412 1100q-111 -99 -136 -120q-5 -5 -23 -19q-17 -13 -27 -21q-31 -28 -31 -49q0 -14 13 -28q15 -16 34 -16q22 1 53 31q7 7 24 26q14 15 22 21q31 28 94 81q63 54 95 82l25 20q18 14 28 24q33 30 32 51q-1 24 -22 36q-22 13 -46 -2q-53 -44 -135 -117zM287 1045 q9 9 24 25q14 17 19 21q5 5 22 16q17 13 27 21q33 29 33 55q-1 24 -22 35q-19 9 -39 2q-4 -1 -82 -71q-69 -62 -71 -74q-3 -20 7 -35q8 -13 20 -16q30 -8 62 21zM676 675h-329q-8 0 -49 -2q-32 -1 -51 0q-57 3 -73 25q-10 15 -10 126v264q0 98 1 101q6 51 43 62q12 3 166 3 h326q10 0 40 1q26 2 41 1q48 -1 65 -19t18 -62q1 -14 0 -38q-1 -27 -1 -35v-299q0 -106 -28 -122q-12 -6 -159 -6zM802 309q-12 -2 -36 -4q-26 -2 -36 -3v84q49 17 85 9q43 -11 31 -56q-7 -23 -44 -30zM730 244q90 27 99 -24q10 -62 -99 -61v85zM664 544q10 22 36 29 q48 13 104 -5q64 -21 31 -70q-16 -24 -85 -23q-68 0 -81 20q-16 25 -5 49zM557 142v85q11 3 42 3q28 0 40 4q4 -13 4 -42q-1 -39 -1 -46q-44 -5 -85 -4zM642 288q-15 1 -42 -2q-26 -3 -43 -1v88q59 -1 85 3v-88zM424 538q15 50 49 59q38 9 75 1t47 -29q13 -25 10 -67 q-2 -40 -17 -58q-20 -24 -76 -24q-58 0 -77 27q-26 38 -11 91zM469 285q-51 -1 -88 7v84q41 -4 88 -3v-88zM469 142q-47 -1 -88 4v84q45 3 88 -3v-85zM334 483q-26 -12 -63 -10q-36 1 -61 15q-28 15 -29 37q0 35 33 43q5 2 72 5q45 2 61 -7q19 -11 17 -44q-1 -26 -30 -39z M296 302q-54 -1 -86 13q-43 18 -29 58q10 26 48 24q5 0 67 -11v-84zM296 159q-42 -8 -70 10q-25 15 -26 40q-1 26 23 38q27 14 73 0v-88zM978 993q0 237 -10 268q-66 197 -533 169q-99 -5 -145 -13q-194 -32 -234 -163q-7 -22 -7 -268v-549q0 -233 10 -264q35 -106 172 -145 q97 -28 286 -28q248 0 346 51q85 44 105 146q10 48 10 244v552z" />
<glyph unicode="0" horiz-adv-x="1437" d="M207 764h20q2 -9 -5 -10q5 1 -15 0v10zM201 693q-12 -7 -28 -4q-15 3 -26 14q-11 12 -9 27q3 25 27 32q25 6 44 -14q0 -3 -2 -4q9 -3 8 -24q-1 -19 -14 -27zM128 773q-17 -5 -22 -17q-11 -34 0 -63q5 -12 16 -16q46 -19 105 -2q23 6 23 49q0 41 -19 49q-43 18 -103 0z M430 127q-17 49 -102 49q-85 1 -101 -49h203zM294 200q17 -15 44 -11t40 25q14 23 -1 53q-18 33 -62 24q-30 -7 -35 -36q-7 -37 14 -55zM1046 354q-90 4 -118 -46q-19 -37 14 -67q28 -26 73 -33q0 -9 -10 -28q10 2 18 12q9 13 14 16q48 3 79 22q39 23 31 62q-10 57 -101 62z M1132 336q54 -45 15 -97q34 -40 69 -47q-2 6 -16 25q-11 14 -9 26q52 7 86 37q37 34 26 80q-9 37 -52 59q-38 20 -90 20q-52 1 -93 -17q-44 -20 -57 -55q69 13 121 -31zM1191 832q-11 1 -33 -1q-23 -2 -32 -2q-5 0 -20 1q-13 1 -20 1q-21 -1 -25 -18q28 0 88 -1q57 -2 89 -1 q-9 21 -47 21zM1212 840q6 7 6 19t-8 17q-8 7 -21 0q-14 -6 -9 -23q4 -14 11 -16q13 -5 21 3zM1170 847q8 16 -5 29q-25 11 -32 -11q-7 -23 12 -28q17 -5 25 10zM355 973q2 4 2 5q5 1 4 -5q-2 -7 -6 -6q-1 3 0 6zM345 940q15 -9 24 5q-1 2 -7 1q-8 -2 -11 -1q-16 7 -13 27 q2 21 19 22q13 1 19 -10q8 -13 -5 -23q-1 9 2 23q-17 9 -26 -6q-10 -14 2 -25q6 -1 14 8q0 -9 10 -8q17 12 14 26q-3 13 -19 18q-15 6 -27 -1q-13 -8 -12 -31q1 -16 16 -25zM500 1218q3 -3 7 -3q8 10 23 14q16 4 28 -4q0 4 4 8q4 5 4 10q-21 10 -45 3q-24 -6 -28 -25 q3 0 7 -3zM1104 1247q-19 -19 -18 -22h124q-4 4 -13 15q-9 12 -15 18q-21 20 -50 16q0 1 -28 -27zM483 1227q14 19 38 26q26 7 51 -4q0 -3 6 11q-25 20 -61 10q-35 -9 -44 -35q11 -11 10 -8zM1191 1254q19 -18 23 -17q-1 7 1 41q1 30 -5 42q-1 -7 -22 -22t-21 -22 q0 1 24 -22zM1080 1235q7 4 22 18q17 16 24 21q-14 21 -46 46v-85zM1187 1304q21 20 19 23h-122q4 -3 13 -15q9 -11 15 -17q20 -19 49 -15q4 3 26 24zM1284 126q-65 -60 -154 -66q-108 -8 -187 62q-80 69 -85 174q-5 88 39 156q40 60 108 91q35 15 75 20q105 11 184 -48 q111 -83 98 -230q-8 -95 -78 -159zM794 616q-7 -6 -98 -6q-93 0 -99 4q-12 7 -12 69v154q0 61 0 57q3 31 24 37q7 2 99 2q81 0 88 -8q12 -11 11 -72q0 -18 -1 -49q-2 -31 -2 -40v-73q1 -67 -10 -75zM704 592q10 -8 9 -17q-1 -8 -9 -13t-16 -3q-8 3 -10 13q-4 25 26 20z M515 235q12 -121 -85 -183q-95 -61 -191 -8q-42 23 -69 65q-32 49 -30 107q1 42 18 76q43 91 144 103q98 12 161 -55q45 -48 52 -105zM253 640q-36 -32 -85 -28q-43 3 -74 34q-35 35 -31 88q3 42 30 70q27 27 69 33q53 7 90 -26q44 -38 38 -99q-4 -42 -37 -72zM305 974 q2 41 40 50q36 8 55 -12q16 -17 13 -46q-3 -28 -22 -43q-23 -17 -54 -4q-33 15 -32 55zM465 1279q19 28 53 33q35 4 59 -18q23 -20 24 -51t-17 -51q-17 -18 -43 -23q-25 -4 -48 6q-24 11 -34 36q-14 38 6 68zM1032 1358q34 48 92 56q67 10 115 -31q46 -39 48 -101 q2 -66 -44 -109q-43 -38 -100 -37q-51 2 -88 33q-36 30 -46 76q-13 63 23 113zM1070 928q28 24 67 29q54 6 91 -28q35 -33 36 -83q0 -56 -39 -87q-35 -28 -84 -25t-79 36q-34 37 -25 96q5 37 33 62zM932 533q8 -10 -86 114q-27 36 -28 40q-2 10 0 29q2 20 0 30q29 8 107 28 q67 18 106 29q13 -38 44 -61q33 -24 74 -24q54 0 90 34q32 31 36 77q8 69 -41 112q-47 41 -108 30q-50 -9 -80 -53q-32 -46 -19 -107q-175 -47 -209 -55q-1 9 2 107q1 65 -18 88q39 38 113 111l112 112q6 -5 20 -18q9 -9 18 -14q83 -50 165 4q80 54 73 144q-5 58 -47 100 q-46 46 -115 44q-93 -3 -134 -91q-42 -87 14 -161l-171 -172q-54 -54 -59 -55q-25 -6 -73 -1q-51 5 -77 1q-48 124 -77 211q44 32 45 71q2 58 -52 79t-92 -22q-39 -45 -5 -97q34 -53 96 -35q10 -32 37 -105q25 -67 36 -102q-54 10 -58 -48q-1 -15 1 -53q2 -36 0 -53 q-133 111 -160 136q24 39 -5 74q-28 34 -70 19q-23 -9 -33 -31q-9 -20 -4 -42q6 -23 23 -37q20 -14 48 -11q3 1 37 20q172 -148 164 -140q-1 -6 0 -38q0 -24 -2 -37q-43 1 -131 6q-89 5 -135 6q-2 62 -44 96q-38 30 -91 27q-53 -4 -87 -38q-38 -39 -33 -99q5 -49 41 -82 q37 -32 87 -32q105 1 129 120q25 -2 134 -6q83 -4 132 -9v-123q-101 -148 -134 -193q-61 40 -136 32q-75 -9 -128 -65q-52 -57 -56 -134q-5 -104 73 -170q94 -79 215 -33q121 47 130 171q5 69 -21 118q-20 36 -67 77q13 19 63 93q39 57 65 90q7 -22 47 -25q13 -1 38 1 q31 1 41 1q94 0 102 6q-12 -9 14 118q22 -25 55 -69q41 -55 54 -71q-106 -100 -99 -231q6 -111 81 -185q74 -73 183 -81q118 -8 206 69q86 75 94 188q9 123 -67 212q-75 87 -192 95q-98 7 -201 -61zM1116 847q8 16 -5 29q-25 11 -32 -11q-8 -23 12 -28q16 -5 25 10z" />
<glyph unicode="1" horiz-adv-x="907" d="M692 693q-42 -45 -55 -53q5 -34 58 -62q11 4 87 77q0 -1 23 15q13 8 13 21q1 16 -26 38q-26 22 -39 16q-22 -9 -61 -52zM689 861q-5 -26 -9 -36q30 14 48 54q-5 2 -14 10q-8 7 -15 8q-5 -11 -10 -36zM775 756q13 19 45 53q32 33 45 52q-2 23 -30 45q-28 21 -42 13 q-25 -14 -68 -71q-50 -66 -59 -74q21 -39 47 -47q32 38 62 29zM731 894q1 0 58 36q15 -1 58 22q-2 83 -61 72q-8 -2 -102 -47q-1 -55 47 -83zM425 696q2 18 20 31q19 13 37 10q20 -4 25 -28q4 -22 -12 -38q-18 -18 -46 -13q-25 17 -24 38zM670 1314q-4 -16 -25 -12 q-6 2 -19 6q-13 5 -18 6q-64 14 -69 18q0 3 2 6t2 5q65 2 127 -29zM680 730q-6 3 -7 8q-32 -5 -119 14q-14 3 -42 11q-29 8 -42 11q-147 33 -166 44q16 63 57 253q35 161 62 250q300 -64 352 -83q-11 -40 -26 -110q-18 -83 -25 -111q6 -4 17 2q13 9 19 9q4 22 31 132 q19 80 23 139q-22 30 -77 44q-17 4 -50 9q-35 5 -50 9q-191 43 -196 43q-32 4 -46 -37q-4 -13 -9 -36q-5 -32 -6 -35q-26 -111 -94 -413q-38 -164 -37 -171q5 -25 35 -38q12 -5 60 -16q243 -54 289 -58q21 -30 55 123q-2 3 -8 7zM526 600q-72 21 -95 26q-160 34 -174 47 q-21 18 -18 56q1 14 14 70q21 92 53 233q36 162 52 231q22 97 23 100q17 50 50 56q16 3 97 -15q20 -4 48 -11q37 -9 43 -10q179 -43 181 -44q34 -21 27 -78q-3 -19 -11 -49q-12 -43 -12 -47q-10 -43 -26 -127q19 16 28 54q2 11 6 35q4 23 6 35q28 124 25 137q-7 46 -81 69 q-25 7 -65 14q-55 10 -60 11q-184 41 -177 40q-64 6 -89 -50q-1 -3 -27 -116q-17 -71 -33 -142q-56 -246 -69 -275q-2 29 24 95q24 62 16 93q-6 23 -43 36q-40 13 -66 -7q-15 -11 -50 -155q-39 -158 -40 -167q-11 -96 -11 -282q0 -33 9 -80q9 -49 9 -65q1 -33 -22 -109 q-22 -70 -18 -94q11 -60 167 -87q8 -2 47 -11q38 -8 62 -12q78 -13 108 8q24 18 34 77q12 73 21 90q201 140 184 395q-11 12 -28 10q-34 -3 -37 -3q-26 2 -82 18z" />
<glyph unicode="2" horiz-adv-x="1099" d="M782 590q-1 -18 23 -39q24 -20 46 -18q16 1 37 23q5 4 17 18q10 11 16 16q5 4 17 14q15 11 22 16q25 21 26 36q3 43 -73 61q-132 -142 -131 -127zM802 837q-7 -31 -8 -38q40 26 53 65q-12 11 -37 13q-2 -16 -8 -40zM834 820q-61 -73 -61 -87q1 -25 66 -57q9 9 42 34 q27 22 44 40q69 73 69 90q1 21 -23 41q-26 21 -54 16q-21 -3 -83 -77zM839 1024q-62 -68 -62 -82q1 -22 25 -41q25 -19 49 -16q19 3 84 75q64 72 64 89q-1 26 -31 43q-29 17 -51 10q-11 -4 -78 -78zM952 1198q-6 -44 -11 -59q11 -12 36 -16q26 -4 46 4q15 40 21 118 q-11 10 -36 13q-25 2 -42 -5q-9 -16 -14 -55zM618 1303q-1 3 1 6q3 4 3 6q77 3 143 -33q-5 -18 -28 -13q-7 2 -21 7t-20 6q-74 17 -78 21zM560 625q14 -9 16 -29q3 -18 -6 -35t-26 -20q-38 -7 -51 33q-13 39 26 53q26 9 41 -2zM909 1287q-15 14 -95 32l-48 12q-36 9 -54 13 q-180 39 -209 41q-40 1 -62 -86q-7 -27 -14 -73q-8 -49 -10 -58q-19 -86 -86 -373q-42 -180 -41 -188q4 -32 46 -50q16 -7 77 -20q106 -24 201 -45q94 -21 102 -21q41 5 54 47q11 38 -5 80q4 8 12 17q10 13 13 16q14 20 12 45q-5 2 -16 11q-9 8 -17 10q-18 -68 -20 -70 q-271 54 -393 90q76 383 131 573q78 -12 204 -41q154 -35 193 -53q-21 -81 -29 -127q46 28 66 119q16 74 -12 99zM376 1134q-18 -70 -20 -85h-33q10 31 32 84q24 57 33 84q1 -30 -12 -83zM614 476q-19 4 -51 11q-42 11 -52 13q-202 48 -204 49q-39 28 -23 117q5 29 17 74 q16 55 18 63q19 81 45 204q29 137 45 206q25 112 23 105q18 62 47 75q28 13 122 -8q17 -4 50 -13q32 -8 49 -12l200 -45q14 -7 30 -27t28 -26q-12 60 -93 83q-27 8 -78 16q-61 10 -83 15q-16 4 -77 20q-47 13 -74 17q-80 12 -111 -28q-33 48 -66 49q-46 1 -73 -48 q3 6 -37 -92q-18 -43 -48 -116q-34 -85 -47 -117q-57 -140 -57 -143q-19 -237 -8 -385q1 -20 11 -51q9 -29 9 -43q1 -31 -15 -89q-23 -79 -26 -92q-22 -113 -20 -126q10 -70 164 -99q200 -37 233 -32q43 6 65 62q7 19 14 50q10 44 11 47q26 95 37 139q20 15 127 140 q40 6 64 33q25 29 18 69q-7 -10 -15 -27l-12 -24q-15 -24 -43 -31q-18 -4 -114 17z" />
<glyph unicode="3" horiz-adv-x="1074" d="M355 1373q0 26 -44 21q-12 -2 -36 -7q-21 -4 -28 -5q1 2 2 -10q-7 6 -13 0q2 -15 20 -14q6 0 16 2q12 2 14 3q62 6 69 10zM515 384q-11 -2 -16 -23q-7 -24 -9 -26q12 -26 43 -78t43 -79q2 -3 6 -14q4 -10 7 -15q8 -17 23 -21q2 10 -20 56q-22 47 -25 57q18 -14 42 -50 q26 -38 41 -52q21 4 39 -21q20 -26 37 -24q-4 21 -47 75q-27 34 -66 91q-52 74 -66 93q-23 32 -32 31zM287 757q1 -12 1 -15q-5 -2 -21 -2t-22 -2q-12 19 3 30q14 10 38 6q0 -7 1 -17zM265 728q21 1 32 10v33q-4 0 -10 7q-5 6 -11 7q-20 3 -44 -11q-2 -7 -1 -18q2 -14 1 -20 q11 -9 33 -8zM256 1302q-28 -2 -41 -4q-46 -5 -56 -20q3 -37 7 -104q5 -73 7 -101q3 -39 23 -207q1 -3 1 -12q0 -8 1 -12q2 -14 15 -16q1 12 -13 135q-5 44 -14 161q-8 102 -16 160q30 2 100 5q68 2 99 5q45 5 56 17q-35 7 -130 -4q-12 -1 -39 -3zM462 1191q-8 73 -10 110 q-18 11 -22 9q4 5 11 -12q12 -179 15 -211q-21 3 -47 37q-25 33 -52 33q-41 0 -53 -48q-10 -46 15 -81q0 -3 -3 -6q-2 -3 -3 -5q19 -69 76 -95q3 -12 32 -67q-28 -8 -95 -17q-66 -8 -95 -17q31 -4 93 0q70 5 99 4q-3 -11 -13 -32q-8 -20 -12 -31q-19 35 -20 36q-27 1 -52 -9 q-7 -45 13 -54q10 -5 26 -2q18 4 17 14q-6 3 -22 0q-17 -3 -21 -2q-7 28 -4 35q19 14 43 3q3 -3 6 -18q3 -13 10 -14q0 -7 -2 -19q-2 -13 -3 -19q-156 -14 -176 -5q-3 2 -1 5q3 4 2 7q-22 25 -32 139q-1 10 -29 242q-18 150 -18 254q1 6 -10 6q4 12 10 20q1 -1 3 -7 q1 -4 5 -4q25 21 97 28q20 2 62 4t60 4q69 6 79 3q29 -8 42 -149q2 -29 6 -97q3 -61 6 -96q-3 -1 -23 13q-2 39 -10 111zM371 1106q-20 17 -31 15q2 14 13 21t23 1q13 -6 27 -26q16 -23 -3 -26q-10 -2 -29 15zM292 615q-5 26 16 31q4 0 9 -3q5 -4 9 -4q51 18 47 18 q-8 -15 -28 -37q-23 -24 -30 -35q-18 5 -23 30zM236 636q-7 9 -4 16q8 -2 19 2q10 3 14 1q0 -3 -2 -8q-1 -6 -2 -8q-22 -4 -25 -3zM132 648q-4 20 6 34q10 13 23 0q-10 -18 -29 -34zM184 654q-5 -1 -30 -21q-18 -14 -29 1q-12 0 52 41q-6 21 -28 23q-23 2 -26 -21 q-2 17 20 30q31 17 34 20q7 -2 12 -21q17 -10 22 -30q6 -20 -4 -40q-13 0 -23 18zM130 815q3 20 -14 28q1 -1 -18 -2q0 -8 27 18q7 23 23 25q2 -5 8 -15q6 -9 8 -16q-7 -13 2 -41q10 -29 4 -45q-8 3 -25 -2q-20 -5 -28 -5q4 20 -7 30q17 6 20 25zM121 816q-21 -10 -36 -24 q-3 16 5 28q8 13 26 12q6 -10 5 -16zM74 963q-4 17 -7 22q32 43 76 54q5 -6 3 -20q-1 -14 -7 -16v-47q-41 -19 -54 -11q-7 5 -11 18zM212 1402q-7 -1 -12 2q6 7 20 5q0 -5 -8 -7zM246 1406q-8 -1 -14 2q4 6 24 5q-1 -6 -10 -7zM268 1411q4 7 22 6q-7 -13 -22 -6zM989 169 q-16 15 -20 20q-75 82 -143 182q-46 68 -52 110q-2 18 -2 41q0 26 -1 38q-1 4 -2 7q-2 3 -2 6q-6 42 -3 123q3 85 -1 116q0 2 -12 70l-4 24q-2 15 -3 23q-6 24 -51 75q-42 50 -104 96q-9 7 -29 24q-18 15 -27 21q-29 19 -29 18q2 -4 -5 77q-9 101 -10 107q-10 59 -39 79 q-18 12 -74 7q-10 -1 -37 -2q-27 0 -42 -2q-139 -13 -156 -23q-21 -13 -26 -39q-3 -17 1 -58v-23q-1 -15 0 -22q1 -21 12 -107q8 -64 9 -102q-8 -7 -28 -18q-22 -12 -31 -18q-35 -24 -33 -58q2 -24 25 -40q22 -16 55 -17q-38 -46 -40 -58t-9 -33q-6 -17 -7 -28 q-4 -35 10 -51q10 -13 38 -21q-17 -38 -6 -76q12 -40 48 -45q36 -4 66 36q8 -9 36 -9q4 -9 22 -43q14 -26 18 -45q1 -7 2 -21q0 -14 1 -20q21 -121 74 -186q3 -3 72 -59q39 -31 75 -119q39 -96 66 -126q7 6 15 3q10 -4 15 -3q1 15 -30 79q-45 91 -80 148q-37 61 -36 79 q1 5 7 13t6 12q0 2 -2 7l-3 6q-4 20 -2 18q-9 -2 -28 -18q-14 -12 -35 -7q-27 6 -56 62q-29 54 -27 85q1 14 13 26q3 3 10 8t9 8q4 54 31 72q2 -90 20 -173q6 -2 16 -21q9 -14 22 -11q-3 4 -8 14q-5 12 -7 16t-8 11q-6 6 -8 9q-15 32 0 45q6 -12 13 -32q10 -27 12 -33 q16 -38 40 -50q1 3 -6 32q9 15 41 22q41 7 49 12q1 10 8 24q6 14 7 23q-5 9 -15 11q-3 1 -10 1q-6 0 -9 1q-80 15 -116 75q5 -7 -5 76q1 -5 -8 30q-4 17 4 28q49 -25 44 -26q-2 9 -12 17q-12 9 -15 14q-17 25 -6 81q1 4 -6 5q-6 0 -6 4q5 15 12 14q15 -46 65 -73q-2 -1 36 0 q-4 17 -32 31q-47 24 -45 23q0 3 -5 14t-4 20q60 -14 59 -15q8 7 6 22q-4 22 -4 23q-54 6 -58 9q2 9 -2 23q-5 16 -5 24q0 -6 4 23q2 13 -6 20q-39 10 -74 53q-45 55 -63 66q0 38 15 45q-3 -37 36 -48q38 -11 63 12q6 -6 38 -21q24 -13 30 -29q-1 -3 -11 -7q-9 -3 -9 -10 q34 4 65 -21q12 -10 31 -34q21 -28 30 -38q6 -6 36 -31q16 -13 20 -14q14 -7 24 5q-7 7 -41 26q-26 14 -31 34q3 13 21 16q22 5 27 11q-2 10 -12 16q-4 -2 -11 -9q-5 -6 -11 -7q2 -3 -29 3q-14 3 -35 24q-20 19 -21 28q0 7 7 17q8 9 8 18q-8 1 -14 -6t-11 -7q-5 4 -5 13 q1 10 -1 14q-1 4 -7 9q-6 4 -7 9q-2 5 2 38q13 -15 50 -35q38 -20 54 -35q5 -5 13 -16q9 -11 14 -17q4 -4 19 -17q13 -11 20 -19q21 -24 20 -50q24 -21 26 -88q4 -102 5 -105q-18 -84 -20 -108q0 -4 1 -15q0 -10 -1 -15q-2 -12 -21 -46q-16 -31 -15 -51t28 -46l39 -37 q16 -21 58 -91q37 -62 62 -89q8 -9 27 -25q18 -15 26 -24q7 -8 19 -31q11 -21 18 -28q11 -10 42 -25q38 -19 45 -20q-1 9 -31 45q-7 8 -19 21z" />
<glyph unicode="4" horiz-adv-x="1373" d="M586 1240q31 0 40 10q-29 -3 -54 18q-2 -8 -14 -12q-14 -5 -17 -11q18 -5 45 -5zM1235 1056q21 -12 21 -39q2 -40 -24 -48q-22 -7 -49 10q-28 17 -31 39q-3 26 33 40q29 10 50 -2zM981 1281q-188 -5 -257 0q-13 -21 -93 -36q75 -6 241 -4t241 -5v-366q58 23 100 -16 q42 -38 30 -96q41 14 44 93q1 25 -1 76q-3 58 -3 81v233q-4 6 -16 18q-11 11 -15 18q-90 8 -271 4zM420 1098q14 -126 -4 -166q-17 19 -16 78q1 19 4 48q3 35 3 40h13zM503 745q34 0 86 2q55 2 64 2h308q4 7 23 19q17 11 18 26q-270 -12 -537 0q-12 211 0 433q-15 8 -23 33 q-7 20 -31 21q-50 2 -56 -101q-2 -33 0 -91q3 -74 3 -85q0 -216 13 -233q21 -25 132 -26zM734 1316q-11 4 -19 -4q-1 -10 8 -12q3 -1 19 -1q4 14 -8 17zM1037 789q-111 -82 -107 -80q-4 1 -4 16q0 13 -9 11q-51 3 -249 -8q-179 -9 -257 3q-63 10 -72 98q1 -12 1 188 q0 181 3 199q14 86 91 92q-65 14 -92 -34q-22 -38 -23 -125q0 -24 7 -164q5 -100 -4 -146q-1 -7 -58 -139q-5 -12 -26 -53q-15 -33 -22 -52q-20 -60 3 -110q-17 -27 -44 -60q-37 -45 -45 -56q-79 -106 -81 -125q-5 -55 67 -116q112 -95 179 -121q55 -21 102 23q15 14 36 42 q26 36 32 42q91 106 107 117q41 -24 90 -9q108 31 218 156q0 -1 162 210q-7 0 -20 -12q-9 -9 -16 3q25 29 112 94q11 9 34 23q26 16 35 22q39 27 43 53q5 36 -21 64q-25 28 -60 26q-17 -1 -112 -72zM698 1397q-27 8 -59 4q-34 -3 -49 -17v-107q19 -17 58 -13q38 4 54 22 q-1 101 -4 111zM541 1402q-55 15 -103 -27q19 -108 27 -125q64 0 98 31q-12 83 -22 121zM1323 1227q-12 83 -116 91q-29 2 -97 -1q-67 -3 -99 0q26 38 0 72q-25 34 -68 26q-28 -5 -44 -45q-5 -12 -18 -71q53 -10 191 3q125 12 180 -7q49 -18 53 -112q2 -30 -1 -85 q-3 -66 -3 -85q0 -220 -4 -233q-8 -20 -37 -35q-34 -18 -44 -32q86 2 103 95q4 22 4 205v214zM850 1429q-49 17 -103 -23q3 -59 18 -116q51 -5 102 22q-1 14 -17 117z" />
<glyph unicode="5" horiz-adv-x="841" d="M314 947q-3 -2 -27 -16q-22 -13 -36 -23q-46 -31 -45 -52q1 -67 101 0q14 9 34 22t31 20q4 2 30 18q24 15 39 25q50 35 49 58q-1 19 -15 27q-15 9 -37 3q-3 -1 -124 -82zM245 1019q-39 -20 -39 -49q-1 -26 22 -32q20 -6 46 5q27 11 39 32q14 23 1 47q-29 18 -69 -3z M421 758q-210 2 -241 10q-7 23 -7 153q0 124 13 144q37 3 255 3q192 0 229 -10q19 -145 0 -290q-56 -13 -249 -10zM623 515q-17 -10 -38 -7q-50 7 -49 57q1 46 49 52q32 5 51 -15q20 -21 11 -57q-5 -20 -24 -30zM626 441q17 -13 18 -38q2 -24 -11 -42q-14 -21 -39 -21 q-47 -2 -56 47q-4 20 5 36q10 18 32 24q32 9 51 -6zM538 223q-7 47 40 58q33 7 52 -10q29 -25 11 -64q-17 -40 -60 -34q-36 5 -43 50zM476 582q17 -42 -19 -66q-25 -17 -49 -6q-22 9 -32 33q-11 24 -3 45q10 24 42 29q44 8 61 -35zM457 442q18 -14 20 -39t-12 -44 q-16 -20 -44 -19q-43 1 -51 48q-9 46 35 59q32 10 52 -5zM412 281q27 5 46 -6q19 -12 22 -37q5 -31 -13 -49q-16 -17 -42 -16q-25 1 -41 17q-19 19 -15 48q5 35 43 43zM248 617q25 4 43 -8q19 -11 23 -34q4 -30 -12 -49q-15 -16 -39 -18q-24 -1 -42 11q-20 15 -22 39 q-3 51 49 59zM288 441q18 -13 22 -38q4 -24 -9 -42q-14 -21 -43 -21q-47 -2 -56 46t36 61q30 9 50 -6zM229 180q-18 12 -25 34q-6 22 2 40q10 21 36 27q28 7 47 -7q16 -12 21 -35q4 -22 -5 -41q-10 -20 -31 -25q-25 -6 -45 7zM787 856q0 177 -2 206q-7 104 -40 156 q-9 15 -42 44q-28 26 -33 41q-4 12 -7 63q-1 36 -19 52q-14 11 -61 15q-43 3 -70 -2q-27 -6 -39 -30q-1 -2 -17 -55q-328 24 -388 -206q-7 -25 -7 -281v-484q0 -197 3 -217q12 -94 79 -132q43 -24 138 -26q29 0 86 1q63 2 89 2q159 0 204 10q82 18 113 88q13 30 13 268v487z " />
<glyph unicode="6" horiz-adv-x="3449" d="M577 335q-9 33 24 43q19 5 32 -5q12 -8 14 -24q3 -16 -5 -28q-9 -14 -26 -16q-30 -3 -39 30zM571 334q9 -38 45 -35q18 2 28 18q10 15 8 34q-2 20 -15 29q-15 11 -39 4q-37 -11 -27 -50zM1088 277h79v359q-5 -1 -45 1q-28 1 -34 -11v-349zM2938 490q-52 0 -81 4 q-1 41 27 67q26 23 61 25q36 1 58 -22q25 -26 21 -73q-15 0 -86 -1zM2817 576q-36 -52 -36 -121q1 -71 37 -121q41 -56 111 -63q68 -7 151 18q-2 7 -6 30q-3 20 -10 27q-71 -31 -138 -9q-74 24 -69 100h242q7 103 -37 159q-47 58 -139 46q-67 -9 -106 -66zM2575 637 q-64 -12 -90 -55q1 9 -2 26q-2 16 -1 28h-69q2 -35 3 -359h79q3 31 1 90q-3 72 -3 92q2 102 59 117q84 22 96 -91q4 -36 2 -105q-2 -79 -1 -103h79q-3 35 -1 97q2 73 2 95q-2 106 -45 145q-42 37 -109 23zM2099 386q-15 36 -12 81q4 45 26 76q23 35 61 39q32 4 50 -6 q31 -17 45 -65q12 -46 3 -95q-10 -51 -39 -75q-34 -27 -84 -7q-33 13 -50 52zM2086 617q-68 -43 -76 -149q-9 -109 60 -166q59 -48 144 -31q82 16 117 75q64 107 5 208t-178 85q-48 -7 -72 -22zM1334 711q46 11 87 3q43 -9 61 -34q20 -30 17 -64q-4 -31 -28 -55 q-54 -57 -137 -29v179zM1255 768v-491h79v192q101 -14 167 24q65 38 72 114q8 86 -56 134q-66 50 -177 36q5 1 -85 -9zM1082 758q-8 -33 11 -50q17 -15 44 -11t39 23q13 22 -6 51q-15 24 -53 16q-29 -7 -35 -29zM1774 636q-15 -6 -34 -23q-26 -23 -29 -25v211h-75 q-4 -97 -4 -259q1 -216 1 -263h78q6 34 -1 120q-6 83 1 119q8 35 39 53q32 19 68 7q49 -16 49 -121q1 -12 -3 -92q-2 -56 2 -86h78q-1 30 0 96q2 68 1 99q-5 112 -51 148q-52 40 -120 16zM615 1004q122 1 193 -3q0 -53 1 -292q1 -179 -4 -287h-390v572q0 9 3 10q36 -1 197 0 zM409 415h406v595h-403q-4 0 -3 -9v-586zM657 1073q-82 -7 -91 6q83 7 91 -6zM610 1092q-50 0 -50 -22q19 -8 54 -8q38 0 50 11q-4 19 -54 19zM2349 1080q-20 -19 -21 -20v29h-31v-173h37q2 96 2 98q8 50 52 40q-4 38 -3 38q-20 3 -36 -12zM2209 1053q14 -14 17 -39t-5 -46 q-9 -22 -25 -27q-23 -7 -40 8q-15 13 -19 38q-5 25 3 45q8 23 28 28q25 8 41 -7zM2222 922q32 22 39 67q8 44 -14 74q-26 34 -79 26q-60 -9 -71 -77q-12 -67 42 -93q48 -23 83 3zM1771 1019q-1 21 12 33q12 12 30 13t29 -11q13 -12 11 -35h-82zM1875 947q-38 -12 -69 -3 q-37 11 -35 47q10 1 60 0q38 -1 57 3q7 54 -26 82q-32 27 -75 13q-37 -13 -48 -53q-9 -36 7 -73q16 -39 49 -51q39 -14 83 16q-4 4 -3 19zM1450 950q-15 -17 -44 -9q-20 25 0 46q19 21 54 14q6 -34 -10 -51zM1472 916q30 6 29 3q-6 23 -3 71q3 45 -4 64q-11 32 -50 37 q-32 3 -72 -12q-1 -6 2 -13q4 -7 4 -12q27 14 53 10q32 -5 29 -38q-77 -2 -95 -32q-14 -24 -6 -45q7 -19 27 -29t42 -7q23 4 35 22q14 -19 9 -19zM1324 919q-4 39 -8 117q-4 83 -7 119h-47q-9 -22 -63 -186q-1 3 -57 186h-50q-1 -10 -16 -239h34q4 31 7 99q2 68 6 99 q28 -105 60 -195h25q17 35 36 95q29 88 33 100q9 -194 10 -198q41 7 37 3zM1648 1047q13 -16 14 -41q1 -26 -10 -45q-13 -20 -35 -20q-19 0 -32 17q-11 15 -13 38q-4 56 39 64q23 5 37 -13zM1664 916h35v251h-38v-94q-39 19 -44 19q-43 3 -65 -30q-20 -29 -17 -70 q4 -42 29 -65q27 -26 69 -11q9 3 16 11q9 10 15 14v-25zM724 260q-22 0 -61 2q-38 2 -50 2q-7 0 -69 -1q-45 -2 -72 0q-80 5 -98 42q-6 14 -6 202v415q0 8 -2 71q-2 46 0 73q8 80 59 92q13 3 201 3q8 0 62 1q39 1 62 0q71 -3 90 -29q16 -21 16 -202v-431q0 -11 1 -66 q1 -41 0 -65q-4 -72 -33 -92q-25 -17 -100 -17zM862 928q0 185 -13 205q-20 31 -87 35q-23 2 -64 1q-57 -2 -69 -2q-195 0 -208 -3q-40 -10 -53 -47q-6 -17 -6 -201v-416q0 -184 9 -201q20 -37 95 -42q25 -2 70 -1q62 2 74 2q190 0 205 6q40 18 47 91q0 -1 0 139v434z M2045 916v144h38v29q-42 7 -38 3q-4 28 11 41q14 14 39 6q2 27 4 28q-45 12 -70 -11q-26 -22 -22 -67q-23 -1 -25 -3v-26q26 -6 25 -3v-141h38zM3325 95q-32 -38 -72 -54q-49 -20 -177 -18q-34 0 -105 3q-65 2 -92 2h-2313q-337 0 -371 13q-93 34 -117 132q-6 26 -6 268v547 q0 241 6 267q31 130 170 145q30 3 381 3h2448q136 0 173 -12q91 -31 112 -143q8 -44 8 -247v-548q0 -253 -3 -271q-9 -47 -42 -87zM3398 1013q0 235 -9 268q-33 110 -126 141q-28 10 -180 10h-2473q-361 0 -384 -3q-110 -16 -160 -120q-22 -46 -24 -147q-1 -32 0 -89 q2 -66 2 -88v-560q0 -244 9 -274q16 -51 59 -92q42 -40 92 -53q25 -6 183 -6h2671q164 0 186 6q59 17 99 63q42 48 52 117q3 22 3 273v554z" />
<glyph unicode="7" horiz-adv-x="807" d="M452 1091q-28 2 -49 -12q-46 25 -73 4q-24 -17 -27 -62q-3 -42 13 -78q18 -39 47 -43q7 0 23 4q17 5 26 5q5 0 23 -5q15 -5 23 -4q20 5 46 64q-29 15 -31 52q-1 36 25 57q-16 17 -46 18zM403 1099q43 -3 49 52q-45 -4 -49 -52zM231 1263q-34 -1 -49 0q-52 4 -52 43 q0 42 59 47q30 3 108 -7q19 -18 14 -46q-4 -29 -29 -37q-15 1 -51 0zM164 1375q-58 -10 -58 -69q1 -25 15 -44q15 -20 40 -25q88 -17 139 6q38 17 37 65q-1 49 -43 64q-49 18 -130 3zM553 26h-294q-122 0 -138 9q-40 22 -44 127q-1 34 1 93q3 69 3 87v863q0 111 1 122 q6 49 39 68q15 9 236 9h247q94 1 116 -46q5 -13 5 -158v-984q0 -98 -1 -110q-6 -50 -36 -69q-19 -11 -135 -11zM751 1217q0 100 -4 124q-8 43 -45 69q-34 24 -123 24q-27 0 -76 -2q-50 -2 -68 -2q-274 0 -291 -3q-65 -11 -82 -74q-7 -30 -7 -148v-983q0 -112 7 -142 q14 -57 68 -74q18 -6 276 -6h141q120 0 135 6q50 18 63 79q6 32 6 142v990z" />
<glyph unicode="8" horiz-adv-x="1326" d="M1065 953h-789q-4 -1 -3 -10v-453q0 -133 6 -148q15 -36 60 -47q33 -8 95 -5q2 -29 0 -90q-2 -62 -1 -88q6 -95 65 -108q96 -21 111 85q4 32 3 100q-1 71 2 98q56 10 113 0q2 -193 3 -203q19 -102 112 -80q59 13 62 113q5 168 6 173q125 -5 148 45q7 14 7 148v470z M1272 837q-1 69 -31 104q-34 40 -95 18q-46 -16 -53 -110q-2 -31 0 -86q2 -75 2 -87q0 -11 -1 -60q-2 -42 -1 -66q2 -77 21 -99q30 -35 84 -26q52 8 66 53q8 26 8 108v251zM141 966q-52 -8 -66 -53q-8 -26 -8 -108v-251q0 -69 30 -104q35 -40 96 -18q46 16 53 110q2 31 0 86 q-2 75 -2 87q0 11 1 60q1 42 1 66q-2 77 -21 99q-30 34 -84 26zM512 1189q10 -8 12 -24q1 -15 -6 -27q-8 -13 -23 -15q-30 -3 -39 30t26 41q19 5 30 -5zM872 1188q10 -8 11 -24q0 -15 -8 -27q-9 -13 -23 -14q-30 -1 -37 31q-7 33 27 40q20 4 30 -6zM1065 982q2 118 -58 200 q-40 56 -136 122q4 12 35 63q24 38 17 65q-19 1 -30 -20q-3 -5 -8 -18q-4 -12 -7 -16q1 2 -39 -61q-68 31 -175 29q-100 -2 -169 -29q-1 2 -32 61l-8 16q-4 11 -8 16q-10 19 -26 22h-3q4 17 51 -132q-199 -116 -193 -318h789z" />
<glyph unicode="9" horiz-adv-x="4326" d="M3922 242q-22 -26 -58 -26q-11 0 -35 5q6 39 5 31q44 -17 68 19q8 12 18 36q11 28 14 34q-95 226 -133 315q-6 -1 38 1q101 -241 114 -272q21 49 57 136q40 97 56 136h39q-21 -48 -75 -178q-49 -115 -77 -181q-18 -41 -31 -56zM3736 344q-7 41 -7 52q-49 -57 -116 -58 q-50 0 -79 25q-31 27 -26 76q4 55 76 77q17 5 144 8q3 55 -6 72q-22 46 -93 40q-71 -7 -73 -62h-35q1 43 34 67q28 21 74 24q56 4 93 -18q40 -23 44 -70q1 -21 -1 -118q-1 -75 10 -115h-39zM3329 1083q-28 61 7 114q28 41 84 44q46 3 78 -24t36 -70q5 -60 -30 -94t-91 -29 q-58 4 -84 59zM3455 344h-34v430q1 4 2 3h32v-433zM3126 393v-169h-34v433h34v-46q44 50 100 54q54 4 93 -27q35 -28 48 -75q26 -87 -14 -158q-42 -75 -131 -69q-53 4 -96 57zM3074 1027h-37v209q-1 2 0 3q13 -1 43 0h41q45 -2 61 -20q27 -29 13 -68q-13 -40 -54 -45 q-12 -1 -32 0q-22 1 -35 0v-79zM3596 1239q13 1 18 0q2 -1 29 -36q9 -12 41 -56q25 -35 40 -53v145h37v-212q-4 1 -17 0q-12 -2 -17 0q-3 1 -29 38l-42 57q-29 39 -41 55v-150h-37v106q0 66 1 106q4 -2 17 0zM2873 1106q-1 -14 -1 -39q1 -33 0 -40h-36v209q0 2 1 3 q14 -1 38 -1q30 1 39 1q43 0 61 -14q21 -17 22 -50t-18 -51q-18 -17 -106 -18zM2909 374l-8 -8q-40 -28 -106 -23q-61 4 -100 52q-39 47 -39 114t43 110q41 40 97 44q102 8 129 -84q-21 -10 -58 -24q-44 -17 -60 -24q-41 -17 -38 -16q-9 -2 -26 -2t-25 -2q10 -53 40 -88 q35 -42 85 -46q44 -3 90 22q-1 -3 -16 -16q-2 -2 -8 -9zM2641 353h-117l8 11q6 9 8 13q1 3 1 52v370q9 -1 -52 1q7 4 22 11q19 9 23 11t50 2h47q0 -1 -10 -9q-15 -12 -16 -30v-358q0 -42 3 -48q-1 2 55 -12q0 -1 -9 -7q-12 -7 -13 -7zM2437 467q-3 -4 -14 -12 q-10 -9 -15 -14q-17 -17 -13 -34q3 -12 25 -30q41 -31 50 -43q25 -30 21 -72q-3 -49 -47 -80q-40 -29 -98 -34q-70 -7 -114 12q-66 30 -59 92q3 33 32 59q42 36 144 43q-19 32 -18 49q0 5 6 22q-60 -6 -96 24q-35 29 -36 78q0 50 37 86q39 39 112 42q25 1 74 0q53 -1 78 0 q-7 -4 -22 -12q-20 -12 -22 -12q-6 -2 -17 -1q-14 2 -21 1q49 -46 45 -101q-3 -34 -32 -63zM1897 381q-47 42 -53 111q-5 67 43 119q43 46 111 52q74 6 125 -38q48 -40 53 -110q5 -68 -42 -119q-41 -46 -112 -52q-75 -6 -125 37zM1666 344q-74 -5 -124 38q-49 42 -54 109 q-5 69 44 120q44 46 111 52q76 6 125 -37q50 -44 53 -110q3 -72 -43 -120q-43 -46 -112 -52zM1447 476q-2 -6 -2 -54v-56q-204 -52 -302 -10q-63 28 -97 84q-36 60 -32 140q5 90 71 151q65 60 161 66q112 6 199 -51q-1 -3 -25 -26q-29 -28 -47 -29q1 -2 13 23q-18 24 -54 42 q-36 19 -79 19q-97 0 -146 -81q-50 -81 -14 -185q30 -84 103 -123q39 -20 87 -24q56 -6 97 14v101q1 0 -93 -5q-1 0 25 14t25 13h130q1 -1 -9 -10q-10 -10 -11 -13zM794 471q-93 -51 -116 -65q-2 0 -3 2t-2 2q-6 0 -2 -7q-5 1 -11 -4q-6 -7 -11 -7q2 4 -1 5q-2 0 -4 -2 q0 -3 2 -3q2 -1 2 -2q-2 -1 -8 1q2 0 -2 -6q-3 0 -9 -5q-6 5 -3 5q-2 0 -4 -3q0 -1 1 -3q2 -1 2 0q1 -2 -2 -2t-5 1q1 2 -20 -15q-1 0 -3 1q-1 1 -2 1q-4 -1 -2 -6q-4 0 -9 -4q-6 -5 -9 -6q-2 0 -2 2q-1 2 -3 2q-5 -1 -1 -8q0 1 -6 1q1 2 -21 -15q-1 0 -2 1q-1 2 -2 2 q-5 -2 -2 -7q-5 0 -11 -4q-6 -5 -9 -6q0 2 -3 4q2 0 -3 -7q-5 0 -10 -5q-7 -6 -11 -6q4 4 -2 5q-2 0 -3 -3q0 -3 3 -3q-1 -2 -7 0q2 0 -3 -7q-4 0 -9 -4q-7 -5 -9 -6q0 1 -1 2q-1 2 -2 2q2 0 -3 -7l-5 1q-4 -7 -15 -11q0 3 -3 4q-1 1 -2 -1q-1 -1 -2 -1q0 -2 2 -3q1 -2 0 -2 q2 1 -5 1q-1 -1 -20 -16q-2 0 -3 2q-1 1 -3 1q4 1 -3 -7q-4 0 -9 -4q-6 -6 -9 -6q-6 5 -3 4q-2 1 -2 0q-1 -2 -2 -2q-1 -1 1 -3q2 -1 1 -2q1 1 -6 1q1 0 -3 -7q-4 0 -17 -9q-1 0 -2 2q-2 1 -3 1q-4 -1 -2 -6q-4 0 -9 -4q-6 -6 -10 -6q-2 0 -2 1q0 2 -2 2q-6 0 -2 -7l-5 1 q-16 -18 -26 -13q-4 -1 -1 -6q-6 -1 -11 -5q-6 -4 -10 -5q1 2 -2 3q2 0 -3 -7q4 -2 -13 -4q-6 5 -3 5q1 0 -5 -5q-5 5 -5 3q-20 4 -22 28v329q0 36 -1 103v104v95q2 30 23 35q1 -2 2 -3t1 -3q5 1 2 1q2 0 1 2t-2 2q-1 -1 10 1q-2 -2 -1 -4q0 -2 2 -3q2 0 3 2q2 2 0 3 q3 1 8 -2t7 -3q-1 -4 1 -7q2 0 4 1q1 2 3 2q16 -10 18 -10q-2 -2 1 -6q1 0 3 1q1 2 2 0q-3 1 -1 -4q1 -2 3 -3q4 0 4 5q4 -1 10 -7q6 -4 11 -4q-2 -4 1 -7q2 0 4 3q4 -1 10 -6q6 -4 9 -4q1 -1 1 -3t1 -3q8 -3 6 0q0 1 -1 -3q0 1 3 -4q2 0 3 2q2 2 0 3q13 -3 16 -11h2 q2 1 3 1q6 -9 2 -8q3 1 3 4q4 -1 11 -6q5 -4 10 -5q1 -1 -1 -2q-1 0 0 -1q0 -1 1 -2q1 0 1 -1q5 2 5 3q20 -14 21 -16q2 0 3 1t3 0q-3 -6 1 -7q4 0 4 4q3 -1 10 -6q6 -5 11 -5q-2 -4 1 -6q10 -1 8 1q-4 -5 -4 -6q1 -2 3 -2q6 0 2 7q3 -1 7 -4q3 -3 7 -3q1 -1 1 -4q0 -2 1 -3 q10 0 8 1q0 -1 -2 -2q-1 0 -1 -2q0 -1 2 -3q3 -1 4 2t-2 3q15 -5 18 -12q5 -2 4 0q2 0 1 -2q-1 -3 1 -4q2 0 3 1q2 2 3 2q3 -1 9 -6q5 -3 10 -4q-2 -4 1 -7q2 0 3 2q1 1 3 1q2 -2 11 -7q7 -3 9 -8q2 -1 3 1q2 1 3 0q-3 -7 1 -8q2 0 3 2t3 2q2 -1 9 -6q5 -4 9 -4q-2 -4 1 -7 q8 2 9 0t-5 -3q3 -5 6 -3t0 6q2 0 7 -4q4 -3 8 -4q-2 -2 1 -5q2 -1 4 1q1 1 2 0q-3 0 -1 -5q1 -2 3 -3q1 0 3 2q1 2 -1 3q13 -3 16 -11q7 -1 6 0q1 -1 -1 -2q-1 0 -1 -2q0 1 4 -2q2 -1 3 1t2 1q6 -3 124 -67q33 -18 40 -24q23 -20 9 -40q-6 -7 -49 -31zM1161 1239 q51 -130 83 -212h-42q-11 27 -16 41h-95q-2 -2 -17 -41h-43q11 25 42 106q26 66 42 106h46zM1293 1239q12 1 18 0q3 -1 28 -36q75 -101 82 -109v145h37v-212q-4 1 -17 0q-12 -2 -18 0q-1 1 -28 38q-16 21 -42 57q-33 44 -41 55v-150h-37v106q-1 66 1 106q4 -2 17 0z M1618 1234q46 -10 67 -44q25 -41 11 -88q-13 -45 -49 -63q-23 -11 -136 -12v209q0 2 1 3q70 3 106 -5zM1819 1239q43 1 63 -13q30 -22 23 -67q-8 -45 -48 -49q7 -14 25 -42q19 -29 25 -41h-43q-7 13 -23 39q-15 26 -23 40h-37q-1 -15 -1 -39q1 -33 1 -40h-37v106q0 66 1 106 q-2 0 74 0zM2044 1241q65 5 97 -44q21 -33 17 -79q-3 -39 -30 -65q-26 -26 -63 -29q-84 -9 -114 61q-12 27 -8 62q4 33 20 54q27 37 81 40zM2239 1239v-212h-37v209q0 2 1 3h36zM2464 1194q17 -26 17 -60q1 -44 -26 -74q-26 -30 -71 -33q-15 -1 -44 0q-32 1 -48 0v209 q0 2 1 3q137 6 171 -45zM2722 1239q88 -224 83 -212h-43q-5 15 -15 41h-95q-4 -6 -16 -41h-43q83 211 84 212h45zM4267 1216q-3 77 -45 132q-40 54 -104 73q-27 8 -168 8h-3537q-164 0 -175 -1q-73 -6 -126 -52q-50 -44 -68 -110q-7 -27 -7 -170v-884q2 -72 47 -129 q41 -51 105 -72q33 -11 166 -11h3713q80 4 131 45q53 42 64 114q4 23 4 173v884zM2245 297q-26 -32 -8 -71q22 -45 97 -52q77 -7 104 37q18 30 4 60q-7 17 -41 43q-27 20 -29 20q-5 2 -30 0q-71 -6 -97 -37zM3683 498q-30 1 -46 0q-67 -5 -87 -47q-11 -21 -1 -45 q13 -34 59 -36q41 -3 77 18q39 23 44 49q2 11 1 29q-2 21 -1 32q-15 -1 -46 0zM2275 605q-20 -31 -6 -81q12 -45 37 -66q22 -19 51 -15q41 5 50 48q8 36 -9 80q-26 65 -75 62q-33 -3 -48 -28zM3163 610q-34 -26 -37 -40v-138q22 -37 60 -55q44 -21 88 -2q36 17 53 59 q16 39 11 85t-30 78q-27 34 -67 37q-41 3 -78 -24zM2840 622q-24 23 -56 20q-40 -5 -58 -42q-17 -35 -9 -86q2 1 107 46q31 14 33 20q6 18 -17 42zM1921 598q-10 -18 -12 -42q-6 -87 37 -149q20 -27 43 -37q33 -14 66 1q30 13 44 39q20 40 8 104q-10 57 -34 88 q-31 43 -76 41q-52 -3 -76 -45zM1563 593q-23 -48 2 -129q20 -67 62 -90q20 -11 43 -10q64 3 80 69q13 57 -10 123q-32 90 -100 87q-55 -3 -77 -50zM2680 1150q-13 -33 -19 -50h76q-33 87 -39 100q-6 -16 -18 -50zM1119 1150q-13 -32 -18 -50h74q-26 73 -38 100 q-5 -16 -18 -50zM3130 1205q-11 1 -55 1q1 11 -1 -67q44 -2 62 3q29 8 24 37q-3 21 -30 26zM2872 1203v-64q50 0 60 2q28 5 28 31q0 24 -27 31q-17 5 -59 3q-2 -1 -2 -3zM2329 1060q114 -12 114 73q0 84 -113 73q-1 0 -1 -3v-143zM1867 1162q5 17 -4 30t-81 14q-1 -1 -1 -3 v-64q73 5 67 2q14 6 19 21zM1548 1060q80 -7 103 31q16 25 10 56q-6 32 -28 47q-17 11 -84 12q-1 0 -1 -3v-143zM3369 1179q-11 -17 -13 -39q-2 -37 20 -61q23 -27 60 -23q26 3 44 25q17 22 17 52q0 36 -22 58q-23 22 -60 17q-30 -5 -46 -29zM2113 1099q10 25 5 52 q-6 28 -26 43q-21 18 -54 14q-54 -8 -58 -68q-3 -43 27 -69q32 -28 73 -9q23 10 33 37z" />
<glyph unicode=":" horiz-adv-x="2350" d="M995 819q-21 15 -25 40q-4 26 15 42q21 17 65 11q31 -11 26 -54q-4 -41 -31 -49q-28 -8 -50 10zM922 618q-356 -13 -711 0v476q0 11 10 14q63 -1 353 1q218 1 348 -6v-485zM140 860q0 59 12 91q4 1 8 -2q4 -2 7 -3q0 -1 4 -41q2 -30 3 -50q1 -62 -17 -80q-18 19 -17 85z M873 1152h-481q-228 0 -245 -5q-49 -14 -56 -98q-2 -29 0 -82q2 -72 2 -89q0 -22 -2 -84q-1 -55 -1 -86q2 -96 28 -120q21 -19 103 -21q27 0 69 1q49 1 58 1h505q15 0 64 -2q44 -1 69 -1q80 2 103 22q27 25 28 112q1 27 -1 79q-3 56 -3 79q0 15 2 68q3 51 3 82 q-1 101 -24 125q-20 19 -221 19zM1180 998q48 82 51 91q3 -1 7 -5q4 -5 8 -5q-90 -192 -89 -187q-9 51 23 106zM889 541q-57 0 -152 4q-96 4 -119 4h-265q-9 0 -56 -1q-44 -2 -72 -1q-90 1 -117 22q-26 20 -32 102q-2 28 -2 158q0 21 -3 115q-3 67 0 103q9 103 76 120 q20 5 250 5h481h142q76 -6 98 -39q28 -42 24 -138q-1 -24 -5 -76q-4 -47 -4 -66q0 -18 2 -69t2 -78q0 -93 -24 -122q-34 -43 -224 -43zM1138 1157q-12 -5 -34 11q-27 20 -45 24q-40 7 -139 1q-104 -6 -145 -1q31 12 111 33q75 19 110 35q19 -11 142 -103zM2256 421 q-8 6 -29 22q-20 14 -30 23q-63 53 -159 134q-115 96 -150 126q-59 143 -204 257q-65 51 -281 179q-6 5 -192 142q-12 10 -44 37q-33 29 -52 43q-66 50 -110 48q9 0 -103 -30q-51 -13 -103 -29q-9 -3 -46 -12q-35 -8 -56 -15q-68 -22 -79 -51q-9 -26 4 -58q3 -9 11 -25 l10 -20q-65 -12 -264 3q-183 14 -251 -8q-64 -21 -74 -119v-195q0 -255 5 -270q19 -57 96 -69q26 -4 164 -4q529 0 623 -5q-29 -7 -110 -4q-66 3 -96 -16q-42 -25 -29 -89q12 -62 58 -78q57 -1 162 16q93 15 147 9q-8 1 240 -83q10 -4 87 -33q54 -20 87 -28q100 -25 160 16 q30 -19 171 -122q11 -8 39 -32q30 -24 46 -37q59 -43 97 -44q56 -1 107 55q18 19 69 97q8 11 34 45t40 55q47 72 39 121q-4 23 -34 48z" />
<glyph unicode=";" horiz-adv-x="1007" d="M605 359q4 -5 4 -10q4 -2 -11 13q3 3 7 -3zM813 213q-1 8 -3 11q-5 10 -28 30q-105 89 -130 145q14 10 13 26q0 17 -17 17q8 0 -43 -41q-37 47 -56 50q-12 -8 -8 -27q7 -30 6 -34q15 -19 40 -51q28 -38 39 -52q42 -54 56 -65q2 -2 8 -5q6 -4 8 -6q-2 2 19 -28 q11 -17 28 -17q6 15 -4 33q1 -3 -20 27q-102 140 -108 164q4 -1 11 -4q8 -3 11 -4q51 -86 131 -166q4 -4 20 -24q14 -16 24 -24q29 -24 58 -4q-5 11 -25 21q-22 10 -27 18q-2 3 -3 10zM723 897q-12 1 -13 13q11 -6 13 -13zM521 986q-3 13 -16 17q-4 -2 -4 -18q1 -16 -6 -21 q-2 90 -2 91q24 -11 36 -46q3 -11 8 -32q6 -23 9 -32q-1 -4 -2 -2q-4 3 -6 2q-3 -1 -15 -11q-9 -7 -18 -7q-1 9 8 14q16 10 14 8q1 5 -5 6q-6 3 -6 5q7 14 5 26zM684 672v-12q-4 -19 -26 -30q-5 -3 -19 -8t-21 -9q-1 -4 3 -7q3 -2 3 -6q-9 -1 -19 1q-12 3 -17 3 q-15 25 -18 26q15 21 14 43q-1 25 -31 24q0 2 12 30q7 18 -5 28q-16 -3 -52 -32q-40 -32 -54 -29q-6 1 -10 8q-4 9 -8 12q13 25 69 108q-6 3 -14 -2q-9 -6 -14 -5q1 15 17 35q15 20 16 32q3 8 12 17q12 11 14 14q-7 15 4 17q4 -1 4 -13q0 -11 9 -9q6 1 8 13q1 13 5 15 q47 -7 56 17q-8 21 -52 9q-14 32 -6 54q21 11 23 13q1 9 -8 15q-10 6 -9 13q-2 4 -11 4q0 2 2 8q2 4 1 9q-18 16 -35 16q-6 12 -16 31q-12 24 -16 31q-6 1 -9 -3q-1 -1 -2 -4t-2 -4q-7 93 47 108q1 -9 -10 -38q29 -37 34 -41q4 -2 14 -5t14 -6q12 -9 23 -30q16 -29 20 -35 q0 -3 -4 -6q-4 -2 -4 -5q2 -4 25 -11q16 -23 61 -155q1 -1 -46 2q-2 -9 10 -15q3 -2 11 -5q7 -3 10 -4q10 -20 24 -43q5 -37 -8 -89q-18 -70 -19 -81q-1 -4 0 -14zM499 468q6 0 9 -3q4 -4 0 -8q-7 0 -9 11zM458 494q-21 1 -28 11q-7 -3 -25 -22q-14 -14 -29 -15 q-23 -2 -37 20q-8 12 -19 45q-1 4 -7 6q-7 3 -8 5q-16 35 -9 34q-4 0 -11 -4q-3 -1 -8 4q-9 -6 -17 -25q-9 -19 -16 -25q8 75 67 123q50 40 89 39q2 -3 8 -60q3 -33 24 -55q4 -4 45 -34q-3 -2 -11 -2t-10 -2q-1 -13 17 -26q1 -9 6 -20q7 -13 9 -17q-1 0 -17 -2q4 -6 -13 22z M465 348q-13 15 4 27q4 -4 10 -12q7 -9 11 -12q-13 -18 -25 -3zM251 692q-1 -4 3 -5q3 -2 3 -5q-18 -5 -15 -5q-1 6 -4 7q4 8 13 8zM231 584q-1 -14 -17 -66q-3 20 17 66zM160 614q-7 14 -15 18q0 4 4 11q46 -10 65 -5q-5 -9 -21 -23q-15 -12 -20 -22q-4 4 -13 21zM132 691 q5 -1 5 -7q-3 0 -7 2q-3 2 -6 2q2 4 8 3zM138 790q71 -15 65 -14q35 -3 39 -15q-31 3 -43 -15q-13 -18 2 -41q-10 2 -45 6q-28 4 -43 9q-44 15 -39 63q22 15 64 7zM81 706q-2 5 -1 10q9 -1 19 -12q9 -12 20 -12q-4 -4 -16 0q-13 6 -20 5q0 2 -2 9zM173 805q3 5 26 12 q-7 -18 -26 -12zM193 876q-8 -31 -34 -15q-24 14 -31 38q27 16 65 -23zM146 841q7 -4 8 -10q6 4 -19 14q4 0 11 -4zM149 809q-13 1 -14 9q4 1 12 0q8 -2 15 0q1 -10 -13 -9zM96 964q1 -6 -3 -13q-4 -8 -4 -11q10 -3 23 1q14 5 25 4q32 -3 64 -43q19 -23 15 -39q-3 2 -12 2 q2 20 2 19q-16 16 -41 23q-29 9 -52 -1q-11 -20 4 -52q-21 2 -39 27q-25 35 -32 40q13 39 50 43zM150 1033q2 -7 -9 -10q6 10 9 10zM80 1066q2 7 12 15q9 9 12 15q1 4 -3 10q-3 4 -1 7q49 5 52 -56q-3 2 -7 13q-2 9 -10 9q-1 -1 -12 -25q-7 -16 -23 -16q-2 21 -20 28z M55 1193q-3 -1 32 -28q-1 1 15 -7q6 -14 32 -23q-9 -1 -43 23q-30 20 -36 35zM133 1200q2 -29 1 -50q-6 4 -11 11q-6 9 -10 12q-3 2 -14 7q-8 4 -12 9q-34 47 -24 45q3 14 28 18q24 4 39 -5q0 -7 3 -47zM231 1415q64 7 225 -8q11 -12 11 -80v-87q4 -68 -2 -80q-7 22 -9 73 q-2 55 -5 72q-12 -1 -13 -17q0 -5 1 -13v-13q0 -107 15 -384q-40 -5 -109 -8q-91 -3 -113 -5q1 15 -20 33q-23 20 -26 30v95q0 34 -3 128q-2 80 -1 128q1 5 -6 5q-9 1 -9 4q1 16 -1 53q-1 32 1 50q17 19 64 24zM478 1029q3 -3 -9 67q4 -7 9 -67zM222 812q14 4 29 -1 q9 -10 2 -21q-19 -6 -37 0q-9 16 6 22zM231 728q-18 8 -25 10q17 18 49 15q33 -4 30 -33q-8 2 -10 9q-3 12 -3 13q-5 -2 -8 -11q-4 -9 -7 -11q-11 2 -26 8zM305 680q-15 -31 -46 -50q-1 -6 33 58q7 0 13 -8zM488 910l4 -8q1 -13 -11 -38q-15 -30 -17 -44q-1 -3 0 -11v-9 q-4 -15 -17 -34q-16 -24 -17 -26q-24 -2 -64 -4q-53 -3 -65 -3q-12 17 -59 44q2 2 10 3t10 3q6 15 -3 35q-1 1 -34 2q-1 6 11 32q29 -6 177 7q51 5 54 8q5 75 8 78q5 0 5 -8q2 -15 2 -16q2 -4 6 -11zM557 1187q-15 3 -21 16q-6 14 2 27q19 -10 19 -43zM851 410q4 -5 -63 78 q-66 83 -60 153q2 21 11 69q8 47 10 69q1 14 0 40q-1 25 0 35q4 50 3 54q-3 16 -24 44q-25 35 -31 47q-20 40 -25 49q-5 10 -15 22q-13 16 -16 21q-6 8 -22 34q-13 22 -21 33q-3 3 -9 11q-6 6 -8 9q-46 80 -56 86q-10 -1 -23 -11q-14 -9 -20 -10q-2 21 -1 77q0 57 -3 87 q-12 23 -46 27q3 0 -75 0q-166 0 -195 -4q-29 -24 -32 -43q-2 -12 2 -23q5 -13 5 -16q1 -5 -3 -14q-4 -10 -4 -14q-1 -6 2 -31q2 -18 -4 -27q-49 15 -80 -17q-28 -28 4 -67q-2 3 57 -52q-24 2 -41 -15q-15 -17 -19 -43q-4 -25 5 -47q9 -24 29 -31q3 -1 14 -1q9 -1 14 -5 q-40 -5 -64 -33q-27 -31 -12 -69q5 -14 28 -32q23 -19 28 -30q-24 1 -36 -20q-11 -21 -5 -51q1 -5 7 -14q6 -10 8 -15q1 -6 3 -21q1 -14 4 -20q5 -12 21 -25q19 -16 24 -22q1 -2 4 -7q2 -6 3 -8q11 -15 23 -47q12 -35 20 -48q4 -7 24 -34q52 -67 79 -95q8 -8 32 -26 q21 -16 31 -28q4 -5 15 -19q9 -11 15 -18q74 -80 93 -108q17 -26 49 -85q29 -56 50 -85q11 3 21 -11q11 -14 24 -13q4 4 -2 30q16 15 20 57q1 10 2 37q1 24 2 36q10 -5 29 -27q17 -19 34 -23q10 11 0 23q-17 22 -16 20q0 5 -2 15q-157 190 -190 218q5 7 12 21q9 15 13 21 q15 23 38 29q7 2 21 1q16 0 22 1q21 3 53 14q43 16 49 17q2 7 8 18q6 14 8 19q7 22 -12 32q-5 -1 -8 -11q-3 -12 -5 -15q-33 -15 -64 -20q-43 -6 -55 16q123 30 143 43q0 -11 2 -13q34 -29 76 -91q51 -76 70 -97q21 -28 83 -104q21 -26 34 -26q-9 29 -52 89q-10 14 -62 80z M396 790q-6 19 8 24q12 4 30 -3q4 -9 0 -19q-22 -8 -38 -2zM387 789q22 -14 44 -8q25 8 16 39q-9 9 -32 8q-23 0 -28 -11v-28zM305 785q-7 15 0 30q18 6 41 0q3 -27 2 -28q5 1 -43 -2zM298 768q61 -1 69 17q0 31 -10 46q-5 -1 -40 1q-24 2 -31 -12q-1 -43 12 -52zM404 1304 q12 -1 18 0q20 1 23 12q-11 6 -73 6q-67 0 -89 -4q-101 -17 -93 -9q31 -4 197 -4q4 0 17 -1zM355 1402q7 0 -33 0q-6 0 -24 1h-21q-22 -2 -22 -16q6 -10 59 -11q54 -2 56 13q2 12 -15 13z" />
<glyph unicode="&#x3c;" horiz-adv-x="3138" d="M2735 463q-2 1 -4 1q-44 -24 -117 -94q-54 -52 -51 -67q2 -14 25 -25q5 -3 21 -6q18 -4 25 -7q54 -19 79 -15q4 27 -25 37q-31 11 -34 24q-3 20 20 45q27 31 31 44q3 4 12 13q8 9 12 14q14 17 9 34q-1 0 -3 2zM2682 455q17 34 -7 40q-16 3 -38 -30q-23 -36 -36 -37 q-3 1 -8 5t-10 3q-85 -33 -89 -33q-11 0 -29 11q-18 12 -30 12q-14 43 -18 46q-14 -61 49 -125q45 -47 94 -16q42 27 92 79q19 20 30 45zM2113 778q10 -1 14 5q0 9 -9 9q-9 1 -14 -4q0 -9 9 -10zM1874 986q-1 -28 21 -22q23 5 18 25q-4 12 -19 13q-15 2 -20 -13q-9 27 18 29 q27 1 38 -16q0 -31 -21 -43q-22 -12 -45 7q0 20 10 20zM1877 1035q-28 -28 -33 -77q20 -31 79 -20q22 47 23 76q-45 22 -69 21zM2331 783q4 -21 22 -50q24 -40 26 -45q19 -40 18 -56q-1 -24 -31 -45q-29 -22 -53 -16q6 5 16 12q13 7 17 9q17 13 18 32q1 27 -24 56 q-25 28 -45 26q-14 -1 -23 -13t-5 -28q-6 7 -10 22q-5 19 -8 24q0 5 5 8t5 7q-1 21 -25 49q24 24 61 25q-8 15 -26 24q-20 9 -35 2q-4 7 -9 25t-9 26q-7 3 -11 -3q-4 -5 -7 -2q-1 2 -20 86q21 17 28 56q2 2 35 9q21 5 26 17q-7 18 -46 19q-40 1 -46 -19q-3 3 1 11q4 11 2 17 q57 48 211 15q38 -8 46 -18q-76 -7 -101 -82q-18 -57 -9 -162q3 -24 6 -38zM2399 686q34 9 54 -24q7 -13 0 -22q-8 -11 -33 -10q-11 15 -21 56zM2291 635q-5 26 -6 40q23 7 39 -5q14 -10 17 -30q3 -19 -7 -32q-12 -15 -37 -14q-1 14 -6 41zM2206 609q16 -45 -54 -48 q41 17 54 48zM2142 668q31 -3 41 -37q11 -34 -28 -37q-8 27 -13 74zM2081 703q-14 14 -13 26q34 -15 54 10q-1 23 -28 23q0 4 -5 27q-2 10 7 19q-9 12 -23 4q-24 -15 -23 -14q-70 162 -28 270q0 5 -15 5q-19 24 -64 37q-13 3 -41 9q-27 6 -40 10q3 6 16 18q12 10 14 20 q-9 4 -18 -5q-12 -11 -20 -12q-32 -7 -89 14q-53 20 -69 39q-19 22 -13 52q6 31 38 32q-4 0 41 -15q4 -1 64 -19q43 -12 71 -24q46 -20 64 -26q62 -19 130 -107q-36 -1 -42 -2q-21 -3 -24 -18q61 -1 84 -3h26q16 1 25 -2q-8 -23 0 -110q0 -5 -5 -8t-5 -7q0 -24 8 -61 q11 -52 12 -59q1 -4 0 -11q0 -9 1 -12q1 -14 12 -18q-8 -5 0 36q24 -67 25 -202q-20 39 -48 59q-39 26 -74 -3q7 16 -5 28zM2113 627q5 -22 -2 -33q-17 0 -18 27q-2 25 8 37q8 -12 12 -31zM2122 563q-11 -3 -22 3q-13 7 -12 20q35 -23 34 -23zM1981 635q1 1 -66 -16 q44 21 63 94q4 17 14 65q8 41 15 63q35 -27 10 -122q-18 -69 -36 -84zM1964 1058q-70 -2 -130 41q110 -3 130 -41zM1576 760q-42 10 -132 31q-86 21 -133 32q-7 37 8 102q15 63 7 97q-16 72 -112 194q0 2 3 2q426 -104 772 -198q-1 -58 -28 -194q-13 -63 -20 -81 q-15 -35 -49 -49q-64 1 -316 64zM1512 684q-4 6 -5 12q-3 -1 36 -5q-2 -8 -26 -18q0 2 -5 11zM1427 642q-36 10 -60 8q-4 0 -64 -11q-46 -8 -76 -7q-9 51 -5 49q-11 -2 -15 -17q-5 -23 -6 -24q-44 2 -87 -16q-79 -32 -73 -30q-2 38 -10 94q50 43 68 84q29 1 59 -25 q29 -27 59 -26q5 -2 7 6q3 11 5 12t14 3q13 1 17 2q9 4 19 13t14 10l43 -7q89 -16 125 -35q61 -34 28 -95q-20 0 -62 12zM1107 1032q6 -5 3 -23q-8 6 -11 16q6 2 8 7zM1112 808q35 -4 49 -13q-15 -7 -49 3v10zM1286 887q17 -30 -1 -68q-19 -38 -53 -11q31 61 54 79z M1197 1269q5 1 15 0h15q15 -20 18 -28q-21 5 -44 -5q-15 6 -20 21q1 11 16 12zM1153 1287q18 7 23 3q-9 -18 -8 -13q-15 -2 -15 10zM842 1249q13 28 61 66q100 80 156 87q15 2 42 3q31 1 44 2q83 8 115 -15q48 3 78 -27q10 -10 23 -29q16 -25 21 -31q9 -3 31 -7q21 -4 31 -8 q-17 -54 -93 -38q-23 5 -63 19q-42 16 -53 19q-3 4 -3 16q0 13 -3 17q-22 -2 -51 -9q-41 -10 -48 -12q-4 1 -3 -6t-2 -6q-49 1 -283 -41zM1402 1342q21 -13 29 -17q-18 -11 -41 1q-22 13 -18 30q13 -4 30 -14zM1509 1181q-32 8 -50 14q61 4 102 -28q-10 3 -52 14zM2012 390 q-3 -3 -9 -1q-7 3 -6 9q6 -1 7 5q7 0 8 -13zM1008 673q9 -10 11 -39q0 -26 -6 -43q-15 65 -5 82zM967 561q-1 -26 -2 -37q-4 -41 -24 -55q-9 -6 -29 -9q-23 -3 -34 -9q-1 19 -3 21q-12 -5 -25 -24q-13 -20 -23 -25q-1 -3 28 62q19 43 5 78q-11 -40 -43 -86q-46 -68 -51 -77 q-14 -3 -21 -2q-5 -1 -7 7t-6 8q-8 -3 -19 -15q-10 -13 -19 -16q3 12 16 38q11 21 10 36q-1 4 -4 12q-4 7 -4 11q0 10 6 32q8 28 9 37q7 42 8 43q9 15 36 18q9 1 24 2q17 0 22 1q35 3 87 22q76 27 81 29v-56q1 -6 -6 -6q-9 0 -10 -2q-1 -13 -2 -38zM2876 596q-4 14 -12 34 q-8 19 -11 30q-3 10 -6 28q-4 19 -7 28q-13 53 -76 194q-28 64 -49 89q-60 77 -237 74q-66 34 -170 43q-39 4 -91 -9q-55 -13 -88 -11q-17 11 -46 42q-32 36 -51 50q-15 12 -142 61q-30 11 -130 43q-34 11 -43 12q-24 3 -39 -12q-19 -24 -8 -61q3 -10 26 -56q-30 8 -136 31 q-86 18 -132 35q39 17 38 72q-18 21 -81 53q-6 3 -44 27q-27 18 -45 22q-9 2 -22 0q-15 -1 -19 0q-6 0 -17 5q-10 4 -16 5q-67 8 -161 0q-54 -5 -137 -69q-57 -44 -92 -76q-40 -38 -59 -41q-133 -25 -125 -23q-66 -17 -91 -56q0 -5 -2 -11q-2 -7 -1 -12q-11 -8 -17 -27 q-8 -27 -11 -32q-9 -16 -32 -43q-25 -29 -34 -43q-11 -17 -115 -197q-9 -15 -27 -51q-16 -34 -27 -51q-41 -68 -53 -99q-135 -344 -130 -337q-2 -24 -25 -52q-24 -29 -26 -52q-14 -20 -12 -16q-6 -10 2 -17q11 -1 15 7q2 3 5 18q16 8 28 32q16 31 21 37q2 3 10 8q7 4 10 7 q1 2 41 72q89 156 102 301q7 12 24 42q16 28 27 44q8 13 30 39q21 25 31 40q21 35 52 123q27 79 52 109q5 6 41 29q30 19 31 32q0 8 -10 20t-11 19q19 30 87 45q4 1 12 2q10 0 14 1q16 3 17 15q-14 4 -44 -1q-32 -6 -42 -4q36 34 160 49q49 5 148 31q95 24 138 27q64 6 84 3 q17 -3 69 -54q50 -49 91 -132q38 -75 13 -163q-56 -19 -79 -105q8 -6 25 -18q20 -14 29 -20q-70 -26 -95 50q-22 67 3 141q-6 7 -25 16q-16 7 -21 20q-3 8 -4 29q0 20 -4 29q-3 9 -14 21q-10 11 -11 20q0 3 2 10t3 11q1 13 -10 15q-10 1 -12 -10q-4 -14 -6 -16q-33 3 -98 27 q-59 21 -98 19q7 -18 34 -25q54 -13 47 -10q22 -9 56 -31q10 -4 30 -7q22 -4 31 -7q33 -10 34 -40q-13 14 -21 13q-4 -4 -20 -13q-2 -7 2 -15q4 -6 0 -10q-5 -5 -24 -10q-16 -6 -21 -13q10 -15 44 -7q25 5 40 15q-2 -26 -7 -71q-7 -60 -9 -72q-6 -61 -45 -102 q-25 -26 -85 -59q-45 -25 -58 -23q28 28 61 97q4 1 12 -3q6 -3 11 1q3 12 -7 21q-12 12 -14 19q0 4 2 12q3 9 4 11v19q-1 13 0 20q0 6 14 52q9 31 -2 44q-8 2 -16 -2q-10 -5 -14 -5q-26 9 -94 55q-56 37 -100 42q8 -14 71 -49q103 -56 128 -117q-7 -13 -36 -31 q-26 -17 -30 -38q13 -10 29 2q19 14 29 14q-1 -55 -28 -98q-13 -19 -59 -68q-18 3 -92 -17q-60 -16 -78 7q-19 23 11 65q30 41 55 34q15 -71 56 -69q-3 9 -24 38q-16 21 -14 46q5 3 18 5q16 2 20 4q23 5 15 24q-8 5 -17 1q-12 -6 -18 -6q-5 19 -22 33q-5 4 -16 12 q-11 7 -16 11q2 6 -2 23q-11 1 -18 8q-10 10 -16 13q-2 -27 19 -52q6 -8 19 -19q15 -15 19 -18q-15 -23 -46 -28q-84 -15 -171 25q23 -52 89 -64q-7 2 28 -1q16 -1 23 -11q-20 -27 -15 -77q-1 0 -10 8q-7 5 -13 0q-8 -21 -14 -71q-5 -46 -17 -67q-2 -5 -18 -23 q-12 -13 -12 -25q6 -2 19 -13q10 -9 16 -8q10 7 8 31q52 37 54 150q33 -12 29 -51q-2 -16 -22 -74q-20 -59 -36 -84q10 0 -30 -25q-12 0 -15 -3q-39 -51 -144 -72q-107 -21 -175 14q6 -39 58 -55q34 -11 105 -14q0 -27 -36 -89q-3 -7 -17 -27q-12 -18 -17 -29q-17 -34 6 -52 q5 -1 14 3q7 3 9 0q-64 -58 -18 -79q4 2 41 38q3 0 8 -3q4 -3 10 -2q13 26 32 71q21 51 30 70q37 77 86 114q10 8 31 15q25 9 33 13q6 4 18 13q11 10 17 13q19 8 74 20q49 11 72 25q3 3 11 9q7 7 12 9q10 7 40 19q26 11 39 20q8 6 16 21q9 17 14 22q4 4 15 8q12 4 16 7 q5 4 13 14q7 11 12 14q15 11 54 23q7 2 31 12q18 7 27 9q19 2 59 0q41 -3 61 0q139 16 202 15q10 -31 42 -40q9 -3 72 -9q37 -3 133 -48q52 -25 147 -72q97 -48 146 -71q14 -6 51 -21q31 -13 48 -22q145 -76 199 -92q98 -28 143 -61q18 -13 38 -23q184 -90 260 -105 q88 -16 112 -5q-20 72 -12 64q-12 3 -36 5q-30 2 -39 3q-43 6 -38 38q-3 1 78 -27q47 -16 83 -9q7 17 0 33q-3 3 -61 13q-54 10 -132 44q-98 45 -123 53q-5 0 -5 -9q-1 -9 -5 -9q-30 30 -77 46q17 32 -33 56l-12 -6q-7 -4 -13 -4q-33 15 -44 31q1 -1 -7 16q-4 10 -13 12 q2 2 2 -28q-9 1 -15 -5q-8 -8 -13 -8q-26 22 -35 46q-3 6 -7 33q-3 21 -11 30q-8 -2 -8 -17q0 -29 0 -26q-21 -1 -24 -37q-4 -40 -14 -47q-24 0 -52 23q-37 30 -50 36q4 -2 -78 22q-43 14 -54 41q-19 -7 -34 0q-45 47 -38 46q-5 1 -16 -5q-12 -5 -17 -5l-36 26q-6 4 -99 40 q-5 0 -10 -6q-4 -5 -10 -4q-17 1 -45 18q-29 18 -45 20q-8 2 -22 -2q-16 -3 -24 -3q-7 1 -18 7q-12 7 -17 9q-96 24 -89 17q29 15 30 54q38 36 109 32q43 -3 121 -27q18 -6 55 -13q33 -7 46 -13q31 -11 41 -20q4 -3 9 -18q5 -12 12 -12q9 21 55 33q49 12 59 30q-5 36 11 49 q18 -154 96 -156q60 -2 85 33q17 25 9 72q-11 67 -9 84q117 -182 91 -174q67 -4 97 59q2 -3 13 -9q8 -5 10 -11q-23 -16 -36 -44q-15 -32 -2 -58q7 5 24 41q12 27 37 28q3 20 29 55q26 34 30 59q2 15 2 45q0 29 3 42q2 11 41 79q0 4 -5 6t-3 7q14 9 40 22q37 17 44 21 q62 33 61 64q-20 -7 -54 -33q-31 -25 -55 -31q26 67 43 97q-22 2 -33 -20q-3 -6 -8 -20q-4 -13 -8 -19q-6 -12 -61 -51q4 13 39 61q26 35 17 74q-7 -8 -24 -46q-14 -31 -32 -40q-22 46 -43 53q-4 -9 2 -20q10 -19 11 -21q9 -28 3 -69q-6 -38 -19 -55q0 -5 4 -12q3 -7 2 -14 q-10 18 -32 16t-22 -21q0 -18 24 -26q23 -7 40 6q19 -116 -28 -141q10 11 9 32q-2 19 9 27q-6 5 -19 21q-11 13 -20 17q-7 4 -18 4q-12 1 -15 1q-56 15 -67 101q-4 32 1 159q41 74 166 72q115 -2 175 -56q49 -44 51 -97q5 1 -27 -5q-16 -2 -18 -13q1 -2 45 -17 q28 -10 16 -42q17 -13 21 -41q4 -26 -6 -53q-4 -5 -28 -16q-18 -8 -18 -25q9 -3 43 4q30 6 41 -6q-5 -32 -49 -57q-46 -26 -53 -53q18 0 46 16q26 15 43 12q-6 -14 -41 -41q-30 -24 -30 -48q17 4 39 25q21 21 38 26q12 -9 34 -3q28 8 42 5q31 -38 92 -63q83 -35 120 -21 q0 24 -23 30q-8 2 -21 4q-16 1 -20 2q-93 19 -148 76z" />
<glyph unicode="=" horiz-adv-x="924" d="M474 714q-14 7 -21 22q-8 15 -3 28q5 15 26 21q35 10 45 -25t-17 -47q-15 -7 -30 1zM467 1351q-13 -1 -19 -1q-22 1 -24 12q14 12 61 12q43 -1 63 -9q1 -14 -21 -15q-7 0 -21 1q-15 1 -20 1t-19 -1zM606 1407q-19 0 -52 -2q-34 -2 -44 -2h-193q-36 -9 -41 -107 q-1 -31 1 -84q2 -64 2 -75q0 -223 7 -259q22 9 25 39q-1 -6 -1 55q0 298 7 352q31 -1 173 0q107 1 169 -3q0 -27 1 -252q0 -160 -4 -249h-222q-14 -13 -73 -55q-46 -32 -68 -59q30 -20 85 -21q17 0 48 2q33 1 46 1q172 1 194 4q8 12 21 21q3 88 3 507q0 156 -7 166 q-13 20 -77 21zM532 674q-88 0 -136 1q-82 0 -79 0q-9 1 -27 16q-14 11 -28 8q8 13 86 72q80 61 83 76q5 28 -12 50q-16 23 -43 23q-29 0 -90 -56q-61 -57 -86 -58q2 14 30 32q32 21 39 33v377v107q6 53 45 62h348q37 -12 43 -74q-1 10 -1 -130v-338q0 -130 0 -127 q-5 -59 -42 -73q-39 0 -130 -1zM794 843q-19 -7 -46 -21l-30 -16q-5 27 19 48l46 31q38 26 47 36q21 23 12 54q-9 33 -57 30q-39 -2 -67 -20q-1 38 67 89q64 48 54 94q-1 4 -28 32q-30 6 -57 -10q-34 -21 -36 -22q2 21 -1 56q-3 31 1 48q2 10 16 34q11 18 8 35l-31 45 q-26 37 -38 42q-10 3 -180 3q-10 0 -77 2q-47 2 -75 0q-80 -7 -86 -57q-8 -61 -2 -182q7 -131 2 -198q-13 -21 -77 -70q-57 -44 -72 -89q1 2 -24 -207q-24 -206 -24 -208q2 -16 20 -41q17 -26 18 -38l-24 -118q-23 -111 -21 -120q10 -48 121 -77q75 -20 169 -27q61 -5 80 14 q14 14 25 61q2 10 8 39q5 23 8 34q35 123 38 142q63 48 104 159q14 35 32 97q22 72 30 96q60 36 117 73q50 32 60 42q34 31 23 65q-12 41 -72 20z" />
<glyph unicode="&#x3e;" horiz-adv-x="2173" d="M1415 571q26 -7 84 -10q-1 5 -26 30q7 9 7 13q-11 13 -113 53q-12 4 -44 20q-26 12 -41 16q16 -28 62 -49q75 -33 76 -34q7 -1 -30 8q-19 4 -27 -6q5 -30 52 -41zM776 1239q15 -16 1 -43q-14 -25 -35 -25q-36 0 -25 68q44 17 59 0zM678 1122q-3 20 -3 96q0 63 -11 89 q-182 8 -304 -21q3 -12 17 -12q5 0 13 1q11 2 14 2q9 1 27 0q19 -1 29 0q165 15 199 11q-1 -31 3 -89q4 -62 4 -92q-18 -13 -40 -3q-28 14 -39 14q-35 -2 -45 -36q-14 -52 48 -89q98 -57 95 -54q-6 -44 6 -125q-53 -4 -144 -13q-103 -9 -145 -13q-8 75 -18 206 q-12 160 -16 207v16q1 14 0 19q0 21 -10 28q-4 -57 10 -176q3 -25 5 -71q2 -52 4 -73q1 -18 3 -86q1 -51 7 -82q97 -3 308 17q14 20 8 64q-10 77 -10 72q8 0 15 -6q7 -8 11 -9q7 -26 2 -89q-5 -55 8 -83q-11 -8 -31 -5q-19 3 -24 13q-54 -4 -49 -2q15 13 7 -87 q-129 -10 -189 -11q-9 20 -11 30q40 8 45 13q11 37 -22 44q-31 6 -51 -12q-4 9 -25 21q-19 12 -24 23q3 -5 -2 47q-7 90 -12 132q12 23 9 59q-1 11 -5 31q-3 20 -4 29q-4 33 -8 98q-4 70 -7 99q-10 96 19 124q2 0 79 8q53 5 84 2q-6 -5 -40 -7q-27 -1 -28 -16q-1 -30 126 -2 q3 18 -16 22q-5 1 -18 1q-12 1 -17 2q98 27 159 -4q18 -27 21 -96v-61q1 -37 3 -60q5 -66 -3 -78q-12 1 -17 23zM587 1101q16 1 34 -9q-7 -10 -26 -14q-18 -4 -31 2q3 19 23 21zM785 861q-3 -5 -15 -13q-9 -7 -9 -15q1 -11 22 -18q23 -8 25 -20q13 4 2 -45q-4 -18 -44 -17 q-39 19 -33 73q5 46 33 80q1 -1 19 -25zM785 833q3 10 14 8t7 -16q-10 0 -21 8zM630 735q34 9 42 2q-7 -3 -21 -12t-21 -13v23zM879 583q29 -39 50 -54q26 -18 75 -8q43 -71 25 -111q-29 -3 -106 36q-14 8 -38 24q-24 17 -34 23h-15q-40 23 -41 47q0 6 7 18q5 10 2 18 q4 0 -21 -23q-5 0 -16 7q-9 5 -16 3q-3 5 3 13t5 15q-6 3 -12 -5q-8 -9 -11 -10q-6 2 -13 12q-6 10 -13 11q3 52 -6 76q-14 33 -53 24q21 21 69 19q44 -3 69 -21q-3 -2 -12 -2q-8 0 -11 -4q9 -14 33 -28q30 -17 37 -23q4 -5 43 -57zM967 623q6 -53 7 -58q-29 6 -62 34 q-68 59 -68 113q22 -27 50 -38q34 -13 63 8q6 -19 10 -59zM997 555q-5 -1 -4 5v10q5 -3 4 -15zM689 676q10 -14 11 -34q-33 25 -36 38q14 13 25 -4zM647 576q9 -10 19 -29q15 -26 17 -28q-77 40 -98 76q37 10 62 -19zM551 557q-5 16 2 21q16 -2 68 -38q52 -37 53 -47 q1 -13 -14 -31q-18 -21 -20 -33q-81 103 -89 128zM463 619q2 -5 -1 -9q-6 0 -7 15q6 0 8 -6zM462 723q8 -17 4 -24q-23 -9 -43 -6q-11 6 -4 30h43zM422 482q9 -17 10 -23q-18 11 -40 45q-23 35 -39 46q-1 9 66 -121q-4 0 -7 4q-4 4 -8 5q-3 -2 -30 -18q-22 -12 -36 -18 q-46 -19 -74 0q-24 16 -62 78q-58 97 -55 172q0 5 -13 5q0 12 -12 27t-13 24q-1 6 21 78q2 5 11 31q6 19 9 32q9 37 -3 63q3 34 37 58q46 32 52 42q84 -5 88 57q21 -24 8 -96q-13 -71 -34 -76q-18 -5 -36 17q-20 24 -36 23q-2 -16 17 -29q24 -19 27 -24q7 -54 7 -53 q-29 5 -37 -15t24 -21q11 -15 34 -32q4 2 1 12q-2 8 3 9q12 3 21 -9q18 -23 15 -21q6 -4 20 -12q14 -7 21 -13q56 -53 81 -185q2 -15 2 -49q0 -28 6 -44q-12 5 -25 27q-14 22 -26 28q-2 -10 5 -24zM289 1037q-6 -2 -17 -5q-12 -4 -16 -6q20 26 51 37q-1 -18 -18 -26z M1862 614q-181 81 -229 121q5 -4 -128 175q-62 83 -110 114q-40 26 -109 19q-51 -4 -104 0q-21 2 -66 9q-46 8 -68 10q-78 7 -115 -19q-22 10 -74 3q-14 8 -44 16q-36 9 -47 13q-3 7 -30 26q66 99 64 87q7 45 -39 74q-7 1 -26 0q-17 -1 -22 0q-3 19 -5 55q-2 38 -4 53 q-8 58 -51 67q-5 1 -66 -5q-14 -1 -37 -2q-20 -1 -29 -2q-25 -3 -85 -3q-52 0 -76 -5q-41 -9 -50 -54q-5 -27 1 -95q9 -100 4 -187h-25q-49 -38 -68 -68q-86 -35 -115 -172q-15 -71 -26 -102q-17 -52 -17 -47q0 -5 5 -45q3 -32 22 -98q19 -64 22 -101q11 -129 -59 -323 q-14 -39 -13 -58q1 -25 15 -23q9 1 30 61q15 45 49 126q7 17 59 115q17 30 17 31q12 14 30 0q-5 -12 2 -20q2 -2 8 -7q5 -4 7 -7q-19 -7 -22 -73q-3 -67 20 -67q12 0 36 53q6 14 12 36q7 22 11 32q9 4 13 5q-1 14 4 19q99 18 92 19q7 4 25 28q14 18 32 16q19 22 10 65l-9 36 q-6 22 -7 33q19 -7 25 -2q1 -3 4 -9q2 -6 4 -9q5 -9 15 -9q6 -1 7 9q2 9 6 10q69 -94 77 -121q12 -47 -2 -103q-15 -55 -43 -76q-29 -22 -74 -11q-39 10 -66 37q8 5 23 9q20 7 25 9q27 11 26 39q-4 4 -16 11q-11 6 -16 10q-13 -18 -53 -25q-55 -11 -66 -15q12 -16 47 -41 q35 -24 45 -38q-11 5 -25 18q-16 14 -24 18q-4 0 -6 -7q-1 -7 -5 -8l-72 24q9 -18 51 -43q40 -23 64 -29q49 -68 46 -60q-78 51 -76 51q4 -9 18 -21t18 -21q-15 -12 -11 -38q3 -25 20 -33q-2 -6 -6 -16q-6 -13 -7 -17q-7 -20 4 -30q8 -8 30 -7q26 0 36 -4q12 19 33 66 q19 41 35 62q6 7 20 21q13 13 18 21q53 73 72 176q1 5 11 100q2 23 17 57q14 36 17 58q8 -9 21 -35q12 -22 24 -31q5 -3 18 -9q14 -5 20 -10q11 -9 35 -31t37 -33q74 -57 79 -59q8 -4 113 -36q73 -23 121 -28q28 -3 112 -9q73 -5 111 -10q61 -8 122 -56q77 -60 105 -72 q8 20 -13 35q-24 16 -23 25q16 -5 62 -35q36 -25 70 -22q12 20 -6 31q-6 3 -18 7t-17 6q5 62 -8 81q-5 7 -24 21q-16 11 -19 19q-6 20 8 57q14 36 5 58q-19 -8 -36 -47q-16 -38 -38 -44q-9 4 -13 23q-4 22 -8 28q-16 -2 -60 5q-31 5 -49 -7q-7 21 -21 29q-158 1 -196 5 q-45 4 -84 16q-54 17 -58 41q-2 9 2 30t2 32q-1 6 -7 19q-5 12 -5 21q5 17 29 13q30 -6 36 -2q2 40 -17 65q-10 -1 -21 6q-13 9 -19 9q-15 1 -37 -16q-25 -20 -37 -22q-17 31 -13 28q-7 -10 -9 -38q-2 -30 -8 -39q-11 15 -9 41q3 37 3 42q-4 25 -30 51q-18 17 -60 59 q-42 40 -61 60q-43 43 -41 40q-4 6 -11 20q-7 12 -12 17q-8 7 -28 15q-24 10 -32 14q-9 6 -25 21t-24 20q-9 5 -33 16q-23 9 -35 18q-43 29 -40 53q23 -9 55 3q38 15 56 14q2 4 -10 -11q-5 -8 -1 -15q13 -1 21 8q6 8 2 16q36 -5 87 -24q58 -22 83 -27q-2 -9 -16 -22 q-13 -12 -16 -23q13 0 22 12q11 13 21 14q0 -24 -26 -54q-7 2 -19 8t-19 7q-1 -14 14 -22q15 -7 31 -3q15 3 27 27q14 28 20 32q16 -9 76 -66q46 -43 92 -53q14 29 14 28q-7 5 -17 2q-14 -5 -19 -4q-5 0 -40 25q-40 29 -106 94q45 -3 134 -24q11 -2 47 -14q29 -9 46 -11 q36 -4 40 8q-4 11 -17 11q-30 1 -23 0q-10 2 -30 9q-22 8 -32 10q-58 13 -65 17q5 1 191 -15q34 -3 86 -2h80q35 -1 76 -36q45 -38 94 -136q56 -107 87 -142q46 -30 125 -63q117 -47 132 -54q90 -42 129 -58q105 -40 139 -44q-1 25 -23 35q6 -3 -50 16q-90 30 -189 74z M1499 561q0 -9 10 -8q2 10 -10 8zM568 737q4 -5 4 -36q-31 -14 -51 -2q2 -2 -2 36q42 7 49 2zM566 756q-41 17 -64 -16q-19 -50 21 -65q39 -15 68 14q16 51 -25 67zM1230 722q-24 34 -24 35q11 11 0 23q-5 1 -5 2q-12 -1 -23 -13q-10 -12 -19 -12q-12 -1 -39 20 q-25 19 -42 11q6 -19 29 -34q6 -4 20 -13q13 -7 19 -12q57 -42 87 -43q13 15 -3 36zM1331 827h-6l-3 -9q75 -98 77 -106q-43 20 -38 21q58 -103 195 -136q-2 30 -23 50q-9 9 -45 31q-41 26 -157 149zM1011 742q-17 9 -20 10q0 5 -4 17q-56 32 -115 83q-4 1 -6 -3 q-3 -4 -7 -3q-7 5 -31 28q-19 18 -35 25q14 -27 61 -68q49 -43 65 -70q18 -9 38 -41q21 -33 36 -42q-7 0 57 -8q33 -5 51 8q1 10 12 17q14 9 16 13q-2 22 -34 23h-29q-19 0 -30 2q-12 2 -25 9zM1288 901q-33 -12 -71 9q-44 23 -65 21q0 -1 -1 -3t-1 -4q26 -18 30 -27 q66 -46 125 -34q-1 15 -17 38zM1334 972q-5 -3 -9 -3q-2 9 -7 9q-6 -3 -17 -6q-13 -4 -17 -5q1 -12 18 -15q21 -5 25 -8q10 1 15 10q6 9 2 19q-5 1 -10 -1zM776 1005q-10 2 -13 -9q-4 -9 0 -18q11 2 13 27z" />
<glyph unicode="?" horiz-adv-x="1085" d="M988 938q2 5 -1 7q38 4 33 6q-15 -21 -33 -23q-2 3 1 10zM879 936q-11 -14 -20 -18q4 2 -73 -25q-34 -13 -210 -78q4 2 -225 -64q-61 -18 -76 -19q-42 -4 -62 25q-18 26 -33 73q-20 62 -26 75q0 5 6 3q7 -2 7 3q-1 15 -17 63q-18 55 -16 62q4 24 43 34q6 1 34 6 q21 4 31 8q-1 -5 -10 -9q-9 -5 -11 -9q6 -7 36 -90q65 -185 75 -211q13 -4 79 17q67 22 216 72q141 49 214 72q16 13 6 44q-3 10 -10 27q-9 20 -11 25q-7 20 -41 114q-25 70 -40 107q22 19 54 28q39 11 60 -5q16 -12 53 -129q35 -113 43 -136q3 5 -56 -44q-6 -5 -20 -21z M843 807q8 7 18 0q19 -14 15 -12q-4 -2 -33 12zM672 798q-1 -5 -2 -6q-37 11 -38 13q66 13 127 -4q-19 -22 -81 0q-4 1 -6 -3zM123 1036q-6 -29 6 -54q-18 22 -14 55q5 34 35 37q-20 -10 -27 -38zM244 1185q20 -4 23 -15q-14 -27 -19 -29q1 13 -11 18q5 -2 -24 5q4 5 3 15 q-1 13 -1 14q5 -3 29 -8zM371 1197q7 3 14 13q7 11 13 14q-2 5 -4 16t-4 16q-7 17 -29 14q10 16 54 17q-1 -7 -8 -17q-6 -9 -6 -17q-1 -5 6 -21q6 -13 0 -20q0 -3 12 -11q-36 1 -60 -35q-18 -2 -43 24q-21 22 -41 7q0 3 5 29q74 -20 91 -29zM369 1214q-8 0 -27 10 q-20 9 -31 11q9 14 32 19q24 5 39 -7q-1 -23 -13 -33zM724 1230q8 -2 31 -68q65 -184 75 -219q-190 -52 -482 -169q-45 144 -106 285q20 12 115 46q67 25 179 63q161 54 179 60q8 3 9 2zM524 1301q-3 22 -21 23q33 24 82 9q40 -12 70 -40q-7 2 -20 7t-20 6q-22 5 -35 -11 q-1 -11 11 -15q2 -1 10 -3q7 -1 10 -3q-9 -2 -21 -16q-12 -12 -25 -13q1 7 7 15q6 9 8 14q-9 17 -25 7q-14 -10 -17 -26q-21 -18 -59 -10q-36 8 -47 29q12 10 39 3q30 -6 40 -3q15 6 13 27zM488 1288q-49 4 -44 5q9 13 36 19q28 6 31 -9q4 -17 -23 -15zM613 1241q7 9 46 17 q-26 -16 -46 -17zM628 1272q-3 -12 -11 -10q1 3 0 5q-2 3 -2 5h13zM686 1266q25 14 61 23q-11 -6 -61 -23zM754 1403q18 -17 28 -18q5 -9 29 -38q18 -23 25 -41h-20q-2 1 -3 6q0 5 -2 6q-9 1 -18 -1q-14 -3 -17 -3q-11 56 -25 62q-4 1 -25 -6q4 32 -18 39q-22 6 -38 -14 q8 32 52 27q13 -1 32 -19zM930 1141q-3 10 -14 47q-10 31 -16 48q-21 52 -53 67q-23 72 -88 117q-34 24 -71 6t-37 -58q0 -11 8 -32q7 -20 6 -30q-42 31 -100 41q-70 11 -96 -31q-8 0 -20 -8q-13 -9 -19 -11q-9 -2 -24 -2q-18 1 -24 0q-15 -2 -48 -21q-62 -35 -77 -79 q-40 16 -85 9q-49 -8 -59 -40q-9 -28 19 -73q-39 -23 -31 -86q5 -30 28 -94q30 -79 30 -83q0 8 -42 -81q-29 -62 -36 -90q-21 -94 0 -152q42 -114 46 -155q10 -101 65 -246q24 -64 33 -75q23 5 25 15q-19 116 -20 152q18 -50 41 -96q40 -81 59 -79q13 1 16 21q3 17 -33 77 q-5 7 -19 30q-12 19 -19 30q-7 13 -33 70q-18 39 -35 58q-3 -2 -5 -6q-3 -6 -4 -7q-27 95 -29 86q2 9 27 38q22 24 17 47q-29 14 -36 20q-15 15 -10 45l20 20q12 12 9 26q-63 -10 -60 -11q-17 32 0 70q8 20 35 55q-7 5 -19 -2q-13 -7 -18 -4q2 69 33 117q20 -61 35 -80 q28 -33 84 -27q31 4 142 53q27 12 76 24q53 14 72 21q-6 3 46 -4q19 -2 48 -22q25 -19 37 -17q7 0 15 9q8 8 16 9q3 -1 4 -7q1 -7 3 -9q59 37 79 35q-1 -1 3 13q2 7 9 6q-1 -18 14 -27q29 -17 26 -15q-12 -6 -63 -6q-43 0 -52 -17q4 -6 13 -5q2 1 7 2t7 1q10 1 38 0 q24 -1 38 0q17 3 52 25q2 2 9 6q7 3 10 5q10 7 8 16q2 -1 -23 0q-7 6 -19 14q-15 9 -18 12q-20 14 -24 33q-8 39 23 70q9 10 27 23q21 16 25 19q26 22 37 27q18 8 43 -2q-5 -4 -17 -12q-12 -7 -17 -13q1 -6 -6 -27t-4 -35q2 -10 10 -20q10 -12 11 -16q-6 0 -14 7q-7 6 -13 2 q-1 -12 9 -19q12 -10 14 -15q-2 -41 -28 -83q-14 4 -18 0q-1 -5 1 -11q2 -7 1 -12q-11 -15 -48 -42q-33 -24 -44 -46q-3 1 -8 4q-4 3 -9 3q-74 -38 -171 -46q-25 -2 -50 0q-4 0 -12 2q-9 2 -13 3q-15 2 -23 -7q6 -9 28 -14t29 -11q-6 -9 -17 -8q-3 0 -9 2q-7 1 -10 2 q-4 0 -24 1q-15 1 -24 3q-11 3 -45 23q-28 16 -44 14q4 -7 91 -69q-16 -10 -86 0q-62 9 -66 -10q-3 -15 12 -32q17 -22 19 -29q1 0 -37 14q-24 9 -34 -7q3 -7 16 -13q12 -7 14 -14q-8 -6 -22 -2q-15 4 -20 2q-4 -36 69 -40q9 -6 39 -21q-1 -8 0 -20q1 -16 0 -19 q-12 -5 -38 3q-24 7 -35 1q7 -10 48 -23q59 -19 105 -15q94 -195 139 -273q16 -6 45 -24q27 -18 45 -24q0 14 -38 83q-8 15 -20 41q-16 33 -21 43q-51 99 -53 104q-27 65 -18 125q54 50 123 90q119 69 131 83q6 7 14 21q8 15 13 21q5 5 16 13q11 7 16 12q6 7 17 24 q14 20 20 28t23 25q15 14 21 23q12 19 13 64q0 51 6 68q21 32 23 118q-12 22 -67 19q-6 31 -42 136zM250 532q16 7 25 2q-2 -2 22 10q13 7 14 19q-5 8 -19 6q-4 0 -12 -2t-11 -2q-1 7 -6 17q-50 9 -69 -36q9 -6 22 4q16 11 24 11q-1 -4 -8 -13q-6 -7 -5 -16q8 -6 23 0z M351 663q-12 14 -44 7q-31 -8 -32 -23q65 8 76 16zM244 809q20 18 29 -29q-9 -6 -16 -6q-13 26 -13 35zM237 781q8 -19 22 -20q19 -1 25 14q4 14 -3 31q-8 18 -21 22q-15 5 -28 -13q-3 -17 5 -34zM192 916q2 8 13 14t20 4q14 -2 19 -23q2 -4 4 -19q2 -11 4 -16 q-3 -11 -39 -11q-23 42 -21 51zM201 941q-23 -8 -26 -21q-2 -8 13 -44q21 -52 77 -8q8 40 -23 77q-18 4 -41 -4zM188 1014q10 -31 10 -30q-10 -5 -16 -4q-20 37 6 34zM199 1020q-22 18 -40 -4q-5 -29 13 -43q17 -15 39 1q9 28 -12 46zM834 1178h-4q-4 -5 -2 -18 q2 -19 19 -60q19 -48 31 -47q34 4 -21 100q-2 2 -6 -1q-3 -2 -4 1q-14 26 -13 25z" />
<glyph unicode="@" horiz-adv-x="2766" d="M1452 1385q-3 -3 -45 -13q22 20 45 13zM1757 1234q5 -72 1 -201q-5 -143 -3 -205q-16 -19 -54 -23q-11 -1 -76 -1q-122 0 -144 8q13 4 47 3t46 3q4 5 10 18q4 12 12 19q3 66 -3 363q-71 14 -202 8q-60 -3 -326 -3q-97 0 -114 -5q-3 -12 -3 -162q1 -217 8 -238 q92 -4 244 -3h247q-20 -12 -103 -13q-25 -1 -164 1q-106 1 -168 -4q-13 -1 -47 -7t-52 -8q-64 -6 -87 18q-16 17 -16 72q0 17 1 47q2 31 2 42q0 180 -3 205q16 12 50 24q39 15 54 23q4 3 21 19q16 14 24 16q6 1 18 -1q17 -4 22 -4h379q117 0 127 10q158 6 252 -21z M1765 1263q9 8 19 8q-1 -11 -19 -8zM1270 834q-189 -3 -309 2q0 135 8 366q3 6 8 8h302q185 1 298 -2q-11 -146 -3 -369q-58 0 -304 -5zM1263 737q-9 19 -12 27q12 -1 28 1q21 2 27 2q-3 -11 -16 -29q-12 -18 -15 -29q-3 11 -12 28zM1179 716q20 24 56 25q9 -11 10 -30 q-51 -14 -58 -23q3 -27 -21 -32q-5 36 13 60zM749 942q-5 19 -24 47q-21 31 -26 43q1 2 2 6q2 3 3 5q11 -9 36 -39q21 -25 38 -35q-3 -126 24 -189q-34 8 -61 48q10 109 8 114zM704 908q13 6 21 5q7 -8 0 -26q-18 9 -21 21zM691 1067q-1 -12 -13 -11q-1 8 13 11zM779 1035 q0 -12 -3 -16q-10 0 -9 13q1 11 6 16q7 1 6 -13zM1845 1059q-8 32 -8 34q-5 1 24 -13q-19 -21 -16 -21zM1988 942q-61 -70 -138 -95q18 30 136 103q1 0 2 -8zM1926 1063q14 -15 14 -31q-55 12 -45 51q18 -6 31 -20zM1397 674q-36 1 -43 0q7 34 44 36q38 2 38 -33 q-13 -4 -39 -3zM2243 324q26 -6 46 -34q37 -52 33 -48q-20 10 -79 82zM598 1291q-17 7 -21 12q-20 -11 -27 -38q-1 -5 -4 -23q-3 -15 -6 -24q-1 -3 -51 -56q-15 -16 -125 -108q-79 -66 -108 -122q-2 -4 -4 -11q-1 -8 -2 -11q-5 -12 -23 -16q-4 33 37 109q3 6 42 56 q26 33 76 110q46 72 78 110q47 57 64 61q24 7 68 -12q47 -20 70 -17q-7 -10 -45 -35q-4 9 -19 15zM2524 603q-9 11 -21 35q-12 27 -19 36q-22 33 -77 78q-59 47 -79 73q-26 33 -42 100q-4 14 -13 58q-8 37 -14 57q-2 7 -9 19q-6 12 -7 19q-2 9 -10 54q-6 34 -12 54 q-18 59 -58 67q-13 2 -48 -1q-36 -4 -50 -2q-34 5 -67 43q-39 45 -55 52q-3 2 -11 3q-7 1 -10 3q-13 8 -30 23q-18 17 -26 22q-32 21 -74 26q-118 15 -165 11q-90 -8 -130 -24q-3 -1 -11 -7q-7 -5 -13 -6q-7 -1 -23 1q-16 3 -24 2q-43 -7 -54 -43q-11 -35 17 -69 q-177 -7 -353 0q36 16 56 59q22 50 -16 76q-91 2 -252 -45q-65 -18 -72 -21q-10 -3 -36 -17q-21 -11 -30 -12q-29 -4 -86 17q-54 20 -84 15q-29 -6 -85 -72l-96 -146q-17 -26 -55 -72q-37 -45 -51 -66q-9 -14 -21 -51q-10 -33 -24 -47q3 -68 -25 -159q-32 -107 -36 -146 q0 -5 1 -19q0 -12 -1 -18q-1 -8 -8 -19q-9 -13 -10 -18q-10 -29 -16 -85t-36 -191q-25 -117 -28 -197q7 -13 40 -13q-2 -15 13 -40q19 -2 32 6q1 3 29 201q47 337 45 361l-5 59q3 31 21 87q20 64 24 88q9 49 16 55q6 -22 -6 -83q-14 -68 -13 -94q2 -29 16 -56q16 -30 35 -29 q19 0 25 27q8 39 12 44q-12 14 -14 43q-1 7 -1 27q0 18 -1 28q-1 9 -7 41q-5 24 -4 39q2 28 32 88q18 -21 90 -38q23 30 -5 50q-37 26 -37 27q-5 21 24 57q33 39 34 47q19 16 128 119q77 73 138 109q5 -2 18 -15q10 -10 21 -12q5 12 -2 24q-2 4 -7 10t-7 9q76 39 276 80 q38 -22 99 -6q3 -12 -1 -25q-5 -15 -15 -17q-14 31 -48 10q-50 -31 -61 -31q-2 -11 10 -22q10 -9 3 -16q-12 -3 -16 7q-4 16 -5 17q-18 0 -35 3q-25 -41 -36 -52q-25 -25 -62 -28q-21 6 -26 3q-7 -36 53 -37q-6 -2 -22 -7q-14 -5 -23 -6q-6 0 -14 11q-7 9 -16 5q1 -7 8 -19 q6 -11 6 -21q-8 -11 -12 -13q-5 -2 -20 2q-57 -58 -96 -79q-2 -18 -24 -26q-29 -11 -34 -17q0 -15 20 -30q32 -22 33 -23q-11 -25 -18 -21q-14 34 -24 37q-5 1 -5 -7t-3 -9q-10 3 -21 18t-19 19q6 -53 86 -109q81 -56 89 -106q-121 48 -172 85q77 -89 106 -98q28 -32 79 -42 q80 -17 114 -14q33 3 87 16q72 16 89 19q107 19 175 -13q-68 -30 -75 -107q-4 4 -12 17q-7 11 -14 15q-21 -7 -45 6q-3 -3 -3 -16q-1 -11 -8 -11q-2 4 -3 19q-1 14 -5 18q-9 -5 -12 -24q-4 -31 -4 -32q-5 -1 -10 4q-5 3 -11 2q-1 -8 4 -20q5 -10 1 -17q-26 20 -49 -10 q-42 -55 -38 -51q-15 -12 -44 -27q-23 -12 -33 -24q-3 -3 -5 -10q-2 -9 -3 -11q-17 -14 -69 -21q-24 -4 -133 -48q-91 -37 -101 -45q7 -19 45 -15q42 4 48 -4q-46 -40 -53 -42q-29 -8 -77 18q-56 30 -71 32q-9 -29 16 -48q4 -3 22 -14q14 -8 20 -15q-19 -12 -13 -28 q1 -3 7 -14q5 -10 6 -16q3 -14 -12 -124q-10 -77 36 -88q6 16 32 21q2 25 31 85q25 51 38 58q9 6 39 20q24 12 38 23q38 31 81 89q66 88 75 99q13 16 43 42t42 40q38 44 82 72q8 5 31 21q19 13 30 19q-1 -1 110 35q67 21 87 71q8 -44 60 -58q43 -12 101 -1q46 -34 143 -53 q117 -23 154 -39q25 -11 69 -46q41 -33 67 -42q15 -5 40 -7q33 -3 37 -4q47 -7 124 -51q79 -46 122 -55q70 -91 160 -199q45 -53 63 -58q14 11 0 40q22 18 1 50q-6 10 -20 26q-17 19 -21 25q-54 73 -55 77q82 -6 93 10q4 22 -8 40q-10 16 -24 18q-26 5 -72 6q-51 0 -66 2 q-104 15 -175 67l-40 29q-5 5 -12 20q-6 15 -12 20q-5 4 -16 8q-13 6 -16 8q-19 10 -13 32q-22 15 -32 15q-16 -26 -37 -24q-16 2 -41 22q-66 54 -84 53q-5 -7 2 -19t4 -16q-161 32 -162 32q-8 31 -35 32q-6 0 -19 -7q-13 -8 -20 -9q-19 -2 -80 21q3 8 3 29q-36 33 -53 35 q-25 3 -55 -21q-33 -26 -46 -27q-14 55 49 87q50 25 118 25q38 0 107 -17q80 -20 110 -23q65 -7 168 45q65 33 92 53q4 26 34 52q30 27 35 49q0 4 -9 5q-8 1 -7 8q12 13 11 38q-1 27 -21 28q-2 -3 -6 -11q-5 -9 -7 -12q-8 -15 -16 -14q17 22 -5 54q-29 45 -30 47q34 -1 45 5 q11 -6 27 -32q14 -23 29 -29q0 30 -19 54q-18 24 -47 31q-8 22 -35 36q-44 24 -45 25q-65 51 -61 51q-26 -35 2 -72q9 -12 28 -29q22 -20 26 -24q-32 16 -63 46q-37 37 -35 63q0 13 31 36q25 18 11 41q-8 0 -16 -8t-16 -8q-9 37 -32 48q-17 -27 -56 -15q-60 17 -63 17 q-5 -15 10 -32q19 -21 19 -24q-46 16 -53 22l11 18q8 12 2 21q-9 3 -13 -6q-5 -9 -11 -9q-7 28 -7 29q-6 -2 -38 -20q-27 -15 -47 -17q-78 -10 -106 26q-7 3 -13 -3q-4 -5 -6 -2q-3 16 12 18q4 1 13 0h12q63 10 85 46q15 3 178 23q73 -23 156 -31q4 -4 8 -21q3 -14 11 -17 q4 -5 7 3q4 9 9 8q73 -63 77 -69q2 -1 18 0q10 -9 32 -32t35 -34q29 -28 37 -33q26 -18 42 -7q0 10 -24 18q-26 10 -26 24q11 -1 33 -1q27 0 36 -1q43 -3 53 -24q-9 -12 -1 -38q9 -28 6 -36q-6 1 -18 14q-9 10 -22 9q-5 -9 5 -18q11 -11 11 -19q-19 1 -21 -5q6 -16 29 -35 q19 -17 21 -37q2 -12 -17 -74q-13 -43 17 -53q9 4 20 21t20 21q29 -199 29 -209q-4 -5 -15 -14q-12 -10 -17 -15q-18 -19 -7 -40q5 -2 5 -3q17 1 31 16q16 18 25 21q16 -6 31 11q6 -7 24 -46q13 -29 32 -36q9 7 5 25q-5 22 -5 23q50 -11 83 -63q9 -14 26 -47q16 -32 26 -47 q45 -10 104 -42q70 -38 98 -48q-18 23 -59 50q-52 34 -66 45q-41 36 -66 67zM1683 873q-13 0 -16 6q-11 25 0 47q12 24 37 6q-5 -62 -2 -56q-7 -4 -19 -3zM1715 865q11 13 6 39q-1 6 -5 21q-3 13 -4 20q-35 23 -52 -8q-16 -28 -3 -69q18 -14 58 -3zM1710 1062q-5 -62 -3 -56 q-26 -4 -48 3q8 66 6 63q20 10 45 -10zM1726 1080q-20 20 -77 8q-11 -16 -14 -49q-3 -35 8 -52q37 -15 77 -2q11 13 6 95zM836 1061q-1 -10 0 -28q1 -22 1 -30v-48q4 -24 24 -18q11 56 2 122q0 3 1 10v11q0 14 -11 16q-15 -7 -17 -35zM1699 1192q11 -34 3 -53q-18 -11 -35 0 q-9 26 0 53q16 4 32 0zM1715 1128v40q1 25 -3 37q-43 26 -61 -18q-17 -43 11 -67q44 0 53 8z" />
<glyph unicode="A" horiz-adv-x="1318" d="M537 1072q10 11 28 38q17 24 27 36h5q1 -49 -21 -72q-38 -39 -57 -26q3 6 18 24zM684 1253q26 81 39 113q1 -1 3 2q-3 -6 32 41q4 1 20 8q13 5 24 6q45 4 153 -29q142 -43 215 -83q71 -38 85 -63q30 -48 -15 -156q-67 -158 -86 -234l-30 -3q34 88 62 165q53 144 59 170 q-11 12 -54 29q-138 57 -178 72q-171 67 -257 75q-5 -9 -50 -125q-11 -29 -46 -132q-2 7 -7 17q-7 11 -8 15q16 39 39 112zM749 1331q1 6 4 13q6 9 6 12q11 2 23 0q65 -14 236 -77q76 -28 221 -92q-4 -19 -14 -32q-94 45 -231 95q-209 76 -245 81zM671 1066q-4 19 -4 26 q1 14 17 60q55 152 63 172q12 -6 34 -10q30 -6 37 -7q20 -6 59 -22q333 -134 346 -141q-19 -48 -56 -147q-36 -99 -56 -148q-26 -16 -43 -42q-22 -33 -16 -65q1 -10 10 -20q10 -13 13 -19q-12 -28 -13 -29q-45 -18 -55 -38q-13 -30 -10 -58q0 -8 8 -19q8 -10 8 -16 q-22 -68 -29 -77q-95 -14 -68 -104q1 -6 7 -14q7 -9 8 -12q-8 -16 -24 -13q-7 1 -28 12q-33 16 -90 34q-75 24 -92 31q-164 64 -181 68q-52 11 -55 27q-3 11 15 49q33 71 55 141q64 205 63 198q38 40 40 44q5 11 7 30q3 23 5 31q2 9 12 26t13 26q2 11 0 26zM585 870 q-9 -37 -31 -94q-25 -66 -33 -95q-17 -57 -34 -94q-36 -79 -32 -93q5 -19 46 -31q10 -4 35 -10q21 -5 30 -8q25 -9 59 -24q44 -19 55 -24q26 -10 89 -30q57 -19 88 -32q52 -23 60 -22q7 1 15 10q7 9 11 10q13 -4 25 -3q-15 -53 -31 -67q-57 -51 -202 -3q-95 31 -218 88 q-100 47 -102 51q-8 13 -8 52q0 41 35 122q26 59 57 173q20 73 29 86q8 11 27 23q24 15 30 20v-5zM1011 506q7 24 12 34q2 -4 9 -8t9 -8q-4 -27 -11 -44q-3 0 -15 -5q-10 -4 -15 -3q5 10 11 34zM1081 521q25 -2 49 13q29 19 41 21q-17 5 -36 -8q-24 -15 -34 -16 q-38 -5 -68 27q-15 17 -20 41q-5 28 11 45q32 32 98 38q47 5 76 -24q28 -29 22 -77q-4 -28 -33 -44q-9 -5 -26 -12q-21 -7 -27 -10q5 2 -55 -33q-16 3 -23 3q3 19 25 36zM1087 683q-11 -3 -14 -4q12 24 11 23q7 -6 18 -8q1 -1 -1 -3q-1 -2 0 -4q-6 -1 -14 -4zM1160 707 q-52 -19 -79 25t4 85q28 35 82 26q55 -9 61 -60q5 -44 -32 -72q-35 -26 -66 -17q29 6 30 13zM1246 991q7 -17 2 -32q-2 -4 -8 -10q-5 -6 -5 -10q-6 -1 -18 -9q-13 -9 -20 -11q-2 36 31 94q12 -7 18 -22zM52 185q-5 -3 9 7q49 35 94 153q17 45 53 228q19 93 28 114 q14 33 50 87q42 64 55 89q47 87 74 98q10 26 41 48q5 4 26 17q17 11 26 19q15 -19 43 -4q20 11 37 31q11 13 14 23q2 9 0 34q-1 22 3 26q6 6 20 -6q11 -9 16 -18q32 -55 19 -95q-3 -9 -38 -74q-42 -76 -91 -112q-10 3 -20 14q-10 13 -18 16q0 -12 12 -23q23 -21 20 -17 q-11 -4 -24 8q-22 21 -20 19q2 -21 36 -36q-9 -19 -32 -95q-5 -17 -16 -46q-13 -34 -17 -46q-26 -74 -34 -94q-30 -67 -29 -96q1 -46 24 -69q8 -7 25 -14q20 -8 26 -12q5 -4 32 -55q-2 -2 0 29q15 -1 87 -29q149 -57 173 -63q88 -20 98 -20q74 0 104 45q3 4 15 34 q8 21 22 28q16 0 78 8q20 3 22 6q-81 -3 -101 -1q-56 6 -71 39q-16 35 13 56q13 8 62 24q47 15 60 15q34 1 58 -28q26 -30 21 -70q-4 -41 -43 -67q-11 -7 -35 -20q-25 -12 -36 -20q-144 -94 -183 -128q-92 -83 -114 -94q-74 -36 -170 -36q-152 -1 -161 -2q-19 -2 -20 -5 q4 -6 12 -5q3 0 8 1q4 1 6 1q22 1 110 1q72 -1 108 4q108 14 177 78q9 8 33 32q20 20 33 31q26 22 74 53q64 41 77 51q17 12 40 24q7 4 21 10q15 6 22 10q50 28 50 93q0 66 -54 88q26 21 62 35q52 20 63 34q26 33 8 83q-18 49 -55 58q67 29 69 84q0 31 -21 54q-20 23 -54 30 q0 25 16 40q5 5 37 23q43 24 43 55q0 19 -12 34q-3 4 -11 12q-8 9 -12 14q4 12 29 66q18 41 21 70q7 63 -31 104q-23 24 -88 57q-53 26 -121 49q-111 36 -129 41q-127 36 -168 -20q-3 -4 0 -3q-14 -3 -29 -41q-1 -3 -2 -9q-1 -5 -1 -7q-1 -2 -4 -4q-3 -3 -4 -5 q-6 -14 -13 -45q-9 -33 -14 -48q-32 -86 -33 -87q-4 0 -12 6q-9 7 -15 7q-15 1 -35 -21q-10 -10 -26 -38q-16 -27 -25 -36q-12 -12 -66 -47q-41 -26 -52 -52q-21 -12 -76 -106q-9 -15 -52 -82q-33 -51 -48 -82q-16 -31 -29 -102q-33 -179 -46 -218q-43 -130 -90 -173 q-28 -25 -26 -21q4 -6 12 -1zM963 436q6 -2 18 -3q13 -1 17 -1q20 -3 25 -13q6 -14 -7 -28q-12 -14 -30 -15q-12 46 -23 60zM955 445q5 -12 13 -40q8 -27 13 -40q48 6 52 38q7 46 -78 42zM1058 644q2 0 1 3q19 12 46 6q26 -7 32 -25q9 -23 -8 -43q-14 -18 -37 -25 q-34 81 -34 84zM1096 663q-32 4 -46 -15q-2 -18 16 -52q3 -7 10 -22t11 -24q30 0 52 32q23 33 2 60q-14 17 -45 21zM1122 812q12 17 35 4t25 -33q1 -19 -10 -34q-11 -14 -30 -13q-35 55 -20 76zM1151 826q-48 9 -40 -44q3 -21 14 -38q10 -18 22 -19q18 -2 32 16q13 17 12 41 q-2 37 -40 44zM1064 1301q-78 26 -110 47q81 -10 110 -47zM1073 1296q-6 28 -52 45q-42 16 -83 12q52 -44 135 -57zM892 1364q-3 -2 -6 1q-1 8 8 4q1 -4 -2 -5zM900 1364q1 7 -6 10q-14 6 -13 -6q1 -13 12 -11q6 1 7 7zM854 1380q1 -2 -1 -3q-2 -2 -2 -3q-6 1 -7 5q6 3 10 1 zM855 1371q15 9 -2 15q-16 6 -14 -9t16 -6z" />
<glyph unicode="B" horiz-adv-x="1074" d="M406 785q101 157 242 253q150 102 144 90q-94 -12 -265 -10q-228 3 -277 1q2 -62 -1 -353q-2 -218 11 -342q41 198 146 361zM909 208h-758v983q0 21 18 27h740v-1010zM503 54q-36 37 -22 64q12 23 48 26q35 3 50 -19q18 -26 -13 -71h-63zM519 1306q-103 -4 -142 20 q10 1 74 7q55 6 90 7q112 3 143 -32q-26 3 -165 -2zM580 1434q-206 0 -311 -17q-101 -17 -153 -78q-46 -54 -61 -153q-3 -21 -3 -473q0 -535 18 -578q42 -99 169 -123q61 -12 291 -12q307 0 334 9q112 37 140 195q13 78 13 383q0 37 6 239q5 153 0 243q-15 270 -132 330 q-69 35 -311 35z" />
<glyph unicode="C" horiz-adv-x="1914" d="M986 167q1 50 -11 66q-46 7 -131 6q-115 -2 -138 -1q-23 -9 -21 -68q2 -65 -10 -79q-15 -6 -66 -5q-46 0 -61 -11q-13 -30 0 -61q286 -28 575 0q6 18 5 51q-10 21 -64 20q-60 0 -73 11q-6 16 -5 71zM1738 640q-39 -2 -155 -1q-100 1 -155 -4q1 -36 -1 -199 q-1 -123 6 -193q53 263 305 397zM1799 121h-427q1 51 -1 288q-1 177 6 281h422v-569zM1585 739q-60 0 -86 12q89 16 173 0q-26 -12 -87 -12zM1844 736q-30 60 -170 75q-117 12 -241 -9q-102 -17 -118 -142q1 9 1 -254q0 -302 10 -326q24 -57 96 -70q31 -6 163 -6 q195 0 229 31q54 47 53 261q0 66 -6 169q-6 108 -6 129q-2 125 -11 142zM211 1262q-6 -6 -3 -12q1 -59 -1 -303q-1 -195 6 -307q94 289 408 441q217 104 664 184q-201 -7 -530 -6q-447 2 -537 1q0 9 -7 2zM857 418q15 -10 12 -33q-5 -24 -22 -27q-15 -3 -30 10 q-16 13 -15 28q1 17 26 25q16 5 29 -3zM123 595q0 20 2 56q1 37 1 50v416q0 183 11 199q20 32 143 34q38 1 102 -1q70 -3 85 -3h732q20 0 89 2q64 2 101 2q118 -2 140 -29q19 -23 19 -98q0 -22 -2 -63q-1 -42 -1 -58v-234h86q-7 59 -2 161q6 145 6 164q0 186 -90 224 q-45 19 -157 17q-27 -1 -94 -4q-57 -3 -85 -3h-1047q-94 -16 -115 -113q-7 -34 -7 -222v-488q0 -197 15 -229q32 -65 137 -78q20 -3 199 -3h864v193h-849q-17 0 -71 -2q-51 -2 -80 -1q-93 1 -113 23q-18 21 -19 88z" />
<glyph unicode="D" horiz-adv-x="1237" d="M909 1230h-664q2 -74 -1 -416q-2 -256 9 -406q105 606 656 822zM835 111q-38 1 -119 6q-72 4 -101 4t-101 -4q-80 -4 -118 -5q-144 -3 -189 24q-63 39 -64 364q0 98 6 262q6 166 6 204q0 219 2 233q18 102 118 122q123 24 415 17q312 -6 355 -47q47 -46 47 -259 q0 -62 -5 -177q-4 -115 -4 -153q0 -29 5 -141q6 -109 6 -173q-2 -214 -64 -252q-48 -29 -195 -25zM683 61q3 25 24 32q19 6 36 -10q6 -44 -23 -52q-26 0 -37 30zM592 47q-7 13 1 29q8 15 22 19q16 4 30 -12q6 -44 -23 -52q-23 1 -30 16zM495 54q-4 14 8 29q13 14 27 12 q17 -2 24 -27q0 -26 -30 -37q-25 5 -29 23zM1188 1011q0 240 -15 280q-46 120 -188 140q-18 3 -348 3q-382 0 -414 -8q-129 -29 -160 -150q-14 -55 -14 -280v-566q1 -241 15 -279q46 -119 214 -140q21 -3 337 -3q31 0 105 -3q82 -4 122 -5q149 -2 210 23q122 50 140 272 q6 76 2 207q-6 187 -6 215v294z" />
<glyph unicode="E" horiz-adv-x="2114" d="M994 153q1 55 -5 72q-144 33 -286 0q-5 -18 -6 -79q-2 -45 -19 -64q-13 -3 -61 0q-39 2 -57 -10q-6 -10 -6 -34q0 -23 6 -33q426 -12 572 5q15 21 0 62q-14 11 -61 10q-52 -1 -67 5q-11 16 -10 66zM1882 827h-449q1 -49 0 -276q-2 -170 5 -270q78 411 444 546zM1828 71 q-27 1 -80 3q-48 3 -65 3q-23 0 -69 -4q-56 -4 -77 -5q-92 -3 -129 19q-41 24 -45 156q-1 42 1 116q3 88 3 111v219q0 101 5 123q13 63 71 76q22 5 276 5q17 0 70 2q47 1 73 1q82 -2 107 -23q36 -31 37 -175q0 -43 -3 -120q-3 -79 -3 -103q0 -33 3 -121q2 -77 1 -117 q-3 -126 -45 -150q-30 -18 -131 -16zM1744 59q23 5 26 -18q0 -19 -15 -23q-14 -4 -26 8q-7 28 15 33zM1704 26q-11 -10 -23 -9q-11 2 -18 14q-2 21 13 27t28 -7v-25zM1608 22q-6 8 -11 9q1 19 14 26t26 -6q4 -30 -15 -36q-9 -1 -14 7zM2071 674q0 168 -10 194 q-32 82 -129 95q-11 2 -233 2q-265 0 -286 -5q-103 -25 -119 -184q1 16 1 -301q0 -43 -3 -111q-4 -79 -5 -102q-2 -112 24 -170q33 -77 141 -90q14 -2 226 -2q263 0 291 10q88 32 102 177v487zM634 1083q218 104 661 183q-556 -13 -1077 0q1 -56 0 -312q-2 -192 5 -306 q97 284 411 435zM826 357q-27 20 -20 38q6 15 30 20q24 6 38 -4q16 -12 3 -38q-9 -18 -51 -16zM130 585q0 18 1 52t0 47v225q0 15 -3 95q-3 82 -3 132q-1 171 32 196q19 16 153 16h893q21 0 89 2q65 3 102 2q122 -1 146 -30q27 -32 19 -132q-11 -122 -3 -159h86q0 25 2 117 q1 72 -2 112q-10 120 -76 154q-40 20 -152 20q-32 0 -96 -2q-62 -3 -89 -3h-1057q-112 -18 -129 -175q2 16 2 -310q0 -73 3 -210q3 -123 2 -178q-2 -122 -2 -117q4 -63 32 -97q35 -41 135 -50q18 -1 177 -1h842v194h-827q-16 0 -70 -2q-51 -1 -79 -1q-92 1 -111 23 q-16 19 -17 80z" />
<glyph unicode="F" horiz-adv-x="2081" d="M454 324q-57 28 -72 31q39 63 81 64q26 0 72 -22q53 -26 69 -29q-41 -59 -74 -64q-28 -3 -76 20zM443 439q-18 -4 -53 -35q-37 -32 -35 -49q2 -21 77 -49q69 -27 95 -25q29 2 68 35q38 33 36 52q-2 18 -74 44q-91 33 -114 27zM940 472q20 -2 81 -23q-17 -39 -53 -50 q-38 -12 -78 16q0 3 50 57zM940 493q-23 -4 -45 -33q-8 -10 -18 -25q-11 -19 -14 -23q74 -47 107 -40q27 5 78 80q-85 44 -108 41zM701 479q12 35 53 43q39 8 72 -16q-2 -4 -47 -54q-45 12 -78 27zM727 445q33 -17 55 -13q18 3 43 34q23 29 28 47q-49 42 -106 27 q-57 -14 -72 -68q-10 4 52 -27zM533 540q8 12 24 26q22 18 27 24q13 -2 64 -20q-5 -16 -24 -30q-25 -18 -30 -24q-50 13 -61 24zM503 536q14 -20 94 -40q8 7 22 17q18 13 23 16q25 20 33 44q-9 10 -91 37q-66 -48 -81 -74zM365 593q13 35 48 45t67 -14q-6 -12 -57 -51 q-44 13 -58 20zM338 590q57 -41 88 -37q19 3 48 32q27 27 33 45q-75 36 -91 34q-41 -5 -78 -74zM910 1111q208 170 215 175q11 7 13 6q281 -54 672 -134q6 -7 -1 -16q-2 -2 -7 -6l-5 -5l-393 -393q-270 -269 -424 -417q-110 39 -354 127q-229 82 -355 125q15 20 104 94 q398 332 535 444zM1098 399q112 111 328 329q217 219 324 326q94 94 104 114q-112 32 -359 77q-39 7 -186 38q-113 23 -181 33q-4 1 -13 -7q-83 -68 -418 -342q-260 -214 -416 -343q-42 -35 -47 -57q284 -110 652 -239q90 -31 98 -30q15 2 114 101zM1437 583 q-49 -49 -140 -148q-91 -100 -145 -154q-18 -18 -80 -88q-49 -56 -84 -84q-104 -87 -243 -77q-90 7 -339 115q-78 33 -155 70q-98 47 -124 70q-58 49 -57 132q5 3 10 -6q10 -19 10 -18q21 -26 78 -50q15 -7 49 -19q33 -12 48 -18q151 -64 299 -118q131 -47 158 -50 q114 -12 206 50q34 22 140 128q131 131 394 399t396 401q10 10 34 32q24 21 35 33q39 40 48 79v10q5 -3 10 -3q32 -64 -18 -130q-17 -22 -51 -54q-45 -44 -52 -51q-354 -378 -427 -451zM622 925q314 252 422 341q116 94 108 89q68 44 148 38q-5 1 336 -57q18 -3 164 -30 q13 -2 41 -6q26 -3 40 -6q46 -9 71 -32q-13 -28 -121 -141q-177 -183 -773 -780q-114 -113 -132 -126q-88 -63 -201 -52q-35 4 -171 54q-46 17 -316 128q-9 3 -39 14q-28 9 -44 16q-53 23 -58 50q-9 41 28 87q20 25 72 68q161 132 425 345zM1966 1312q-27 11 -92 24 q-114 23 -400 71q-171 28 -211 27q-74 -3 -137 -47q-22 -15 -53 -43q-43 -37 -52 -45q-45 -36 -435 -349q-260 -208 -432 -353q-67 -56 -90 -92q-37 -57 -25 -130q13 -73 79 -121q23 -17 133 -71q83 -40 172 -77q12 -5 88 -39q54 -24 92 -37q109 -38 213 -28q99 9 181 75 q28 22 128 130q132 142 134 145q119 118 341 359q223 241 338 356q52 52 68 78q32 52 23 111q-16 36 -63 56z" />
<glyph unicode="G" horiz-adv-x="1507" d="M850 321q16 2 63 -1q34 -2 50 6q-1 0 -5 34q-16 7 -51 6q-49 -1 -57 -1v-44zM709 365v-44h107q5 24 -4 44h-103zM631 366q-26 1 -40 -1q-43 -5 -23 -44q10 -1 48 0q42 1 59 0q-3 42 -5 44q-8 0 -39 1zM850 443v-44h108q2 8 0 44h-108zM709 443v-44h103q2 3 4 44h-107z M563 438v-34q16 -6 51 -5q48 1 56 0q2 3 5 44q-97 -1 -112 -5zM850 526v-44h108q2 36 0 44h-108zM812 526q-12 -2 -37 0q-30 2 -38 2q-42 -2 -33 -41q17 -6 53 -5q51 1 59 0q-2 42 -4 44zM675 526q-12 -2 -37 0q-32 2 -40 2q-44 -1 -35 -41q17 -6 53 -5q51 1 59 0v44z M850 560h108q1 12 2 20q2 8 3 19q-17 6 -54 6q-50 -2 -59 -1v-44zM766 560q35 -1 50 5v39q-10 -1 -39 0q-30 2 -43 1q-45 -5 -25 -45q8 1 57 0zM614 606q-33 2 -51 -7q-2 -13 5 -39h102q2 2 5 44q-15 -1 -61 2zM958 667v448h-385q-7 -81 -6 -221q2 -187 1 -227h390zM919 248 q10 0 -146 0q-20 0 -75 -2q-49 -2 -76 -1q-86 2 -113 28q-24 24 -24 209v463v171q13 83 88 92q41 5 224 5q144 0 134 1q71 -6 95 -40q24 -35 22 -204q-1 -48 -4 -133q-4 -79 -4 -101v-225q0 -201 -14 -224q-23 -34 -107 -39zM37 0h1437v1437h-1437v-1437z" />
<glyph unicode="H" horiz-adv-x="1326" d="M727 1144h5q11 -12 27 -36q18 -27 28 -38q15 -18 18 -24q-19 -13 -57 26q-22 23 -21 72zM618 1239q-45 116 -50 125q-86 -8 -257 -75q-41 -15 -178 -72q-43 -17 -54 -29q6 -26 59 -170q28 -78 62 -165l-30 3q-19 76 -86 234q-45 107 -15 156q14 25 85 63q73 40 215 83 q108 33 153 29q11 -1 24 -6q16 -7 20 -8q35 -47 32 -41q2 -3 3 -2q13 -32 39 -113q23 -73 40 -112q-2 -4 -8 -15q-6 -10 -8 -17q-35 103 -46 132zM86 1185q144 64 220 92q171 63 236 77q12 2 23 0q1 -3 6 -12q4 -7 4 -13q-36 -5 -245 -81q-137 -50 -231 -95q-10 13 -13 32z M683 955q2 -19 7 -30q2 -4 40 -44q-1 7 63 -198q22 -70 55 -141q18 -38 15 -49q-3 -16 -55 -27q-17 -4 -180 -68q-18 -7 -93 -31q-57 -18 -90 -35q-21 -10 -28 -11q-16 -3 -24 13q1 3 8 12q6 8 8 14q26 90 -69 104q-7 9 -29 77q0 5 8 16t8 19q3 28 -10 58q-10 20 -55 38 q0 1 -13 29q3 6 13 19q9 10 10 20q6 32 -16 65q-17 26 -43 42q-20 49 -56 148q-37 99 -56 147q13 7 346 141q39 16 60 22q6 1 36 7q22 4 34 10q8 -20 63 -172q16 -46 17 -60q0 -7 -3 -26q-3 -15 0 -26q2 -9 12 -26t12 -26q2 -8 5 -31zM739 873q6 -5 30 -20q19 -12 27 -23 q9 -13 29 -86q31 -114 57 -173q35 -81 35 -122q0 -39 -8 -52q-8 -14 -45 -29q-7 -2 -31 -11q-18 -7 -26 -11q-122 -57 -218 -89q-145 -48 -202 4q-16 14 -30 67q11 -1 24 3q4 -1 11 -10q8 -9 15 -10q8 -1 60 21q31 14 88 33q63 20 89 30q11 5 55 24q34 15 59 24q9 3 30 8 q25 6 35 10q41 12 46 31q4 14 -32 93q-17 37 -33 93q-9 30 -34 96q-21 57 -31 94v5zM283 522q2 4 9 8q8 4 9 8q5 -10 12 -34q6 -24 11 -34q-5 -1 -14 3q-13 4 -16 5q-7 17 -11 44zM190 513q-6 2 -27 10q-17 7 -26 12q-29 16 -33 44q-6 47 22 77q29 29 76 24q66 -6 98 -38 q16 -17 11 -45q-5 -24 -20 -41q-30 -32 -68 -28q-10 2 -34 17q-19 13 -36 8q12 -2 41 -21q24 -15 49 -13q22 -18 25 -36q-7 0 -23 -4q-60 36 -55 34zM240 700q-1 1 11 -23q-3 1 -13 4q-9 3 -15 4q1 2 0 4t-1 3q11 2 18 8zM96 781q6 51 62 60q53 9 81 -26q31 -41 4 -85 t-79 -25q1 -7 30 -13q-31 -9 -66 17q-37 28 -32 72zM107 928q-12 8 -18 9q0 4 -5 10q-6 6 -8 10q-5 15 2 32q6 15 18 22q33 -58 31 -94q-7 2 -20 11zM1168 378q-13 39 -46 218q-13 71 -29 102q-15 31 -48 82q-43 67 -52 82q-55 94 -76 106q-11 26 -52 52q-54 35 -66 47 q-9 9 -25 36q-16 28 -26 38q-20 22 -35 21q-6 0 -15 -7q-8 -6 -12 -6q-1 1 -32 87q-6 15 -14 48q-8 31 -14 45q-1 2 -4 5q-3 2 -4 4q0 2 -1 7q-1 6 -2 9q-14 38 -29 41q3 0 0 3q-41 56 -168 20q-18 -5 -129 -41q-68 -23 -121 -49q-65 -33 -88 -57q-38 -41 -31 -104 q3 -29 22 -70q24 -54 28 -66q-35 -44 -35 -60q0 -31 43 -55q32 -18 37 -23q16 -15 17 -40q-35 -7 -55 -30q-21 -23 -20 -54q1 -55 68 -84q-37 -9 -55 -58q-18 -50 8 -83q11 -14 63 -34q36 -14 63 -35q-55 -23 -55 -88t50 -93q7 -4 22 -10q14 -6 21 -10q23 -12 40 -24 q14 -10 77 -51q48 -31 74 -53q13 -11 33 -31q24 -24 33 -32q69 -64 178 -78q35 -5 107 -4q88 0 110 -1q24 -1 26 3q-1 3 -20 5q-9 1 -161 1q-96 1 -170 37q-22 11 -114 94q-39 34 -183 128q-11 7 -36 20q-24 13 -35 20q-39 26 -43 67q-4 40 21 70q24 29 58 28q13 0 60 -15 q49 -16 62 -25q29 -20 13 -55q-15 -33 -70 -39q-21 -2 -102 1q2 -3 22 -6q63 -8 78 -8q-10 5 37 -62q30 -45 104 -45q10 0 98 20q24 6 173 63q72 28 87 29q3 -31 0 -29q27 51 32 55q7 4 26 12q17 7 25 14q23 23 24 69q1 29 -29 96q-8 20 -34 94q-4 12 -17 46q-11 29 -16 46 q-23 76 -32 95q34 15 36 36q2 2 -20 -19q-13 -12 -24 -8q-3 -4 20 17q13 11 12 23q-7 -3 -18 -16q-10 -11 -20 -14q-49 36 -90 112q-36 65 -39 74q-13 40 19 95q5 9 16 18q14 12 20 6q5 -4 3 -26q-2 -25 0 -34q4 -10 14 -23q17 -20 37 -31q28 -15 43 4q9 -8 26 -19 q21 -13 26 -17q31 -23 41 -48q25 -11 44 -41q6 -10 15 -28q11 -23 15 -29q13 -25 55 -89q36 -54 50 -87q9 -21 28 -114q37 -183 53 -228q45 -118 94 -153q17 -12 21 -6q2 -4 -26 21q-47 43 -90 173zM326 430q4 0 17 1q12 1 18 3q-11 -14 -23 -60q-18 1 -30 15q-13 13 -7 28 q5 10 25 13zM356 403q8 28 13 40q-85 4 -78 -42q4 -32 52 -38q5 13 13 40zM219 651q27 6 46 -6q-1 -3 1 -3q0 -4 -33 -84q-24 7 -38 25q-17 20 -8 43q6 18 32 25zM248 572q7 15 11 22q17 34 15 52q-14 19 -46 15q-31 -4 -44 -21q-22 -27 1 -60q22 -32 52 -32q5 9 11 24z M167 814q24 13 35 -4q15 -21 -20 -76q-19 -1 -30 13q-11 15 -10 34q2 20 25 33zM200 742q10 17 13 38q8 53 -40 44q-38 -7 -40 -44q-1 -24 12 -41q14 -18 32 -16q12 1 23 19zM370 1346q-32 -21 -110 -47q29 37 110 47zM386 1351q-41 4 -83 -12q-46 -16 -52 -45q83 13 135 57 zM432 1362q-3 1 -2 5q9 4 8 -4q-3 -3 -6 -1zM424 1362q2 -6 8 -7q11 -2 11 11q1 12 -13 6q-7 -3 -6 -10zM471 1375q-2 1 -1 3q4 2 11 -1q-2 -4 -8 -5q0 1 -2 3zM469 1369q14 -9 16 6t-14 9q-17 -6 -2 -15z" />
<glyph unicode="I" horiz-adv-x="988" d="M793 558q-3 -3 -15 -12q-13 -9 -20 -15q-26 -21 -26 -35q-2 -21 23 -42q24 -21 46 -19q17 1 76 57t59 70q0 25 -29 42q-27 17 -48 11q-4 -1 -66 -57zM820 612q5 7 19 25q13 15 20 23q63 71 69 86q-21 33 -30 42q-20 20 -48 16q-17 -3 -80 -77q-63 -72 -63 -87 q0 -21 24 -41q25 -21 50 -17q16 3 39 30zM839 834q-1 30 -1 31h-16q1 -3 -1 -32q-1 -20 9 -21q9 3 9 22zM809 869q-26 25 -36 29q-13 -72 0 -144q44 17 36 115zM945 1013q-34 42 -91 40q-45 -61 -73 -135q39 -44 94 -41q57 98 70 136zM490 1172q116 12 147 -4 q-3 -14 -27 -14q-7 0 -21 1q-16 1 -21 1q-68 0 -78 4v12zM597 475q13 -13 11 -35q-3 -22 -18 -35q-18 -14 -43 -7q-26 7 -26 42q0 36 34 44q28 6 42 -9zM699 365q100 0 106 49q-74 26 -86 66q-2 7 0 24q1 14 -4 21q-32 1 -181 -1q-111 -1 -175 5q0 53 -1 298q-1 183 5 292 q36 -1 205 1q127 1 200 -5v-160q31 2 44 98q12 96 -11 136q-16 28 -91 31q-25 1 -67 -1q-51 -2 -63 -2h-209q-48 -10 -53 -84q-2 -25 1 -70q3 -55 3 -71v-590q11 -12 49 -37q-10 -1 328 0zM252 935q3 12 17 63q10 38 16 64q5 -20 4 -61q-1 -55 0 -66h-37zM703 353h-197 q-150 -1 -151 0q-45 14 -51 97q-2 28 -1 76q2 68 2 77v393q0 182 4 193q16 42 106 47q29 2 77 0q62 -2 72 -2h204q43 -9 52 -68q3 -18 2 -117q15 2 17 23q1 6 0 18q-1 13 -1 17q4 122 -65 143q-10 1 -58 0q-36 -1 -53 4q1 18 16 64q13 39 8 63q-7 41 -46 50q-38 10 -68 -17 q-22 -19 -33 -77q-13 -65 -29 -87q-120 8 -167 -11q-70 -28 -54 -124q-39 45 -82 41q-42 -4 -65 -64q2 7 -29 -108q-45 -162 -45 -168q0 7 8 -107q1 -20 2 -55q1 -43 2 -55q1 -28 11 -113q8 -67 5 -100q-2 -37 -31 -136q-26 -89 -22 -119q10 -69 164 -98q196 -36 229 -33 q46 6 63 49q5 13 12 42q6 30 12 45q61 21 111 85q15 19 41 57q27 41 40 58q54 -7 88 18q39 26 35 81q-7 -7 -27 -46q-16 -29 -38 -36h-70z" />
<glyph unicode="J" horiz-adv-x="1501" d="M846 320h107v44h-107v-44zM710 364v-44h107q2 22 0 44h-107zM574 320h107v44h-107v-44zM953 403v39q-45 10 -79 5q-47 -7 -23 -49q104 6 102 5zM817 447q-12 -2 -38 -1q-29 2 -39 2q-42 -3 -30 -45q78 -7 107 0v44zM644 446q-30 2 -40 2q-42 -3 -30 -45q54 -15 107 0 q-1 10 1 25q2 11 -1 19q-12 -2 -37 -1zM846 481h107v43h-107v-43zM710 481h107v43h-107v-43zM574 524v-43h107q5 8 2 19q-3 15 -2 24h-107zM912 607q-28 2 -38 1q-40 -3 -28 -45h107q-3 42 -5 44q-11 -2 -36 0zM817 607h-107v-44q10 -1 48 0q42 1 59 0v44zM676 607 q-11 -2 -36 0q-28 2 -38 1q-40 -3 -28 -45q21 -4 51 -2q39 3 56 2q6 25 -5 44zM943 665v325h-354q-7 -57 -6 -159q2 -137 1 -166h359zM744 252q-9 0 -49 -2q-38 -2 -63 -1q-81 0 -106 23q-29 26 -30 162q0 40 3 113q2 75 2 99v199q0 191 20 213q34 38 147 31q150 -11 193 -2 q7 12 4 51q-2 40 5 51q4 11 15 15q6 -1 19 0h20q22 0 29 -10q6 -15 5 -48q-1 -46 0 -54q65 -26 72 -155q2 -43 -1 -128q-3 -107 -3 -144q0 -15 3 -104q3 -79 1 -128q-3 -157 -48 -176q-12 -5 -238 -5zM45 0h1408v1432h-1408v-1432z" />
<glyph unicode="K" horiz-adv-x="2017" d="M1654 578q-12 -29 -47 -34q-31 -4 -55 11q-21 13 -63 91q-47 87 -65 91t-39 -11q-21 -14 -24 -32q-4 -26 19 -66q7 -12 20 -31q15 -22 18 -28q51 -82 60 -122q23 -100 20 -94q11 -21 41 -48q37 -33 47 -46q8 -11 21 -33t22 -32q31 20 185 108q-27 42 -25 130q1 22 4 75 q4 48 4 74q-1 165 -134 293h-6q0 3 -3 2v-298zM518 408q6 45 10 56q10 34 59 114q3 5 17 24q13 18 20 30q22 39 17 65q-3 17 -24 30q-20 12 -35 10q-18 -2 -36 -34q-6 -10 -15 -29q-11 -21 -15 -28q-32 -60 -47 -75q-34 -36 -81 -27q-36 6 -41 66q-1 20 0 56q1 50 1 57 q0 139 -5 153q-106 -112 -126 -199q-10 -49 -5 -195q4 -126 -23 -180q28 -16 94 -54q60 -35 94 -54q9 38 58 83q57 52 70 76q8 16 13 55zM391 1181v-501q0 -76 11 -91q47 4 86 92q40 89 82 96q39 6 73 -17q32 -22 38 -54q6 -29 -10 -66q-4 -9 -15 -30q-10 -19 -15 -29 q71 -1 371 0q226 0 349 -3q-2 7 -27 58q-19 36 -15 64q4 36 39 60q37 25 77 17q41 -8 81 -101q39 -88 87 -87q9 68 9 396q0 332 -6 401q-230 4 -600 3q-494 -1 -604 0q-6 -3 -8 -9q-3 -33 -3 -199zM1864 330q16 5 27 0q6 -3 42 -65q37 -63 34 -74q-2 -11 -76 -54 q-29 -17 -82 -47q-52 -30 -81 -47q-74 -44 -85 -43q-16 1 -51 63q-30 51 -33 61q-10 36 30 50q-13 40 -58 82q-54 49 -67 71q-1 2 -26 111q1 -5 -48 97h-774q-43 -60 -51 -94q-30 -120 -32 -122q-12 -18 -65 -66q-42 -38 -54 -77q3 -6 19 -16q13 -9 15 -21q1 -11 -37 -76 q-36 -61 -48 -63t-89 43q-29 17 -79 47q-53 32 -83 49q-7 5 -22 12q-18 8 -24 12q-28 14 -31 28q-2 11 34 74q32 54 31 52q22 26 52 7q21 31 21 108q-1 23 -3 65q-3 45 -4 61q-3 131 50 227q42 76 132 148v350q0 90 2 100q9 46 52 51h1093q91 0 102 -1q44 -6 55 -39 q2 -8 2 -230v-231q-2 7 52 -45q131 -129 130 -316q0 -23 -3 -62q-3 -47 -4 -62q-3 -74 16 -118q5 -4 19 0z" />
<glyph unicode="L" horiz-adv-x="1543" d="M906 381q-29 -7 -18 -44h84q-3 42 -5 44q-65 -1 -61 0zM824 337v44q-53 5 -81 -2q-39 -10 -18 -42h99zM591 379q-28 -9 -14 -42h84q-3 42 -5 44q-48 3 -65 -2zM972 436v598h-390q-9 -103 -7 -281q3 -238 2 -317h395zM1317 583q-38 -42 -73 -24q4 11 54 95q34 60 35 118 q0 43 -15 89q-8 23 -39 63q-29 38 -35 65l15 11q10 7 14 -1q62 -31 93 -130q32 -104 1 -196q-18 -55 -50 -90zM1212 699q28 45 22 97q-3 29 -30 68q-27 41 -29 61q49 14 79 -36q27 -45 27 -116q1 -71 -26 -115q-30 -50 -80 -35q3 20 37 76zM1123 735q17 20 17 37 q1 17 -17 42q-18 24 -18 47q38 17 61 -13q21 -26 21 -72q1 -46 -20 -72q-23 -29 -62 -11q1 21 18 42zM929 259q12 1 -140 4q-26 0 -70 -2q-59 -2 -71 -3q-81 -1 -111 15q-38 20 -43 167q0 10 4 233q0 27 3 103q2 60 2 95q-1 14 -5 77q-3 48 -1 74q7 80 70 96q24 6 262 5 q121 -1 122 -1q68 -5 85 -34q10 -16 10 -193v-405q0 -176 -10 -193q-21 -34 -107 -38zM382 703q-21 25 -21 71t20 72q24 29 62 10q1 -20 -16 -40t-18 -34q-2 -20 14 -44q18 -26 20 -45q-38 -20 -61 10zM335 935q32 2 39 -15q-5 -21 -31 -56q-24 -32 -28 -58q-8 -48 17 -99 q2 -5 22 -41q14 -25 20 -43q-48 -16 -83 39q-30 47 -31 110q-1 90 75 163zM174 822q15 120 86 177q14 -1 15 5q22 -3 30 -20q-9 -16 -29 -47t-29 -47q-31 -57 -31 -113q0 -75 44 -144q-4 7 29 -33q17 -21 16 -41q-30 -19 -57 7q-12 12 -37 53q-52 85 -37 203zM38 1434v-1428 q276 -7 726 -6q600 2 732 1v1433h-1458z" />
<glyph unicode="M" horiz-adv-x="954" d="M457 749q3 -4 9 -15q5 -10 9 -16q13 -17 36 -14q4 120 3 316q-1 262 0 320q-70 3 -187 3q-157 -1 -190 -1q-6 -2 -6 -8v-627q17 -4 49 -3q45 1 53 0q23 50 67 79q52 34 106 15q22 -8 51 -49zM559 220q-12 20 -17 27q-8 11 -60 62q-39 37 -48 72q-3 15 -7 49q-3 29 -10 44 q-9 24 -36 71q-4 6 -19 28q-17 23 -26 38q-31 51 -26 82q2 19 23 31q20 12 39 8q19 -3 68 -93q44 -81 68 -91q25 -10 53 -5q29 5 38 25q4 10 6 156q0 27 -2 80q-2 47 -1 70q2 1 3 -3h5q140 -121 131 -337q-8 -186 20 -233q-29 -17 -93 -54q-60 -34 -92 -54q-8 10 -17 27z M86 1181q0 173 5 198q3 3 9 6q41 -1 228 0q141 1 226 -3q5 -104 5 -604q0 -159 -8 -193q-50 5 -86 89q-37 88 -79 98q-39 10 -74 -10q-34 -20 -42 -55q-8 -32 10 -69q28 -57 30 -62q-19 1 -113 0q-70 -1 -106 6q-5 100 -5 599zM837 330q-9 4 -22 0q-15 -4 -20 -3 q-19 35 -18 109q1 22 3 62q3 42 3 59q4 132 -50 227q-41 73 -131 147v349q0 106 -3 113q-13 35 -104 40q-31 1 -80 0q-71 -3 -74 -3q-24 0 -126 3q-70 2 -112 -3q-56 -6 -63 -86q-2 -27 0 -76q3 -66 3 -82v-414q0 -192 6 -204q13 -29 59 -34h230q43 -74 48 -99 q22 -101 23 -103q13 -25 69 -76q49 -45 59 -82q-38 -15 -29 -49q3 -14 31 -62q36 -60 46 -62q15 -4 44 14l24 15q14 10 20 13q27 16 82 46q52 28 85 48q72 42 74 56q1 11 -34 71q-37 63 -43 66z" />
<glyph unicode="N" horiz-adv-x="1515" d="M993 331q11 25 0 49q-9 -1 -36 1q-23 1 -35 -1q-34 -6 -22 -49q76 -1 93 0zM767 331q40 1 60 0q3 17 0 49q-11 -1 -43 0q-29 2 -42 0q-44 -6 -27 -49q18 -2 52 0zM550 380q-5 -24 0 -49q-2 1 92 0q-4 48 -5 49h-87zM554 1115q-5 2 -9 -6t5 -8q-3 -99 -1 -327 q2 -200 -4 -331q244 0 453 -5q-1 113 -1 326q1 256 1 351h-444zM898 240q-23 1 -78 5q-46 3 -66 3q-9 0 -72 -1q-49 -2 -80 0q-94 4 -121 36q-19 23 -19 204v448q0 180 -1 174q11 84 79 99q69 15 273 5q21 -1 65 -1q49 1 69 0q79 -2 104 -23q36 -31 36 -210q0 -54 -3 -146 t-3 -117q0 -32 3 -131q4 -91 3 -141q-3 -160 -50 -186q-42 -22 -139 -18zM43 0h1437v1437h-1437v-1437z" />
<glyph unicode="O" horiz-adv-x="963" d="M508 557q-29 21 -64 86q-2 3 -13 27q-10 18 -17 30q-21 35 -41 37q-16 1 -35 -13q-20 -14 -22 -30q-4 -25 18 -64q7 -12 19 -30q14 -21 17 -25q49 -80 60 -114q4 -14 13 -69q6 -38 21 -56q8 -10 64 -65q39 -38 55 -77q-1 -1 185 108q-28 48 -20 236q10 214 -131 336 q-1 0 -4 1q-2 2 -4 1q-1 -277 -3 -307q-53 -45 -98 -12zM91 1184q0 -500 6 -601q57 -4 219 -3q-4 11 -14 30q-12 22 -15 30q-17 37 -11 66q7 33 45 56q39 24 74 12q36 -13 76 -99q38 -81 87 -86q8 34 8 193q0 500 -6 604q-84 4 -225 3q-188 -1 -230 0q-6 -3 -8 -6 q-6 -25 -6 -199zM821 330q12 3 21 0q12 -4 46 -63q35 -62 34 -73q-2 -16 -29 -31q-7 -4 -24 -12q-17 -7 -24 -12q-32 -18 -81 -48q-55 -33 -81 -48q-75 -44 -86 -43q-15 1 -51 63q-28 49 -32 62q-9 35 29 49q-8 37 -52 77q-56 51 -67 68q-6 8 -31 119q-3 13 -49 97 q-25 6 -149 -3q-103 -7 -130 20q-19 20 -20 89q0 22 2 59q1 39 1 51v427q0 14 -3 77q-2 51 0 81q6 89 57 98h353q85 0 94 -1q46 -6 57 -36q3 -8 3 -117v-233q-3 -104 0 -111q4 -13 35 -38q39 -33 42 -36q102 -112 105 -284q0 -21 -2 -61q-4 -50 -4 -68q-3 -82 17 -122 q5 0 19 3z" />
<glyph unicode="P" horiz-adv-x="1518" d="M765 394h225v671h-442q-7 -124 -6 -332q2 -278 1 -339h222zM693 1133q25 -12 76 -13q56 0 70 18q-77 20 -146 -5zM1072 511q0 -207 -9 -224q-21 -36 -119 -40q-32 -2 -85 0q-68 2 -78 2q-19 0 -75 -3q-55 -3 -86 -3q-105 0 -136 30q-24 24 -24 204v457q0 179 -1 170 q10 87 74 102q65 14 262 4q20 -1 64 0q53 1 72 1q87 -2 112 -20q36 -26 36 -204q0 -50 -4 -140q-3 -85 -3 -108v-228zM52 1434v-1428q267 -7 701 -6q581 2 708 1v1433h-1409z" />
<glyph unicode="Q" horiz-adv-x="1554" d="M797 168q12 24 10 40q-9 11 -22 11q-11 0 -20 -9t-9 -20q0 -13 12 -22h29zM990 257v633h-410q-7 -129 -6 -314q1 -278 1 -319h415zM713 949q108 -16 134 5q-103 18 -134 -5zM1303 995v22q0 13 -2 21q-38 203 -296 227q-6 46 29 45q111 -6 201 -72q93 -69 116 -171 q10 -45 9 -65q-3 -42 -39 -48q-16 14 -18 41zM1212 954q-16 204 -207 207q-7 14 -2 27q4 13 17 18q118 2 180 -66q61 -66 52 -181q-26 -7 -40 -5zM1104 1003q-5 30 -39 43q-11 4 -32 9q-25 5 -33 8q-9 47 54 44q56 -3 93 -71q15 -30 10 -53q-6 -26 -39 -34q-17 8 -14 54z M937 119q-30 0 -78 2q-53 3 -67 3q-17 0 -79 -2q-53 -2 -83 -1q-95 3 -119 32q-15 18 -15 198v420q0 4 -3 72q-1 47 2 76q8 84 65 99q19 5 267 5q121 0 138 -1q71 -5 89 -29q15 -19 15 -202v-435q0 -182 -15 -203q-23 -32 -117 -34zM778 1434q-599 -2 -732 -1v-1433h1453 q7 271 5 711q-1 588 0 717q-276 7 -726 6z" />
<glyph unicode="R" horiz-adv-x="2095" d="M1545 396q47 23 72 22q42 -1 81 -64q-15 -2 -72 -30q-48 -24 -76 -20q-33 4 -74 64q16 3 69 28zM1486 316q38 -33 68 -35q25 -2 94 24q75 29 77 49q2 17 -35 50q-34 30 -53 34q-23 6 -114 -27q-72 -26 -73 -43q-2 -19 36 -52zM1141 472q49 -55 50 -57q-41 -28 -78 -17 q-36 11 -53 50q61 22 81 24zM1218 411q-3 5 -15 23q-10 16 -17 25q-22 29 -45 33t-108 -40q51 -76 78 -81q33 -6 107 40zM1327 521q40 -8 52 -42q-33 -16 -77 -27q-46 49 -47 53q32 24 72 16zM1256 466q25 -31 43 -34q21 -4 55 13q61 30 52 27q-16 53 -72 67 q-58 15 -106 -27q5 -18 28 -46zM1497 589q5 -5 26 -24q17 -14 24 -26q-10 -11 -61 -24q-4 7 -29 24q-20 14 -24 30q50 18 64 20zM1439 528q4 -3 22 -16q14 -10 22 -17q80 20 94 41q-15 26 -80 73q-83 -27 -91 -36q7 -25 33 -45zM1667 637q35 -10 48 -44q-14 -7 -57 -20 q-51 38 -57 50q31 24 66 14zM1606 584q29 -29 48 -32q31 -3 88 37q-37 69 -78 74q-16 2 -90 -33q6 -18 32 -46zM1454 447q-243 -88 -353 -126q-155 147 -423 416q-394 393 -393 393q-1 0 -5 4l-7 7q-7 9 -1 15q388 80 671 135q2 0 13 -7q7 -5 215 -175q135 -110 534 -443 q89 -74 104 -93q-126 -44 -355 -126zM1846 566q-6 22 -47 57q-156 129 -416 343q-334 273 -417 341q-9 8 -13 7q-68 -9 -180 -33q-147 -30 -186 -37q-247 -45 -359 -77q10 -21 104 -115q108 -107 324 -325t327 -329q99 -99 114 -101q8 -1 97 31q369 128 652 238zM107 1271 v-11q10 -39 48 -79q12 -12 35 -32q24 -23 35 -33q132 -132 394 -400q263 -267 394 -399q106 -105 140 -128q92 -62 206 -49q27 2 158 50q147 53 298 117q159 67 175 88q-1 -1 9 17q6 10 11 6q1 -82 -57 -132q-26 -22 -124 -69q-77 -37 -155 -71q-249 -107 -339 -114 q-138 -10 -243 76q-34 29 -83 84q-62 71 -80 89q-54 54 -145 153q-90 99 -140 149q-72 71 -426 449q-7 8 -52 51q-34 32 -50 54q-50 67 -19 130q5 0 10 4zM1925 375q-16 -7 -44 -17q-31 -10 -39 -14q-269 -110 -315 -127q-136 -51 -171 -54q-114 -11 -201 51 q-18 13 -132 127q-595 596 -772 779q-108 112 -120 140q24 23 70 32q14 3 40 6q28 4 41 6q146 27 164 30q340 58 336 57q79 6 147 -38q-8 5 108 -89q107 -88 421 -340q264 -212 424 -345q114 -93 101 -154q-6 -27 -58 -50zM481 710q223 -241 341 -359q2 -2 134 -144 q100 -108 128 -130q82 -66 181 -75q103 -10 213 28q37 13 91 37q76 34 89 39q88 36 171 77q110 54 133 71q66 48 78 121q13 72 -25 130q-23 35 -89 91q-172 145 -431 353l-435 348q-9 8 -52 46q-31 27 -53 42q-63 44 -136 47q-41 1 -212 -27q-284 -48 -399 -71 q-131 -26 -155 -80q-9 -59 23 -110q16 -26 68 -78q115 -115 337 -356z" />
<glyph unicode="S" horiz-adv-x="1537" d="M866 312h99v39h-99v-39zM732 312h99v39h-99v-39zM599 312q17 -5 46 -2q35 3 53 2q2 7 5 34q-15 6 -49 6q-48 -2 -55 -1v-39zM965 386v39h-99q-3 -29 0 -39h99zM732 386h99v39h-99v-39zM599 386q7 0 55 -1q34 -1 49 6v29q-15 7 -49 6q-48 -1 -55 -1v-39zM866 460h99v39 h-99v-39zM732 499v-39h99q-1 10 2 22q2 9 -2 17h-99zM599 460q7 0 55 -1q34 0 49 6v29q-15 7 -49 6q-48 -1 -55 -1v-39zM913 577q-32 2 -47 -3v-40h99q-3 42 -5 45q-14 -4 -47 -2zM831 534q-3 42 -5 45q-7 -3 -29 -1q-27 2 -36 1q-42 -2 -29 -45h99zM698 534q4 35 5 35 q-23 14 -66 12q-52 -2 -38 -47h99zM960 839q2 152 -5 214q-202 -10 -351 0q0 -64 -1 -214q0 -131 1 -206q32 1 183 -1q114 -1 178 6q-8 54 -5 201zM1261 514q5 30 32 63q37 45 42 56q40 73 41 173q0 102 -41 178q-6 13 -41 57q-27 34 -33 62q34 15 35 15q95 -67 125 -223 q31 -160 -36 -287t-124 -94zM1234 665q34 50 42 87q20 91 -30 183q-3 7 -33 46q-22 28 -26 52q34 15 35 15q86 -51 102 -193q16 -139 -48 -232q-52 -76 -89 -40q9 27 47 82zM1141 708q31 37 36 58q20 84 -64 183q17 31 41 24q20 -6 40 -39q45 -74 38 -153q-6 -59 -37 -100 q-34 -46 -77 -28q-3 24 23 55zM870 236q-33 1 -91 6q-55 5 -71 5q-15 0 -41 -1q-27 -2 -39 -2q-43 0 -69 18q-38 27 -40 174q0 43 3 126q3 84 3 115v213q0 163 -1 158q9 76 70 89q66 15 221 13q175 -2 204 -32q29 -31 27 -193q0 -46 -4 -130q-3 -79 -3 -103q0 -15 3 -92 q4 -81 5 -131q1 -171 -28 -202q-33 -34 -149 -31zM430 699q18 -22 15 -41q-42 -26 -77 24q-30 42 -36 99q-8 63 20 120q23 49 64 78q28 -7 34 -20q-6 -21 -34 -57q-26 -33 -30 -61q-8 -54 15 -104q3 -8 29 -38zM240 860q16 137 102 188q23 1 34 -19q-9 -19 -29 -49 q-23 -36 -30 -49q-34 -58 -35 -115q-1 -74 45 -148q49 -81 49 -85q-28 -22 -56 3q-12 11 -38 52q-57 91 -42 222zM188 593q-46 79 -52 196q-6 121 37 210q64 128 124 109q6 -32 -15 -54q-2 -3 -20 -19q-13 -11 -19 -21q-51 -76 -56 -186q-5 -111 41 -195q1 -1 44 -57 q27 -35 25 -67q-46 -22 -109 84zM55 1434q-6 -1 -5 -15v-1419h1434v1434h-1429z" />
<glyph unicode="T" horiz-adv-x="1246" d="M957 607q3 -48 -13 -60q-42 -32 -62 21q-17 47 -5 105q-17 5 -60 4q-44 -2 -60 3q-42 47 12 69q47 19 105 8q7 16 3 52q-5 38 0 54q7 26 34 30q26 4 39 -16q10 -16 8 -54q-4 -50 -1 -66q16 -2 47 -1q30 1 43 0q44 -3 47 -36q2 -36 -41 -42q-3 -1 -93 -1q-5 -14 -3 -70z M1007 976q-138 44 -250 -37q-103 -76 -113 -196q-13 -146 92 -235q108 -91 268 -55q115 41 164 158q50 120 -8 232q-53 102 -153 133zM512 46q-23 3 -41 25q-17 22 -13 43q5 25 39 33q34 7 55 -18q21 -27 2 -59q-16 -27 -42 -24zM524 1346q11 0 39 2q25 1 38 1q43 -1 56 -19 q-20 -10 -147 -10t-146 10q-2 10 6 10q17 6 154 6zM870 357q-2 -23 -2 -79q-1 -52 -4 -78q-77 -1 -273 1q-174 1 -264 -1q-132 -3 -177 7q2 130 -1 524q-2 324 5 499h713q-2 -30 1 -77q3 -49 2 -80q18 2 49 2q33 0 45 1q6 122 -9 187q-18 77 -75 123q-51 42 -160 48 q13 -1 -213 -1h-257q-78 -8 -133 -70q-54 -59 -63 -143q-4 -35 1 -108q5 -77 2 -116q-9 -135 -7 -370q2 -285 0 -353q-4 -166 114 -246q60 -27 356 -27h267q59 9 110 61q51 51 63 112q6 29 4 87q-2 71 0 97h-94z" />
<glyph unicode="U" horiz-adv-x="1016" d="M463 909q-34 -80 -48 -90q-17 -4 -45 -7q-38 -5 -51 -7q-4 0 -23 -2q-17 -2 -27 -4q-30 -6 -33 -20q-4 -16 60 -74q64 -59 66 -69q1 -5 -7 -47q-20 -113 -13 -136q38 8 89 37q58 33 84 42q17 -6 84 -45q50 -29 89 -31q8 29 -10 93q-18 65 -13 90q2 8 63 70q60 60 63 73 q8 -5 -186 37q-82 157 -87 163q-24 -2 -55 -73zM517 203q-294 1 -358 0q-4 195 -4 512q1 423 1 516q63 1 355 0q217 -1 350 3q1 0 3 -2q2 -1 4 -1q4 -194 4 -510q-1 -422 -1 -515q-134 -4 -354 -3zM464 94q-9 45 35 56q29 7 46 -6q15 -12 16 -35q1 -22 -11 -40 q-13 -18 -35 -19q-42 -1 -51 44zM382 1348h153q109 0 123 -14q-5 -14 -25 -15q-6 0 -18 1q-13 1 -17 1q-204 1 -229 3q6 17 3 17q3 4 10 7zM968 1031q0 219 -20 267q-40 96 -130 126q-29 10 -276 10q-264 0 -290 -3q-62 -8 -113 -50q-46 -39 -66 -93q-17 -44 -17 -277v-588 q0 -226 20 -277q40 -100 133 -133q38 -13 309 -13q264 0 307 17q100 39 133 153q10 34 10 279v582z" />
<glyph unicode="V" horiz-adv-x="1520" d="M958 201q6 -15 9 -18h69q-2 9 -10 20q-8 12 -10 20q-6 -1 -38 0q-23 1 -31 -5q6 -5 11 -17zM586 183q0 9 7 20t8 20q-80 10 -89 -40h74zM986 267q0 13 -7 27q-11 18 -12 22h-70q2 -11 12 -25q11 -16 13 -24h64zM625 267q6 7 15 25q9 17 15 24q-89 13 -94 -49h64zM942 361 q0 9 -8 20q-7 11 -7 20h-297q-9 -3 -15 -18q-7 -19 -9 -22h336zM902 445q3 12 -3 21q-6 12 -7 19h-227q-5 -3 -20 -40h257zM873 529q-2 8 -8 22q-6 13 -7 23q5 1 -111 2q-66 1 -67 -42q142 0 193 -5zM843 618q0 7 -6 19q-5 11 -4 21q-13 -3 -40 -1q-34 2 -43 2 q-47 -1 -41 -41h134zM739 747q0 -10 -4 -23q-5 -16 -6 -22h89q2 9 -2 20t-3 20q-78 7 -74 5zM798 813q1 16 -4 18h-40q0 -7 -4 -19q-3 -11 -1 -21q59 11 54 5q-6 2 -5 17zM789 875v40h-25q-4 -3 -5 -40h30zM779 1067q7 4 8 15q1 10 -5 14q-6 6 -18 -3q-4 -1 -5 -20 q11 -10 20 -6zM1076 932q-41 -63 -85 -37q9 17 27 44q20 30 27 43q30 53 30 106q0 58 -29 114q-50 91 -50 79q21 16 46 0q21 -15 41 -52q43 -81 37 -161q-6 -78 -44 -136zM894 222q-29 53 -46 90h-143q-96 -181 -94 -178q-30 -1 -93 0q-55 1 -85 0q156 298 185 368 q91 223 96 457h40q11 44 -10 68q-28 32 -30 41q-6 35 13 56q17 19 45 20t47 -15q21 -19 19 -51q-1 -19 -29 -43q-24 -22 -15 -71q-2 6 39 -5q6 -230 100 -460q25 -61 182 -365q-29 1 -82 0q-62 -1 -91 0zM556 1286q-8 -24 -44 -78q-30 -46 -35 -86q-10 -76 25 -143 q0 -1 34 -43q21 -26 15 -51q-41 -5 -78 50q-31 47 -40 103q-12 75 16 150q26 69 73 108q6 1 34 -10zM585 1160q-23 -35 -24 -67q0 14 59 -139q-49 -14 -77 32q-25 41 -24 106q2 65 28 104q29 44 73 25q-5 -15 -35 -61zM668 1127q-18 -23 -18 -39q0 -15 19 -39q16 -21 11 -40 q-34 -11 -55 16q-19 23 -19 63t18 64q21 26 56 15q5 -19 -12 -40zM928 1150q18 -24 17 -64q-1 -39 -21 -61q-23 -26 -56 -11q-2 16 12 32q16 17 17 27q4 21 -10 46q-17 30 -19 48q38 11 60 -17zM965 1021q26 45 21 87q-2 27 -28 62q-25 34 -26 56q43 12 72 -32 q25 -40 26 -102q2 -63 -22 -104q-27 -46 -76 -39q3 19 33 72zM52 1434q-6 -1 -5 -15v-1419h1434v1434h-1429z" />
<glyph unicode="W" horiz-adv-x="2030" d="M1530 739l52 -93v352q1 216 -3 348h-1118q-6 -2 -6 -9q1 -61 0 -344q-1 -212 3 -341q9 13 21 39q15 32 20 41q25 49 59 65q35 17 74 5q36 -11 63 -42q26 -30 31 -67q4 -40 -20 -73h620q-39 70 5 133q44 61 120 52q44 -5 79 -66zM1625 222q-12 21 -17 28q-8 11 -58 59 q-38 36 -48 70q-3 11 -4 34q-1 25 -4 37q-7 28 -63 119q-58 96 -54 125q3 20 23 32q19 12 40 8q19 -4 37 -38l15 -30q9 -20 13 -29q66 -123 140 -88q24 12 27 66q1 18 0 51q-2 43 -2 54v156q3 1 3 -2q140 -117 140 -299q0 -25 -4 -72q-4 -53 -4 -74q-2 -86 25 -127 q-22 -13 -93 -54q-59 -33 -92 -54q-9 11 -20 28zM657 578q4 12 14 30q13 26 15 31q17 38 11 67q-6 31 -37 53q-33 23 -71 18q-31 -4 -52 -33q-13 -17 -33 -63q-39 -89 -89 -95q-8 34 -8 194v404q0 176 6 199q605 15 1212 0q3 -71 3 -401q0 -326 -9 -393q-32 -1 -54 27 q-14 17 -34 61q-40 93 -83 100q-40 6 -76 -19q-34 -25 -37 -61q-3 -27 15 -62q25 -49 27 -57h-720zM543 461q-3 -10 -11 -60q-5 -39 -17 -57q-11 -17 -67 -70q-45 -43 -55 -80q-30 15 -95 54q-61 35 -96 54q32 51 26 176q-8 151 2 199q16 73 129 199q13 -27 4 -148 q-8 -124 4 -156q9 -23 40 -28q29 -5 54 8q28 15 68 88q49 90 63 94q16 5 38 -6q24 -12 27 -31q6 -29 -27 -86q-10 -18 -27 -43q-17 -26 -20 -30q-34 -59 -40 -77zM1901 330q-7 6 -20 -1q-14 -7 -17 -5q-22 43 -14 211q10 220 -128 353q-54 51 -52 45v348q0 105 -3 113 q-11 33 -68 39q-7 1 -114 1h-1064q-45 -5 -54 -50q-3 -12 -3 -103v-350q-180 -136 -182 -353q0 -23 3 -67q3 -51 4 -70q2 -82 -21 -117q-30 19 -52 -7l-31 -52q-36 -62 -34 -74q3 -13 74 -54q33 -19 86 -49q51 -29 79 -45q77 -45 88 -43q14 2 49 63q37 65 37 74 q-1 13 -15 22q-16 11 -19 17q11 37 59 81q55 51 69 76q10 19 15 53q5 47 7 55q8 30 52 94h771q45 -72 51 -97q25 -110 26 -111q13 -23 66 -72q46 -41 59 -81q-40 -14 -30 -50q3 -8 33 -61q34 -62 51 -63q11 -1 85 43q29 17 81 47q52 29 81 47q75 44 77 54q3 15 -13 40 q-5 7 -14 19q-8 11 -10 15q-33 58 -45 65z" />
<glyph unicode="X" horiz-adv-x="1540" d="M1015 197q-8 8 -47 51q-29 32 -47 38q32 -44 50 -94q47 11 44 5zM591 192q3 18 25 53q19 32 19 46q-6 -9 -49 -51q-31 -31 -35 -52q-2 -6 40 4zM635 355q38 29 109 64q-12 22 -64 50q-46 -123 -45 -114zM796 365q24 -1 32 5q-10 1 -19 9q-11 9 -16 11q-2 -8 -16 -13 q-15 -6 -18 -12q5 1 37 0zM888 458q-23 60 -41 90q-12 -10 -47 -29q-32 -17 -46 -30q119 -88 172 -124q-12 25 -38 93zM787 635q-34 25 -43 31q-3 -19 -21 -71q-16 -44 -14 -67q17 14 63 39q42 23 61 40q-20 9 -46 28zM806 721q-3 23 -13 29q-6 -12 -34 -20q-3 5 54 -44 q-3 6 -7 35zM768 799q24 -2 21 37q-1 13 -5 26q-4 12 -6 12q-3 -52 -10 -75zM1069 902q-40 -55 -78 -28q89 125 78 217q-4 41 -32 84q-4 7 -22 33q-13 19 -20 31v15q53 10 91 -69q38 -78 28 -163q-8 -70 -45 -120zM897 219q-31 55 -45 87h-138q-44 -72 -94 -173q-28 0 -89 1 q-52 0 -83 -1q140 257 180 357q87 216 96 443q-5 -2 40 5q10 44 -15 67q-29 28 -30 46q-1 29 18 47q18 15 44 16q26 0 43 -15q20 -18 18 -48q0 -21 -27 -42q-24 -19 -17 -66q17 -12 40 -5q7 -229 95 -446q39 -97 181 -359q-24 2 -81 1q-64 -2 -92 -1q-13 30 -44 86z M543 1259q7 0 11 -1q12 -1 12 -9q6 -20 -13 -39q-31 -29 -31 -31q-39 -63 -30 -148q4 -39 35 -87q34 -54 39 -75q-40 -17 -78 41q-33 50 -40 107q-10 71 18 142q25 63 66 99q3 0 11 1zM618 1197q11 -4 12 -13q-5 -14 -30 -48q-21 -29 -24 -55q-5 -40 16 -83q5 -10 20 -35 q12 -22 18 -35q-45 -20 -76 37q-30 54 -22 121q8 70 69 118q-6 3 17 -7zM676 1095q-16 -21 -16 -34t16 -36q15 -22 13 -43q-33 -11 -54 15q-18 23 -19 62q0 39 18 62q20 26 55 14q2 -20 -13 -40zM925 1125q18 -24 19 -64q0 -41 -18 -64q-20 -26 -54 -10q0 18 14 37 q15 20 16 32q0 16 -14 38q-16 22 -16 41q33 16 53 -10zM1002 1161q23 -35 28 -75q8 -63 -18 -114q-29 -58 -81 -44q6 14 18 36q16 28 21 36q22 45 16 86q-4 24 -23 50q-28 36 -32 43q-1 10 8 15q11 7 12 10q27 -7 51 -43zM43 0h1456v1426q-276 7 -725 6q-599 -2 -731 -1 v-1431z" />
<glyph unicode="Y" horiz-adv-x="1526" d="M814 847q2 23 29 68q22 37 15 71q-5 28 -31 45q-25 16 -56 15q-33 -1 -55 -19q-24 -20 -26 -56q-1 -20 15 -51q21 -37 25 -53q38 -157 5 -411q-14 -103 -84 -163q-69 -59 -184 -70q8 -90 5 -84q167 -7 173 -5q28 6 64 35q33 27 55 29q35 3 61 -20q36 -31 63 -39 q20 -7 188 0q-3 -6 5 84q-115 9 -184 71q-72 63 -83 172q-21 202 0 381zM943 1050q-5 -16 16 -37q23 -24 23 -47q0 -22 -19 -42q-19 -21 -20 -47q40 -16 65 7q22 19 28 60q5 39 -7 74q-12 37 -37 47q-41 17 -49 -15zM586 925q-20 25 -20 41q0 19 18 43q20 25 22 46 q-43 25 -69 -7q-22 -28 -22 -81q1 -53 23 -82q26 -32 68 -8q0 23 -20 48zM1104 1103q-45 64 -87 27q7 -14 26 -43q17 -28 25 -44q26 -52 18 -106q-4 -31 -32 -68q-31 -41 -37 -61q19 -21 42 -14q21 7 42 36q44 60 45 136t-42 137zM408 1006q-12 -80 27 -156q42 -82 96 -42 q-6 17 -39 65q-26 37 -30 73q-5 50 21 100q7 13 24 42q17 26 24 42q-19 19 -49 15q-68 -92 -74 -139zM1250 1006q-8 76 -56 151q-54 83 -98 47q1 -23 21 -46q33 -36 34 -38q41 -65 41 -156q-1 -89 -41 -151l-36 -37q-22 -23 -19 -48q28 -23 59 4q18 16 45 61q62 100 50 213z M305 1024q-20 -127 43 -231q27 -44 42 -59q31 -29 62 -6q0 24 -20 49q-35 42 -34 41q-68 108 -35 228q9 32 43 80q37 50 46 78q-11 19 -44 15q-83 -72 -103 -195zM1478 1437v-1437h-1437v1422q-1 14 5 15h1432z" />
<glyph unicode="Z" horiz-adv-x="1337" d="M864 97q-14 29 -22 37q-38 -20 -33 -18q-13 9 -26 34q-15 30 -21 38q-30 -18 -33 -21q-12 9 -25 35q-14 27 -23 36q-8 0 -17 -6q-10 -7 -16 -8q-18 15 -37 51q-24 46 -31 56q-7 -3 -18 -9q-12 -7 -18 -9q-7 3 -13 15q-7 14 -11 18q-8 -1 -19 -9t-20 -9q-5 10 -20 34 q-12 21 -18 34q28 27 110 66q-2 5 18 -33q9 1 21 9q11 8 20 9q6 -13 20 -36q14 -24 19 -35q16 3 39 20q-41 78 -139 244q-92 157 -138 245q8 5 33 19q21 12 32 20q3 1 5 -1q3 -2 4 -2q145 -250 191 -331q12 3 36 21q-8 23 -29 57q-23 38 -31 56q11 8 36 21q24 13 36 21 q49 -82 86 -149q4 1 39 21q-10 20 -31 57q-22 37 -32 56q76 42 75 42q11 -22 83 -146q4 0 36 18q-8 24 -28 58q-25 40 -31 55q3 2 17 11q10 7 18 10q2 -4 11 -18q6 -11 10 -18q7 2 19 10q11 7 20 8q174 -307 170 -298q-34 -22 -33 -21q8 -20 30 -56t30 -57q-37 -26 -33 -21 q4 -14 20 -38q15 -22 19 -40q-62 -32 -166 -93q-117 -68 -165 -94q-13 9 -26 34zM1253 376q-8 16 -30 53q-20 33 -29 54q3 4 33 21q-30 59 -84 151q-66 112 -86 150q-10 0 -21 -9q-12 -8 -21 -9q-17 30 -24 33q-6 -2 -16 -9t-17 -9q5 -8 -21 36q-12 -5 -37 -20 q-22 -14 -37 -19q-6 3 -21 33q-21 -9 -58 -31q-38 -23 -58 -32q-17 31 -24 33q-14 -5 -36 -19q-23 -15 -36 -20q-19 32 -53 92q-37 65 -54 93q-8 -1 -19 -9q-12 -8 -20 -9q-3 3 -10 18q-6 11 -14 15q-23 -11 -71 -42q2 -6 9 -19q7 -11 9 -20q-31 -18 -33 -23 q31 -57 106 -185q69 -118 106 -185q-15 -14 -36 -21l-24 33q2 1 -146 -84q48 -89 69 -113q14 13 32 18q5 -5 11 -16q7 -13 10 -17q9 1 20 9t19 9q9 -12 32 -55q20 -36 37 -52q6 2 17 9t18 9q33 -61 45 -72q6 1 16 8q9 7 17 7q10 -8 23 -35q12 -26 24 -34q7 2 18 10 q10 7 18 8q11 -20 31 -55q23 -39 32 -55q337 192 411 241q-7 18 -30 55q-21 33 -29 56zM350 1353h131q102 0 120 -9q-3 -14 -23 -16q-6 0 -17 1q-14 1 -17 1h-72q-116 0 -134 8q0 3 1 5q2 3 2 4q3 4 9 6zM317 328q-22 4 -89 2q-63 -1 -81 4q1 81 0 464q-1 286 3 454h638 q1 -32 0 -184q-1 -113 3 -180q44 -9 87 0q-1 46 1 169q2 100 -3 152q-13 155 -111 204q-41 20 -131 21q-27 0 -81 -1q-58 -2 -84 -2h-238q-69 -9 -117 -65q-47 -55 -53 -132v-894q7 -71 55 -126q47 -56 109 -65q51 -8 133 -1q89 6 141 1q-87 72 -137 131q-35 42 -45 48z" />
<glyph unicode="[" horiz-adv-x="1509" d="M376 476q673 -1 786 0v519h-781q-6 -1 -5 -14v-505zM1168 374q-26 0 -70 2q-44 3 -57 3q-281 2 -524 0q-177 -2 -167 -3q-99 6 -125 46q-23 38 -21 137q1 26 4 85q3 54 3 79t-4 124q-3 72 1 111q10 112 85 129q22 5 267 5h525q107 0 130 -2q70 -7 93 -37q25 -33 25 -149 q0 -33 -3 -100t-3 -95q0 -18 3 -89q2 -59 1 -93q-5 -107 -47 -134q-31 -19 -116 -19zM56 1432q-7 -272 -6 -713q2 -589 1 -719h1407v1432h-1402z" />
<glyph unicode="\" horiz-adv-x="1509" d="M480 777q9 1 16 -8q7 -10 13 -11q-4 23 19 53h180q8 -5 17 -24q8 -19 17 -24q19 43 33 59q24 27 64 28q-1 -6 -6 -31q-5 -21 -6 -33q-3 -37 22 -48q-3 -10 -25 -29q4 -18 15 -92q-81 14 -92 92q-12 -4 -20 -22q-9 -21 -14 -26q-30 -7 -87 -6q-80 1 -93 1q-1 2 -17 19 q-11 11 -7 29q-4 6 -13 -3q-10 -12 -16 -11v87zM572 967h97v-141h-97v141zM897 772q11 -13 10 -38q-1 -24 -12 -38q-12 -16 -32 -6q-1 12 8 21q11 10 12 18q1 13 -9 25q-10 13 -11 23q22 11 34 -5zM945 789q14 -24 12 -57q-1 -33 -15 -54q-16 -25 -40 -22q1 5 19 47 q15 33 5 60q0 1 -24 34q-4 5 -3 8q3 6 3 11q28 -1 43 -27zM991 806q16 -34 15 -77t-19 -73q-19 -33 -51 -34q4 11 14 29q12 22 16 31q18 38 14 71q-4 36 -44 78q0 -1 5 19q32 -8 50 -44zM1036 827q19 -41 18 -96q-1 -54 -21 -93q-22 -43 -58 -50q0 17 24 54q26 39 30 67 q11 98 -59 156q0 -1 5 19q39 -11 61 -57zM669 505h-97v136q48 17 97 0v-136zM373 476h787v520h-782q-6 -1 -5 -15v-505zM1188 377q-26 -1 -72 1q-53 1 -68 1h-525q-245 0 -257 5q-48 19 -57 113q-2 13 -2 188q0 27 -4 134q-3 80 1 123q9 128 86 146q21 5 272 5h530 q101 0 130 -3q68 -9 88 -41q22 -34 21 -144q0 -28 -3 -95q-3 -61 -3 -91q0 -19 3 -82q2 -59 2 -93q-2 -110 -34 -141q-25 -23 -108 -26zM52 0h1409v1428q-267 7 -702 6q-579 -2 -707 -1v-1433z" />
<glyph unicode="]" horiz-adv-x="1545" d="M1266 635q-4 3 -8 2q-12 -14 -12 -51q0 -40 17 -46q-7 -5 9 92q-2 0 -6 3zM295 637q-17 -49 0 -97q22 12 20 43q0 5 -4 27q-2 17 -1 27h-15zM1267 783h-14q-18 -96 14 -98q18 49 0 98zM290 783q9 -107 5 -98q21 2 22 46q0 44 -17 52h-10zM1267 928h-14q0 -10 -3 -29 t-3 -28q-1 -30 20 -40q18 49 0 97zM316 879q1 43 -16 49h-10q21 -98 10 -92q15 0 16 43zM842 783q-93 100 -255 107q-5 39 19 48q132 -2 227 -64q94 -63 133 -174q60 -173 -34 -165q-2 152 -90 248zM815 535q2 113 -63 175q-59 58 -165 63q-11 20 1 37q10 17 28 16 q111 -5 187 -83q84 -85 61 -203q-38 -11 -49 -5zM743 539q-12 -11 -25 -9q-18 3 -19 21q-3 35 -5 42q-12 34 -46 49q-10 4 -33 11q-25 8 -38 13q-5 49 63 44q46 -4 86 -50q42 -49 31 -96q-3 -15 -14 -25zM388 1001q-10 -3 -10 -14q8 -90 4 -271q-3 -171 6 -249q143 6 392 5 q316 -2 400 0q0 78 1 280q1 150 -1 249h-792zM1207 368q-29 -1 -76 0q-64 1 -73 1h-578q-141 0 -150 1q-73 6 -98 38q-26 34 -25 139q0 31 3 89q3 57 3 79q0 26 -4 126q-3 75 0 115q9 119 81 138q20 5 258 5h505q13 0 65 1q47 1 75 1q92 -2 118 -22q38 -29 42 -141 q1 -36 -1 -99q-2 -76 -2 -95q0 -22 3 -89q3 -65 3 -102q-1 -121 -35 -154q-27 -27 -114 -31zM57 0h1434v1434h-1434v-1434z" />
<glyph unicode="^" horiz-adv-x="1035" d="M469 569q-39 21 -55 47q-17 27 -13 58q4 28 22 48q19 19 44 20q27 1 51 -23q24 30 68 20t51 -47q12 -56 -36 -100q-12 -10 -83 -53q-7 8 -49 30zM631 810q-72 41 -110 65q-227 -138 -220 -133q1 -21 0 -134q-2 -83 7 -125q212 -19 423 0q12 40 11 125q-3 118 -1 137 q-33 20 -110 65zM521 912q34 -21 101 -59q71 -39 102 -58q4 -2 16 -11q11 -8 18 -12q22 -11 39 0q2 27 -30 42q-35 16 -40 31q-1 5 2 38q2 23 -15 32q-26 8 -51 2q-26 -6 -36 -22q-15 8 -52 31q-33 19 -54 29q2 1 -150 -86q-5 -3 -32 -17q-28 -14 -45 -24q-57 -32 -53 -49 q6 -23 37 -8q10 4 22 13q15 10 11 8q78 47 210 120zM877 203q-65 1 -360 0q-221 -1 -355 3v1015q-1 8 6 10h709v-1028zM488 62q-14 12 -18 31q-5 19 4 34q10 18 34 23q27 6 43 -8q15 -12 17 -34q1 -22 -10 -38q-12 -19 -34 -20q-20 -1 -36 12zM579 1348q43 2 62 0l15 -2 q8 -4 8 -15q-6 -12 -28 -12q-6 0 -19 1q-14 1 -20 1q-67 1 -163 0q-4 0 -17 -1q-12 -1 -19 0q-20 1 -23 15q16 9 129 9q17 0 75 4zM977 1015q0 229 -17 273q-40 106 -140 136q-32 10 -269 10q-257 0 -286 -3q-70 -8 -122 -54q-48 -42 -68 -106q-10 -31 -10 -269v-566 q0 -240 10 -273q16 -53 56 -95q40 -43 87 -58q31 -10 303 -10q265 0 303 13q105 37 140 153q13 45 13 273v576z" />
<glyph unicode="_" horiz-adv-x="1024" d="M597 731q-7 -5 -19 -22q-3 -3 -24 -8q-16 -3 -13 -19q4 -10 21 -8q19 1 26 -5q-1 -79 -4 -100q6 -4 20 -4q15 0 20 4v76q1 59 0 84q-14 12 -27 2zM438 603q-10 15 -12 39q-2 23 5 41q8 20 24 23q27 3 30 -52q4 -54 -20 -62q-16 -4 -27 11zM405 712q-21 -29 -15 -74 t32 -67q30 -25 69 -2q34 20 30 87q-3 67 -43 79q-49 10 -73 -23zM288 532q-13 33 -11 113q2 105 1 117q0 8 7 10q41 -1 228 0q141 1 225 -3q-2 -17 1 -124q1 -77 -11 -113q-210 -9 -440 0zM648 822q-30 -3 -43 22q-9 16 -14 58h-176q10 -41 -4 -63q-12 -19 -35 -16 q-22 2 -37 23q-16 23 -11 56q-84 12 -98 -54q-2 -7 -2 -156q0 -167 4 -176q10 -28 50 -35q14 -2 83 -2h259q97 0 112 3q48 10 51 57q3 33 1 79q-4 62 -4 88q0 135 -4 151q-17 61 -102 42q14 -72 -30 -77zM660 886q-5 48 1 62q-21 18 -35 3q-11 -13 -13 -43q-2 -29 7 -49 q10 -22 28 -17q16 5 12 44zM398 948q-22 19 -36 0q-12 -16 -12 -48t12 -48q14 -19 36 0q-6 48 0 96zM152 203q-5 193 -4 507q1 419 1 511q-1 8 6 10h709q-1 -93 0 -516q1 -317 -3 -512h-709zM495 150q29 7 46 -7q15 -13 17 -37q2 -25 -13 -40q-14 -13 -35 -15q-21 -1 -36 11 q-18 12 -19 35q-4 43 40 53zM591 1344q4 0 16 1q11 1 17 1q20 0 27 -12q-5 -14 -27 -15q-7 0 -20 1q-15 1 -20 1h-79q-129 0 -144 10q0 7 10 13h220zM964 1008q0 232 -17 277q-40 108 -143 139q-32 10 -269 10q-260 0 -287 -3q-130 -17 -179 -146q-17 -44 -17 -267v-565 q0 -255 7 -280q30 -113 136 -156q41 -17 306 -17q263 0 290 7q122 30 155 145q18 64 18 277v579z" />
<glyph unicode="`" horiz-adv-x="1024" d="M440 692q2 14 14 28q29 33 55 15q-52 -40 -59 -67q-12 9 -10 24zM413 675q0 -41 26 -67q24 -24 57 -26q47 -3 75 27q25 27 25 66q0 40 -25 66q-28 29 -75 23q-83 -9 -83 -89zM417 574q-36 34 -40 87q-5 53 25 93q32 44 91 50q61 7 100 -31q36 -34 40 -88q4 -53 -24 -93 q-31 -45 -90 -50q-63 -5 -102 32zM258 774q-2 44 3 53h76q-2 3 3 -49q-19 -7 -82 -4zM740 868q6 -1 -65 -1h-424q-32 -8 -36 -68q-1 -20 1 -60q2 -50 2 -67q0 -10 -1 -50q-1 -31 0 -48q2 -50 17 -62q14 -10 140 -9h275q2 0 36 -1q25 -1 41 0q50 2 62 20q7 11 7 160 q0 133 -4 162q-15 21 -51 24zM732 890q10 16 0 43q-38 10 -64 3q-35 -9 -16 -46h80zM861 207q-65 1 -359 0q-220 -1 -354 4v1011q0 8 7 10h706v-1025zM457 98q-12 45 36 56q27 7 44 -7q15 -12 18 -34q2 -22 -10 -39q-12 -18 -36 -19q-40 -2 -52 43zM626 1345q28 2 23 -14 q-9 -11 -31 -11q-7 -1 -20 0t-19 1h-159q-5 0 -17 -1q-11 -1 -17 -1q-20 1 -26 12q2 14 21 15h18q13 -1 18 -1h209zM960 1026q0 196 -20 263q-30 101 -135 135q-31 10 -272 10q-266 0 -289 -3q-123 -19 -172 -139q-20 -50 -20 -262v-571q0 -251 7 -278q27 -111 132 -162 q41 -20 146 -19q29 0 88 3q55 2 78 2q275 0 305 10q90 30 132 136q20 50 20 279v596z" />
<glyph unicode="a" horiz-adv-x="1032" d="M480 63q14 -14 37 -12q23 1 39 17q17 17 14 42q-2 22 -19 34q-18 14 -47 6q-33 -9 -37 -40t13 -47zM161 206q358 -8 715 0q0 94 1 515q0 316 -4 510h-709q-4 0 -3 -10v-1015zM539 1349q-100 -5 -109 -5q-4 0 -16 1t-18 1q-20 -1 -22 -15q5 -12 26 -12q6 0 18 1q14 1 19 1 q102 1 160 0q5 0 19 -1q13 -2 19 -1q22 0 28 12q-2 13 -23 17q-28 4 -101 1zM547 1434q248 0 283 -13q100 -39 133 -150q10 -33 10 -279v-573q0 -222 -17 -269q-40 -115 -146 -143q-25 -7 -293 -7q-255 0 -290 10q-117 34 -148 147q-18 66 -18 282v589q8 236 20 266 q50 121 180 137q27 3 286 3z" />
<glyph unicode="b" horiz-adv-x="1545" d="M1081 375q20 6 35 32q12 22 14 41q-2 6 -10 5q-38 -65 -39 -78zM1182 521q15 24 11 44q-19 -12 -32 -35q-15 -24 -12 -43q20 10 33 34zM1248 630q13 23 13 42q-17 2 -31 -24q-12 -21 -18 -49q21 6 36 31zM399 882q-22 -6 -37 -31q-14 -23 -12 -42q32 10 49 73zM413 921 q23 1 35 26l19 42q-31 9 -54 -68zM495 1075q-12 -22 -13 -42q31 8 48 73q-21 -5 -35 -31zM851 631q-1 50 6 75q10 -2 24 -12t24 -12q46 69 -6 134q-52 64 -130 41l5 54q107 17 168 -70t7 -183q-1 1 44 -30q-83 -55 -141 -78q1 13 -1 81zM842 575q-110 -21 -171 63 q-62 83 -14 185q-2 12 -15 19q-4 2 -12 5t-12 5q19 20 65 43q49 26 67 40q14 -22 9 -75q-6 -71 -5 -86q-18 10 -48 30q-45 -71 6 -135q50 -64 130 -45v-49zM500 922q-78 -129 -116 -206q93 -53 304 -178q195 -116 305 -178q34 62 118 202q77 128 116 203q-109 65 -304 180 q-215 126 -305 180q-33 -63 -118 -203zM1159 346q-56 -96 -98 -102q-47 -7 -119 36q-21 13 -56 38q-36 25 -49 33q-77 46 -202 117q-144 81 -212 121q-5 3 -50 28q-36 20 -58 34q-67 44 -72 85q-5 33 58 141q21 35 73 125q43 77 74 128q30 52 40 64q30 38 67 43 q40 6 113 -36q22 -13 59 -38q39 -25 52 -33q87 -52 202 -119q148 -85 207 -120q15 -9 56 -30q38 -19 57 -31q61 -38 67 -80q6 -37 -16 -79q-8 -14 -22 -35q-16 -24 -20 -32q-110 -186 -151 -258zM53 0h1437v1437h-1437v-1437z" />
<glyph unicode="c" horiz-adv-x="1024" d="M574 685q-11 -5 -33 -28q-18 -19 -34 -18q-13 0 -31 21q-19 22 -35 25q-113 -89 -163 -136q86 -5 229 -4q192 1 233 0q-12 19 -80 74q-73 59 -86 66zM325 787q-50 42 -87 64v-272q101 66 170 139q-13 10 -83 69zM610 718q81 -81 170 -139q-1 24 1 142q1 88 -8 134 q-54 -51 -163 -137zM627 782q84 68 113 103h-235h-227q0 -5 3 -10q212 -175 226 -187q77 58 120 94zM151 203v1018q0 7 7 10h705q5 -195 4 -512q-1 -423 0 -516h-716zM460 93q-7 40 31 53q33 8 52 -7q17 -13 17 -36q-1 -23 -16 -39q-17 -17 -43 -14q-34 4 -41 43zM521 1344 q115 0 133 -10q-1 -18 -24 -19q-8 0 -21 1q-15 1 -19 1h-159q-5 0 -20 -1q-13 -1 -20 -1q-22 1 -27 15q0 6 4 7q15 7 153 7zM966 1008q0 196 -15 259q-26 103 -121 147q-44 20 -134 20q-26 0 -81 -2q-56 -2 -84 -2q-267 0 -290 -3q-123 -18 -169 -137q-17 -42 -17 -272v-586 q0 -241 13 -279q38 -109 143 -143q31 -10 296 -10q278 0 300 7q107 33 146 149q13 41 13 273v579z" />
<glyph unicode="d" horiz-adv-x="1040" d="M681 567q87 -11 120 3q10 38 -4 74q-13 34 -41 55q-29 22 -60 21q-35 -1 -61 -30q40 -71 46 -123zM335 567q1 45 46 127q-29 26 -64 26q-32 0 -60 -22q-63 -48 -46 -128q35 -14 124 -3zM641 517q23 92 -36 160q-35 40 -82 44q-44 4 -85 -23q-40 -27 -59 -73 q-21 -50 -8 -105q71 -12 270 -3zM746 853q-19 17 -51 14q-69 -7 -60 -73q3 -27 24 -41q20 -14 45 -12q26 2 43 18q19 18 18 48q-1 29 -19 46zM362 851q-24 24 -61 16q-42 -8 -50 -43q-7 -33 8 -56q15 -20 41 -26q26 -5 48 5q24 12 30 37q10 42 -16 67zM573 779q20 28 18 64 q-3 38 -28 59q-29 25 -75 15q-37 -7 -54 -36q-16 -25 -11 -58q5 -32 27 -54q25 -23 61 -22q40 1 62 32zM504 203h-353q-4 194 -4 509q1 420 1 512q0 8 6 10h707q5 -196 4 -513q-1 -424 0 -518h-361zM506 50q-47 1 -51 43q-6 51 46 57q29 4 45 -12q15 -16 12 -45 q-4 -45 -52 -43zM515 1348q90 2 136 -7q2 -19 -21 -22q-7 0 -20 1q-16 1 -19 1h-80q-131 0 -150 10q-1 10 10 16q24 -1 144 1zM965 1014q0 198 -17 262q-28 101 -127 141q-40 17 -293 17q-268 0 -290 -3q-118 -18 -167 -137q-20 -48 -20 -270v-580q0 -250 10 -284 q16 -52 58 -96q42 -43 89 -57q22 -7 300 -7q271 0 300 10q111 38 140 150q17 64 17 274v580z" />
<glyph unicode="e" horiz-adv-x="1018" d="M610 497q2 3 -28 -30q-16 -18 -12 -27q134 44 176 134h-90q0 -3 -3 -6q-3 -2 -3 -4q-21 -40 -40 -67zM526 574q-10 -52 0 -104q60 53 77 104h-77zM403 574q19 -57 77 -104q10 48 0 104h-77zM259 574q41 -92 181 -134q-7 11 -46 62q-33 41 -45 72h-90zM686 697 q-1 -12 -7 -40q-4 -25 -6 -40h100q16 66 13 80h-100zM640 697h-114q3 8 -3 -77q16 -4 50 -3h53q14 69 14 80zM366 697q-4 -21 13 -80h101q11 40 0 80h-114zM266 697q-34 1 -50 -3q1 -23 17 -77h100q-11 62 -14 80q-8 -1 -53 0zM673 817q13 -78 13 -80q9 1 54 0q33 -1 50 3 q-10 60 -20 77h-97zM623 817h-97q3 8 -3 -77q19 -4 56 -3q51 1 61 0q0 48 -17 80zM363 740q60 -10 120 0v74q-16 4 -50 3h-54q-9 -29 -16 -77zM326 777q5 27 7 40h-100q-16 -54 -17 -77q16 -4 50 -3q45 1 53 0q2 14 7 40zM603 860q-18 53 -77 104q-10 -52 0 -104h77z M480 860q-3 -9 3 100q-2 1 -5 3q-2 1 -5 1q-69 -99 -70 -104h77zM746 860q-45 93 -180 134q9 -13 47 -65q30 -39 43 -69h90zM436 994q-141 -45 -177 -134h90q51 92 91 124q-2 10 -4 10zM860 203h-714q-4 194 -4 509q1 419 1 512q0 8 6 10q64 -1 358 0q219 1 353 -3v-1028z M459 129q14 20 44 21q41 2 50 -33q7 -28 -5 -46q-11 -15 -32 -19q-20 -4 -39 5t-24 26q-8 27 6 46zM369 1347h147q114 0 134 -10q-4 -16 -25 -18q-7 0 -20 1q-15 1 -19 1h-80q-130 0 -150 10q0 3 1 5q2 3 2 5q3 3 10 6zM960 727q0 521 -20 570q-41 100 -140 130 q-22 7 -277 7q-262 0 -287 -3q-107 -15 -160 -117q-30 -58 -30 -267v-597q0 -257 10 -290q37 -120 150 -153q23 -7 297 -7q279 0 300 7q47 14 87 56q40 41 56 90q14 39 14 281v293z" />
<glyph unicode="f" horiz-adv-x="1013" d="M233 393q-5 -7 -4 -27q1 -28 0 -33h547q12 30 0 60h-543zM236 513q4 3 -7 -60h547q12 30 0 60h-540zM339 880q27 7 74 4q9 -129 0 -257q-60 -2 -74 0v253zM469 787q-7 -3 74 3v-163h-74v160zM666 710v-83h-73q0 7 -1 44q0 27 4 39q24 9 70 0zM780 977q-102 4 -272 4 q-226 -1 -275 -1q-4 0 -4 -10v-396q50 0 278 -1q170 -1 273 4v400zM776 1040q12 30 0 60h-543q-5 -7 -4 -28q1 -27 0 -32h547zM863 203h-717v1021q0 7 7 10q64 -1 357 0q219 1 353 -4v-1027zM535 57q-18 -11 -41 -4q-24 6 -35 24q-13 21 -3 46q9 23 43 27q25 3 41 -11 q18 -14 16 -42q-1 -28 -21 -40zM516 1347q115 0 134 -10q-2 -17 -58 -19q-18 0 -49 1q-35 1 -44 1q-15 0 -47 -1q-28 -1 -41 -1q-42 1 -55 19q3 1 7 5q3 5 6 5h147zM960 1017q0 225 -17 270q-39 104 -130 137q-28 10 -280 10q-267 0 -294 -4q-64 -8 -113 -51 q-43 -38 -63 -92q-17 -44 -17 -277v-587q0 -223 17 -270q42 -118 150 -146q25 -7 286 -7q276 0 291 3q121 28 160 167q10 36 10 273v574z" />
<glyph unicode="g" horiz-adv-x="1107" d="M889 851q-54 42 -77 61q-72 58 -83 60q-22 3 -21 -59q1 -80 -3 -91q-18 -1 -124 1q-76 1 -115 -8q-21 -98 0 -193q36 -9 119 -7q91 3 124 -3q2 -12 -2 -86q-3 -52 18 -60q16 -6 44 17q8 7 22 20q13 13 17 16q31 25 81 63q53 40 83 64q73 58 73 73q-1 13 -29 35 q-8 6 -25 17q-14 10 -19 14q-30 25 -83 66zM523 52q-48 4 -47 51q0 37 40 47q34 8 53 -11q18 -19 10 -52q-10 -40 -56 -35zM585 1349q24 1 37 1q39 -1 53 -16q-5 -14 -28 -15q-7 0 -20 1q-14 1 -18 1q-197 0 -227 7q7 21 61 22q17 1 51 -1q38 -1 52 -1q11 0 39 1zM885 469 q-4 -277 -3 -266q-65 1 -357 0q-219 -1 -352 3q-9 513 0 1025h712v-101v-98q1 -65 0 -64q1 -3 47 -40q45 -35 53 -36q-4 48 2 210q4 123 -15 179q-20 58 -67 99q-51 47 -116 54h-523q-77 -9 -132 -71q-54 -61 -61 -145v-752q0 -202 4 -241q13 -114 73 -168q47 -44 146 -53 q36 -4 203 -4h239q120 9 174 60q62 60 72 199q3 48 2 134q-1 121 -1 149q-27 -8 -100 -73z" />
<glyph unicode="h" horiz-adv-x="957" d="M508 176h95v175q-53 7 -95 0v-175zM457 176v175q-85 33 -94 -48q-2 -22 1 -71q2 -43 -1 -56q14 -4 94 0zM208 208q43 -51 112 -39q-9 53 5 169q12 101 -5 143q-7 -5 -58 -69q-34 -43 -80 -47q-22 -100 26 -157zM711 480q18 -22 24 -29q31 -33 42 -21q-2 15 1 88 q1 55 -9 79q-9 -15 -42 -45q-29 -26 -37 -49q6 -6 21 -23zM243 463q41 27 40 47q0 18 -41 44q-51 33 -60 43q1 -16 -1 -99q-2 -61 8 -89q8 23 54 54zM378 401q14 -1 147 2q90 3 121 -23v-204q86 -13 115 41q24 43 16 141q-25 11 -85 75q-47 52 -104 55v124h-210v-211z M707 595q54 54 70 68q9 92 -17 135q-31 50 -114 39q-1 14 -14 -305q33 20 75 63zM603 663v174h-95q1 -25 -4 -92q-3 -49 4 -90q97 9 95 8zM457 655v182q-90 24 -96 -56q-2 -24 4 -68q6 -47 5 -58h87zM260 596q45 -51 74 -64q-13 319 -14 305q-89 13 -121 -39 q-27 -45 -17 -143q36 -12 78 -59zM73 10q-15 169 -15 1066q0 17 -1 89q-2 65 -2 104q2 124 25 148q531 30 617 7q54 -14 122 -80q69 -68 81 -123v-312q0 -744 -15 -899q-397 -20 -812 0z" />
<glyph unicode="i" horiz-adv-x="1548" d="M891 188v35h-99q2 -36 5 -40q103 9 94 5zM767 183v40q-8 -1 -35 1q-25 1 -38 -1q-40 -4 -21 -40h94zM549 223q-1 -6 0 -40h95q-2 43 0 40h-95zM891 258v39q-11 -2 -34 0q-28 2 -36 2q-39 -2 -29 -41h99zM767 258v39q-8 0 -35 1q-26 1 -38 0q-40 -5 -21 -40h94zM549 297 v-39h95q8 19 0 39h-95zM792 367v-35q16 -7 49 -5q37 2 45 0q4 3 5 40q-72 3 -99 0zM668 332q54 -15 99 0v35q-9 5 -43 4q-41 -1 -51 1q-6 -27 -5 -40zM593 371q-36 1 -44 -4q2 -37 5 -40q9 3 49 1q34 -2 45 9q2 29 -9 35q-4 -1 -46 -1zM792 401h99v40h-99v-40zM767 401v40 q-8 -1 -35 1q-25 1 -38 -1q-40 -4 -21 -40h94zM644 401q2 22 4 35q10 -4 -99 5q-3 -8 -1 -17q2 -13 1 -23h95zM715 500q139 1 166 0v288h-322q-6 -58 -4 -148q2 -103 -1 -140q60 -1 161 0zM1020 1201q-37 32 -49 38q-59 28 -127 24q-63 -4 -116 -34q-96 -55 -89 -55 q-26 45 45 91q61 40 128 48q115 14 208 -44q83 -53 55 -95q-28 3 -55 27zM963 1125q-27 18 -41 24q-55 27 -115 11q-18 -5 -52 -33q-29 -24 -52 -22q-18 43 31 79q46 33 113 35q68 2 130 -37q65 -41 23 -77q-13 5 -37 20zM895 1052q-24 18 -38 18q-16 1 -41 -18t-49 -16 q-12 41 19 64q27 20 73 18q44 -1 70 -22q29 -24 12 -60q-23 -1 -46 16zM958 452q-2 -85 -2 -110q-1 -173 -10 -188q-19 -29 -81 -35q1 1 -117 0q-12 0 -71 -2q-45 -1 -73 0q-81 2 -104 27q-29 30 -27 158q0 36 4 105q3 65 3 89v183q0 148 15 168q28 38 135 33q152 -7 177 -3 q-6 58 13 91q23 38 71 3q-3 7 5 -89q55 -28 64 -109q1 -4 1 -188q0 -49 -3 -133zM59 1437q-6 -1 -5 -15v-1422h1437v1437h-1432z" />
<glyph unicode="j" horiz-adv-x="1251" d="M702 134h-163q-77 0 -84 -1q-41 -9 -42 -62q-1 -52 33 -67q9 -4 81 -4h173q76 0 83 3q35 12 37 63q2 52 -37 65q-8 3 -81 3zM895 640q-20 28 -52 23q-30 -4 -46 -36q-15 -31 -7 -67q0 -4 29 -68q31 -70 29 -66q0 -1 -83 -84q-77 -77 -87 -82q-52 -30 -105 1q-9 6 -42 39 l-113 113q-7 7 -9 6q-1 8 -2 -152q-1 -92 39 -106q7 -3 88 -3h180q73 0 85 5q5 3 49 48q33 34 94 99q42 45 45 52q16 36 -17 114q-9 21 -24 55q-19 43 -25 55q-20 46 -26 54zM384 627q-10 18 -2 38q9 19 34 22q22 3 34 -12q11 -13 9 -32t-15 -29q-15 -12 -38 -5 q-13 4 -22 18zM539 588q14 -12 13 -32q0 -18 -13 -29q-12 -9 -28 -10q-17 0 -28 9q-13 11 -13 30q0 33 32 40q22 4 37 -8zM618 663q15 -15 10 -39q-6 -30 -39 -31q-36 -1 -40 36q-5 37 31 44q23 4 38 -10zM696 745q12 -12 11 -30q0 -18 -11 -30q-13 -14 -34 -11 q-30 4 -33 39q-2 35 32 41q22 3 35 -9zM689 503q-23 -5 -38 11q-14 14 -13 34q4 33 39 34q19 1 31 -10q14 -12 11 -35q-3 -29 -30 -34zM603 426q-35 -2 -41 30q-5 20 6 34q9 12 25 15q22 5 37 -8q15 -14 12 -37q-3 -32 -39 -34zM559 343q29 -24 61 -26q48 -3 103 52 q49 48 69 71q-50 138 -50 145q-29 13 -21 48q7 36 45 30q27 36 65 44l-133 133q-62 -83 -160 -110q1 -21 -12 -34q-12 -13 -29 -13q-24 0 -42 33q-82 1 -148 36q-36 -36 -36 -79t66 -109l177 -177q50 -48 45 -44zM1144 1077q-24 8 -45 -14q-31 -34 -33 -35q39 -44 83 -83 q5 6 27 26q16 16 24 29q2 19 -8 32q2 -2 -20 20q-24 24 -28 25zM905 1158q-37 37 -40 39q-32 20 -76 12t-60 -36q22 -46 29 -86q43 31 72 18q7 -3 59 -56q39 -39 116 -115q52 -52 55 -61q11 -26 -4 -48q-3 -4 -30 -32q-97 -96 -109 -107q21 -22 47 -73q14 10 54 50l109 109 q35 35 38 70q4 41 -17 71q-6 9 -46 50q-11 11 -197 195zM385 873q10 -15 9 -16q-63 24 -98 81q11 2 31 1h32q8 -36 26 -66zM312 1018q24 0 36 -3q-1 -20 5 -56h-32q-22 1 -33 -1q-12 20 -14 60q5 -1 38 0zM353 1094l-6 -58h-73q0 28 13 58h66zM357 1113h-59q25 57 96 82 q-28 -45 -37 -82zM442 1159v-43q5 2 -64 -3q16 70 61 90q4 -13 3 -44zM367 1036q3 48 7 58h67q5 -31 0 -58h-74zM442 958h-69q-4 18 -6 58q36 4 74 0q-1 9 1 -58zM377 939h64q2 -15 1 -45q-1 -32 0 -44q-41 12 -65 89zM461 939h63q-22 -75 -63 -89v89zM536 1016q0 -3 -2 -28 q-2 -20 -4 -30h-69v58q37 5 75 0zM461 1094h69q7 -45 5 -58h-74v58zM461 1203q43 -16 63 -90h-63v90zM576 1113h-32q-12 53 -38 81q67 -17 99 -81h-29zM555 1036q0 13 -2 30q-3 23 -3 28h66q11 -28 13 -58h-74zM550 958q0 7 3 28q2 20 2 32q80 -3 74 -2q-3 -33 -13 -58h-66z M544 939h61q-31 -58 -99 -82q27 35 38 82zM649 1026q0 75 -50 131q-69 76 -171 65q-109 -12 -156 -113q-30 -66 -13 -131q15 -59 64 -101q49 -41 111 -47q67 -6 126 31q89 56 89 165zM300 1177q54 54 133 61q98 8 163 -57q67 -68 68 -153q0 -85 -58 -147q-57 -60 -139 -66 q-48 -4 -93 13q-61 23 -98 77q-43 62 -37 140q6 75 61 132zM550 792q62 26 104 81q46 60 51 133q7 117 -73 199q-83 84 -196 75q-79 -6 -138 -50q-54 -40 -81 -105q-34 -78 -14 -159q17 -70 68 -120q49 -48 118 -66q81 -21 161 12zM424 1321q12 1 18 2q18 4 19 20 q0 22 -33 21q-72 -3 -134 -35q-56 -28 -95 -73q-65 -75 -77 -172q-7 -59 19 -60q18 0 21 25q9 70 20 99q61 153 222 172q5 1 20 1zM405 1389q17 1 24 2q28 4 30 18q5 26 -31 25q-53 -1 -91 -12q-110 -30 -185 -115q-79 -89 -97 -203q-12 -75 12 -78q15 -3 20 5q5 7 6 26 q8 143 101 234q81 79 190 97q6 1 21 1z" />
<glyph unicode="k" horiz-adv-x="1568" d="M986 618q-1 0 -11 -50q-7 -30 -29 -39q-5 -2 -15 -3q-12 -2 -16 -3q-17 -5 -18 -19q19 -24 48 -21q26 3 49 26t28 52q7 33 -12 57h-24zM971 450q2 1 -33 -5q-20 -4 -27 -20q2 -44 75 -20q61 21 96 83q38 67 12 135q-14 7 -34 -5q12 -129 -89 -168zM1106 451 q-42 -62 -120 -85q-6 -2 -18 -2q-15 0 -20 -1q-23 -4 -27 -27q23 -39 114 0q79 34 121 112q46 84 22 180q-14 7 -34 -5q8 -103 -38 -172zM1238 638q-1 -4 -5 -8t-5 -7q10 -136 -61 -229q-63 -84 -171 -112q-4 -1 -18 -2q-14 0 -22 -1q-27 -5 -25 -27q3 -25 57 -17 q40 7 77 22q154 66 198 228q31 116 -15 153h-10zM386 664q-47 -56 -73 -95q20 -13 61 -48q38 -33 63 -46q88 95 148 183q-19 14 -61 50q-39 32 -63 49q-11 -15 -75 -93zM452 920q-28 -43 -28 -41q-12 -25 -2 -58q19 -14 53 -43q44 -38 61 -51q109 -87 118 -89q18 -3 49 9 q32 13 55 11q-31 -48 -23 -121q8 -77 53 -97q54 107 84 139q8 -9 26 -5q15 3 23 9q9 16 -5 55q19 25 57 57q53 43 62 52q-43 36 -117 26q-68 -9 -105 -46q-8 19 0 49q8 33 5 55q-2 2 -119 99q-11 9 -31 27q-23 23 -31 30q-39 35 -62 37t-46 -17q-34 -28 -33 -28 q-6 48 -15 59q-15 -20 -47 -59t-47 -59h65zM722 943q39 -33 66 -48q20 33 72 94q50 58 71 94q-23 17 -62 49q-44 36 -61 50q-17 -21 -76 -93q-47 -57 -73 -95q19 -13 63 -51zM1515 0h-1459v1434h1459v-1434z" />
<glyph unicode="l" horiz-adv-x="832" d="M508 94q42 8 45 10q4 33 -10 60q-20 3 -47 -7q-5 -49 12 -63zM264 268q-7 50 -11 72q26 39 187 277q113 169 187 277q19 -117 51 -319q35 -232 50 -320q-53 -6 -453 -58q-4 24 -11 71zM608 173q23 8 46 6q3 -12 4 -28q-32 -6 -47 -6q-4 26 -3 28zM491 71q-18 73 -14 108 q60 11 79 10q19 -68 14 -106q-32 -14 -79 -12zM384 142q21 4 46 6q4 -9 4 -28q3 1 -45 -8q-7 10 -5 30zM573 1229q2 -6 13 -71q11 -70 11 -71t-22 -42q-50 -94 -159 -300q-101 -194 -158 -299q-1 -2 -3 -5q-3 -3 -3 -5q-4 -5 -5 -4q111 265 326 797zM124 1250q-11 0 233 -10 q-104 -428 -145 -600q-41 255 -88 610zM190 455q7 2 6 -11q-6 -1 -6 11zM192 476q15 5 0 11v-11zM188 514q1 -5 -3 -7q-4 0 -4 5q-1 6 3 6q4 1 4 -4zM173 445q-1 5 3 6q4 -1 4 -5q1 -5 -3 -6t-4 5zM176 544q-1 6 3 6q4 1 5 -5t-3 -6t-5 5zM173 581q5 2 6 -3t-2 -8 q-6 1 -4 11zM176 478q0 -5 -3 -7q-4 1 -5 6q0 5 3 7q4 -1 5 -6zM171 510q1 -5 -1 -7q-6 0 -6 5q-1 4 2 7q4 0 5 -5zM166 542q1 -5 -1 -8q-4 -1 -5 11q5 2 6 -3zM162 566q-7 -2 -7 11q7 1 7 -11zM85 1069q-2 16 3 26q16 8 19 -20q3 -29 -13 -29q-8 6 -9 23zM95 1152 q1 -20 -14 -22q-8 10 -9 29q-1 22 14 23q8 -12 9 -30zM83 1239q2 -25 -14 -25q-8 7 -9 29q0 24 12 23q10 -2 11 -27zM329 1319q52 -4 71 -5q24 -1 22 0q13 -3 9 -17q-31 -1 -83 2q-71 4 -85 4q-8 17 1 19q21 0 65 -3zM598 1272q-11 72 -12 76q-17 44 -57 56q-18 6 -99 11 q-40 3 -101 7q-81 5 -101 6q-101 6 -103 6q-21 -2 -48 -19q-26 -17 -33 -33q-10 -21 11 -167q17 -123 72 -512q66 -461 73 -508q22 -151 31 -164q21 -31 75 -31q23 0 98 12q114 19 224 37q102 16 111 20q47 23 28 139q-73 455 -169 1064z" />
<glyph unicode="m" horiz-adv-x="1423" d="M750 846q-305 -162 -473 -248q116 73 500 315q309 195 500 314q-15 -36 -50 -131q-138 -71 -477 -250zM532 315q-257 42 -377 60q8 17 35 70q21 43 34 70q638 274 933 404q-46 -130 -123 -331q-114 -300 -126 -333q-131 21 -376 60zM629 191q2 4 6 14q4 9 5 15 q34 0 85 -13q0 -7 -5 -16q-5 -11 -6 -15q-55 4 -85 15zM522 145q-8 -4 -72 7q-56 10 -66 17q21 70 48 109q54 6 138 -21q0 -14 -20 -59q-22 -51 -28 -53zM263 267q6 9 7 14q4 0 75 -11q0 -7 -4 -16q-6 -11 -7 -13q-19 0 -75 11q0 7 4 15zM388 78q-40 8 -41 8q-19 7 -11 27 q17 -3 89 -13q61 -10 92 -16q39 -8 33 -31q-24 0 -162 25zM932 1262q2 -2 -3 -6q-13 -9 -10 -7q-278 -231 -544 -448q-13 -10 -15 -9q37 73 125 252q79 162 126 251q303 -31 321 -33zM1031 1319q51 -5 57 -9q-6 -12 -24 -11q-6 1 -17 3t-16 3q-173 17 -195 22q-1 7 4 9 q29 0 191 -17zM1303 1379q-13 3 -85 10q-353 34 -343 34q-148 14 -177 11q-52 -7 -79 -35q-16 -16 -43 -70q-46 -91 -125 -249q-80 -160 -128 -255q-40 -81 -125 -249q-85 -169 -127 -254q-31 -62 -32 -78q0 -14 17 -59q16 -43 43 -59q21 -13 79 -24q296 -53 527 -92 q125 -21 170 2q32 17 50 49q7 13 29 71q120 319 385 1053q25 68 26 77q6 51 -7 81q-12 27 -55 36zM358 102q0 -2 2 -6t2 -7q21 -4 81 -14q52 -9 81 -15q2 15 -29 20q-18 3 -137 22zM458 176q32 -6 42 -4q15 4 23 28q2 6 5 20q3 12 5 17q-55 24 -88 11q-1 -7 -15 -30 q-12 -19 -7 -29q3 -6 35 -13z" />
<glyph unicode="n" horiz-adv-x="4445" d="M372 429q-52 40 -81 57v-43q26 -18 83 -62q52 -40 83 -61q-3 8 -4 52q-29 17 -81 57zM625 511q62 1 141 31q-25 57 -112 56q-68 -1 -142 -32q30 -55 113 -55zM3322 854q-352 20 -2161 115q563 -5 1403 -22q137 -3 709 -15q436 -9 710 -14q-51 -8 -175 -43 q-109 -30 -173 -36q-13 -2 -313 15zM1351 324q2 0 -103 68q-456 295 -712 478q60 4 177 33q120 31 175 35h4q38 -4 2244 -210q-255 -57 -833 -190q-547 -125 -841 -190q-109 -24 -111 -24zM846 410q-29 19 -41 37q52 21 97 4q30 -10 73 -48q-11 -9 -38 -14q-37 -7 -45 -9 q-5 4 -46 30zM497 507q-69 55 -76 59q27 19 147 43q113 23 162 24q12 -10 68 -45q42 -28 63 -50q-228 -59 -269 -63q-50 -5 -95 32zM411 330q-59 35 -74 47q-81 61 -66 149q-1 0 103 -75q88 -64 85 -61q33 -36 18 -109q-21 21 -66 49zM486 669q-38 12 -61 47q86 35 147 -40 q-44 -20 -86 -7zM3237 1246q148 -64 231 -99q-329 -18 -916 -37q-662 -22 -920 -34q245 52 686 136q489 93 687 133q71 -29 232 -99zM3658 1179q131 -54 178 -83q-47 -3 -106 22q-17 7 -48 23q-32 16 -47 22q-26 11 -98 39q-61 24 -96 40q-5 7 0 8q42 1 217 -71zM4295 1068 q-26 11 -70 27q-45 16 -56 21q-90 36 -479 190q-22 8 -104 44q-63 27 -105 41q-124 42 -250 33q-50 -3 -420 -75q-555 -108 -2010 -384q-579 -110 -601 -114q-131 -29 -158 -84q2 -18 0 -98q-1 -63 11 -95q6 -16 80 -72q50 -38 435 -336q156 -121 178 -131q102 -45 246 -32 q69 6 241 44q570 127 1483 346q1156 278 1469 351q14 3 50 10q33 6 52 11q59 15 91 46q-3 25 10 101q12 68 2 93q-10 28 -95 63z" />
<glyph unicode="o" horiz-adv-x="913" d="M229 153q-9 -27 12 -45q22 -19 46 -5q24 13 22 40q-1 18 -16 29q-12 10 -29 8q-13 -1 -23 -9q-9 -8 -12 -18zM616 155q-10 -26 11 -46t47 -5q24 13 22 40q0 7 -5 15q-12 24 -39 22q-13 -1 -23 -8q-9 -7 -13 -18zM412 183q-19 -22 -17 -51q2 -27 22 -45q22 -19 51 -16 q27 2 45 22q19 21 17 50q-3 27 -22 45q-21 19 -51 17q-15 -1 -26 -7t-19 -15zM103 1217v-939q0 -10 1 -13q4 -13 27 -13h644q38 0 43 11q1 4 1 26v939q0 16 -6 21t-21 5h-644h-27q-13 -2 -17 -11q-1 -3 -1 -26zM646 1434h26q18 -1 27 -1q117 0 142 -20q15 -12 21 -33 q5 -14 5 -49v-1247q0 -25 -10 -44q-16 -33 -68 -40h-656q-73 7 -80 78v1278q2 28 16 46q13 17 37 25q18 6 56 6q211 0 310 1h174z" />
<glyph unicode="p" horiz-adv-x="763" d="M157 187v0v816q-1 1 0 1h499q1 -157 1 -408q-1 -335 -1 -409h-499zM396 58q-20 2 -34 15q-16 16 -13 39q2 13 12 25q14 13 36 15q32 3 48 -22q14 -21 3 -44q-14 -30 -52 -28zM714 952q0 44 -1 52q-8 68 -59 99q-19 11 -40 12q-6 1 -52 1h-315v77q11 -1 -59 0 q-1 -14 -1 -39v-39q-61 -15 -83 -80q-8 -24 -8 -74v-816q0 -44 11 -71q25 -66 89 -74h418q41 5 68 37q26 32 31 75q1 7 1 51v789zM163 1205q26 21 54 21q23 0 42 -14q11 -9 10 -9q1 0 6 5q2 3 8 9q5 5 8 7q-33 34 -79 31q-40 -2 -69 -28q7 -9 20 -22zM328 1289q0 1 -11 10 q-47 41 -108 37q-61 -3 -103 -44q25 -26 31 -32q37 33 80 32q45 -1 79 -34q5 6 24 23q8 7 8 8zM335 1317q7 5 18 17q12 12 18 17l13 12q0 -1 -8 7q-58 58 -148 64h-23q-88 -6 -154 -66v-1q0 -1 46 -48q54 48 120 48q65 0 118 -50z" />
<glyph unicode="q" horiz-adv-x="1196" d="M1038 532q-19 154 -103 177q-12 11 -29 4q-28 -10 -29 -10q-6 34 -48 47q-42 14 -74 -8q-7 35 -40 51q-35 17 -76 0q-11 -13 -16 -45q-7 -43 -10 -51q-33 55 -81 205q-45 140 -86 200q-68 -7 -63 -69q0 5 31 -118q10 -42 68 -216q43 -128 47 -195q-57 96 -89 126 q-66 62 -149 34q-3 -22 20 -42l38 -35q11 -14 99 -158q60 -99 133 -164q25 -22 68 -64q53 -52 73 -71q12 -11 36 -36q28 -29 40 -41q48 -47 72 -51q65 -12 171 54t106 119q0 23 -29 55q-36 40 -42 55q-10 25 -38 247zM304 1340q8 32 97 30q36 -1 62 -7q28 -7 28 -17 q-38 -27 -187 -6zM265 459q-78 -9 -115 6q1 73 -1 412q-2 254 7 405q44 -1 252 1q155 1 244 -7v-438q12 4 51 -4q42 -9 45 -9q4 77 0 215q-6 204 -6 210q-2 118 -7 129q-22 46 -121 53q-34 2 -92 0q-82 -2 -96 -2q-26 0 -120 3q-72 2 -110 0q-111 -7 -136 -67 q-11 -126 -6 -411q6 -373 6 -419q-1 -94 0 -108q9 -61 51 -79q48 -20 154 -10q124 13 181 4q-5 8 -11 28q-9 26 -12 34q-17 43 -48 53q-30 11 -110 1z" />
<glyph unicode="r" horiz-adv-x="1032" d="M645 329h-264v73h264v-73zM172 425q5 -157 4 -243q120 -68 337 -68t337 68q0 63 6 244q4 151 2 247q-145 -48 -346 -49q-203 -1 -343 49q-3 -97 3 -248zM476 1010q-1 -8 1 -55q2 -36 -8 -47h-88q-4 -10 -2 -37q2 -25 -5 -36q107 -11 102 -8v-95h74v103q8 1 56 -1 q35 -2 46 8q-7 2 -5 30q2 30 -2 36h-95v102h-74zM513 57q-261 0 -388 96q-18 950 -22 1055q171 -66 411 -66q241 0 410 66q-14 -439 -23 -1055q-127 -96 -388 -96zM514 1325q129 -2 197 37q34 -86 -147 -102q-72 -7 -148 7q-79 15 -108 44q-4 12 -2 27q1 10 -5 17q2 7 7 11 q6 4 7 -4q75 -36 199 -37zM972 880q6 327 10 438q-69 51 -242 59q-115 71 -271 59q-38 -3 -95 -25q-73 -28 -95 -34q-10 -2 -130 -18q-73 -9 -105 -41q4 -114 10 -451q6 -298 12 -457q12 -289 7 -279q26 -62 206 -103q183 -41 389 -22q245 24 285 132q-5 -14 7 279 q7 162 12 463z" />
<glyph unicode="s" horiz-adv-x="1540" d="M725 318q19 47 16 90q-1 4 -16 92q12 20 43 22q31 3 48 -14q-2 -13 8 -16q-30 -86 -8 -174h-91zM528 242q258 -51 493 0q22 199 0 387q-251 47 -493 0q-40 -204 0 -387zM664 682q-16 70 21 113q33 37 89 36q55 0 89 -38q37 -42 21 -111h84q17 112 -48 177q-57 58 -148 57 t-149 -60q-65 -66 -50 -174h91zM1217 126q-29 -1 -77 0q-64 2 -73 2h-554q-21 0 -78 -2q-53 -2 -82 -2q-96 1 -129 27q-45 35 -46 191q0 48 4 124q4 77 4 95v447q-1 22 8 23h1161v-447q0 -22 5 -94q6 -77 7 -121q3 -156 -35 -203q-29 -35 -115 -40zM740 1289q9 -18 9 -57 t-9 -57h-500q-10 23 -10 62q-1 45 17 52h493zM1013 1289q17 -36 8 -106q-16 -9 -53 -9t-53 9q2 21 -2 55q-2 27 2 44q-3 -2 98 7zM1295 1232q0 -40 -16 -57q-101 10 -99 8q-25 135 99 106q16 -17 16 -57zM1484 1016q0 242 -23 288q-56 114 -251 128q-67 4 -191 0 q-163 -6 -210 -6q-535 0 -569 -8q-134 -29 -165 -164q-8 -36 -10 -238v-561q0 -262 15 -304q35 -96 144 -125q70 -19 251 -19h296q27 0 204 -5q129 -4 206 1q226 15 280 125q32 64 30 274q0 60 -4 170q-3 105 -3 141v303z" />
<glyph unicode="t" horiz-adv-x="1543" d="M846 438q-11 31 -9 99q3 90 1 108h207q-1 -16 1 -108q2 -67 -9 -99q-187 1 -191 0zM838 987h207v-199h-207v199zM703 788h-207v207q11 -1 207 -8v-199zM703 446q-26 -8 -95 -9q-73 -1 -112 9v199h207v-199zM1244 1035q-9 33 -68 92q-58 58 -91 67q-56 15 -155 9 q-165 -9 -163 -9h-327q-9 -1 -8 -8q-18 -23 -85 -77q-47 -38 -58 -82q1 3 0 -302v-327q10 -35 74 -94q61 -57 93 -65h629q31 9 90 70q61 62 69 97v629zM1300 367q-150 -151 -183 -176q-63 0 -184 1q-111 0 -166 -1q-326 -2 -335 0q-41 10 -107 71q-70 65 -84 112v677 q9 37 69 104q66 73 114 87q-20 -6 406 8q234 7 279 -8q35 -12 106 -77q75 -69 85 -106q15 -55 9 -164q-9 -184 -9 -186v-342zM1483 1083v71q-164 -31 -232 47q-59 70 -47 232q-17 -4 -40 -3q-19 0 -31 -5q-2 -10 1 -65q1 -40 -9 -54h-48v119q-11 9 -40 9t-40 -9q0 -12 2 -33 q2 -24 2 -34q1 -37 -12 -52h-47v127q-78 -6 -80 -8q-3 -23 3 -66q5 -36 -3 -53h-56v127h-71v-127q-67 17 -64 7v120h-71v-127q-67 17 -64 7v120h-72v-127q-66 17 -63 7v120h-72v-199q-64 -102 -271 -80q-5 -15 -4 -34q1 -20 -4 -37q11 -2 69 1q43 1 59 -9q6 -6 3 -26 q-3 -21 -11 -30q-116 11 -112 8q-7 -33 0 -80q7 -1 74 2q45 2 54 -17q3 -12 -3 -22q-7 -10 -5 -18h-120q-9 -40 0 -80q7 -1 74 2q45 1 54 -18q-12 -15 -8 -40h-120q-2 -73 0 -79h120q0 1 8 -56h-128q-6 -6 -1 -29q5 -27 1 -42q13 -10 69 -7q50 2 59 -17q3 -12 -3 -21 q-7 -10 -5 -19h-120v-72q11 -1 69 1q43 2 59 -9q2 -47 -16 -55q-10 -2 -65 1q-41 1 -55 -9q13 -10 7 -32q-6 -23 1 -32q164 26 229 -41q65 -66 42 -237h72v127q66 -17 63 -8v-119h72v127q67 -17 64 -8v-119h71v127q67 -17 64 -8v-119h71q2 10 -1 68q-1 43 9 59h48 q4 -18 1 -53q-3 -43 -1 -67q9 -8 35 -8q49 0 45 1q1 10 -1 68q-2 43 9 59h47v-127h80q1 10 -1 68q-2 43 9 59h48v-127q77 6 79 7q-52 323 271 271v72h-128q17 66 8 63h120v72q-11 1 -69 -1q-43 -2 -59 9v48h128v79q-11 2 -69 -1q-43 -2 -59 9v48h128v79q-11 2 -69 -1 q-43 -1 -59 9v48h128v80q-135 13 -128 8v47h128v72h-128q17 67 8 64h120z" />
<glyph unicode="u" horiz-adv-x="1221" d="M949 161q75 -3 74 49q-19 38 -74 33v-82zM949 325v-66q34 -2 49 5q20 9 16 36q-6 30 -65 25zM1105 1049h-66v271h66v-271zM932 342q66 9 107 -33q-19 -39 -14 -62q1 -9 9 -26q9 -22 13 -36q-31 -49 -115 -41q-27 99 0 198zM990 1320v-271q-4 -1 -30 1q-19 1 -20 -9 q-11 44 -9 134q3 121 1 145h58zM883 1049h-66v312h66v-312zM883 152q-82 -20 -132 17q-27 28 -25 69q3 36 27 67q25 30 57 36q36 6 65 -24q-54 24 -88 -3q-29 -23 -31 -69q-1 -45 26 -69q32 -29 84 -7v49q1 12 -6 14q-4 0 -14 -3q-21 -7 -21 14h58v-91zM710 1320 q61 -2 66 -8q-24 -108 0 -263h-66v271zM661 1049h-66v312h66v-312zM529 247q60 53 58 119q-11 31 -60 23q-58 -10 -64 -6q18 40 52 53q31 12 63 -2q33 -13 50 -46q18 -35 8 -79q-6 -30 -48 -62q-47 -37 -59 -62q10 -1 63 1q39 2 52 -9q-2 -41 -74 -36q-104 6 -115 3 q8 45 74 103zM381 1049q6 20 -6 176q-4 50 7 72q14 28 57 23q3 -42 1 -128q-3 -98 -1 -143h-58zM221 177q5 9 4 17q39 -26 73 -17q30 9 41 37q10 29 -9 50q-22 23 -72 20v16q3 18 38 20q37 3 44 13v41q-5 23 -53 17q-50 -6 -54 0q4 42 44 48q36 5 75 -19q40 -23 44 -55 q5 -37 -48 -65q50 -19 55 -57q5 -33 -24 -65t-72 -39q-49 -8 -90 22q-1 7 4 16zM332 1049h-66q2 7 -5 174q-2 50 11 73q16 29 60 24v-271zM488 1320h66v-271h-66v271zM1162 1082q0 24 3 92q3 59 2 91q-4 100 -46 146q-70 8 -419 8q-1 0 -226 13q-136 7 -202 -13 q-46 -14 -62 -66q-12 -41 -9 -118q12 -245 6 -277q-78 -57 -102 -96q-42 -68 -22 -175q9 -1 59 1q37 2 48 -9q29 -68 -27 -119q-74 -68 -80 -87q-24 -81 -7 -222q24 -194 24 -222q83 -27 231 -28q46 -1 135 1q98 2 143 2h264q17 0 65 -2t73 -2q88 0 117 21q30 23 34 136 q2 38 0 100q-2 79 -2 93v732z" />
<glyph unicode="v" horiz-adv-x="1018" d="M356 834q-5 -6 -15 -23q-11 -17 -16 -24q-21 -23 -42 10q11 53 64 92q49 36 113 45q53 7 56 -17q4 -22 -21 -28q-7 -2 -21 -3q-15 -1 -21 -2q-62 -15 -97 -50zM303 917q-79 -68 -77 -163q1 -45 23 -82q6 -11 47 -65q-25 -98 -33 -157q31 13 92 45q59 32 91 45 q132 -23 235 42q106 66 106 178q0 109 -100 175q-91 61 -207 52q-104 -8 -177 -70zM867 203h-714q-4 185 -4 509q1 425 1 512q1 1 2 5q2 4 4 5q65 -1 358 0q219 1 353 -4v-1027zM468 69q-11 14 -10 33q2 46 52 48q43 2 50 -37q6 -34 -15 -52q-19 -15 -45 -11q-21 3 -32 19z M520 1347q117 0 137 -10q-5 -16 -27 -18q-7 0 -20 1h-20h-80q-130 0 -147 14q0 7 10 13h147zM967 1007q0 231 -17 277q-42 113 -147 143q-23 7 -276 7q-270 0 -291 -3q-104 -17 -156 -124q-27 -54 -27 -270v-594q0 -242 13 -283q38 -116 137 -150q29 -10 300 -10 q282 0 304 7q101 31 143 146q17 47 17 274v580z" />
<glyph unicode="w" horiz-adv-x="1016" d="M512 651q-15 -25 -42 -18q-16 62 6 124q25 68 81 65q14 -16 2 -55l-26 -65q-19 -48 -21 -51zM317 911q-79 -80 -87 -189q-11 -158 119 -243q129 -84 284 -23q101 39 74 67q-9 9 -39 -7q-46 -25 -41 -23q-44 -16 -80 -17q-98 -2 -162 49q-64 50 -75 138q-18 153 94 239 q93 73 209 41q122 -33 127 -154q3 -72 -23 -118q-32 -57 -100 -48q-3 51 27 122q34 83 39 117q-10 -1 -29 0q-24 1 -30 1q-34 0 -44 -14q-45 29 -95 11q-46 -16 -81 -64q-35 -46 -43 -98q-9 -56 19 -92q26 -34 79 -29q50 5 74 36q37 -45 104 -34q58 8 93 44q69 70 53 193 q-11 89 -86 139t-190 44q-110 -7 -190 -88zM506 203q-221 -1 -355 3q0 93 -1 515q-1 316 4 511q95 -1 359 1q216 1 350 -1q13 -543 3 -1029q-64 1 -360 0zM507 50q-47 2 -50 47q-4 49 50 53q24 2 39 -12q18 -15 14 -45q-5 -44 -53 -43zM520 1345q1 0 32 3q27 2 46 3 q59 0 59 -19q-1 -21 -65 -18q-19 1 -47 4q-27 4 -28 4q-14 0 -42 -2q-30 -2 -41 -2q-6 0 -21 -1q-14 -1 -21 0q-22 1 -28 15q5 14 29 15q8 0 22 -1q16 -1 22 -1h83zM810 1422q-33 11 -143 10q-25 -1 -82 0h-78q-288 -3 -320 -17q-133 -60 -133 -273v-726q0 -235 17 -276 q42 -106 149 -133q26 -7 290 -7q270 0 293 7q114 33 150 159q10 35 10 277q0 123 2 299q1 176 1 283q0 221 -23 273q-41 93 -133 124z" />
<glyph unicode="x" horiz-adv-x="1029" d="M372 674q9 0 23 18q11 14 23 8q2 -13 -12 -23q-14 -9 -14 -20q-17 -1 -20 17zM332 644q30 1 83 -2q55 -3 83 -2q-19 32 -86 87q-34 -23 -80 -83zM519 752q18 18 36 18q-24 -45 -60 -56q7 22 24 38zM504 758q-27 -26 -39 -44q13 -7 37 -39q22 -30 43 -35t72 2q54 7 85 2 q-25 28 -73 78q-51 53 -74 78q-1 1 -5 0h-5q-10 -13 -41 -42zM413 820q12 17 10 37q-1 22 -16 33q-17 12 -45 4q-43 -13 -30 -55q13 -41 50 -39q19 1 31 20zM515 597h-237q1 217 7 347q85 -1 242 0h222q8 -174 0 -347h-234zM395 987h-127q-29 -7 -33 -44v-76q0 -43 2 -131 q1 -87 1 -139q0 -125 7 -133q10 -14 120 -14h284q123 0 133 10t10 124q0 324 -7 393q-62 10 -390 10zM158 203q-10 188 -6 506q4 412 3 515q0 8 7 10q64 -1 357 0q219 1 353 -3q2 -965 0 -1028h-714zM546 60q-15 -11 -35 -10q-20 2 -34 14q-15 14 -15 36q-1 44 46 50 q26 3 42 -10q19 -16 15 -47q-2 -21 -19 -33zM525 1347q117 0 137 -10q-4 -15 -25 -17q-7 -1 -19 0q-16 1 -19 1h-81q-130 0 -150 10q-1 10 10 16h147zM953 1280q-27 97 -121 137q-38 17 -307 17q-267 0 -287 -3q-63 -11 -110 -58q-42 -42 -60 -99q-6 -20 -10 -277 q-1 -82 1 -265q3 -220 3 -285q0 -248 3 -264q28 -129 143 -170q38 -13 304 -13q271 0 307 10q42 12 81 52t55 85q14 36 14 283q0 117 1 305q2 187 2 299q0 180 -19 246z" />
<glyph unicode="y" horiz-adv-x="1018" d="M671 619q-58 -10 -83 -46q-23 11 -21 29q2 16 22 31q19 15 42 19q25 4 40 -9v-24zM319 567q-22 -4 -29 -11q-12 -19 -13 -20q-10 -9 -27 -6q-14 19 -7 39q6 18 27 31q49 29 83 0q0 -5 -2 -12q-3 -6 -2 -12q-7 -6 -30 -9zM760 973q-2 1 -3 1q-45 -8 -179 -22 q-115 -13 -176 -27q0 -27 1 -153q1 -95 -4 -149q-62 23 -118 6q-60 -18 -64 -69q-5 -50 46 -76q46 -23 100 -14q62 11 76 68q7 24 7 138q0 142 3 169q39 2 139 16q87 12 136 11q-5 -35 -3 -105q1 -79 0 -101q-64 27 -127 3q-68 -26 -56 -93q7 -33 40 -52q30 -17 71 -17 t73 17q35 18 45 49q4 10 4 206q0 160 -7 192q-2 0 -4 2zM864 208h-710q-13 268 0 1025q123 3 347 1q253 -2 363 -1v-1025zM505 155q46 5 53 -37q6 -29 -9 -46q-14 -16 -36 -16q-23 -1 -39 12q-19 14 -19 37q0 45 50 50zM363 1343q2 3 10 6q50 -3 172 -3q94 0 110 -10 q-13 -18 -47 -19q-11 0 -32 1q-22 2 -31 2q-160 0 -182 3v20zM963 1004q0 237 -13 276q-39 113 -143 146q-21 6 -199 6h-189q-199 -4 -216 -10q-149 -53 -149 -258q0 -119 2 -351q1 -232 1 -359q0 -259 4 -273q26 -110 132 -162q41 -20 144 -19q28 0 88 3q55 3 80 3 q280 0 309 10q98 33 136 142q13 38 13 272v574z" />
<glyph unicode="z" horiz-adv-x="1029" d="M707 740q9 2 20 1q15 -1 23 -1q24 -24 -3 -41q-26 -17 -47 5q-1 26 7 36zM731 623q-20 -1 -27 7q-12 24 4 36q15 11 42 4q9 -10 7 -36q-6 -9 -26 -11zM757 564q-6 -11 -28 -11q-23 0 -29 11q-10 29 17 36q26 7 40 -10v-26zM710 764q-24 19 -5 38q19 20 49 5q4 -11 3 -33 q-10 -12 -47 -10zM757 844q-6 -11 -28 -11q-23 0 -29 11q-10 29 17 36q26 7 40 -10v-26zM427 607q-9 28 -8 97q3 93 1 113q3 7 10 10q28 -6 147 -77q40 -23 40 -33q0 -14 -39 -35q-11 -6 -30 -15q-18 -8 -21 -10q-83 -48 -100 -50zM307 693q-19 0 -27 7q-16 27 13 39 q28 10 44 -9q1 -16 -4 -30q-7 -7 -26 -7zM307 623q-19 0 -27 7q-16 28 13 39q29 10 44 -9q1 -16 -4 -30q-7 -7 -26 -7zM307 553q-19 0 -27 7q-16 28 13 39q29 10 44 -9q1 -16 -4 -30q-7 -7 -26 -7zM307 763q-19 0 -27 7q-13 26 9 37q19 10 44 0q9 -18 0 -37q-7 -7 -26 -7z M333 840q-7 -7 -26 -7t-27 7q-13 25 9 37q20 10 44 0q9 -18 0 -37zM665 936q-26 1 -71 -1q-46 -1 -60 -1q-26 0 -98 3q-57 2 -86 0q-87 -5 -110 -53v-187q0 -13 -1 -48q-2 -32 -1 -49q1 -56 19 -76q22 -25 119 -27q30 0 82 1q56 2 72 2q15 0 70 -2q47 -1 75 0q88 2 109 29 q19 25 18 96q0 20 -3 58q-2 36 -2 49q0 116 0 109q-3 64 -27 81q-20 16 -105 16zM160 203v1021q0 8 7 10q64 -1 357 0q219 1 353 -3q-1 -93 0 -516q1 -317 -3 -512h-714zM514 150q24 3 39 -9q18 -14 17 -41q0 -24 -17 -38q-15 -13 -37 -12t-36 15q-15 16 -13 42q3 38 47 43z M604 1347q4 0 16 1t18 1q21 -1 26 -15q-19 -15 -66 -16q-14 0 -42 1q-29 2 -42 2h-80q-4 0 -19 -1q-13 -1 -20 0q-21 1 -25 17q4 1 7 5q3 5 6 5h221zM960 1284q-35 105 -140 140q-30 10 -280 10q-271 0 -293 -3q-106 -16 -157 -114q-30 -58 -30 -283v-627q0 -228 30 -287 q41 -81 127 -110q29 -10 297 -10q277 0 300 7q102 29 143 143q17 46 17 274v289v291q0 241 -14 280z" />
<glyph unicode="{" horiz-adv-x="1014" d="M468 730q2 10 12 20q11 10 22 10q12 0 16 -13q-25 -8 -40 -37q-12 7 -10 20zM450 750q-10 -21 -2 -45q7 -25 27 -38q22 -15 50 -9q24 5 36 28q11 22 6 47q-5 27 -24 40q-22 15 -55 7q-28 -7 -38 -30zM403 805q30 35 79 44q60 11 107 -23q46 -33 52 -89q7 -69 -34 -110 q-36 -35 -93 -36q-56 -1 -97 33q-44 36 -44 96q0 50 30 85zM714 804q-8 18 -11 26q36 24 15 68q-20 43 -58 41q-10 -1 -20 -11q-11 -10 -23 -12q-6 4 -28 11q-18 7 -25 15q7 26 -13 42q-17 14 -44 14q-28 -1 -44 -15q-19 -17 -11 -44q-30 -13 -56 -23q-18 22 -44 21 q-23 -2 -41 -21q-19 -19 -20 -42q-1 -26 22 -44q-5 -7 -12 -28q-7 -19 -14 -25q-26 7 -42 -12q-15 -18 -15 -46q-1 -29 15 -46q17 -19 48 -12q1 -13 9 -28q9 -17 11 -25q-24 -19 -22 -45q2 -24 22 -43q20 -18 43 -19q26 0 43 24q7 -5 27 -12q19 -7 26 -14q-10 -42 29 -54 q32 -10 70 4q16 24 13 53q42 19 57 23q16 -25 42 -24q23 2 42 22t20 44q0 27 -25 44q7 6 13 25q7 19 14 25q5 2 24 4q16 1 22 6q24 33 8 75q-17 42 -58 31q-2 11 -9 27zM510 207q-292 1 -356 1q-4 192 -3 504q1 417 0 508q0 8 7 10h704q1 -176 0 -507v-512q-133 -5 -352 -4z M457 100q-5 45 38 55q29 6 45 -8q15 -12 15 -35q1 -22 -11 -38q-14 -19 -36 -19q-45 1 -51 45zM531 1342q111 0 123 -10q-14 -15 -60 -16q-13 0 -41 2q-29 1 -41 1q-130 0 -149 10q2 16 29 13h139zM961 1021q0 188 -16 253q-27 101 -119 141q-39 17 -288 17q-255 0 -284 -4 q-64 -7 -114 -47q-47 -37 -68 -92q-17 -42 -17 -274v-589q0 -234 17 -278q35 -93 125 -129q52 -20 147 -19q25 0 80 3q50 3 74 3q276 0 308 10q48 14 89 58q42 43 57 94q9 34 9 278v575z" />
<glyph unicode="|" horiz-adv-x="2014" d="M897 660q-23 -35 -14 -79q9 -41 41 -68q35 -30 81 -27q54 3 80 44q23 37 16 86q-6 49 -37 78q-35 32 -83 20q-58 -15 -84 -54zM1170 495q-29 8 -57 3q-33 -11 -44 -53q-10 -41 8 -79q-118 -26 -213 27q-90 51 -110 141q-34 152 57 240q80 78 207 70t191 -97 q74 -103 12 -261q-14 0 -51 9zM1343 903q-38 107 -98 134q-73 35 -226 35q-137 1 -229 -23q-89 -22 -141 -151q-61 -151 -87 -172q-21 -15 -158 -67q-102 -39 -130 -101q-31 -71 -29 -208q2 -127 29 -200q39 -102 169 -125q45 -8 263 -6q4 7 10 22q7 17 10 23q14 25 40 27 q64 -15 241 3q166 18 226 -3q23 -9 40 -44q14 -29 44 -28q147 -39 249 2q92 37 138 134q88 185 -3 439q-53 26 -144 72q-103 51 -144 72q-21 28 -70 165zM320 1317q-275 -106 -274 -256q1 -60 81 -135q94 -89 111 -128q144 32 372 132q4 34 -6 84q-10 49 -6 83q52 56 168 87 q109 29 239 29q133 -1 237 -32q113 -34 159 -96q0 -21 -13 -84q-9 -47 1 -71q131 -67 360 -132q125 119 203 263q-111 227 -444 317q-300 82 -730 43q-247 -22 -458 -104z" />
<glyph unicode="}" horiz-adv-x="1065" d="M473 1144q-68 -59 -106 -92q-10 -9 -50 -40q-35 -26 -53 -44q-55 -56 -39 -115q58 -5 125 48q21 17 53 48q39 37 50 46q10 10 55 45q36 29 56 48q63 61 69 125q-65 18 -57 19q-30 -26 -103 -88zM362 1087q55 46 72 107q-49 55 -126 -10q-65 -55 -92 -132q1 -12 17 -21 q17 -10 21 -17q89 57 108 73zM206 692q-60 272 0 540q322 59 654 0q29 -192 0 -540q-332 -26 -654 0zM756 389q48 9 62 9q36 -1 42 -28q1 -36 -34 -47q-5 -2 -70 -10v76zM753 222q7 20 25 29t36 4q19 -7 27 -27q2 -34 -25 -47q-16 -7 -60 -10q-11 28 -3 51zM744 576 q14 0 107 -17v-57q-69 -17 -98 -18q-61 -2 -73 37q3 55 64 55zM576 152v76q55 11 69 -3t7 -73h-76zM652 303q-6 -6 -76 -9v76q19 -4 40 3q23 7 36 6v-76zM470 575q47 53 125 13q21 -16 21 -71t-21 -71q-21 -13 -66 -11q-40 1 -67 11q-38 77 8 129zM481 294h-66 q-10 10 -10 37v25q1 15 0 23q13 1 36 -6q21 -7 40 -3v-76zM481 152h-66q-10 9 -10 37v24q1 16 0 24q13 1 36 -7q21 -6 40 -2v-76zM377 502q-29 -22 -91 -17q-63 6 -80 36q-1 48 72 55q65 6 99 -17v-57zM310 313q-56 4 -68 8q-33 9 -36 39q0 35 38 38q18 1 66 -9v-76z M310 171q-32 -1 -85 19q-9 47 20 60q24 11 65 -4v-75zM998 864q6 109 8 160q5 198 -32 275q-73 153 -493 132q-157 -7 -203 -15q-101 -15 -148 -60q-74 -72 -77 -264q-1 -59 5 -180q6 -130 6 -192q0 -32 -3 -189q-2 -117 0 -185q8 -202 69 -261q89 -85 399 -85q154 0 273 34 q151 42 182 127q32 91 24 282q-1 39 -9 153q-6 90 -6 134q0 39 5 134z" />
<glyph unicode="~" horiz-adv-x="1257" d="M1057 430q22 -10 25 -42q3 -40 -21 -51q-21 -9 -48 6t-32 37q-5 26 29 44q27 15 47 6zM1057 592q27 -15 25 -50t-26 -43q-21 -7 -45 7q-25 14 -31 36q-6 25 21 45q28 21 56 5zM820 352q-9 51 14 70q19 16 49 3q29 -12 36 -38q7 -29 -27 -53q-29 -4 -72 18zM885 594 q20 -9 27 -35q8 -26 -3 -44q-13 -21 -44 -18q-33 3 -45 34q-12 33 18 56q25 19 47 7zM653 698q-4 23 15 43q20 20 44 18q28 -2 45 -37q-8 -55 -63 -63q-37 13 -41 39zM651 374q-2 22 13 40t37 20q25 2 47 -19q12 -38 -6 -62q-20 -25 -66 -19q-24 16 -25 40zM1021 944 q-54 -14 -142 -14q-82 1 -149 13q-71 13 -82 32q-12 35 52 55q56 17 149 18q90 0 158 -14q73 -16 75 -41q2 -32 -61 -49zM1203 848q4 94 3 147q-2 172 -52 224q-59 61 -228 50q-234 -14 -287 -5q-18 -37 -45 -122q-28 -90 -46 -127q-66 -137 -207 -112q-47 -190 0 -379 q140 23 206 -109q22 -43 46 -125q30 -107 37 -127q71 14 294 -7q165 -15 230 52q56 58 56 239q0 53 -5 145q-6 93 -6 121q0 34 4 135zM218 722q2 230 96 298q-7 1 61 -13q38 -8 57 4q47 92 99 271q-5 3 -114 99q-76 68 -112 46q-141 -90 -208 -328q-65 -229 -44 -530 q14 -209 89 -380q84 -191 190 -189q48 1 104 59q71 73 95 85q-85 244 -108 271q-14 14 -60 1q-45 -12 -58 -1q-89 78 -87 307z" />
<glyph unicode="&#xa1;" horiz-adv-x="960" d="M441 180h67v58q-9 9 -67 9v-67zM446 944q31 44 45 69q48 83 37 144q-11 -2 -23 7q-11 7 -26 3q-217 -306 -271 -474q68 -33 121 44q16 25 39 72q26 54 34 68q12 20 44 67zM382 1148q-69 34 -123 -54q-50 -80 -41 -159q2 -1 6 -1q4 -1 6 -1q7 -2 7 -8q113 35 145 223z M760 373h-581q2 73 -1 413q-2 254 11 400h571v-813zM392 131q-41 211 155 165q12 -27 12 -82q0 -56 -12 -83h-155zM392 1332q9 -2 94 1q58 3 71 -21q-3 -34 -71 -32q-42 0 -94 13v39zM557 1434q-73 0 -210 -8q-127 -8 -168 -7q-98 -26 -119 -143q-6 -31 -7 -245 q0 -48 -8 -240q-7 -188 -8 -299q0 -371 74 -438q55 -49 344 -54q283 -4 353 34q79 44 86 278q2 75 -3 209q-5 155 -5 201q0 60 5 174q7 135 8 180q6 207 -33 275q-47 84 -309 83z" />
<glyph unicode="&#xa2;" horiz-adv-x="1168" d="M892 720q-7 -18 -1 -21q1 12 24 18q22 5 24 18q-41 11 -36 12q0 3 -11 -27zM1013 305l9 15q5 9 7 12q8 7 -1 -20t-17 -34q-7 8 2 27zM470 807q-19 24 5 69q23 44 1 63q32 32 90 36q-2 -11 12 -12q3 -25 -6 -50q-8 -24 -6 -34q-18 -10 -96 -72zM392 155q-13 -18 -30 -9 q9 -15 -1 -17q-21 -5 -23 -7q3 -10 18 -42q-51 31 -93 126q-51 116 -75 144q-4 55 24 109q24 5 18 -19q36 11 73 -21q48 -40 65 -45q3 -18 -6 -30q10 -4 31 -12q26 -9 34 -13q43 -17 61 -41q-13 -9 -30 -57q-13 -38 -54 -39q-1 -13 -12 -27zM104 669q3 0 6 -12 q44 219 270 336q-54 -41 -30 -90q12 -1 21 12t21 12q2 1 -6 -6q-19 -15 -18 -24q1 -10 10 -5q6 4 8 11q2 -7 -8 -11q-5 -4 -47 -16q-33 -9 -41 -33q-3 -8 5 -33q6 -23 -5 -39q22 5 41 37q19 34 37 41q7 -6 3 -21q-5 -14 3 -21q11 5 12 12q3 -9 1 -41q-2 -25 11 -31 q-1 0 -46 -2q-24 -1 -38 -16q2 -8 12 -1q12 9 18 7q-9 -11 0 -29q5 -13 -18 -13q0 2 12 6q-13 15 -41 -4q-37 -25 -49 -26q0 -18 -23 -37q-21 -18 -19 -41q-6 5 -9 23q-4 19 -9 25q5 2 -36 6q-18 -9 -23 -42q-6 -34 11 -48q5 0 10 7t14 5q-14 -22 -1 -55q3 -8 13 -27 q9 -18 12 -26q-10 -9 -21 10q-11 18 -9 38q-50 46 -54 162zM700 733q-21 -5 -19 -4q9 15 -2 30q-16 20 -16 36q12 -4 25 -23q12 -20 23 -25q1 -11 -11 -14zM951 885q111 -164 126 -228q-4 1 -12 15q-6 10 -18 9q-3 -27 -26 -18q-17 6 -15 5q-7 2 -7 -5q5 -21 24 -19 q20 2 24 -5q10 -23 -2 -51q-10 -25 -28 -39q-37 62 -66 78q16 -40 84 -114q-19 -147 -45 -211q-39 -102 -123 -132q-1 9 -5 39q-3 22 -4 36q-1 38 15 63q-1 4 -25 40q-14 21 -5 50q-22 2 -60 -4q-48 -8 -62 -9q-69 -3 -94 55q1 83 47 135q48 54 133 64q-1 -21 20 -28 q6 -2 20 -4t20 -4q1 16 28 23q49 12 50 13q2 12 -2 25q-5 14 -4 23q-22 -14 -33 -13q-14 0 -27 19q-9 -6 -8 -16t-4 -14q-5 10 -20 6t-16 -12q-38 32 -60 36q-20 -5 -33 -33q-16 -32 -27 -39h-36q-8 32 -6 48q10 3 25 1q12 -1 23 5q4 16 -10 24t-14 18q22 12 45 36 q25 27 9 30q-1 -3 3 -8q2 -3 -3 -4l-5 10q-3 8 -4 12q-4 12 9 2q-3 16 -20 13q-17 -4 -22 17q22 55 -22 131q-8 14 -40 62q-25 37 -34 59q-236 -1 -394 -144q-155 -141 -171 -360q-18 -252 166 -424q179 -167 417 -147q199 17 336 154q140 142 156 357q9 125 -39 229 q-35 78 -117 167q-2 -19 -12 -24zM887 1291q29 -20 37 -58q9 -37 -6 -70q-16 -35 -51 -44q-38 -9 -72 12q-31 20 -46 55q-14 36 -1 66q14 35 59 47q47 14 80 -8zM787 804q25 -63 50 -99q27 46 52 118q31 89 44 116q12 26 65 103q44 64 55 107q29 120 -34 200q-56 70 -157 81 q-99 11 -172 -43q-81 -59 -81 -172q0 -55 24 -108q13 -30 52 -93q39 -64 56 -99q7 -15 46 -111z" />
<glyph unicode="&#xa3;" horiz-adv-x="1654" d="M204 385q-102 -82 -155 -149q6 -14 19 -32q17 -25 20 -31q71 42 180 136q117 102 175 140q-14 57 -71 71q-12 -11 -168 -135zM1325 1173q-29 -269 -237 -567q-56 -80 -170 -210q-119 -133 -160 -191q189 -43 323 -16q252 -147 433 -189q-17 25 -49 63q-39 44 -51 61 q-57 76 -58 167q128 68 192 203q59 124 50 272q-8 145 -79 261q-74 123 -194 170v-24zM884 906q-19 12 -51 26q-39 17 -48 22q-51 27 -59 78q-7 50 41 135q47 82 38 117q-247 -71 -371 -228q-146 -186 -94 -465q80 10 128 -42q11 -11 37 -47q23 -31 40 -45q277 169 339 449z M1018 1181q-66 -128 -95 -197q73 -58 19 -194q-42 -106 -137 -215q-222 -257 -339 -158q-43 -44 -168 -142q-111 -87 -162 -149q128 -106 244 -71q145 44 287 176q93 87 248 281q205 255 277 429q128 304 -80 437q-28 -69 -94 -197zM1073 1410q-19 -2 -42 13q-22 14 -45 10 q-160 -310 -189 -386q20 -35 71 -47q84 137 205 410z" />
<glyph unicode="&#xa4;" horiz-adv-x="2677" d="M1282 660q-228 -2 -354 14v319q-444 -226 -870 -503q163 -82 437 -243q302 -178 433 -247v343q66 2 376 -1q231 -3 360 13q-19 43 -14 161q6 127 1 146q-64 2 -369 -2zM2203 1189q-283 164 -429 245q-2 -27 1 -179q3 -111 -13 -164q-274 1 -724 0v-319q66 -2 376 2 q232 3 360 -14v-319q644 357 858 503q-144 79 -429 245z" />
<glyph unicode="&#xa5;" horiz-adv-x="1262" d="M330 735q3 -26 49 -237q-124 196 -126 562q150 28 308 119q5 0 7 -21q-20 -16 -55 -38q-48 -30 -58 -37q-68 -47 -97 -100q-48 -90 -28 -248zM625 133q442 258 456 983q-160 28 -449 183q-252 -140 -457 -190q15 -691 450 -976zM133 1144q121 21 269 88q41 18 119 56 q75 37 111 53q328 -162 491 -197q-5 -787 -498 -1060q-489 303 -492 1060zM881 1299q-51 23 -129 65q-97 53 -127 68q-42 -18 -124 -62q-87 -47 -131 -67q-166 -77 -321 -82q-13 -448 130 -760q147 -321 446 -461q588 303 568 1221q-157 8 -312 78z" />
<glyph unicode="&#xa6;" horiz-adv-x="1074" d="M898 822q-91 -2 -123 3q-1 11 0 72q1 44 -4 68q-18 14 -39 -4q-92 -74 -226 -176q-67 -50 -66 -69q1 -18 73 -70q122 -88 162 -123q6 -4 19 -17q12 -13 19 -19q25 -20 52 -20q12 17 10 71q-2 61 3 78q21 1 120 0q74 -1 115 4q27 66 4 195q-36 9 -119 7zM456 106 q0 22 16 36q14 12 35 13t36 -9q17 -12 19 -34q3 -30 -29 -56q-77 -9 -77 50zM526 1346q11 0 39 1q25 1 38 1q40 -1 49 -19q-9 -11 -31 -11h-19q-14 1 -20 1h-76q-124 0 -143 10q-1 11 7 10q15 7 156 7zM960 530q-46 11 -92 0q-5 -50 -4 -162q2 -113 -3 -163q-82 1 -353 0 q-216 -1 -357 3q1 93 0 513q-1 315 3 509h359h351q6 -183 0 -322q50 -10 100 0q-4 52 -3 138q2 92 0 125q-5 133 -64 195q-50 54 -158 64q-23 2 -230 2h-255q-83 -8 -140 -72q-52 -60 -59 -140v-1008q6 -56 40 -109q33 -50 76 -74q69 -38 338 -26q44 2 125 0q78 -2 111 0 q91 5 154 70q63 66 65 159q0 23 -2 70q-2 52 -2 76v152z" />
<glyph unicode="&#xa7;" horiz-adv-x="1185" d="M605 129h-463q1 68 -1 360q-2 222 7 338h457v-698zM378 880q-57 2 -101 17q21 22 91 22q65 0 102 -16q-25 -25 -92 -23zM564 993q-26 1 -72 0q-58 -2 -75 -2q-264 0 -287 -6q-70 -18 -82 -99v-165v-451q0 -195 12 -217q23 -43 118 -49q32 -1 92 0q81 2 100 2q34 0 86 -2 q60 -3 78 -4q82 -2 118 18q40 22 47 107v397q-1 20 3 102q3 83 3 133q0 169 -36 205q-28 28 -105 31zM640 1125q-49 -8 -47 -64q77 -18 104 -33q39 -23 54 -72q3 -7 6 -49q1 -18 24 -22q14 -2 29 12q13 12 18 29q13 53 -26 114q-37 56 -86 74q-43 16 -76 11zM636 1275 q-54 -12 -37 -67q149 -7 230 -88q81 -80 81 -223q79 -28 70 88q-6 83 -79 169t-161 112q-61 19 -104 9zM833 1390q-88 36 -146 41q-91 8 -88 -65q18 -18 48 -18q5 0 26 1q16 1 26 0q170 -23 267 -151q87 -116 102 -301h47q44 87 -18 235q-75 180 -264 258z" />
<glyph unicode="&#xa8;" horiz-adv-x="1576" d="M1028 125q11 40 11 80q1 58 -26 61q32 -149 15 -141zM801 946q58 5 93 -36q30 -37 31 -93q0 -55 -31 -92q-34 -42 -93 -37v258zM680 944q-40 -33 -51 -76q-23 -98 27 -159q43 -54 122 -60q77 -6 134 37q63 49 61 135q-1 79 -55 125q-51 44 -124 39q-67 -4 -114 -41z M1333 188q-45 -35 -219 -8v23q46 36 219 8v-23zM1015 628q27 -2 57 -26t42 -54q13 -36 -8 -63q-47 20 -82 47q-49 38 -43 70q6 28 34 26zM975 135q-13 42 -8 90q6 51 29 71q28 24 71 -7q-3 -22 0 -67q3 -54 2 -70q-2 -74 -56 -66q-25 4 -38 49zM684 992q64 36 141 27 t129 -59q57 -55 59 -139q2 -97 -70 -157q-66 -55 -156 -52q-93 3 -149 66q-64 73 -48 198q24 78 94 116zM835 437q0 -68 -41 -69q-20 3 -30 38q-10 33 -6 71q3 41 19 60q19 21 48 3q11 -87 10 -103zM262 180v23q-2 13 8 16q55 -3 333 2q211 3 324 -18q2 -33 -55 -35 q-17 0 -51 2q-38 2 -51 2q-439 0 -508 8zM466 780q-77 -8 -118 18q-11 55 61 57q24 1 61 -4q52 -7 50 -6q28 -56 -54 -65zM571 536q-9 -8 -74 -51q-18 14 -32 31q34 61 59 85q45 44 90 17q-6 -49 -43 -82zM583 993q-27 14 -118 110q14 30 39 32q22 2 48 -18q58 -43 62 -100 q-32 -24 -31 -24zM835 1160q0 -66 -34 -73q-22 0 -35 34q-12 32 -9 72q3 42 19 62q19 23 49 4q10 -69 10 -99zM997 1001q-7 14 -16 16q9 55 51 93q45 42 90 16q-19 -102 -125 -125zM1178 779q-30 -1 -103 11q2 13 -8 15q-3 26 22 40q23 12 60 13q35 0 64 -10q30 -10 34 -27 q0 -40 -69 -42zM1536 1071q2 184 2 193q-6 119 -41 143q-42 30 -157 26q-29 -1 -92 -6q-56 -4 -79 -4h-688q-331 0 -352 -8q-64 -23 -73 -143q-3 -39 -1 -106q4 -88 4 -103v-703q0 -199 0 -193q4 -110 31 -136q29 -27 141 -27q32 0 99 2t96 2h704q26 0 92 -3q73 -4 108 -5 q130 -2 167 24q34 23 40 136q-1 -6 -1 192v719z" />
<glyph unicode="&#xa9;" horiz-adv-x="1923" d="M662 316v-110h13q13 0 13 15v80q0 15 -13 15h-13zM382 316v-52h12q12 0 12 15v23q0 14 -12 14h-12zM175 303v-83q0 -15 12 -15q13 0 13 15v83q0 15 -13 15q-12 0 -12 -15zM784 233h23l-11 78zM968 316v-110h14q12 0 12 15v80q0 15 -12 15h-14zM1802 316v-110h13 q13 0 13 15v80q0 15 -13 15h-13zM1852 222q0 -37 -36 -37h-38v153h38q36 0 36 -38v-78zM1763 316h-42v-43h33v-22h-33v-45h42v-21h-66v153h66v-22zM1683 317l-46 -111h46v-21h-71v21l46 110h-44v22h69v-21zM1598 185h-24v153h24v-153zM1536 185q-2 6 -2 18v25q0 19 -16 19 h-8v-62h-24v153h36q36 0 36 -35v-12q0 -24 -16 -31q16 -7 16 -33v-24q0 -12 3 -18h-25zM1470 221q0 -38 -36 -38q-37 0 -37 38v80q0 39 37 39q36 0 36 -39v-80zM1389 316h-26v-131h-24v131h-25v22h75v-22zM1306 286h-22v17q0 15 -13 15q-12 0 -12 -15v-83q0 -15 12 -15 q13 0 13 15v22h22v-21q0 -38 -36 -38t-36 38v80q0 39 36 39t36 -39v-15zM1222 316h-42v-43h33v-22h-33v-45h42v-21h-66v153h66v-22zM1121 185h-36l-24 153h25l18 -125l18 125h23zM1018 222q0 -37 -36 -37h-38v153h38q36 0 36 -38v-78zM927 185h-25l-30 111v-111h-22v153h30 l25 -92v92h22v-153zM815 185l-4 27h-30l-4 -27h-22l24 153h36l24 -153h-24zM712 222q0 -37 -36 -37h-38v153h38q36 0 36 -38v-78zM623 316h-42v-43h33v-22h-33v-45h42v-21h-66v153h66v-22zM546 185h-63v153h24v-132h39v-21zM465 185h-24v153h24v-153zM430 280q0 -38 -36 -38 h-12v-57h-24v153h36q36 0 36 -38v-20zM341 185h-23v110l-17 -110h-23l-18 108v-108h-21v153h34l18 -109l16 109h34v-153zM224 221q0 -38 -37 -38q-36 0 -36 38v80q0 39 36 39q37 0 37 -39v-80zM138 286h-23v17q0 15 -12 15q-13 0 -13 -15v-83q0 -15 13 -15q12 0 12 15v22h23 v-21q0 -38 -36 -38t-36 38v80q0 39 36 39t36 -39v-15zM40 159h1833v212h-1833v-212zM1510 316v-47h10q14 0 14 16v15q0 16 -12 16h-12zM1421 303v-83q0 -15 13 -15q12 0 12 15v83q0 15 -12 15q-13 0 -13 -15zM711 63v-134q0 -64 60 -64t60 64v34h-38v-36q0 -25 -21 -25 q-20 0 -20 25v138q0 26 20 26q21 0 21 -26v-27h38v25q0 64 -60 64t-60 -64zM936 -74q0 -24 -21 -24q-20 0 -20 24v198h-41v-195q0 -65 60 -65t60 65v195h-38v-198zM990 88h42v-220h41v220h42v36h-125v-36zM198 -79l-20 203h-39l-19 -202l-22 202h-39l28 -256h56l14 137 l15 -137h54l28 256h-35zM353 -73q0 -25 -21 -25t-21 25v138q0 26 21 26t21 -26v-138zM271 63v-134q0 -64 61 -64q62 0 62 64v134q0 64 -62 64q-61 0 -61 -64zM499 -73q0 -25 -21 -25t-21 25v138q0 26 21 26t21 -26v-138zM416 63v-134q0 -64 62 -64q61 0 61 64v134 q0 64 -61 64q-62 0 -62 -64zM648 -71q0 -25 -20 -25h-23v184h23q20 0 20 -25v-134zM565 124v-256h64q60 0 60 63v130q0 63 -60 63h-64zM1121 88h42v-220h40v220h42v36h-124v-36zM1804 91q20 0 20 -26v-10h38v8q0 64 -59 64q-60 0 -60 -64q0 -39 40 -76q39 -36 39 -60 q0 -25 -21 -25t-21 25v18h-38v-16q0 -64 60 -64q61 0 61 64q0 40 -40 76q-39 37 -39 60q0 26 20 26zM1614 -132h110v36h-70v76h55v36h-55v72h70v36h-110v-256zM1263 -132h110v36h-70v76h56v36h-56v72h70v36h-110v-256zM1478 36q0 -27 -24 -27h-16v79h20q20 0 20 -27v-25z M1519 -61q0 43 -27 54q27 13 27 52v20q0 59 -60 59h-61v-256h40v104h14q27 0 27 -32v-41q0 -20 3 -31h41q-4 10 -4 31v40zM1545 -132h39v39h-39v-39zM158 458q0 32 -32 62q-32 29 -32 49t16 20q17 0 17 -20v-9h31v7q0 52 -48 52q-49 0 -49 -52q0 -32 32 -62t32 -49 q0 -21 -17 -21t-17 21v15h-31v-13q0 -53 49 -53t49 53zM206 556l24 -148h31l23 150v-150h31v209h-46l-22 -149l-24 149h-46v-209h29v148zM494 587h16q16 0 16 -21v-21q0 -22 -19 -22h-13v64zM494 493h11q22 0 22 -27v-33q0 -16 3 -25h33q-3 8 -3 25v32q0 36 -22 45 q21 10 21 42v17q0 48 -48 48h-50v-209h33v85zM1088 617h-42v-209h30v151l41 -151h34v209h-29v-125zM993 456q0 -21 -17 -21q-18 0 -18 21v113q0 20 18 20q17 0 17 -20v-113zM926 567v-109q0 -53 50 -53t50 53v109q0 52 -50 52t-50 -52zM904 408v209h-33v-90h-38v90h-32v-209 h32v89h38v-89h33zM1264 587v30h-89v-209h89v29h-57v62h46v30h-46v58h57zM386 580l16 -106h-31zM366 446h41l5 -38h34l-34 209h-48l-34 -209h31zM1364 617h-33v-209h33v209zM1843 458q0 32 -32 62q-33 29 -33 49t17 20q16 0 16 -20v-9h31v7q0 52 -48 52q-49 0 -49 -52 q0 -32 33 -62q32 -30 32 -49q0 -21 -17 -21t-17 21v15h-31v-13q0 -53 49 -53t49 53zM752 536q0 -20 -16 -20h-15v71h15q16 0 16 -20v-31zM688 617v-209h33v78h15q49 0 49 52v27q0 52 -49 52h-48zM1483 458v28h-31v-30q0 -21 -17 -21t-17 21v113q0 20 17 20t17 -20v-23h31v21 q0 52 -49 52t-49 -52v-109q0 -53 49 -53t49 53zM1534 569q0 20 17 20t17 -20v-113q0 -21 -17 -21t-17 21v113zM1601 458v109q0 52 -50 52t-50 -52v-109q0 -53 50 -53t50 53zM1651 559l41 -151h34v209h-29v-125l-34 125h-41v-209h29v151zM639 408v179h34v30h-101v-30h34v-179 h33zM676 663q136 -5 141 -4q23 5 52 29q27 22 45 24q28 2 50 -17q29 -25 51 -32q16 -5 153 0q-3 -5 4 69q-94 8 -150 58q-59 51 -68 139q-17 165 0 311q2 18 24 55q18 30 12 58q-4 23 -25 37q-20 12 -46 12q-63 -2 -66 -61q-1 -17 13 -42q16 -30 20 -43q31 -128 4 -335 q-23 -170 -218 -189q7 -74 4 -69zM1150 1258q-25 -34 -30 -50q30 -34 68 17q36 50 36 112q1 61 -34 111q-36 52 -70 22q6 -12 20 -35q15 -23 21 -35q22 -43 15 -87q-4 -25 -26 -55zM1112 1269q18 16 23 50q4 31 -6 60q-10 30 -30 38q-33 14 -40 -12q-4 -13 14 -31 q18 -19 18 -37t-15 -35q-16 -17 -17 -38q33 -13 53 5zM1199 1182q-18 -18 -15 -39q23 -19 48 3q14 13 37 50q50 81 40 173q-7 62 -46 123q-43 68 -79 38q1 -18 17 -37q27 -30 27 -31q34 -53 34 -127q-1 -73 -34 -123q1 0 -29 -30zM643 1183q-28 34 -28 33q-55 88 -28 185 q7 27 36 66q29 40 37 63q-10 16 -37 12q-67 -58 -83 -158q-16 -103 35 -188q22 -36 34 -48q26 -24 51 -5q0 20 -17 40zM769 1303q-16 20 -16 34q-1 15 14 35q16 20 18 37q-35 20 -56 -6q-18 -23 -18 -66t19 -66q21 -27 55 -7q0 19 -16 39zM692 1261q-21 30 -24 60 q-4 40 17 81q5 11 20 34q13 21 19 34q-15 16 -40 12q-55 -74 -61 -113q-9 -65 23 -127q34 -66 78 -34q-5 14 -32 53z" />
<glyph unicode="&#xaa;" d="M1021 769q11 -41 38 -148q23 -95 39 -148q-14 3 -54 17q-41 14 -62 18q-9 1 -24 2q-17 0 -24 1t-18 4q-13 4 -18 5q-21 4 -36 -4q-27 -14 -27 -45l10 -22q-3 -38 23 -64q15 -16 56 -38q47 -26 62 -33q-348 -76 -416 -88q-1 2 -28 116q-21 83 -53 235q-36 166 -52 236 q-10 42 -26 118q-18 83 -26 118q-22 96 -24 118q9 4 63 14q14 2 325 54q127 21 130 22q12 2 18 -12q1 -4 7 -30q13 -54 46 -173q31 -112 44 -174q4 -18 27 -99zM1001 469q-33 -61 -95 -43q-19 5 -42 19q-16 9 -19 15q-8 14 2 32q8 17 21 22q20 8 48 0q7 -2 45 -21 q37 -18 40 -24zM888 211q8 3 11 7q0 1 -3 8q3 1 -11 -2q-7 -2 -6 -5q2 2 -13 0q-2 -3 8 10q-3 7 23 1q12 -10 0 -19t-21 -6q2 3 12 6zM755 177q-5 -2 -29 -7q-1 2 -1 6q-1 4 -1 5q-2 0 -5 -1q-2 -1 -5 0q4 3 10 9q8 7 10 9q5 -1 13 -4t12 -4q-1 -3 -8 -2zM354 671 q-16 17 -24 27q-21 23 -20 30q0 3 28 25q19 16 25 27q-5 -1 -28 -22t-31 -21q-5 0 -22 23q-15 21 -54 93q-20 38 -23 45q-23 57 3 76q14 11 36 13q22 1 38 -9q11 -7 32 -34q14 -18 27 -77q15 -64 9 -76q-3 -6 -12 -13q-12 -8 -16 -13q7 1 20 12q12 10 23 11q0 1 8 -46 q9 -47 8 -45q3 -15 12 -40q8 -25 10 -37q-5 1 -25 25q-8 10 -24 26zM123 1174q-18 35 -11 71q1 7 7 15q6 11 8 15q20 17 48 16q27 -1 45 -16q55 -46 61 -135q2 -18 -5 -43q-8 -30 -9 -39q9 1 17 9q9 9 15 11q4 -9 -14 -24q-20 -17 -23 -19q-1 -2 -5 -6t-5 -7q13 5 27 18 q19 18 24 22q6 -34 30 -132q-5 5 -16 20q-10 14 -16 21q-21 22 -51 23q-18 19 -92 129q-35 52 -35 51zM52 1367q6 29 36 43q31 14 63 0q-7 3 70 -44q35 -21 69 -45q-18 -13 -24 -44t4 -60q-12 33 -53 73q-23 14 -55 10q-33 -5 -45 -25q-40 30 -47 37q-24 25 -18 55z M301 1425q16 -2 79 -29q17 -7 40 -19q30 -14 33 -16q-160 -37 -157 -34q6 -2 -31 22q-33 21 -33 25q-2 19 15 35q21 19 54 16zM660 1328q8 1 9 -1q-4 -5 -34 -9q-93 -15 -110 -14q5 5 32 9q53 9 103 15zM1024 260q4 -13 4 -12q0 -1 9 -5q-1 -3 -11 1q-7 -10 -16 -1 q-8 10 2 17q6 1 12 0zM1399 898q-7 8 -64 58q-104 92 -173 190q-4 8 -31 45q-22 30 -32 53q-3 6 -23 58q-18 45 -31 49q-45 14 -76 -49q-10 -21 -14 -60q-46 149 -51 154q-35 35 -165 11q-37 -6 -114 -17q-73 -11 -112 -18q-41 -8 -46 -7q-4 0 -39 17q-96 46 -125 51v1h-22 q-57 -14 -57 -61q-59 38 -73 43q-50 21 -83 -5q-16 -14 -24 -47v-19q6 -25 28 -45q6 -6 20 -17q14 -10 20 -16q-8 -35 -8 -32q-4 -43 40 -105q13 -18 47 -70q30 -45 45 -66q-36 -8 -48 -35q-8 -17 10 -62q39 -94 78 -144q61 -80 100 -121q32 -34 34 -39q4 -8 14 -57 q32 -155 66 -294q30 -125 27 -118q13 -36 48 -54q38 -19 159 7q17 4 59 12q37 7 59 12q40 10 39 10q2 -1 25 -17q43 -30 195 -94h3q-3 12 -36 27q-84 36 -82 35q-50 26 -44 22q-22 13 -23 18q-2 15 34 24q8 2 26 5q17 3 26 5q37 10 49 13q9 2 43 9q26 5 40 10q43 13 59 40 q9 -5 27 -10q19 -5 26 -8q4 -2 21 -20q34 -37 46 -48q44 -44 71 -54q-3 5 -32 29q-21 17 -50 46l-48 48q-3 11 -5 13q-1 0 -3 -3q-1 -2 -4 -2q-60 18 -144 67q-45 26 -51 42q-3 0 -2 -4t-2 -5q-13 3 -60 27q-85 42 -86 43q-45 30 -49 77q10 -3 37 -16q23 -12 39 -13 q43 -4 81 53q-6 10 -27 18q-24 9 -31 15q69 -10 226 -66q130 -47 206 -88q-6 -13 -22 -26q-22 -19 -26 -24q-8 -2 55 44q72 -47 129 -78q-7 16 -55 41q-18 10 -38 23q-100 67 -250 114q-39 123 -98 346q1 -5 -23 126q-1 3 -6 22q-4 14 -4 24q-1 0 26 -41q2 -1 10 -11 q7 -8 12 -14q22 -23 22 -27q1 -7 -5 -12q-7 -7 -9 -12q6 2 11 9q4 7 10 7q10 1 22 -17q23 -35 24 -57q1 -13 -4 -48q-4 -29 1 -43q2 9 3 40q0 27 7 38q8 -2 20 -12q12 -9 23 -10q-5 5 -15 11q-13 8 -16 11q-18 15 -12 36q35 1 32 1q-6 4 -19 4q-14 0 -19 3q-3 1 -16 20 q-13 20 -13 25q2 12 44 24q5 1 60 9q-4 5 -25 1q-51 -9 -57 -11q-27 -11 -24 -11q-13 0 -37 28q-22 26 -50 78q-20 37 -20 45q0 10 11 25q6 8 57 41q-54 -17 -73 -57q-7 6 -32 77q-27 79 -28 82q-10 63 15 113q23 44 58 39q15 -2 25 -27q2 -7 7 -22q4 -13 6 -19 q29 -66 58 -108q35 -52 111 -137q28 -31 85 -83q58 -54 82 -81q57 -92 122 -305q9 -9 7 -8v4q-22 102 -57 183q-54 123 -85 156zM739 176q7 2 11 3q1 17 -15 14t-8 -19q5 0 12 2zM1017 258q-12 0 -7 -13q4 -3 9 -2t6 5q4 10 -8 10zM1408 291q8 8 10 17q-51 -39 -56 -41 q-5 2 33 11q2 3 13 13zM1037 377q16 32 32 43q0 3 -2 3q-28 -20 -30 -46zM1101 427q-1 1 -2 0q-3 -4 -32 -54q21 20 33 53q1 0 1 1z" />
</font>
</defs>
</svg>
